<?xml version="1.0" encoding="UTF-8"?>
<svg xmlns="http://www.w3.org/2000/svg" xmlns:xlink="http://www.w3.org/1999/xlink" viewBox="0 0 1083.62 1147.22">
  <defs>
    <radialGradient id="uuid-e6bb0abf-4b78-45f9-94a3-290537f7547e" cx="98.43" cy="582.89" fx="98.43" fy="582.89" r="22.58" gradientUnits="userSpaceOnUse">
      <stop offset="0" stop-color="#f14942"/>
      <stop offset=".05" stop-color="#f15041"/>
      <stop offset=".28" stop-color="#f46a3f"/>
      <stop offset=".51" stop-color="#f67d3e"/>
      <stop offset=".75" stop-color="#f7893d"/>
      <stop offset="1" stop-color="#f88d3d"/>
    </radialGradient>
    <radialGradient id="uuid-2a993a75-0258-4430-bbd2-5933ffbd7617" cx="98.43" cy="582.89" fx="98.43" fy="582.89" r="12.55" gradientUnits="userSpaceOnUse">
      <stop offset="0" stop-color="#fff"/>
      <stop offset="0" stop-color="#fefefd"/>
      <stop offset=".14" stop-color="#fdfacc"/>
      <stop offset=".28" stop-color="#fcf6a2"/>
      <stop offset=".41" stop-color="#faf27f"/>
      <stop offset=".55" stop-color="#faf065"/>
      <stop offset=".7" stop-color="#f9ee52"/>
      <stop offset=".84" stop-color="#f9ed46"/>
      <stop offset="1" stop-color="#f9ed43"/>
    </radialGradient>
    <radialGradient id="uuid-4759c530-19e6-4d48-b181-4d1684c7035a" cx="982.4" fx="982.4" xlink:href="#uuid-e6bb0abf-4b78-45f9-94a3-290537f7547e"/>
    <radialGradient id="uuid-e0a5d369-47c7-4023-a949-f898873634ee" cx="982.4" fx="982.4" xlink:href="#uuid-2a993a75-0258-4430-bbd2-5933ffbd7617"/>
    <radialGradient id="uuid-c4f01442-8aec-40db-aca2-2ae326a184e9" cx="205.51" cy="724.76" fx="205.51" fy="724.76" r="61.2" gradientUnits="userSpaceOnUse">
      <stop offset="0" stop-color="#fff"/>
      <stop offset="1" stop-color="#f26739"/>
    </radialGradient>
    <radialGradient id="uuid-b532d00f-7f57-454a-8560-f3a4c22ddcbf" cx="205.51" cy="724.76" fx="205.51" fy="724.76" r="50.61" xlink:href="#uuid-c4f01442-8aec-40db-aca2-2ae326a184e9"/>
    <radialGradient id="uuid-12ee6132-dff4-44c7-beb4-ba4ba341207e" cx="205.51" cy="724.76" fx="205.51" fy="724.76" r="49.7" xlink:href="#uuid-c4f01442-8aec-40db-aca2-2ae326a184e9"/>
    <radialGradient id="uuid-f3bc9045-923e-4f69-8df5-82b88d56dd3a" cx="346.45" cy="917.87" fx="367.37" fy="917.87" r="20.99" gradientUnits="userSpaceOnUse">
      <stop offset="0" stop-color="#fff"/>
      <stop offset="1" stop-color="#c9c9c9"/>
    </radialGradient>
    <radialGradient id="uuid-41efd0c5-fdda-4231-ae58-6c8854258363" cx="346.45" cy="917.87" fx="358.24" fy="917.87" r="11.83" xlink:href="#uuid-f3bc9045-923e-4f69-8df5-82b88d56dd3a"/>
    <radialGradient id="uuid-bf527434-86e4-41cf-a1d8-ce787da37f92" cx="254.99" cy="917.87" fx="284.89" fy="917.87" r="30" gradientUnits="userSpaceOnUse">
      <stop offset="0" stop-color="#fff"/>
      <stop offset="1" stop-color="#f36543"/>
    </radialGradient>
    <radialGradient id="uuid-40706074-0d10-4000-b0ad-974511c3468c" cx="254.99" cy="917.87" fx="275.91" fy="917.87" r="20.99" xlink:href="#uuid-bf527434-86e4-41cf-a1d8-ce787da37f92"/>
    <radialGradient id="uuid-7a3eb560-41e3-46b5-83e3-79b101f1299d" cx="254.99" cy="917.87" fx="267.36" fy="917.87" r="12.41" gradientUnits="userSpaceOnUse">
      <stop offset="0" stop-color="#fff"/>
      <stop offset="1" stop-color="#f9ed43"/>
    </radialGradient>
    <radialGradient id="uuid-ad76d4f1-6654-4ffc-a380-c9b87a82f719" cx="13818.06" cy="5453.05" fx="13838.99" fy="5453.05" r="20.99" gradientTransform="translate(14552.28 6370.92) rotate(-180)" xlink:href="#uuid-f3bc9045-923e-4f69-8df5-82b88d56dd3a"/>
    <radialGradient id="uuid-3d344232-d985-4bef-8ac2-d2c79b1e4c0e" cx="13818.06" cy="5453.05" fx="13829.85" fy="5453.05" r="11.83" gradientTransform="translate(14552.28 6370.92) rotate(-180)" xlink:href="#uuid-f3bc9045-923e-4f69-8df5-82b88d56dd3a"/>
    <radialGradient id="uuid-fc04afb9-a7f6-43bc-b2b6-97c511b77325" cx="13726.6" cy="5453.05" fx="13756.5" fy="5453.05" r="30" gradientTransform="translate(14552.28 6370.92) rotate(-180)" xlink:href="#uuid-bf527434-86e4-41cf-a1d8-ce787da37f92"/>
    <radialGradient id="uuid-0676feb2-32c0-455a-803d-53738bdc7635" cx="13726.6" cy="5453.05" fx="13747.53" fy="5453.05" r="20.99" gradientTransform="translate(14552.28 6370.92) rotate(-180)" xlink:href="#uuid-bf527434-86e4-41cf-a1d8-ce787da37f92"/>
    <radialGradient id="uuid-5c54ba09-e5f7-4936-bcc7-75630b1dc28f" cx="13726.6" cy="5453.05" fx="13738.97" fy="5453.05" r="12.41" gradientTransform="translate(14552.28 6370.92) rotate(-180)" xlink:href="#uuid-7a3eb560-41e3-46b5-83e3-79b101f1299d"/>
    <radialGradient id="uuid-4f7f0da5-7adb-47bd-af43-346a7193f751" cx="880.16" fx="880.16" r="61.2" xlink:href="#uuid-c4f01442-8aec-40db-aca2-2ae326a184e9"/>
    <radialGradient id="uuid-2b4b4d0f-a80c-4ebb-8d2c-be0840fad22a" cx="880.16" cy="724.76" fx="880.16" fy="724.76" r="50.61" xlink:href="#uuid-c4f01442-8aec-40db-aca2-2ae326a184e9"/>
    <radialGradient id="uuid-e47602d6-ace8-474c-8104-41ce0c959566" cx="880.16" cy="724.76" fx="880.16" fy="724.76" r="49.7" xlink:href="#uuid-c4f01442-8aec-40db-aca2-2ae326a184e9"/>
  </defs>
  <g style="isolation: isolate;">
    <g id="uuid-fffb8c11-7477-49f4-a493-71cb8a2caeb1" data-name="Layer 2">
      <g id="uuid-86759a05-9dda-46af-85db-f44980350960" data-name="Layer 1">
        <g>
          <rect x="69.04" y="199.63" width="945.54" height="235.01" style="fill: #bcbec0;"/>
          <path d="m448.27,367.69v66.95H175.96v-66.95c0-53.21,43.14-96.34,96.35-96.34h79.62c53.2,0,96.34,43.13,96.34,96.34Z" style="fill: #fff;"/>
          <path d="m962.95,969.5v168.37c0,5.16-4.19,9.35-9.35,9.35h-96.96c-5.16,0-9.35-4.19-9.35-9.35v-168.37h115.66Z"/>
          <path d="m236.33,969.5v168.37c0,5.16-4.19,9.35-9.35,9.35h-96.96c-5.16,0-9.35-4.19-9.35-9.35v-168.37h115.66Z"/>
          <rect x="69.04" y="526.23" width="945.54" height="443.27" style="fill: #ccc;"/>
          <rect x="69.04" y="859.33" width="945.54" height="110.17" style="fill: #2e3192;"/>
          <rect x="69.04" y="843.85" width="945.54" height="15.47" style="fill: #00aeef;"/>
          <rect x="176.86" y="859.32" width="7.75" height="110.17"/>
          <rect x="384.83" y="892.01" width="311" height="51.71" style="fill: #fff200;"/>
          <path d="m382.75,889.93v55.88h315.16v-55.88h-315.16Zm313.08,53.79h-311v-51.71h311v51.71Z"/>
          <rect x="69.04" y="103.61" width="462.01" height="96.02" style="fill: #fff200;"/>
          <path d="m419.07,391.15c0,6.35-5.15,11.49-11.5,11.49h-91.82v32h-15.34v-32h-83.4c-6.35,0-11.5-5.14-11.5-11.49s5.15-11.5,11.5-11.5h190.56c6.35,0,11.5,5.14,11.5,11.5Z"/>
          <rect x="552.57" y="103.61" width="462.01" height="96.02" style="fill: #fff200;"/>
          <circle cx="887.04" cy="621.5" r="37.86" style="fill: #f0f0f0; stroke: #00ac5e; stroke-miterlimit: 10; stroke-width: 6.2px;"/>
          <polygon points="293.04 562.98 783.57 562.98 735.59 829.99 347.62 829.99 293.04 562.98" style="fill: #5b5752;"/>
          <g>
            <path d="m865.08,626.96v-12.4h3.53c1.07,0,1.92.26,2.55.79.63.52.94,1.21.94,2.05,0,.7-.19,1.31-.57,1.83-.38.52-.9.89-1.57,1.11v.03c.84.1,1.5.41,2.01.95.5.53.75,1.23.75,2.08,0,1.06-.38,1.92-1.14,2.58-.76.66-1.72.99-2.88.99h-3.61Zm1.45-11.08v4h1.49c.8,0,1.42-.19,1.88-.57.46-.38.68-.92.68-1.62,0-1.2-.79-1.81-2.38-1.81h-1.67Zm0,5.31v4.46h1.97c.85,0,1.51-.2,1.98-.6s.7-.96.7-1.66c0-1.46-1-2.2-2.99-2.2h-1.67Z" style="fill: #231300; stroke: #00ac5e; stroke-miterlimit: 10; stroke-width: 1.55px;"/>
            <path d="m874.65,626.46v-1.71c.2.17.43.33.7.47s.56.25.86.35.61.17.91.22c.31.05.59.08.85.08.89,0,1.56-.17,2-.5.44-.33.66-.81.66-1.43,0-.33-.07-.62-.22-.87-.15-.25-.35-.47-.61-.68s-.57-.4-.92-.59c-.35-.19-.74-.38-1.15-.59-.43-.22-.84-.44-1.21-.67-.37-.22-.7-.47-.98-.74s-.49-.58-.65-.92-.24-.74-.24-1.21c0-.56.12-1.06.37-1.47.25-.42.57-.76.98-1.03.4-.27.86-.47,1.38-.6.52-.13,1.04-.2,1.58-.2,1.22,0,2.11.15,2.67.44v1.63c-.73-.51-1.67-.76-2.82-.76-.32,0-.63.03-.95.1-.32.07-.6.17-.85.32-.25.15-.45.34-.6.58-.16.24-.23.52-.23.86,0,.32.06.59.18.82.12.23.29.44.52.63.23.19.51.37.84.55s.71.37,1.15.59c.44.22.86.45,1.26.69.4.24.75.51,1.05.8s.54.62.71.98c.18.36.26.77.26,1.23,0,.61-.12,1.13-.36,1.55-.24.42-.56.77-.97,1.03s-.87.46-1.4.57c-.53.12-1.09.18-1.68.18-.2,0-.44-.02-.73-.05s-.58-.08-.88-.14c-.3-.06-.58-.14-.85-.22-.27-.09-.48-.19-.64-.3Z" style="fill: #231300; stroke: #00ac5e; stroke-miterlimit: 10; stroke-width: 1.55px;"/>
            <path d="m888.97,622.59h-4.72v-1.12h4.72v1.12Z" style="fill: #231300; stroke: #00ac5e; stroke-miterlimit: 10; stroke-width: 1.55px;"/>
            <path d="m899.22,614.56v1.24h-1.21v9.91h1.21v1.24h-3.87v-1.24h1.21v-9.91h-1.21v-1.24h3.87Z" style="fill: #231300; stroke: #00ac5e; stroke-miterlimit: 10; stroke-width: 1.55px;"/>
            <path d="m910.48,614.56l-4.59,12.4h-1.6l-4.49-12.4h1.62l3.43,9.83c.11.32.19.68.25,1.1h.03c.05-.35.14-.72.29-1.12l3.5-9.81h1.56Z" style="fill: #231300; stroke: #00ac5e; stroke-miterlimit: 10; stroke-width: 1.55px;"/>
          </g>
          <g>
            <path d="m505.29,602.81c-.23-.71-.31-1.13-.88-6.1-.2-1.99-.45-2.27-1.02-2.27h-.68v8.37h-4.45v-21.47h6.5c3.86,0,4.85,1.65,4.85,5.79,0,4.43-.62,4.74-1.84,5.45v.17c.23.2.48.37.68.88.31.68.62,1.96.94,4.45.43,3.49.45,3.97.65,4.6v.14h-4.74Zm-1.33-12.37c.82,0,1.13-.57,1.13-2.55,0-1.7-.37-2.13-1.25-2.13h-1.13v4.68h1.25Z" style="fill: #fff;"/>
            <path d="m511.36,602.81v-4.28h4.45v4.28h-4.45Z" style="fill: #fff;"/>
            <path d="m523.58,588c.03-.28.03-.43.03-.94,0-1.33-.23-1.76-1.3-1.76s-1.28.43-1.28,1.76c0,1.25.31,1.59,1.02,2.01,1.7.99,2.84,1.25,3.94,1.99,1.25.88,1.82,1.87,1.82,5.45,0,5.11-1.28,6.67-5.62,6.67-3.55,0-5.16-1.16-5.16-4.54,0-1.08.06-2.33.23-3.01h3.72c-.06.23-.06.48-.06.79,0,1.65.23,2.18,1.36,2.18s1.39-.37,1.39-2.18c0-1.11-.31-1.53-1.08-2.07-1.39-.94-3.18-1.36-4.34-2.41-1.16-1.02-1.25-2.72-1.25-5.56,0-4.03,1.08-5.42,5.3-5.42,3.83,0,5.19,1.11,5.19,4.74,0,1.16-.06,1.76-.23,2.3h-3.69Z" style="fill: #fff;"/>
            <path d="m528.83,602.81v-4.28h4.45v4.28h-4.45Z" style="fill: #fff;"/>
            <path d="m542.25,602.81c-.23-.71-.31-1.13-.88-6.1-.2-1.99-.45-2.27-1.02-2.27h-.68v8.37h-4.45v-21.47h6.5c3.86,0,4.85,1.65,4.85,5.79,0,4.43-.62,4.74-1.84,5.45v.17c.23.2.48.37.68.88.31.68.62,1.96.94,4.45.43,3.49.45,3.97.65,4.6v.14h-4.74Zm-1.33-12.37c.82,0,1.13-.57,1.13-2.55,0-1.7-.37-2.13-1.25-2.13h-1.13v4.68h1.25Z" style="fill: #fff;"/>
            <path d="m548.32,602.81v-4.28h4.45v4.28h-4.45Z" style="fill: #fff;"/>
            <path d="m555.5,602.81v-16.93h-3.38v-4.54h11.2v4.54h-3.38v16.93h-4.45Z" style="fill: #fff;"/>
            <path d="m562.67,602.81v-4.28h4.45v4.28h-4.45Z" style="fill: #fff;"/>
            <path d="m579.64,594.58c.06.68.09,1.33.09,1.93,0,4.57-.74,6.67-5.53,6.67-2.84,0-4.17-.45-4.91-1.76-.74-1.25-1.05-2.89-1.05-9.53s.31-7.91,1.05-9.22c.74-1.28,2.07-1.7,4.77-1.7,4.82,0,5.62,1.76,5.62,6.33,0,.54-.03,1.19-.06,1.9h-4.17c0-2.27-.09-2.89-.2-3.29-.08-.37-.45-.54-1.19-.54s-.99.17-1.11.54c-.2.57-.28,1.28-.28,5.93s.09,5.42.28,6.04c.11.37.4.51,1.25.51.6,0,.91-.14,1.02-.48.28-.79.31-1.56.31-3.32h4.11Z" style="fill: #fff;"/>
            <path d="m580.91,602.81v-4.28h4.45v4.28h-4.45Z" style="fill: #fff;"/>
          </g>
          <rect x="552.57" y="434.64" width="462.01" height="85.69" style="fill: #fff;"/>
          <rect x="73.47" y="562.98" width="49.93" height="39.83" style="fill: url(#uuid-e6bb0abf-4b78-45f9-94a3-290537f7547e);"/>
          <rect x="84.56" y="571.83" width="27.74" height="22.13" style="fill: url(#uuid-2a993a75-0258-4430-bbd2-5933ffbd7617);"/>
          <rect x="957.44" y="562.98" width="49.93" height="39.83" style="fill: url(#uuid-4759c530-19e6-4d48-b181-4d1684c7035a);"/>
          <rect x="968.53" y="571.83" width="27.74" height="22.13" style="fill: url(#uuid-e0a5d369-47c7-4023-a949-f898873634ee);"/>
          <rect x="135.69" y="673.62" width="139.65" height="102.28" rx="32.51" ry="32.51" style="fill: url(#uuid-c4f01442-8aec-40db-aca2-2ae326a184e9);"/>
          <rect x="147.77" y="682.47" width="115.48" height="84.58" rx="28.79" ry="28.79" style="fill: url(#uuid-b532d00f-7f57-454a-8560-f3a4c22ddcbf); mix-blend-mode: screen;"/>
          <rect x="162.7" y="693.4" width="85.62" height="62.71" rx="22.19" ry="22.19" style="fill: url(#uuid-12ee6132-dff4-44c7-beb4-ba4ba341207e); mix-blend-mode: screen;"/>
          <polygon points="714.47 781.66 367.51 781.66 349.98 696.48 729.58 696.48 714.47 781.66" style="fill: #8b5e3c;"/>
          <path d="m584.96,814.32s-10.79.03-13.49.3c-19.23,7.74-39.33,7.74-59.34.06-2.69-.32-13.48-.36-13.48-.36v-16.08s10.79.02,13.48.11c20.01,5.92,39.44,4.58,59.34-.02,2.7-.08,13.49-.1,13.49-.1v16.08Z" style="fill: #00aeef;"/>
          <circle cx="346.52" cy="829.99" r="11.06" style="fill: #231300;"/>
          <circle cx="735.59" cy="829.99" r="11.06" style="fill: #231300;"/>
          <g>
            <path d="m407.75,932.56v-30.52h5.75v30.52h-5.75Zm2.29-12.27v-5.54h10.61c.89,0,1.61-.33,2.15-.99s.81-1.52.83-2.6c0-1.08-.27-1.94-.81-2.6s-1.26-.99-2.17-.99h-10.61v-5.54h11.07c1.69,0,3.17.38,4.44,1.13,1.27.75,2.25,1.82,2.95,3.19.7,1.37,1.05,2.97,1.05,4.8s-.35,3.43-1.06,4.8c-.71,1.37-1.69,2.43-2.95,3.19-1.26.76-2.73,1.13-4.43,1.13h-11.07Zm13.82,12.27l-7.4-13.21,6.15-.96,8.22,14.18h-6.96Z" style="fill: #231f20;"/>
            <path d="m440.59,932.87c-1.86,0-3.52-.36-4.99-1.09-1.47-.73-2.61-1.75-3.42-3.08l4.7-3.42c.5.64,1.11,1.14,1.81,1.49.71.35,1.44.52,2.21.52,1.1,0,1.96-.39,2.56-1.16.6-.78.9-1.87.9-3.28v-20.79h5.96v20.81c0,3.17-.85,5.64-2.55,7.38-1.7,1.75-4.09,2.62-7.18,2.62Z" style="fill: #231f20;"/>
            <path d="m477.07,932.87c-3.03,0-5.31-.78-6.84-2.34-1.52-1.56-2.29-3.67-2.29-6.32v-13.86c0-2.7.77-4.82,2.31-6.36,1.54-1.54,3.81-2.31,6.82-2.31s5.3.77,6.83,2.3c1.53,1.53,2.3,3.65,2.3,6.37v13.86c0,2.7-.77,4.82-2.31,6.36-1.54,1.54-3.81,2.31-6.82,2.31Zm0-5.54c1.2,0,2.07-.41,2.59-1.23.52-.82.79-1.94.79-3.37v-10.93c0-1.44-.26-2.57-.79-3.38s-1.39-1.22-2.59-1.22-2.05.41-2.58,1.22c-.53.81-.8,1.94-.8,3.38v10.93c0,1.43.27,2.55.8,3.37.53.82,1.39,1.23,2.58,1.23Z" style="fill: #231f20;"/>
            <path d="m495.19,932.56l6.63-15.14,1.03.75c-.36.66-.9,1.13-1.61,1.43-.71.29-1.54.44-2.47.44-2.32,0-4.19-.81-5.61-2.44-1.42-1.63-2.13-3.79-2.13-6.49v-.02c0-2.96.78-5.26,2.34-6.89,1.56-1.63,3.76-2.44,6.6-2.44s5.03.82,6.59,2.46c1.55,1.64,2.33,3.97,2.33,6.97v.02c0,1.24-.21,2.58-.62,4-.41,1.42-.92,2.85-1.52,4.29l-5.45,13.07h-6.08Zm4.76-17.89c1.01,0,1.79-.33,2.34-.98.55-.65.83-1.57.83-2.76v-.02c0-1.15-.28-2.03-.83-2.65-.55-.62-1.33-.93-2.34-.93s-1.81.31-2.36.94c-.55.63-.83,1.52-.83,2.66v.02c0,1.19.28,2.1.83,2.75.55.64,1.34.96,2.36.96Z" style="fill: #231f20;"/>
            <path d="m525.85,932.56v-30.5h5.75v30.5h-5.75Zm2.62-11.83v-5.54h9.75c1.03,0,1.87-.35,2.52-1.04.64-.69.96-1.6.96-2.74s-.32-2.09-.95-2.78c-.64-.69-1.48-1.04-2.53-1.04h-9.75v-5.54h9.61c1.93,0,3.61.39,5.04,1.16,1.43.78,2.55,1.86,3.35,3.26.8,1.4,1.2,3.04,1.2,4.93s-.4,3.51-1.2,4.91c-.8,1.4-1.92,2.48-3.36,3.25-1.44.77-3.12,1.15-5.03,1.15h-9.61Z" style="fill: #231f20;"/>
            <path d="m547.77,932.56l11.66-30.5h3.65l11.66,30.5h-6.19l-7.3-20.83-7.3,20.83h-6.19Zm5.6-4.89v-5.54h16.05v5.54h-16.05Z" style="fill: #231f20;"/>
            <path d="m589.01,927.88v-5.29l9.4-20.51h6.5l-9.14,20.26h13.7v5.54h-20.45Zm12.31,4.7v-17.95h5.75v17.95h-5.75Z" style="fill: #231f20;"/>
            <path d="m617.41,932.56l6.63-15.14,1.03.75c-.36.66-.9,1.13-1.61,1.43-.71.29-1.54.44-2.47.44-2.32,0-4.19-.81-5.61-2.44-1.42-1.63-2.13-3.79-2.13-6.49v-.02c0-2.96.78-5.26,2.34-6.89,1.56-1.63,3.76-2.44,6.6-2.44s5.03.82,6.59,2.46c1.55,1.64,2.33,3.97,2.33,6.97v.02c0,1.24-.21,2.58-.62,4-.41,1.42-.92,2.85-1.52,4.29l-5.45,13.07h-6.08Zm4.76-17.89c1.01,0,1.79-.33,2.34-.98.55-.65.83-1.57.83-2.76v-.02c0-1.15-.28-2.03-.83-2.65-.55-.62-1.33-.93-2.34-.93s-1.81.31-2.36.94c-.55.63-.83,1.52-.83,2.66v.02c0,1.19.28,2.1.83,2.75.55.64,1.34.96,2.36.96Z" style="fill: #231f20;"/>
            <path d="m642.52,932.87c-2.82,0-5.02-.8-6.58-2.41-1.56-1.61-2.34-3.87-2.34-6.8v-.02c0-1.31.19-2.7.57-4.16.38-1.46.89-2.89,1.55-4.29l6.19-13.13h6.5l-7.34,15.21-1.45-.75c.73-1.38,2.02-2.08,3.88-2.08,2.53,0,4.49.79,5.87,2.38s2.08,3.83,2.08,6.72v.02c0,2.95-.78,5.24-2.34,6.87-1.56,1.63-3.76,2.44-6.6,2.44Zm0-5.54c1.03,0,1.82-.3,2.37-.89.55-.59.82-1.44.82-2.53v-.02c0-1.25-.27-2.21-.82-2.89-.55-.69-1.34-1.03-2.37-1.03s-1.79.35-2.34,1.04c-.55.69-.83,1.66-.83,2.91v.02c0,1.09.28,1.93.83,2.52.55.59,1.33.88,2.34.88Z" style="fill: #231f20;"/>
            <path d="m672.87,902.06v3.82l-6.84,26.68h-6.23l6.63-24.96h-5.24v4.59h-5.75v-10.13h17.43Z" style="fill: #231f20;"/>
          </g>
          <g>
            <circle cx="346.45" cy="917.87" r="20.99" style="fill: url(#uuid-f3bc9045-923e-4f69-8df5-82b88d56dd3a);"/>
            <circle cx="346.45" cy="917.87" r="11.83" style="fill: url(#uuid-41efd0c5-fdda-4231-ae58-6c8854258363);"/>
          </g>
          <circle cx="254.99" cy="917.87" r="30" style="fill: url(#uuid-bf527434-86e4-41cf-a1d8-ce787da37f92);"/>
          <circle cx="254.99" cy="917.87" r="20.99" style="fill: url(#uuid-40706074-0d10-4000-b0ad-974511c3468c); mix-blend-mode: screen;"/>
          <circle cx="254.99" cy="917.87" r="12.41" style="fill: url(#uuid-7a3eb560-41e3-46b5-83e3-79b101f1299d); mix-blend-mode: screen;"/>
          <g>
            <circle cx="734.22" cy="917.87" r="20.99" style="fill: url(#uuid-ad76d4f1-6654-4ffc-a380-c9b87a82f719);"/>
            <circle cx="734.22" cy="917.87" r="11.83" style="fill: url(#uuid-3d344232-d985-4bef-8ac2-d2c79b1e4c0e);"/>
          </g>
          <g>
            <circle cx="825.68" cy="917.87" r="30" style="fill: url(#uuid-fc04afb9-a7f6-43bc-b2b6-97c511b77325);"/>
            <circle cx="825.68" cy="917.87" r="20.99" style="fill: url(#uuid-0676feb2-32c0-455a-803d-53738bdc7635); mix-blend-mode: screen;"/>
            <circle cx="825.68" cy="917.87" r="12.41" style="fill: url(#uuid-5c54ba09-e5f7-4936-bcc7-75630b1dc28f); mix-blend-mode: screen;"/>
          </g>
          <rect x="69.04" y="434.64" width="462.01" height="85.68" style="fill: #a7a9ac;"/>
          <polygon points="1004.83 90.76 78.79 90.76 237.45 4 846.17 4 1004.83 90.76" style="fill: #b1b0b0;"/>
          <path d="m1056.5,299.88c-.53,0-1.05.05-1.58.08l-34.43-100.86h0s0-104.34,0-104.34L847.2,0H236.42L63.14,94.76v104.39l-34.44,100.81c-.53-.03-1.05-.08-1.59-.08-14.97,0-27.11,12.14-27.11,27.11v80.53c0,14.98,12.14,27.12,27.11,27.12s27.12-12.14,27.12-27.12v-80.53c0-11.59-7.29-21.45-17.52-25.33l26.43-78.21v751.94h957.34V223.45l26.42,78.21c-10.22,3.88-17.51,13.74-17.51,25.33v80.53c0,14.98,12.14,27.12,27.11,27.12s27.12-12.14,27.12-27.12v-80.53c0-14.97-12.14-27.11-27.12-27.11ZM237.45,4h608.72l158.66,86.76H78.79L237.45,4ZM69.04,103.61h462.01v416.71H69.04V103.61Zm945.54,865.88h-110.77v-110.17h-7.76v110.17H69.04v-443.27h945.54v443.27Zm0-449.17h-462.01V103.61h462.01v416.71Z"/>
          <rect x="810.33" y="673.62" width="139.65" height="102.28" rx="32.51" ry="32.51" style="fill: url(#uuid-4f7f0da5-7adb-47bd-af43-346a7193f751);"/>
          <rect x="822.42" y="682.47" width="115.48" height="84.58" rx="28.79" ry="28.79" style="fill: url(#uuid-2b4b4d0f-a80c-4ebb-8d2c-be0840fad22a); mix-blend-mode: screen;"/>
          <rect x="837.35" y="693.4" width="85.62" height="62.71" rx="22.19" ry="22.19" style="fill: url(#uuid-e47602d6-ace8-474c-8104-41ce0c959566); mix-blend-mode: screen;"/>
          <g>
            <path d="m260.65,140.48h-11.63v13.44h-25.26c-4.02,0-7.85.4-11.48,1.19-3.64.8-6.99,1.99-10.05,3.58-3.06,1.45-5.36,3.13-6.89,5.04-1.53,1.9-2.3,3.86-2.3,5.87,0,2.35.74,4.5,2.22,6.44,1.48,1.94,3.78,3.74,6.89,5.4,3.11,1.66,6.43,2.91,9.98,3.74,3.73.76,7.61,1.14,11.63,1.14,6.6,0,12.32-.61,17.15-1.82,4.83-1.21,8.97-3.07,12.42-5.57l4.16,1.46c-1.82,1.39-4.26,2.81-7.32,4.27-2.68,1.11-5.84,2.15-9.47,3.12-3.16.76-6.7,1.39-10.62,1.88-3.92.49-7.85.73-11.77.73-5.55,0-10.67-.47-15.36-1.41-4.69-.94-8.88-2.34-12.56-4.22-3.68-1.88-6.51-3.97-8.47-6.3-1.96-2.33-2.94-4.88-2.94-7.66s.84-5.12,2.51-7.45c1.67-2.33,4.28-4.5,7.82-6.51,3.54-2.01,7.44-3.52,11.7-4.53,4.26-1.01,8.78-1.51,13.56-1.51h21.53v-10.31h-61.86v-3.33h86.41v3.33Z" style="fill: #ed1c24;"/>
            <path d="m232.36,112.87c1.15.14,2.01.31,2.58.52l2.29.62,1.58.42,1.29.42,1.58.42,1.58.83,33.57,15.56,5.63,2.47c2.01.49,3.68.73,5.02.73v2.08h-12.36c-.86,0-2.4-.31-4.6-.93-1.25-.34-2.37-.72-3.38-1.13-1.01-.41-2.42-1.03-4.24-1.86l-30.57-14.8c-.57-.29-1.38-.61-2.44-.94-1.05-.33-2.34-.68-3.87-1.05-1.53-.37-3.53-.55-6.02-.55h-4.44v-2.81h16.78Zm68.04,24.27v3.33h-14.35v42.71c0,.77.17,1.44.5,2.03.33.59.98,1.13,1.94,1.61l2.87,1.15,3.59.31v2.08h-30.43v-2.19c.38.07.96.1,1.72.1.29,0,.91-.09,1.87-.26.96-.17,1.84-.5,2.66-.99.81-.48,1.51-1.06,2.08-1.72.57-.66.86-1.34.86-2.03v-42.81h-13.35v-3.33h40.05Z" style="fill: #ed1c24;"/>
            <path d="m278.45,119.02c1.24-.35,2.54-.52,3.88-.52h2.44l1.87.53c.86.35,1.68.91,2.44,1.69.29.42.53,1.16.72,2.21v1.37l-.88,1.16c-.59.56-1.51,1.05-2.78,1.48l-4.1.42h-2.19l-2.19-.62c-.97-.42-1.75-.94-2.34-1.56-.58-.62-.88-1.39-.88-2.29l.43-1.35.86-1.15c.57-.62,1.48-1.08,2.73-1.35Z" style="fill: #ed1c24;"/>
            <path d="m425.85,140.48h-58.99v12.5c3.44-1.6,7.18-2.88,11.2-3.85,2.39-.55,4.54-.92,6.46-1.09,1.91-.17,3.73-.26,5.45-.26,4.21,0,8.04.43,11.48,1.29,3.44.86,6.65,2.15,9.62,3.87,2.96,1.72,5.19,3.67,6.67,5.83,1.48,2.17,2.22,4.39,2.22,6.66s-.74,4.54-2.22,6.61c-1.48,2.07-3.66,3.99-6.53,5.78-2.68,1.52-5.89,2.82-9.62,3.92-3.44.83-7.32,1.24-11.63,1.24h-5.88l-2.15-.41-2.73-.41-2.3-.61c-.48-.07-.77-.14-.86-.2l-.72-.2-1.72-.41-1.44-.61v-2.14l5.45.73h7.03c3.35,0,6.34-.29,8.97-.89,2.63-.59,5.02-1.51,7.18-2.76,2.15-1.25,3.83-2.69,5.02-4.32,1.2-1.63,1.79-3.39,1.79-5.26,0-1.67-.57-3.25-1.72-4.74-1.15-1.49-2.9-2.9-5.24-4.22-2.35-1.32-5.05-2.36-8.11-3.12-1.15-.28-2.56-.52-4.23-.73-1.68-.21-3.28-.31-4.81-.31-1.44,0-2.54.07-3.3.21-1.05,0-1.82.07-2.3.21l-2.01.21-2.44.31c-.96.14-1.96.38-3.01.73-1.34.21-2.54.59-3.59,1.15v27.99c0,.77.17,1.48.5,2.14.33.66.88,1.17,1.65,1.51l2.87,1.15,3.59.31v2.09h-30.14v-2.19h1.58c.38,0,.96-.08,1.72-.26.76-.17,1.58-.5,2.44-.98.86-.48,1.58-1.07,2.15-1.75.29-.41.52-1.06.72-1.96v-5.26c-4.12,1.7-8.06,2.96-11.84,3.77-3.78.82-7.54,1.23-11.27,1.23-4.12,0-7.97-.41-11.55-1.24-3.59-.83-6.91-2.13-9.98-3.92-3.06-1.65-5.34-3.53-6.82-5.63-1.48-2.1-2.22-4.35-2.22-6.76,0-2.27.72-4.46,2.15-6.56s3.64-4.01,6.6-5.73c2.96-1.72,6.32-3.06,10.05-4.03,3.92-.9,7.84-1.34,11.77-1.34h3.3c1.44,0,2.53.07,3.3.21,1.05,0,2.1.14,3.16.42l3.3.73c1.91.42,3.71.96,5.38,1.61,1.67.66,3.23,1.41,4.66,2.24v-12.5h-58.42v-3.33h130.33v3.33Zm-98.75,12.6c-2.58.62-4.95,1.55-7.1,2.76-2.15,1.22-3.9,2.69-5.24,4.43-1.05,1.67-1.58,3.4-1.58,5.21,0,1.94.55,3.68,1.65,5.21,1.1,1.53,2.7,2.92,4.81,4.17,2.1,1.25,4.59,2.26,7.46,3.02,2.77.56,5.79.83,9.04.83h2.3c2.3,0,4.74-.2,7.32-.6,2.58-.54,5.31-1.34,8.18-2.42v-20.62l-4.31-1.25-4.74-1.04-4.59-.52-4.16-.21c-3.25-.14-6.27.21-9.04,1.04Z" style="fill: #ed1c24;"/>
          </g>
          <g>
            <path d="m693.37,137.3v3.33h-14.5v42.71c0,.77.17,1.46.5,2.08.33.62.98,1.18,1.94,1.67l3.16,1.04,3.59.31v2.08h-30.72v-2.19c.38.07.96.1,1.72.1.29,0,.91-.09,1.87-.26.96-.17,1.84-.5,2.66-.99.81-.48,1.51-1.06,2.08-1.72.57-.66.86-1.34.86-2.03v-42.81h-13.49v-3.33h40.33Zm-29.28-14.17c1.91-1.88,4.97-3.71,9.19-5.52,3.73-1.46,8.13-2.64,13.2-3.54,5.07-.9,10.62-1.35,16.65-1.35,7.18,0,13.87.55,20.09,1.66,6.22,1.11,11.86,2.7,16.94,4.77,5.07,2.07,9.28,4.6,12.63,7.57,3.06,2.63,5.26,5.74,6.6,9.33l-14.5-.62c-.57-2.9-2.11-5.56-4.59-7.98-2.2-2.42-5.29-4.61-9.26-6.58-3.97-1.97-8.32-3.45-13.06-4.46-4.74-1-9.69-1.5-14.86-1.5-4.31,0-8.09.38-11.34,1.14-3.54.62-6.7,1.69-9.47,3.21-2.78,1.38-4.95,2.94-6.53,4.67-1.58,1.73-2.37,3.59-2.37,5.6,0,1.31.45,2.54,1.36,3.68.91,1.14,2.27,2.09,4.09,2.85h-12.34c-1.63-.48-2.94-1.28-3.95-2.4-1-1.11-1.51-2.46-1.51-4.06,0-2.29,1-4.44,3.01-6.46Z" style="fill: #ed1c24;"/>
            <path d="m785.66,140.63h-15.5v12.5h-28.56c-2.78,0-5.07.17-6.89.51-2.3.21-4.16.58-5.6,1.12-1.72.41-3.06.95-4.02,1.63-.57.54-.96,1.23-1.15,2.04,0,.68.38,1.28,1.15,1.79.76.51,2.1,1.07,4.02,1.68l5.74,1.12,6.75.31h17.22c2.77,0,5.48.3,8.11.89,2.63.59,5.05,1.48,7.25,2.66,2.1.97,3.73,2.22,4.88,3.75,1.15,1.25,1.72,2.71,1.72,4.38,0,2.08-.89,4.05-2.66,5.89-1.77,1.84-4.45,3.53-8.04,5.05-3.59,1.53-7.68,2.71-12.27,3.54-2.01.28-4.31.52-6.89.73-2.58.21-5.12.31-7.61.31-2.97,0-5.91-.14-8.83-.42-2.92-.28-5.72-.73-8.4-1.36-5.45-1.25-10.53-3.08-15.21-5.48-4.69-2.4-8.47-5.13-11.34-8.2-2.87-3.06-4.98-6.54-6.32-10.44l5.31-.1c.86,3.27,2.51,6.16,4.95,8.67,2.44,2.51,5.76,4.86,9.98,7.05,4.21,2.19,8.61,3.8,13.2,4.81,4.59,1.01,9.57,1.51,14.93,1.51,2.87,0,4.88-.05,6.03-.16,1.15-.1,2.63-.33,4.45-.68,3.16-.56,5.98-1.4,8.47-2.51,2.49-1.12,4.42-2.37,5.81-3.77,1.39-1.4,2.08-2.9,2.08-4.5,0-1.12-.36-2.15-1.08-3.09-.72-.94-1.89-1.87-3.52-2.77-1.63-.91-3.33-1.57-5.1-1.99-1.77-.42-3.9-.63-6.39-.63h-14.5c-1.92,0-3.78-.03-5.6-.1-1.82-.07-3.59-.21-5.31-.42-3.25-.42-6.32-1.04-9.19-1.88-2.87-.83-5-1.79-6.39-2.86-1.39-1.08-2.08-2.2-2.08-3.39,0-1.04.5-1.98,1.51-2.81,1-.83,2.75-1.74,5.24-2.71,2.01-.69,4.38-1.25,7.1-1.67,2.73-.42,5.67-.62,8.83-.62h24.26v-9.38h-65.02v-3.33h94.44v3.33Z" style="fill: #ed1c24;"/>
            <path d="m875.22,140.63h-13.92v42.71c0,.77.17,1.44.5,2.03.33.59.98,1.13,1.94,1.61l2.73,1.15,3.44.31v2.08h-30v-2.19c.38.07.96.1,1.72.1.29,0,.86-.09,1.72-.26.86-.17,1.77-.52,2.73-1.05.96-.52,1.63-1.05,2.01-1.57.38-.52.67-1.24.86-2.15v-15.39c-1.53,1.74-3.49,3.37-5.88,4.9-.77.49-1.84,1.08-3.23,1.77-1.39.69-2.75,1.32-4.09,1.87-2.49.9-5.31,1.7-8.47,2.4-1.44.21-2.87.38-4.31.52-1.44.14-2.97.21-4.59.21-4.59,0-8.8-.47-12.63-1.4-3.83-.93-7.25-2.32-10.26-4.15s-5.31-3.95-6.89-6.34c-1.58-2.39-2.37-4.87-2.37-7.43v-2.49l.72-2.6,1-2.49,1.58-2.49c1.05-1.45,2.49-3.08,4.31-4.88,1.24-1.11,2.15-1.9,2.73-2.39.57-.48,1.58-1.25,3.01-2.29l-19.38-.1v-3.33h95.02v3.33Zm-75.21,25.55c1.15,1.59,2.93,3.22,5.33,4.88,2.4,1.52,4.99,2.67,7.77,3.43s5.76,1.14,8.93,1.14c2.21,0,4.41-.24,6.62-.73s4.66-1.31,7.34-2.49c2.01-.9,4.2-2.13,6.55-3.69s4.49-3.31,6.41-5.25v-22.85h-34.98c-5.09,3.46-8.97,6.86-11.66,10.18-2.69,3.32-4.03,6.51-4.03,9.55,0,2.01.57,3.95,1.73,5.82Z" style="fill: #ed1c24;"/>
            <path d="m846.07,113.03c1.15.14,2.01.31,2.58.52l2.29.62,1.58.42,1.29.42,1.58.42,1.58.83,33.57,15.56,5.63,2.47c2.01.49,3.68.73,5.02.73v2.08h-12.36c-.86,0-2.4-.31-4.6-.93-1.25-.34-2.37-.72-3.38-1.13-1.01-.41-2.42-1.03-4.24-1.86l-30.57-14.8c-.57-.29-1.38-.61-2.44-.94-1.05-.33-2.34-.68-3.87-1.05-1.53-.37-3.53-.55-6.02-.55h-4.44v-2.81h16.78Zm68.04,24.27v3.33h-14.35v42.71c0,.77.17,1.44.5,2.03.33.59.98,1.13,1.94,1.61l2.87,1.15,3.59.31v2.08h-30.43v-2.19c.38.07.96.1,1.72.1.29,0,.91-.09,1.87-.26.96-.17,1.84-.5,2.66-.99.81-.48,1.51-1.06,2.08-1.72.57-.66.86-1.34.86-2.03v-42.81h-13.35v-3.33h40.05Z" style="fill: #ed1c24;"/>
          </g>
          <g>
            <path d="m179.16,199.63c0,33.39-27.06,60.45-60.44,60.45-20.59,0-38.77-10.29-49.68-26v-34.45h110.12Z" style="fill: #ed1c24; stroke: #ed1c24; stroke-miterlimit: 10;"/>
            <path d="m300.04,199.63c0,33.38-27.06,60.44-60.44,60.44s-60.44-27.06-60.44-60.44h120.88Z" style="fill: #ed1c24; stroke: #ed1c24; stroke-miterlimit: 10;"/>
            <path d="m420.93,199.63c0,33.38-27.06,60.44-60.44,60.44s-60.44-27.06-60.44-60.44h120.88Z" style="fill: #ed1c24; stroke: #ed1c24; stroke-miterlimit: 10;"/>
            <path d="m531.05,199.63v34.44c-10.91,15.72-29.1,26.01-49.68,26.01-33.38,0-60.44-27.06-60.44-60.45h110.12Z" style="fill: #ed1c24; stroke: #ed1c24; stroke-miterlimit: 10;"/>
            <path d="m662.7,199.63c0,33.39-27.07,60.45-60.45,60.45-20.58,0-38.77-10.29-49.68-26.01v-34.44h110.13Z" style="fill: #ed1c24; stroke: #ed1c24; stroke-miterlimit: 10;"/>
            <path d="m783.58,199.63c0,33.38-27.06,60.44-60.44,60.44s-60.44-27.06-60.44-60.44h120.88Z" style="fill: #ed1c24; stroke: #ed1c24; stroke-miterlimit: 10;"/>
            <path d="m904.46,199.63c0,33.38-27.06,60.44-60.44,60.44s-60.44-27.06-60.44-60.44h120.88Z" style="fill: #ed1c24; stroke: #ed1c24; stroke-miterlimit: 10;"/>
            <path d="m1014.58,199.63v34.45c-10.91,15.71-29.09,26-49.67,26-33.39,0-60.45-27.06-60.45-60.45h110.12Z" style="fill: #ed1c24; stroke: #ed1c24; stroke-miterlimit: 10;"/>
          </g>
          <polygon points="715.4 614.36 701.58 679.61 384.25 679.61 368.22 614.36 715.4 614.36" style="fill: #00aeef;"/>
          <g>
            <path d="m685.04,474.92c-.21-.07-.38-.16-.52-.26-.14-.07-.27-.13-.39-.18s-.16-.08-.13-.08c-.03-.03-.12-.09-.26-.16.07.04.13.07.18.1.05.04.11.07.18.1.14.1.28.2.42.29.14.09.28.18.42.29l.1.1h-7.79c-.66,0-1.32,0-1.96.03-.65.02-1.3.08-1.96.18-.91.14-1.8.35-2.69.63-.89.28-1.72.7-2.48,1.25-1.5,1.08-2.44,2.55-2.82,4.39-.21,1.12-.23,2.27-.05,3.45.17,1.19.45,2.32.84,3.4.66,1.71,1.55,3.17,2.67,4.39,1.81.52,3.63.71,5.44.58,1.01-.1,1.99-.3,2.93-.6.94-.3,1.86-.71,2.76-1.23,1.9-1.08,3.49-2.6,4.77-4.55.24.1.42.19.55.26.12.07.29.17.5.31l2.35,1.41s.24.17.6.39c.37.23.75.47,1.15.73.4.26.76.5,1.07.71.31.21.47.33.47.37-.8,1.19-1.76,2.24-2.88,3.16-1.12.92-2.34,1.65-3.66,2.17-1.83.77-3.75,1.12-5.74,1.05-2-.07-3.9-.52-5.71-1.36-.28-.1-.54-.23-.78-.37-.24-.14-.51-.3-.78-.47-1.05-.59-2.08-1.19-3.11-1.8-1.03-.61-2.05-1.26-3.06-1.96-.52-.38-1.04-.76-1.54-1.12-.51-.37-1-.79-1.49-1.28-1.46-1.46-2.53-3.12-3.19-4.97-.38-1.08-.66-2.21-.84-3.4-.17-1.19-.14-2.35.1-3.5.21-.87.56-1.68,1.05-2.43.49-.75,1.1-1.39,1.83-1.91.77-.52,1.59-.93,2.46-1.23.87-.3,1.76-.51,2.67-.65.66-.07,1.32-.11,1.96-.13.64-.02,1.3-.03,1.96-.03h7.79c.21.07.38.14.52.21.21.14.38.24.52.31.03.04.12.09.26.16-.07-.03-.13-.07-.18-.1-.05-.03-.11-.07-.18-.1-.17-.1-.33-.21-.47-.31-.31-.17-.47-.3-.47-.37v-5.54h-20.61c-.21-.07-.37-.14-.47-.21-.07-.07-.16-.12-.26-.16-.1-.03-.19-.09-.26-.16-.91-.49-1.71-.98-2.41-1.46-.38-.24-.77-.48-1.15-.71-.38-.23-.77-.48-1.15-.76-.17-.1-.32-.2-.44-.29-.12-.09-.25-.18-.39-.29l-.1-.1h37.08c.07.04.15.07.24.1.09.04.17.07.24.1.07.07.16.12.26.16.1.04.19.09.26.16.38.24.78.48,1.18.71.4.23.81.48,1.23.76.38.24.77.49,1.15.73.38.24.77.49,1.15.73.17.1.32.21.44.31.12.1.25.19.39.26l.1.1h-9.83v9.68Z" style="fill: red;"/>
            <path d="m708.31,465.24h-9.05v34.57c-.21-.07-.38-.16-.52-.26-.14-.07-.27-.13-.39-.18-.12-.05-.16-.08-.13-.08-.38-.24-.77-.48-1.17-.71-.4-.23-.79-.48-1.17-.76-.38-.24-.77-.49-1.17-.73-.4-.24-.79-.49-1.17-.73-.17-.1-.33-.21-.47-.31-.31-.17-.47-.3-.47-.37v-30.44h-2.41c-.07-.03-.15-.07-.24-.1-.09-.03-.17-.07-.24-.1-.07-.07-.16-.12-.26-.16-.1-.03-.19-.09-.26-.16-.91-.49-1.71-.98-2.41-1.46-.38-.24-.77-.49-1.15-.73-.38-.24-.77-.49-1.15-.73-.17-.1-.32-.21-.44-.31-.12-.1-.25-.19-.39-.26l-.1-.1h18.1c.21.07.37.14.47.21.07.07.16.12.26.16.1.04.19.09.26.16.38.24.78.48,1.18.71.4.23.79.48,1.18.76.38.24.78.48,1.18.71.4.23.79.48,1.18.76.14.1.28.2.42.29.14.09.28.18.42.29l.1.1Z" style="fill: red;"/>
            <path d="m688.54,458.23l.1.1-.1-.1-1.88-1.73c-.17-.17-.35-.34-.52-.5-.17-.16-.35-.32-.52-.5-1.08-1.01-2.14-2-3.19-2.98-1.05-.98-2.11-1.95-3.19-2.93l-.16-.16c-.17-.14-.32-.27-.44-.39-.12-.12-.27-.25-.44-.39-.42-.38-.85-.78-1.28-1.2-.44-.42-.86-.82-1.28-1.2-.24-.21-.49-.43-.73-.65-.24-.23-.49-.44-.73-.65-.17-.17-.35-.35-.52-.52-.17-.17-.35-.37-.52-.58-.24-.24-.48-.53-.71-.86-.23-.33-.41-.68-.55-1.05-.14-.37-.24-.73-.29-1.1s0-.74.13-1.12l.05-.1c.17-.42.44-.75.81-.99.37-.24.78-.43,1.23-.55.45-.12.92-.19,1.39-.21.47-.02.9-.03,1.28-.03.21.07.38.14.52.21.21.14.38.24.52.31l2.35,1.41c.38.28.78.53,1.18.76.4.23.79.48,1.18.76.14.1.27.2.39.29.12.09.27.18.44.29l.1.1h-1.15c-.66.07-1.35.22-2.07.44-.71.23-1.21.65-1.49,1.28-.07.1-.11.22-.13.34-.02.12-.04.24-.08.34-.07.8.11,1.57.55,2.3.44.73.93,1.36,1.49,1.88.35.35.69.67,1.02.97.33.3.69.62,1.07.97.56.49,1.11.99,1.65,1.52.54.52,1.09,1.03,1.65,1.52,1.22,1.15,2.45,2.29,3.69,3.43,1.24,1.13,2.47,2.28,3.69,3.43.07.04.14.09.21.16.31.28.62.56.92.84.3.28.58.56.86.84l-6.49-3.97Z" style="fill: red;"/>
            <path d="m699.42,452.27c.45.38.81.84,1.07,1.36.26.52.39,1.08.39,1.67,0,1.01-.37,1.9-1.1,2.67-.73.77-1.62,1.15-2.67,1.15-.45,0-.98-.09-1.57-.26-.17-.07-.36-.17-.55-.29-.19-.12-.37-.24-.55-.34-.59-.31-1.17-.65-1.73-.99-.56-.35-1.12-.71-1.67-1.1-.49-.35-.92-.72-1.31-1.12-.38-.4-.66-.9-.84-1.49-.17-.59-.21-1.18-.1-1.75s.35-1.11.73-1.6c.38-.45.83-.82,1.33-1.1.51-.28,1.06-.42,1.65-.42.66,0,1.26.12,1.78.37.45.21.9.45,1.33.73.44.28.86.56,1.28.84.42.28.85.54,1.28.78.44.24.85.54,1.23.89Zm-4.55,3.35c1.05-.77,1.57-1.8,1.57-3.09,0-.17,0-.34-.03-.5-.02-.16-.04-.32-.08-.5-.52.1-1.01.3-1.46.58-.45.28-.82.66-1.1,1.15-.56.94-.7,1.95-.42,3.03.52-.1,1.03-.33,1.52-.68Z" style="fill: red;"/>
            <path d="m729.97,468.75v.37c1.01-.28,2.03-.37,3.06-.29,1.03.09,2.01.36,2.96.81.17.07.36.15.55.24.19.09.37.18.55.29.7.38,1.39.79,2.09,1.23.7.44,1.39.88,2.09,1.33.59.38,1.18.75,1.78,1.1.59.35,1.15.77,1.67,1.26.94.84,1.66,1.74,2.14,2.72.56,1.08.89,2.22.99,3.43.1,1.2-.04,2.36-.42,3.48-.38,1.12-.95,2.12-1.7,3.01-.75.89-1.63,1.6-2.64,2.12-1.22.63-2.51.96-3.87.99-1.36.04-2.67-.21-3.92-.73-.28-.1-.55-.24-.81-.39-.26-.16-.51-.32-.76-.5-.45-.28-.89-.54-1.31-.78-.42-.24-.84-.5-1.26-.78-.21-.14-.41-.27-.6-.39-.19-.12-.39-.25-.6-.39v13.13c-.21-.07-.38-.16-.52-.26-.28-.17-.44-.26-.47-.26-.42-.24-.83-.49-1.23-.73-.4-.24-.79-.49-1.18-.73-.38-.24-.77-.49-1.15-.73-.38-.24-.77-.49-1.15-.73-.04-.03-.2-.14-.5-.31-.3-.17-.44-.3-.44-.37v-5.28c-1.01.28-2.03.38-3.06.29-1.03-.09-2.01-.36-2.96-.81-.17-.07-.36-.15-.55-.24-.19-.09-.38-.18-.55-.29-.73-.38-1.45-.79-2.14-1.23-.7-.44-1.4-.88-2.09-1.33-.59-.38-1.18-.76-1.75-1.12s-1.12-.78-1.65-1.23c-.91-.8-1.64-1.71-2.2-2.72-.52-1.08-.84-2.22-.94-3.43-.1-1.2.04-2.36.42-3.48.38-1.12.95-2.12,1.7-3.01.75-.89,1.63-1.6,2.64-2.12,1.22-.63,2.51-.96,3.87-.99,1.36-.03,2.67.21,3.92.73.28.1.54.24.78.39.24.16.51.32.78.5.42.28.84.54,1.28.78.44.24.86.51,1.28.78.21.14.41.27.6.39.19.12.39.25.6.39v-7.58h-17.99c-.21-.07-.37-.14-.47-.21-.07-.07-.16-.12-.26-.16-.1-.03-.19-.09-.26-.16-.91-.49-1.71-.98-2.41-1.46-.38-.24-.77-.48-1.15-.71-.38-.23-.77-.48-1.15-.76-.17-.1-.32-.2-.44-.29-.12-.09-.25-.18-.39-.29l-.1-.1h47.65c.07.04.15.07.24.1.09.04.17.07.24.1.07.07.16.12.26.16.1.04.19.09.26.16.38.24.78.48,1.18.71.4.23.79.48,1.18.76.38.24.78.49,1.18.73.4.24.79.49,1.18.73.17.1.32.21.44.31.12.1.25.19.39.26l.1.1h-23.01v3.5Zm-9.26,15.32c.84-.84,1.48-1.8,1.94-2.9.45-1.1.68-2.24.68-3.43v-4.5c-1.57-.38-3.14-.37-4.71.05s-2.91,1.22-4.03,2.41c-.8.84-1.43,1.8-1.88,2.9-.45,1.1-.66,2.26-.63,3.48.07,1.64.52,3.16,1.36,4.55.17.04.34.06.5.08.16.02.32.03.5.03,1.18-.03,2.33-.28,3.43-.73,1.1-.45,2.05-1.1,2.85-1.94Zm11.87-8.47c-.84.84-1.48,1.8-1.94,2.9-.45,1.1-.68,2.24-.68,3.43v4.5c1.57.38,3.14.37,4.71-.05,1.57-.42,2.91-1.22,4.03-2.41.8-.87,1.43-1.85,1.88-2.93.45-1.08.66-2.23.63-3.45-.07-1.64-.52-3.17-1.36-4.6-.17,0-.34,0-.5-.03s-.32,0-.5.03c-1.19,0-2.33.23-3.43.68-1.1.45-2.05,1.1-2.85,1.94Z" style="fill: red;"/>
            <path d="m761.24,481.95c-.1-.02-.19-.06-.26-.13-.21-.14-.38-.24-.52-.31l-2.35-1.41c-.38-.28-.78-.53-1.18-.76-.4-.23-.79-.48-1.18-.76-.14-.07-.27-.16-.39-.26-.12-.1-.27-.21-.44-.31l-.1-.1h11.04c.07.04.16.07.26.1.1.04.19.07.26.1.07.07.15.12.24.16.09.04.18.09.29.16.38.24.78.48,1.18.71.4.23.79.48,1.18.76.38.24.78.49,1.18.73.4.24.79.49,1.18.73.14.1.27.21.39.31.12.1.27.19.44.26,0,.07.03.1.1.1h-11.04c-.07-.03-.16-.06-.26-.08Z" style="fill: red;"/>
            <path d="m823.64,465.14l.1.1h-47.18c-.1-.03-.26-.12-.47-.26-.1-.07-.2-.12-.29-.16-.09-.03-.17-.07-.24-.1-.42-.24-.83-.49-1.23-.73-.4-.24-.79-.49-1.18-.73-.73-.45-1.5-.96-2.3-1.52-.17-.07-.32-.16-.44-.26-.12-.1-.25-.21-.39-.31l-.1-.1h47.18c.1.04.26.12.47.26.07.07.16.12.26.16.1.04.19.09.26.16l2.35,1.41c.38.28.78.53,1.18.76.4.23.79.48,1.18.76.31.17.59.37.84.58Zm-8.68,9.94c.31.17.59.37.84.58l.1.1h-16.53c.21.31.42.63.63.94.21.31.42.65.63.99.84,1.43,1.55,2.91,2.14,4.45.31.84.58,1.71.78,2.62.21.91.3,1.81.26,2.72-.07.91-.28,1.74-.63,2.51-.35.77-.87,1.45-1.57,2.04-.73.59-1.54,1.06-2.43,1.41-.89.35-1.8.47-2.75.37-.45-.03-.9-.12-1.33-.26-.44-.14-.85-.3-1.23-.47-.91-.45-1.78-.93-2.62-1.44-.84-.51-1.66-1.02-2.46-1.54-.56-.38-1.12-.75-1.67-1.1-.56-.35-1.08-.73-1.57-1.15-.87-.7-1.67-1.46-2.38-2.3-.72-.84-1.37-1.71-1.96-2.62-1.33-2.02-2.44-4.16-3.35-6.41s-1.64-4.56-2.2-6.93c.14.04.31.12.52.26.07.07.16.12.26.16.1.04.19.09.26.16.38.21.78.44,1.18.68.4.24.79.49,1.18.73.38.24.78.49,1.18.73.4.24.79.51,1.18.78.31.18.59.37.84.58l.1.1c.38,1.74.87,3.38,1.46,4.92.38,1.15.84,2.29,1.36,3.43.52,1.13,1.08,2.24,1.67,3.32.45.73.92,1.46,1.39,2.17.47.71.98,1.4,1.54,2.07,1.39.1,2.75-.23,4.08-.99.38-.28.77-.58,1.15-.89.38-.31.71-.66.99-1.05.49-.7.82-1.48.99-2.35.17-.91.2-1.8.08-2.69-.12-.89-.32-1.75-.6-2.59-.28-.84-.59-1.65-.94-2.43-.35-.78-.73-1.56-1.15-2.33-.28-.45-.55-.9-.81-1.33-.26-.44-.53-.86-.81-1.28-.07-.07-.1-.1-.08-.1h16.55c.1,0,.26.07.47.21.07.07.16.12.26.16.1.04.19.09.26.16l2.35,1.41c.38.28.78.53,1.18.76.4.23.79.48,1.18.76Zm-27.56,13.91c-.07-.07-.12-.1-.16-.1s.02.04.16.1Z" style="fill: red;"/>
            <path d="m824.95,465.24h-9.05v34.57c-.21-.07-.38-.16-.52-.26-.14-.07-.27-.13-.39-.18-.12-.05-.16-.08-.13-.08-.38-.24-.77-.48-1.17-.71-.4-.23-.79-.48-1.17-.76-.38-.24-.77-.49-1.17-.73-.4-.24-.79-.49-1.17-.73-.17-.1-.33-.21-.47-.31-.31-.17-.47-.3-.47-.37v-30.44h-2.41c-.07-.03-.15-.07-.24-.1-.09-.03-.17-.07-.24-.1-.07-.07-.16-.12-.26-.16-.1-.03-.19-.09-.26-.16-.91-.49-1.71-.98-2.41-1.46-.38-.24-.77-.49-1.15-.73-.38-.24-.77-.49-1.15-.73-.17-.1-.32-.21-.44-.31-.12-.1-.25-.19-.39-.26l-.1-.1h18.1c.21.07.37.14.47.21.07.07.16.12.26.16.1.04.19.09.26.16.38.24.78.48,1.18.71.4.23.79.48,1.18.76.38.24.78.48,1.18.71.4.23.79.48,1.18.76.14.1.28.2.42.29.14.09.28.18.42.29l.1.1Z" style="fill: red;"/>
            <path d="m857.43,465.24h-24.53c.8.59,1.46,1.31,1.96,2.14.51.84.9,1.74,1.18,2.72.21.8.35,1.65.42,2.54.07.89-.04,1.75-.31,2.59-.42,1.36-1.29,2.49-2.62,3.4-.56.35-1.14.63-1.75.84-.61.21-1.25.38-1.91.52-.42.07-.84.12-1.26.16-.42.04-.85.05-1.31.05-.04,0-.09,0-.16-.03-.07-.02-.09,0-.05.08.07.28.14.49.21.63.66,2.02,1.62,3.82,2.88,5.39,1.08.18,2.17.18,3.27.03,1.1-.16,2.15-.43,3.16-.81.91-.31,1.75-.72,2.54-1.23.78-.5,1.51-1.11,2.17-1.8.87-.98,1.53-2.04,1.99-3.19.21-.45.37-.96.47-1.52.21.07.38.16.52.26.14.07.26.14.37.21.1.07.14.09.1.05.38.24.78.48,1.18.71.4.23.81.48,1.23.76.38.24.77.49,1.15.73.38.24.77.49,1.15.73.17.1.33.21.47.31.1.07.21.14.31.21.1.07.16.12.16.16-.07.35-.14.63-.21.84-.42,1.36-1.1,2.58-2.04,3.66-.94,1.08-2.04,1.94-3.3,2.56-1.01.49-2.07.87-3.19,1.15-.59.14-1.19.25-1.78.34-.59.09-1.19.11-1.78.08-1.01,0-1.95-.16-2.82-.47-.49-.17-.94-.35-1.36-.52-.87-.45-1.72-.93-2.54-1.44-.82-.5-1.65-1.02-2.48-1.54-.7-.45-1.4-.92-2.12-1.39-.72-.47-1.37-1-1.96-1.6-.31-.28-.6-.58-.86-.89-.26-.31-.53-.64-.81-.99-.77-1.08-1.45-2.27-2.04-3.56-.14-.35-.27-.68-.39-.99-.12-.31-.24-.64-.34-.99,0-.03.07-.05.21-.05h.5c.16,0,.32-.02.5-.05,1.22-.07,2.45-.31,3.69-.73,1.24-.42,2.26-1.12,3.06-2.09.56-.66.95-1.4,1.18-2.22.23-.82.3-1.65.24-2.48-.07-1.12-.28-2.2-.63-3.24h-8.68c-.1-.03-.26-.12-.47-.26-.17-.1-.35-.19-.52-.26-.42-.28-.83-.53-1.23-.76-.4-.23-.79-.46-1.18-.71-.73-.45-1.5-.96-2.3-1.52-.17-.07-.32-.16-.44-.26-.12-.1-.25-.21-.39-.31l-.1-.1h36.93c.17.04.33.12.47.26.1.07.2.12.29.16.09.04.18.09.29.16.38.21.78.44,1.18.68.4.24.79.49,1.18.73.38.28.78.53,1.18.76.4.23.79.48,1.18.76.31.17.59.37.84.58l.1.1Z" style="fill: red;"/>
            <path d="m859.47,465.24h-9.05v34.57c-.21-.07-.38-.16-.52-.26-.14-.07-.27-.13-.39-.18-.12-.05-.16-.08-.13-.08-.38-.24-.77-.48-1.17-.71-.4-.23-.79-.48-1.17-.76-.38-.24-.77-.49-1.17-.73-.4-.24-.79-.49-1.17-.73-.17-.1-.33-.21-.47-.31-.31-.17-.47-.3-.47-.37v-30.44h-2.41c-.07-.03-.15-.07-.24-.1-.09-.03-.17-.07-.24-.1-.07-.07-.16-.12-.26-.16-.1-.03-.19-.09-.26-.16-.91-.49-1.71-.98-2.41-1.46-.38-.24-.77-.49-1.15-.73-.38-.24-.77-.49-1.15-.73-.17-.1-.32-.21-.44-.31-.12-.1-.25-.19-.39-.26l-.1-.1h18.1c.21.07.37.14.47.21.07.07.16.12.26.16.1.04.19.09.26.16.38.24.78.48,1.18.71.4.23.79.48,1.18.76.38.24.78.48,1.18.71.4.23.79.48,1.18.76.14.1.28.2.42.29.14.09.28.18.42.29l.1.1Z" style="fill: red;"/>
            <path d="m862.45,467.75v8.89c0,1.05.1,2.09.31,3.14s.56,2.02,1.05,2.93c1.08.14,2.18.12,3.3-.05,1.12-.17,2.14-.56,3.09-1.15,1.01-.66,1.82-1.51,2.43-2.54.61-1.03,1.04-2.14,1.28-3.32.21.1.38.19.52.26.14.07.26.13.37.18.1.05.14.08.1.08.42.24.82.48,1.2.71.38.23.77.48,1.15.76.42.24.82.49,1.2.73.38.24.77.49,1.15.73.17.1.33.21.47.31.31.17.47.3.47.37-.24,1.15-.65,2.23-1.2,3.24-.56,1.01-1.34,1.85-2.35,2.51-1.01.66-2.13,1.09-3.35,1.28-1.22.19-2.42.2-3.61.03-1.22-.17-2.3-.51-3.24-.99-.49-.24-.96-.5-1.41-.78-.45-.28-.92-.56-1.41-.84-.7-.42-1.38-.84-2.04-1.26-.66-.42-1.34-.87-2.04-1.36-.24-.17-.48-.36-.71-.55-.23-.19-.44-.39-.65-.6-.63-.63-1.14-1.34-1.54-2.14-.4-.8-.69-1.62-.86-2.46-.14-.59-.23-1.16-.26-1.7-.03-.54-.05-1.11-.05-1.7v-7.22h-.47c-.1-.03-.26-.12-.47-.26-.17-.1-.35-.19-.52-.26-.42-.24-.83-.49-1.23-.73-.4-.24-.79-.49-1.18-.73-.73-.45-1.5-.96-2.3-1.52-.17-.07-.32-.16-.44-.26-.12-.1-.25-.21-.39-.31-.03,0-.05,0-.05-.03s-.02-.03-.05-.03h33.58c.1,0,.26.07.47.21.07.07.16.12.26.16.1.04.19.09.26.16l2.35,1.41c.38.28.78.53,1.18.76.4.23.79.48,1.18.76.17.07.32.16.44.26.12.1.25.21.39.31l.1.1h-26.46v2.51Z" style="fill: red;"/>
            <path d="m889.59,465.24h-9.05v34.57c-.21-.07-.38-.16-.52-.26-.14-.07-.27-.13-.39-.18-.12-.05-.16-.08-.13-.08-.38-.24-.77-.48-1.17-.71-.4-.23-.79-.48-1.17-.76-.38-.24-.77-.49-1.17-.73-.4-.24-.79-.49-1.17-.73-.17-.1-.33-.21-.47-.31-.31-.17-.47-.3-.47-.37v-30.44h-2.41c-.07-.03-.15-.07-.24-.1-.09-.03-.17-.07-.24-.1-.07-.07-.16-.12-.26-.16-.1-.03-.19-.09-.26-.16-.91-.49-1.71-.98-2.41-1.46-.38-.24-.77-.49-1.15-.73-.38-.24-.77-.49-1.15-.73-.17-.1-.32-.21-.44-.31-.12-.1-.25-.19-.39-.26l-.1-.1h18.1c.21.07.37.14.47.21.07.07.16.12.26.16.1.04.19.09.26.16.38.24.78.48,1.18.71.4.23.79.48,1.18.76.38.24.78.48,1.18.71.4.23.79.48,1.18.76.14.1.28.2.42.29.14.09.28.18.42.29l.1.1Z" style="fill: red;"/>
            <path d="m888.18,506.98c.07.84-.07,1.66-.42,2.46-.35.8-.82,1.5-1.41,2.09-.59.59-1.26,1.06-1.99,1.41-.73.35-1.5.59-2.3.73-2.02.35-4.04.23-6.04-.37-2-.59-3.9-1.34-5.67-2.25-.42-.24-.84-.48-1.26-.71-.42-.23-.82-.48-1.2-.76-.87-.52-1.73-1.05-2.59-1.57-.85-.52-1.7-1.06-2.54-1.62-.56-.38-1.11-.78-1.65-1.18-.54-.4-1.07-.83-1.6-1.28-1.57-1.36-2.88-2.89-3.92-4.6.21.07.38.14.52.21.21.14.38.24.52.31.38.24.78.48,1.18.71.4.23.79.48,1.18.76.38.24.78.48,1.18.71.4.23.79.48,1.18.76.14.1.27.2.39.29.12.09.27.18.44.29l.1.1c.38.7.81,1.34,1.28,1.94.47.59.99,1.15,1.54,1.67.17.17.35.34.52.5.17.16.35.3.52.44.24.14.49.25.73.34.24.09.49.18.73.29.17.07.34.12.5.16.16.03.32.07.5.1,1.15.38,2.37.64,3.66.76,1.29.12,2.55.04,3.77-.24-.03-.04-.07-.06-.1-.08-.03-.02-.07-.04-.1-.08-.1-.07-.2-.12-.29-.16-.09-.04-.18-.09-.29-.16l-2.35-1.41c-.38-.28-.77-.53-1.15-.76-.38-.23-.77-.48-1.15-.76-.17-.07-.32-.16-.44-.26-.12-.1-.25-.21-.39-.31-.07,0-.1-.04-.1-.1-.28-.77-.39-1.57-.34-2.41.05-.84.27-1.62.65-2.35.66-1.32,1.69-2.25,3.09-2.77.56-.24,1.13-.38,1.73-.42.59-.03,1.19,0,1.78.1.59.07,1.15.23,1.67.47.24.1.49.23.73.37s.49.28.73.42c1.71,1.01,3.38,2.06,5.02,3.14.52.35,1.02.71,1.49,1.1.47.38.88.87,1.23,1.46.45.84.7,1.67.73,2.51Zm-6.69-3.03c.1-.87.04-1.66-.21-2.35-.59.07-1.17.22-1.73.44-.56.23-1.08.55-1.57.97-.91.8-1.52,1.78-1.83,2.93-.31,1.15-.28,2.3.1,3.45,1.01-.28,1.88-.71,2.62-1.31.66-.49,1.24-1.1,1.73-1.83.49-.73.78-1.5.89-2.3Z" style="fill: red;"/>
            <path d="m908.11,465.29v9.05c0,.66-.1,1.33-.31,1.99-.38,1.33-1.1,2.44-2.15,3.35-1.06.91-2.29,1.34-3.71,1.31-.87,0-1.67-.16-2.4-.47-.28-.07-.52-.15-.73-.24-.21-.09-.44-.2-.68-.34-.73-.38-1.46-.78-2.2-1.2s-1.45-.85-2.14-1.31c.8,1.29,1.62,2.55,2.46,3.79.84,1.24,1.71,2.47,2.62,3.69,1.85,2.55,3.74,5.02,5.68,7.43,1.94,2.41,3.98,4.74,6.14,7.01-.07-.04-.15-.06-.24-.08-.09-.02-.17-.06-.24-.13-.1-.07-.2-.12-.29-.16-.09-.03-.18-.09-.29-.16l-2.35-1.41c-.38-.28-.77-.53-1.17-.76-.4-.23-.79-.48-1.17-.76-.14-.1-.29-.21-.47-.31-.17-.1-.31-.23-.42-.37-1.21-1.26-2.37-2.54-3.49-3.84-1.11-1.31-2.23-2.62-3.34-3.95-1.6-2.02-3.16-4.07-4.68-6.15-1.52-2.07-2.97-4.21-4.37-6.41-.59-.87-1.16-1.73-1.7-2.59-.54-.85-1.05-1.73-1.54-2.64.07.04.16.06.26.08.1.02.19.06.26.13.21.14.38.24.52.31.38.24.78.48,1.18.71.4.23.79.48,1.18.76.38.24.78.48,1.18.71.4.23.79.48,1.18.76.1.07.26.17.47.29.21.12.35.25.42.39.77,1.05,1.6,2.04,2.51,2.98.24.04.48.06.71.08.23.02.48.03.76.03,1.39-.07,2.61-.58,3.64-1.52,1.03-.94,1.72-2.07,2.07-3.4.1-.38.17-.78.18-1.18.02-.4.03-.79.03-1.18v-4.29h-15.8c-.1-.03-.26-.12-.47-.26-.14-.07-.31-.17-.52-.31-.42-.21-.83-.44-1.23-.68-.4-.24-.79-.49-1.18-.73-.73-.45-1.5-.96-2.3-1.52-.17-.07-.32-.16-.44-.26-.12-.1-.25-.21-.39-.31l-.1-.1h30.28c.14.04.31.12.52.26.21.14.38.24.52.31l2.35,1.41c.38.24.78.49,1.18.73.4.24.79.51,1.18.78.31.17.59.37.84.58l.1.1h-7.9Z" style="fill: red;"/>
          </g>
        </g>
      </g>
    </g>
  </g>
</svg>