<?xml version="1.0" encoding="UTF-8"?>
<svg xmlns="http://www.w3.org/2000/svg" xmlns:xlink="http://www.w3.org/1999/xlink" viewBox="0 0 1136.15 1202.82">
  <defs>
    <radialGradient id="uuid-f78327d9-dccc-471f-a2ba-e7e149098cdd" cx="103.2" cy="724.77" fx="103.2" fy="724.77" r="23.86" gradientUnits="userSpaceOnUse">
      <stop offset="0" stop-color="#f14942"/>
      <stop offset=".05" stop-color="#f15041"/>
      <stop offset=".28" stop-color="#f46a3f"/>
      <stop offset=".51" stop-color="#f67d3e"/>
      <stop offset=".75" stop-color="#f7893d"/>
      <stop offset="1" stop-color="#f88d3d"/>
    </radialGradient>
    <radialGradient id="uuid-43f4560c-837c-4862-a86a-be9d9b28e8f7" cx="103.2" cy="724.77" fx="103.2" fy="724.77" r="13.26" gradientUnits="userSpaceOnUse">
      <stop offset="0" stop-color="#fff"/>
      <stop offset="0" stop-color="#fefefd"/>
      <stop offset=".14" stop-color="#fdfacc"/>
      <stop offset=".28" stop-color="#fcf6a2"/>
      <stop offset=".41" stop-color="#faf27f"/>
      <stop offset=".55" stop-color="#faf065"/>
      <stop offset=".7" stop-color="#f9ee52"/>
      <stop offset=".84" stop-color="#f9ed46"/>
      <stop offset="1" stop-color="#f9ed43"/>
    </radialGradient>
    <radialGradient id="uuid-ffa5620d-64f1-4366-8fae-8f6624d41c3f" cx="103.2" cy="674.62" fx="103.2" fy="674.62" xlink:href="#uuid-f78327d9-dccc-471f-a2ba-e7e149098cdd"/>
    <radialGradient id="uuid-92a83fd8-1eaf-4ea8-aa4d-79cc46f91f79" cx="103.2" cy="674.62" fx="103.2" fy="674.62" xlink:href="#uuid-43f4560c-837c-4862-a86a-be9d9b28e8f7"/>
    <radialGradient id="uuid-efaa6db1-5d00-4fa8-8ed6-e54a96cb707b" cy="624.63" fy="624.63" xlink:href="#uuid-f78327d9-dccc-471f-a2ba-e7e149098cdd"/>
    <radialGradient id="uuid-db9ea7e3-05a4-4366-ac38-263d710ab060" cy="624.63" fy="624.63" xlink:href="#uuid-43f4560c-837c-4862-a86a-be9d9b28e8f7"/>
    <radialGradient id="uuid-c677859b-1890-4e48-b028-41925829d390" cx="1031.83" fx="1031.83" xlink:href="#uuid-f78327d9-dccc-471f-a2ba-e7e149098cdd"/>
    <radialGradient id="uuid-c5dd469c-0285-4fc2-81df-1fa2a548edd2" cx="1031.83" fx="1031.83" xlink:href="#uuid-43f4560c-837c-4862-a86a-be9d9b28e8f7"/>
    <radialGradient id="uuid-1fadac3d-f16d-4c74-b9a5-673d308a85e8" cx="1031.83" cy="674.62" fx="1031.83" fy="674.62" xlink:href="#uuid-f78327d9-dccc-471f-a2ba-e7e149098cdd"/>
    <radialGradient id="uuid-2fea287f-a0f8-4049-8196-1aae645ebe48" cx="1031.83" cy="674.62" fx="1031.83" fy="674.62" xlink:href="#uuid-43f4560c-837c-4862-a86a-be9d9b28e8f7"/>
    <radialGradient id="uuid-82d84660-434b-49d5-a82a-57a3b6fca925" cx="1031.83" cy="624.63" fx="1031.83" fy="624.63" xlink:href="#uuid-f78327d9-dccc-471f-a2ba-e7e149098cdd"/>
    <radialGradient id="uuid-3c1f1f17-f3ad-43d2-8909-8844a8834c72" cx="1031.83" cy="624.63" fx="1031.83" fy="624.63" xlink:href="#uuid-43f4560c-837c-4862-a86a-be9d9b28e8f7"/>
    <radialGradient id="uuid-d5284f6a-0e87-42ff-af4a-6cfd6387920c" cx="363.24" cy="962.36" fx="385.18" fy="962.36" r="22.01" gradientUnits="userSpaceOnUse">
      <stop offset="0" stop-color="#fff"/>
      <stop offset="1" stop-color="#c9c9c9"/>
    </radialGradient>
    <radialGradient id="uuid-957dadbc-ad37-45e0-b2a3-8bebbdd7fe3d" cx="363.24" cy="962.36" fx="375.6" fy="962.36" r="12.4" xlink:href="#uuid-d5284f6a-0e87-42ff-af4a-6cfd6387920c"/>
    <radialGradient id="uuid-72718eee-e3eb-4543-89b0-337b03084df4" cx="267.35" cy="962.36" fx="298.69" fy="962.36" r="31.45" gradientUnits="userSpaceOnUse">
      <stop offset="0" stop-color="#fff"/>
      <stop offset="1" stop-color="#f36543"/>
    </radialGradient>
    <radialGradient id="uuid-599398bd-5e94-459f-a0e5-fc9c49203542" cx="267.35" cy="962.36" fx="289.28" fy="962.36" r="22.01" xlink:href="#uuid-72718eee-e3eb-4543-89b0-337b03084df4"/>
    <radialGradient id="uuid-c2374238-b673-4a9b-93d3-64e210a983c2" cx="267.35" cy="962.36" fx="280.32" fy="962.36" r="13.01" gradientUnits="userSpaceOnUse">
      <stop offset="0" stop-color="#fff"/>
      <stop offset="1" stop-color="#f9ed43"/>
    </radialGradient>
    <radialGradient id="uuid-4044bacb-f6fb-4fd3-884b-7783f18e2d59" cx="3888.78" cy="-7062.53" fx="3910.72" fy="-7062.53" r="22.01" gradientTransform="translate(4658.59 -6100.17) rotate(-180)" xlink:href="#uuid-d5284f6a-0e87-42ff-af4a-6cfd6387920c"/>
    <radialGradient id="uuid-ab855658-1e8f-4c43-819a-141662595e71" cx="3888.78" cy="-7062.53" fx="3901.14" fy="-7062.53" r="12.4" gradientTransform="translate(4658.59 -6100.17) rotate(-180)" xlink:href="#uuid-d5284f6a-0e87-42ff-af4a-6cfd6387920c"/>
    <radialGradient id="uuid-9760577a-fbcd-4604-adf8-6fa32330bd45" cx="3792.88" cy="-7062.53" fx="3824.23" fy="-7062.53" r="31.45" gradientTransform="translate(4658.59 -6100.17) rotate(-180)" xlink:href="#uuid-72718eee-e3eb-4543-89b0-337b03084df4"/>
    <radialGradient id="uuid-8843a61d-f72a-4a61-aeee-095d771ea218" cx="3792.88" cy="-7062.53" fx="3814.82" fy="-7062.53" r="22.01" gradientTransform="translate(4658.59 -6100.17) rotate(-180)" xlink:href="#uuid-72718eee-e3eb-4543-89b0-337b03084df4"/>
    <radialGradient id="uuid-38151f2e-9e30-4ab8-a697-99ff5a56396a" cx="3792.88" cy="-7062.53" fx="3805.85" fy="-7062.53" r="13.01" gradientTransform="translate(4658.59 -6100.17) rotate(-180)" xlink:href="#uuid-c2374238-b673-4a9b-93d3-64e210a983c2"/>
    <radialGradient id="uuid-3bcf332c-eb98-4261-be95-379dc9a9002b" cx="171.17" cy="808.31" fx="211.13" fy="808.31" r="40.09" xlink:href="#uuid-72718eee-e3eb-4543-89b0-337b03084df4"/>
    <radialGradient id="uuid-24ff91e7-9502-4d7b-a2a8-c658ceeb419a" cx="171.17" cy="808.31" fx="199.14" fy="808.31" r="28.06" xlink:href="#uuid-72718eee-e3eb-4543-89b0-337b03084df4"/>
    <radialGradient id="uuid-c0c0006a-b10d-4956-8ee3-a67e229cead5" cx="171.17" cy="808.31" fx="187.7" fy="808.31" r="16.59" xlink:href="#uuid-c2374238-b673-4a9b-93d3-64e210a983c2"/>
    <radialGradient id="uuid-44fc4fd7-1c04-46e9-a2fd-8964ee71aaa2" cx="261.65" cy="808.31" fx="293.76" fy="808.31" r="32.21" xlink:href="#uuid-72718eee-e3eb-4543-89b0-337b03084df4"/>
    <radialGradient id="uuid-bcc77a36-f34c-43f0-908d-4aef3bf3f05d" cx="261.65" cy="808.31" fx="284.12" fy="808.31" r="22.54" xlink:href="#uuid-72718eee-e3eb-4543-89b0-337b03084df4"/>
    <radialGradient id="uuid-151953cb-4754-4470-9c7a-012440d58f78" cx="261.65" cy="808.31" fx="274.94" fy="808.31" r="13.33" xlink:href="#uuid-c2374238-b673-4a9b-93d3-64e210a983c2"/>
    <radialGradient id="uuid-a63ae9f3-e75d-4bd5-b5eb-62bfe8600921" cx="1173.97" cy="808.31" fx="1213.93" fy="808.31" r="40.09" gradientTransform="translate(2139.89) rotate(-180) scale(1 -1)" xlink:href="#uuid-72718eee-e3eb-4543-89b0-337b03084df4"/>
    <radialGradient id="uuid-7a99a027-8353-4ff3-845c-e74d05cc3f89" cx="1173.97" cy="808.31" fx="1201.94" fy="808.31" r="28.06" gradientTransform="translate(2139.89) rotate(-180) scale(1 -1)" xlink:href="#uuid-72718eee-e3eb-4543-89b0-337b03084df4"/>
    <radialGradient id="uuid-3ea816c6-c7a1-4df2-8243-48d85a211bf7" cx="1173.97" cy="808.31" fx="1190.51" fy="808.31" r="16.59" gradientTransform="translate(2139.89) rotate(-180) scale(1 -1)" xlink:href="#uuid-c2374238-b673-4a9b-93d3-64e210a983c2"/>
    <radialGradient id="uuid-d169d12e-a8ed-452e-b63c-307524d53046" cx="1264.45" cy="808.31" fx="1296.56" fy="808.31" r="32.21" gradientTransform="translate(2139.89) rotate(-180) scale(1 -1)" xlink:href="#uuid-72718eee-e3eb-4543-89b0-337b03084df4"/>
    <radialGradient id="uuid-bccbc417-202c-41e1-b933-f99626df7570" cx="1264.45" cy="808.31" fx="1286.92" fy="808.31" r="22.54" gradientTransform="translate(2139.89) rotate(-180) scale(1 -1)" xlink:href="#uuid-72718eee-e3eb-4543-89b0-337b03084df4"/>
    <radialGradient id="uuid-e04348ab-f8d7-4caa-a6f1-2805638195d8" cx="1264.45" cy="808.31" fx="1277.74" fy="808.31" r="13.33" gradientTransform="translate(2139.89) rotate(-180) scale(1 -1)" xlink:href="#uuid-c2374238-b673-4a9b-93d3-64e210a983c2"/>
  </defs>
  <g style="isolation: isolate;">
    <g id="uuid-f6f33ddb-41ff-4642-805a-2c8fbd2d801e" data-name="Layer 2">
      <g id="uuid-56a63ef0-f0c8-4913-b992-6e42469966d4" data-name="Layer 1">
        <g>
          <rect x="72.38" y="229.57" width="991.38" height="226.14" style="fill: #d1d3d4;"/>
          <path d="m470,364.68v91.03H184.49v-91.03c0-55.79,45.23-101.01,101.02-101.01h83.48c55.78,0,101.01,45.22,101.01,101.01Z" style="fill: #fff;"/>
          <rect x="72.38" y="551.73" width="991.38" height="464.76" style="fill: #e6e7e8;"/>
          <rect x="193.56" y="900.97" width="754.07" height="115.51" style="fill: #2e3192;"/>
          <rect x="69.29" y="884.75" width="1000.66" height="16.22" style="fill: #2e3192;"/>
          <rect x="193.66" y="900.97" width="745.83" height="17.22" style="fill: #fff;"/>
          <rect x="403.48" y="935.25" width="326.08" height="54.22" style="fill: #ff0;"/>
          <path d="m401.3,933.07v58.59h330.44v-58.59h-330.44Zm328.26,56.4h-326.08v-54.22h326.08v54.22Z"/>
          <rect x="72.38" y="108.63" width="484.41" height="120.94" style="fill: #fff200;"/>
          <path d="m439.38,410.11c0,6.66-5.4,12.05-12.06,12.05h-96.27v33.55h-16.08v-33.55h-87.44c-6.66,0-12.06-5.39-12.06-12.05s5.4-12.06,12.06-12.06h199.8c6.66,0,12.06,5.39,12.06,12.06Z"/>
          <rect x="579.35" y="108.63" width="484.41" height="120.94"/>
          <rect x="787.22" y="-67.24" width="68.67" height="452.41" transform="translate(980.52 -662.59) rotate(90)" style="fill: #fff;"/>
          <circle cx="930.04" cy="651.62" r="39.7" style="fill: #f0f0f0; stroke: #00ac5e; stroke-miterlimit: 10; stroke-width: 6.2px;"/>
          <polygon points="307.24 590.26 821.56 590.26 771.25 870.21 364.47 870.21 307.24 590.26" style="fill: #bcbec0;"/>
          <g>
            <path d="m907.01,657.34v-13h3.7c1.12,0,2.01.27,2.67.82.66.55.99,1.27.99,2.15,0,.74-.2,1.38-.6,1.92-.4.54-.95.93-1.65,1.16v.04c.88.1,1.58.43,2.1.99.53.56.79,1.29.79,2.18,0,1.11-.4,2.01-1.2,2.7s-1.8,1.03-3.02,1.03h-3.79Zm1.52-11.62v4.2h1.56c.83,0,1.49-.2,1.97-.6.48-.4.72-.97.72-1.7,0-1.26-.83-1.89-2.49-1.89h-1.75Zm0,5.56v4.68h2.07c.89,0,1.59-.21,2.08-.63.49-.42.74-1,.74-1.74,0-1.53-1.05-2.3-3.14-2.3h-1.75Z" style="fill: #231300; stroke: #00ac5e; stroke-miterlimit: 10; stroke-width: 1.55px;"/>
            <path d="m917.04,656.82v-1.79c.21.18.45.34.74.49.29.15.59.27.91.37s.64.18.96.23c.32.05.62.08.89.08.94,0,1.64-.17,2.1-.52.46-.35.69-.85.69-1.5,0-.35-.08-.66-.23-.92-.15-.26-.37-.5-.64-.71-.27-.21-.59-.42-.96-.62-.37-.2-.77-.4-1.2-.62-.45-.23-.88-.46-1.27-.7-.39-.24-.73-.5-1.02-.78-.29-.28-.52-.61-.68-.96-.17-.36-.25-.78-.25-1.26,0-.59.13-1.11.39-1.55.26-.44.6-.8,1.02-1.08.42-.28.91-.5,1.45-.63.54-.14,1.09-.21,1.65-.21,1.28,0,2.21.15,2.8.46v1.71c-.77-.53-1.75-.8-2.96-.8-.33,0-.66.04-1,.1-.33.07-.63.18-.89.34s-.47.36-.63.61-.24.55-.24.91c0,.33.06.62.19.86.12.24.31.46.55.66.24.2.54.39.88.58.35.19.75.39,1.2.62.46.23.91.47,1.32.72s.78.54,1.1.84c.31.31.56.65.75,1.02s.28.8.28,1.29c0,.64-.12,1.18-.38,1.63-.25.44-.59.8-1.01,1.08-.43.28-.92.48-1.47.6-.56.12-1.14.19-1.76.19-.21,0-.46-.02-.76-.05-.3-.03-.61-.08-.92-.14-.31-.06-.61-.14-.89-.24-.28-.09-.51-.2-.67-.31Z" style="fill: #231300; stroke: #00ac5e; stroke-miterlimit: 10; stroke-width: 1.55px;"/>
            <path d="m932.06,652.76h-4.95v-1.17h4.95v1.17Z" style="fill: #231300; stroke: #00ac5e; stroke-miterlimit: 10; stroke-width: 1.55px;"/>
            <path d="m949.68,644.35l-4.81,13h-1.68l-4.71-13h1.69l3.6,10.3c.11.33.2.72.26,1.15h.04c.05-.36.15-.75.3-1.17l3.67-10.29h1.64Z" style="fill: #231300; stroke: #00ac5e; stroke-miterlimit: 10; stroke-width: 1.55px;"/>
            <path d="m954.34,644.35v1.3h-1.27v10.38h1.27v1.31h-4.06v-1.31h1.27v-10.38h-1.27v-1.3h4.06Z" style="fill: #231300; stroke: #00ac5e; stroke-miterlimit: 10; stroke-width: 1.55px;"/>
          </g>
          <g>
            <path d="m520.85,623.04c-.3-.94-.41-1.51-1.17-8.1-.26-2.64-.6-3.01-1.36-3.01h-.9v11.11h-5.92v-28.52h8.63c5.12,0,6.44,2.19,6.44,7.69,0,5.88-.83,6.29-2.45,7.23v.23c.3.26.64.49.9,1.17.41.9.83,2.6,1.24,5.91.56,4.63.6,5.27.87,6.1v.19h-6.29Zm-1.77-16.43c1.09,0,1.51-.75,1.51-3.39,0-2.26-.49-2.83-1.66-2.83h-1.51v6.22h1.66Z" style="fill: #ef3b39;"/>
            <path d="m528.91,623.04v-5.69h5.92v5.69h-5.92Z" style="fill: #ef3b39;"/>
            <path d="m545.15,603.37c.04-.38.04-.56.04-1.24,0-1.77-.3-2.34-1.73-2.34s-1.7.57-1.7,2.34c0,1.66.41,2.11,1.36,2.67,2.26,1.32,3.77,1.66,5.24,2.64,1.66,1.17,2.41,2.49,2.41,7.23,0,6.78-1.7,8.85-7.46,8.85-4.71,0-6.86-1.54-6.86-6.03,0-1.43.08-3.09.3-3.99h4.94c-.08.3-.08.64-.08,1.05,0,2.18.3,2.9,1.81,2.9s1.85-.49,1.85-2.9c0-1.47-.41-2.03-1.43-2.75-1.85-1.24-4.22-1.81-5.76-3.2-1.54-1.36-1.66-3.62-1.66-7.38,0-5.35,1.43-7.2,7.04-7.2,5.09,0,6.89,1.47,6.89,6.29,0,1.54-.08,2.34-.3,3.05h-4.9Z" style="fill: #ef3b39;"/>
            <path d="m552.12,623.04v-5.69h5.92v5.69h-5.92Z" style="fill: #ef3b39;"/>
            <path d="m569.94,623.04c-.3-.94-.41-1.51-1.17-8.1-.26-2.64-.6-3.01-1.36-3.01h-.9v11.11h-5.92v-28.52h8.63c5.12,0,6.44,2.19,6.44,7.69,0,5.88-.83,6.29-2.45,7.23v.23c.3.26.64.49.9,1.17.41.9.83,2.6,1.24,5.91.56,4.63.6,5.27.87,6.1v.19h-6.29Zm-1.77-16.43c1.09,0,1.51-.75,1.51-3.39,0-2.26-.49-2.83-1.66-2.83h-1.51v6.22h1.66Z" style="fill: #ef3b39;"/>
            <path d="m578,623.04v-5.69h5.92v5.69h-5.92Z" style="fill: #ef3b39;"/>
            <path d="m587.53,623.04v-22.49h-4.48v-6.03h14.88v6.03h-4.48v22.49h-5.91Z" style="fill: #ef3b39;"/>
            <path d="m597.06,623.04v-5.69h5.92v5.69h-5.92Z" style="fill: #ef3b39;"/>
            <path d="m619.59,612.11c.08.9.11,1.77.11,2.56,0,6.07-.98,8.85-7.35,8.85-3.77,0-5.54-.6-6.52-2.34-.98-1.66-1.39-3.84-1.39-12.66s.41-10.51,1.39-12.24c.98-1.7,2.75-2.26,6.33-2.26,6.4,0,7.46,2.34,7.46,8.4,0,.72-.04,1.58-.08,2.52h-5.54c0-3.01-.11-3.84-.26-4.37-.11-.49-.6-.72-1.58-.72s-1.32.23-1.47.72c-.26.75-.38,1.7-.38,7.87s.11,7.2.38,8.02c.15.49.53.68,1.66.68.79,0,1.21-.19,1.36-.64.38-1.05.41-2.07.41-4.41h5.46Z" style="fill: #ef3b39;"/>
            <path d="m621.28,623.04v-5.69h5.92v5.69h-5.92Z" style="fill: #ef3b39;"/>
          </g>
          <g>
            <path d="m512.29,724.77l-.3-4.08h-1.77l-.28,4.08h-3.69l1.89-17.66h6.16l1.77,17.66h-3.78Zm-1.07-13.97h-.26l-.58,6.32h1.45l-.61-6.32Z" style="fill: #ef3b39;"/>
            <path d="m522.04,712.59c.02-.23.02-.35.02-.77,0-1.1-.19-1.45-1.07-1.45s-1.05.35-1.05,1.45c0,1.03.26,1.31.84,1.66,1.4.82,2.33,1.03,3.24,1.63,1.03.72,1.49,1.54,1.49,4.48,0,4.2-1.05,5.48-4.62,5.48-2.92,0-4.25-.96-4.25-3.73,0-.89.05-1.91.19-2.47h3.06c-.05.19-.05.4-.05.65,0,1.35.19,1.8,1.12,1.8s1.14-.3,1.14-1.8c0-.91-.26-1.26-.89-1.7-1.14-.77-2.61-1.12-3.57-1.98-.96-.84-1.03-2.24-1.03-4.57,0-3.31.89-4.46,4.36-4.46,3.15,0,4.27.91,4.27,3.9,0,.96-.05,1.45-.19,1.89h-3.03Z" style="fill: #ef3b39;"/>
            <path d="m532.8,724.77v-7.26h-2.29v7.26h-3.76v-17.66h3.76v6.84h2.29v-6.84h3.76v17.66h-3.76Z" style="fill: #ef3b39;"/>
            <path d="m542.6,725.07c-2.26,0-3.31-.35-3.92-1.45-.61-1.07-.86-2.15-.86-7.7s.26-6.58.86-7.68c.61-1.07,1.66-1.45,3.92-1.45s3.29.37,3.9,1.45c.61,1.1.86,2.12.86,7.68s-.26,6.63-.86,7.7c-.61,1.1-1.66,1.45-3.9,1.45Zm1.12-9.24c0-3.9-.07-4.53-.21-4.97-.12-.3-.33-.44-.91-.44s-.82.14-.91.44c-.16.44-.23,1.07-.23,4.97s.07,4.41.23,4.88c.09.3.33.42.91.42s.79-.12.91-.42c.14-.47.21-1.1.21-4.88Z" style="fill: #ef3b39;"/>
            <path d="m554.82,724.77l-2.22-7.93h-.23c.05.4.05.86.05,1.31v6.63h-3.76v-17.66h3.76v6.44c0,.37-.02.65-.05.96h.23l2.36-7.4h3.85v.12l-2.68,7.89,2.89,9.54v.12h-4.2Z" style="fill: #ef3b39;"/>
            <path d="m564.67,724.77v-17.66h3.66v13.74h3.78v3.92h-7.44Z" style="fill: #ef3b39;"/>
            <path d="m573.2,724.77v-17.66h7.82v3.73h-4.15v3.1h4.08v3.57h-4.08v3.34h4.13v3.92h-7.79Z" style="fill: #ef3b39;"/>
            <path d="m585.01,724.77v-6.44l-3.22-11.11v-.12h3.78c1,4.41,1.12,4.97,1.26,5.72h.23c.14-.75.26-1.31,1.31-5.72h3.66v.12l-3.08,11.06v6.49h-3.94Z" style="fill: #ef3b39;"/>
            <path d="m592.92,724.77v-17.66h3.66v13.74h3.78v3.92h-7.44Z" style="fill: #ef3b39;"/>
            <path d="m606.98,724.77l-.3-4.08h-1.77l-.28,4.08h-3.69l1.89-17.66h6.16l1.77,17.66h-3.78Zm-1.07-13.97h-.26l-.58,6.32h1.45l-.61-6.32Z" style="fill: #ef3b39;"/>
            <path d="m619.47,724.77l-4.18-9.47h-.14v9.47h-3.34v-17.66h3.59l2.47,6.14h.14v-6.14h3.36v17.66h-1.91Z" style="fill: #ef3b39;"/>
            <path d="m622.92,724.77v-17.66h4.92c2.24,0,3.31.37,3.92,1.4.61,1.05.84,2.08.84,7.42s-.23,6.42-.84,7.44c-.61,1.05-1.68,1.4-3.92,1.4h-4.92Zm4.83-3.9c.58,0,.79-.12.91-.42.14-.42.21-.98.21-4.6s-.07-4.25-.21-4.67c-.12-.26-.33-.37-.91-.37h-1.17v10.06h1.17Z" style="fill: #ef3b39;"/>
          </g>
          <rect x="579.35" y="455.7" width="484.41" height="89.84" style="fill: #f1f2f2;"/>
          <g>
            <rect x="76.82" y="703.73" width="52.76" height="42.09" style="fill: url(#uuid-f78327d9-dccc-471f-a2ba-e7e149098cdd);"/>
            <rect x="88.54" y="713.08" width="29.31" height="23.38" style="fill: url(#uuid-43f4560c-837c-4862-a86a-be9d9b28e8f7);"/>
          </g>
          <g>
            <rect x="76.82" y="653.57" width="52.76" height="42.09" style="fill: url(#uuid-ffa5620d-64f1-4366-8fae-8f6624d41c3f);"/>
            <rect x="88.54" y="662.93" width="29.31" height="23.38" style="fill: url(#uuid-92a83fd8-1eaf-4ea8-aa4d-79cc46f91f79);"/>
          </g>
          <g>
            <rect x="76.82" y="603.59" width="52.76" height="42.09" style="fill: url(#uuid-efaa6db1-5d00-4fa8-8ed6-e54a96cb707b);"/>
            <rect x="88.54" y="612.94" width="29.31" height="23.38" style="fill: url(#uuid-db9ea7e3-05a4-4366-ac38-263d710ab060);"/>
          </g>
          <g>
            <rect x="1005.45" y="703.73" width="52.76" height="42.09" style="fill: url(#uuid-c677859b-1890-4e48-b028-41925829d390);"/>
            <rect x="1017.17" y="713.08" width="29.31" height="23.38" style="fill: url(#uuid-c5dd469c-0285-4fc2-81df-1fa2a548edd2);"/>
          </g>
          <g>
            <rect x="1005.45" y="653.57" width="52.76" height="42.09" style="fill: url(#uuid-1fadac3d-f16d-4c74-b9a5-673d308a85e8);"/>
            <rect x="1017.17" y="662.93" width="29.31" height="23.38" style="fill: url(#uuid-2fea287f-a0f8-4049-8196-1aae645ebe48);"/>
          </g>
          <g>
            <rect x="1005.45" y="603.59" width="52.76" height="42.09" style="fill: url(#uuid-82d84660-434b-49d5-a82a-57a3b6fca925);"/>
            <rect x="1017.17" y="612.94" width="29.31" height="23.38" style="fill: url(#uuid-3c1f1f17-f3ad-43d2-8909-8844a8834c72);"/>
          </g>
          <polygon points="771.53 830.37 363.2 830.37 342.58 730.13 789.31 730.13 771.53 830.37" style="fill: #231f20;"/>
          <polygon points="771.53 825.02 363.2 825.02 342.58 724.77 789.31 724.77 771.53 825.02" style="fill: none;"/>
          <polygon points="750.67 701.89 393 701.89 374.93 628.34 766.25 628.34 750.67 701.89" style="fill: #231f20;"/>
          <path d="m613.32,853.78s-11.31.03-14.15.31c-20.16,8.11-41.23,8.11-62.21.06-2.82-.33-14.13-.38-14.13-.38v-16.85s11.31.02,14.13.12c20.98,6.2,41.35,4.8,62.21-.02,2.83-.08,14.15-.1,14.15-.1v16.85Z" style="fill: #2e3192;"/>
          <circle cx="363.31" cy="870.21" r="11.6" style="fill: #231300; stroke: #231300; stroke-miterlimit: 10; stroke-width: 1.55px;"/>
          <circle cx="771.25" cy="870.21" r="11.6" style="fill: #231300; stroke: #231300; stroke-miterlimit: 10; stroke-width: 1.55px;"/>
          <g>
            <path d="m424.48,977.76v-32h6.03v32h-6.03Zm2.4-12.87v-5.8h11.13c.94,0,1.69-.35,2.25-1.03.56-.69.85-1.6.87-2.73,0-1.13-.28-2.04-.85-2.73s-1.32-1.03-2.28-1.03h-11.13v-5.81h11.61c1.77,0,3.32.4,4.65,1.19,1.33.79,2.36,1.91,3.09,3.34.73,1.44,1.1,3.12,1.1,5.04s-.37,3.6-1.11,5.04c-.74,1.44-1.77,2.55-3.09,3.34-1.32.79-2.87,1.19-4.64,1.19h-11.61Zm14.49,12.87l-7.76-13.85,6.44-1.01,8.62,14.87h-7.3Z"/>
            <path d="m458.91,978.09c-1.95,0-3.69-.38-5.23-1.14-1.54-.76-2.73-1.84-3.58-3.23l4.93-3.58c.53.67,1.16,1.2,1.9,1.56.74.37,1.51.55,2.32.55,1.16,0,2.05-.41,2.68-1.22.63-.81.95-1.96.95-3.44v-21.79h6.25v21.82c0,3.33-.89,5.91-2.67,7.74s-4.29,2.75-7.53,2.75Z"/>
            <path d="m487.11,977.76v-5.43l10.97-14.43c.5-.64.88-1.31,1.15-1.99.27-.68.41-1.32.41-1.9v-.04c0-.87-.28-1.53-.84-2-.56-.47-1.35-.7-2.38-.7s-1.79.33-2.41.98c-.62.65-1,1.58-1.13,2.78v.02h-6.18v-.02c.21-3.03,1.18-5.39,2.91-7.06,1.74-1.67,3.99-2.51,6.76-2.51,3.01,0,5.33.72,6.98,2.18,1.65,1.45,2.47,3.5,2.47,6.16v.02c0,1.45-.25,2.89-.76,4.32s-1.21,2.72-2.12,3.88l-7.87,9.94h10.93v5.81h-18.91Z"/>
            <path d="m520.42,978.09c-3.18,0-5.57-.82-7.17-2.45s-2.4-3.84-2.4-6.63v-14.54c0-2.83.81-5.05,2.42-6.66,1.61-1.61,3.99-2.42,7.15-2.42s5.55.8,7.16,2.41,2.41,3.83,2.41,6.67v14.54c0,2.83-.81,5.05-2.42,6.66-1.61,1.61-4,2.42-7.15,2.42Zm0-5.81c1.26,0,2.17-.43,2.72-1.29.55-.86.83-2.04.83-3.53v-11.46c0-1.51-.28-2.69-.83-3.54s-1.46-1.28-2.72-1.28-2.15.42-2.71,1.28c-.56.85-.83,2.03-.83,3.54v11.46c0,1.5.28,2.67.83,3.53.56.86,1.46,1.29,2.71,1.29Z"/>
            <path d="m548.46,977.76v-31.98h6.03v31.98h-6.03Zm2.75-12.4v-5.81h10.23c1.08,0,1.96-.36,2.64-1.09.67-.73,1.01-1.68,1.01-2.87s-.33-2.19-1-2.91-1.55-1.09-2.65-1.09h-10.23v-5.81h10.07c2.02,0,3.79.41,5.29,1.22,1.5.81,2.67,1.95,3.51,3.42.84,1.47,1.25,3.19,1.25,5.17s-.42,3.68-1.25,5.15c-.83,1.47-2.01,2.6-3.52,3.41-1.51.81-3.27,1.21-5.28,1.21h-10.07Z"/>
            <path d="m576.06,977.76v-31.98h6.03v31.98h-6.03Zm2.64,0v-5.81h10.2c1.38,0,2.44-.33,3.2-1,.75-.67,1.13-1.6,1.13-2.8v-.07c0-1.22-.38-2.16-1.13-2.83-.76-.67-1.82-1-3.2-1h-10.2v-5.81h10.2c1.25,0,2.21-.31,2.89-.95.68-.63,1.02-1.52,1.02-2.66,0-1.04-.34-1.84-1.02-2.41-.68-.56-1.65-.85-2.89-.85h-10.2v-5.81h10.4c3.11,0,5.52.75,7.22,2.26,1.71,1.51,2.56,3.64,2.56,6.4,0,1.86-.55,3.4-1.64,4.61-1.09,1.21-2.64,1.98-4.63,2.32,2.13.29,3.77,1.1,4.94,2.43,1.17,1.33,1.75,3.05,1.75,5.18v.07c0,2.77-.86,4.92-2.57,6.43-1.71,1.52-4.13,2.28-7.26,2.28h-10.78Z"/>
            <path d="m616.09,977.76v-5.43l10.97-14.43c.5-.64.88-1.31,1.15-1.99.27-.68.41-1.32.41-1.9v-.04c0-.87-.28-1.53-.84-2-.56-.47-1.35-.7-2.38-.7s-1.79.33-2.41.98c-.62.65-1,1.58-1.13,2.78v.02h-6.18v-.02c.21-3.03,1.18-5.39,2.91-7.06,1.74-1.67,3.99-2.51,6.76-2.51,3.01,0,5.33.72,6.98,2.18,1.65,1.45,2.47,3.5,2.47,6.16v.02c0,1.45-.25,2.89-.76,4.32s-1.21,2.72-2.12,3.88l-7.87,9.94h10.93v5.81h-18.91Z"/>
            <path d="m648.77,978.09c-1.92,0-3.64-.35-5.15-1.06-1.51-.7-2.71-1.72-3.61-3.06-.89-1.33-1.39-2.95-1.5-4.84h6.22c.15.98.51,1.75,1.1,2.29.59.54,1.34.81,2.27.81,1.14,0,2.03-.32,2.65-.96s.93-1.54.93-2.69v-.75c0-1.22-.25-2.16-.76-2.81-.51-.66-1.23-.99-2.17-.99h-2.71v-5.81h2.71c.76,0,1.35-.29,1.77-.87.42-.58.63-1.39.63-2.43v-.55c0-.98-.23-1.74-.69-2.28-.46-.54-1.11-.8-1.95-.8s-1.52.31-2.1.92c-.58.62-.97,1.49-1.18,2.62h-6.2c.26-2.98,1.3-5.29,3.1-6.93,1.8-1.64,4-2.46,6.6-2.46,2.83,0,5.02.72,6.56,2.17,1.55,1.44,2.32,3.49,2.32,6.15v.97c0,1.48-.37,2.77-1.12,3.87s-1.81,1.92-3.19,2.46c1.54.35,2.73,1.16,3.57,2.42s1.26,2.87,1.26,4.82v.97c0,2.8-.82,4.97-2.46,6.51-1.64,1.54-3.95,2.31-6.93,2.31Z"/>
            <path d="m663.21,972.86v-5.54l9.85-21.51h6.82l-9.59,21.24h14.36v5.81h-21.44Zm12.91,4.93v-18.82h6.03v18.82h-6.03Z"/>
            <path d="m698.64,978.09c-2.57,0-4.72-.84-6.46-2.51-1.74-1.67-2.71-4.02-2.91-7.06v-.02h6.03v.02c.12,1.17.48,2.09,1.08,2.74s1.39.98,2.35.98c1.06,0,1.87-.35,2.45-1.04.58-.7.87-1.67.87-2.91v-2.68c0-1.26-.26-2.23-.77-2.91-.51-.68-1.25-1.02-2.2-1.02-.87,0-1.6.22-2.21.66-.61.44-1.03,1.05-1.26,1.85h-5.63v-18.38h17.18v5.81h-11.15v5.65c.47-.46,1.1-.81,1.88-1.06.78-.25,1.56-.37,2.32-.37,2.51,0,4.45.85,5.82,2.56,1.37,1.71,2.06,4.12,2.06,7.22v2.68c0,3.12-.82,5.54-2.46,7.25-1.64,1.71-3.97,2.56-6.97,2.56Z"/>
          </g>
          <g>
            <circle cx="363.24" cy="962.36" r="22.01" style="fill: url(#uuid-d5284f6a-0e87-42ff-af4a-6cfd6387920c);"/>
            <circle cx="363.24" cy="962.36" r="12.4" style="fill: url(#uuid-957dadbc-ad37-45e0-b2a3-8bebbdd7fe3d);"/>
          </g>
          <circle cx="267.35" cy="962.36" r="31.45" style="fill: url(#uuid-72718eee-e3eb-4543-89b0-337b03084df4);"/>
          <circle cx="267.35" cy="962.36" r="22.01" style="fill: url(#uuid-599398bd-5e94-459f-a0e5-fc9c49203542); mix-blend-mode: screen;"/>
          <circle cx="267.35" cy="962.36" r="13.01" style="fill: url(#uuid-c2374238-b673-4a9b-93d3-64e210a983c2); mix-blend-mode: screen;"/>
          <g>
            <circle cx="769.81" cy="962.36" r="22.01" style="fill: url(#uuid-4044bacb-f6fb-4fd3-884b-7783f18e2d59);"/>
            <circle cx="769.81" cy="962.36" r="12.4" style="fill: url(#uuid-ab855658-1e8f-4c43-819a-141662595e71);"/>
          </g>
          <g>
            <circle cx="865.7" cy="962.36" r="31.45" style="fill: url(#uuid-9760577a-fbcd-4604-adf8-6fa32330bd45);"/>
            <circle cx="865.7" cy="962.36" r="22.01" style="fill: url(#uuid-8843a61d-f72a-4a61-aeee-095d771ea218); mix-blend-mode: screen;"/>
            <circle cx="865.7" cy="962.36" r="13.01" style="fill: url(#uuid-38151f2e-9e30-4ab8-a697-99ff5a56396a); mix-blend-mode: screen;"/>
          </g>
          <rect x="72.38" y="455.71" width="484.41" height="89.83" style="fill: #e6e7e8;"/>
          <polygon points="1053.54 95.16 82.61 95.16 248.96 4.19 887.19 4.19 1053.54 95.16" style="fill: #e6e7e8;"/>
          <path d="m1107.71,314.41c-.55,0-1.1.06-1.65.09l-36.1-105.75h-.01s0-109.4,0-109.4L888.27,0H247.88L66.2,99.35v109.45l-36.11,105.7c-.56-.03-1.1-.09-1.67-.09-15.69,0-28.42,12.73-28.42,28.43v84.43c0,15.71,12.73,28.44,28.42,28.44s28.44-12.73,28.44-28.44v-84.43c0-12.15-7.65-22.49-18.37-26.56l27.71-82v788.39h60.32v170.81c0,5.16,4.18,9.34,9.34,9.34h102.58c5.16,0,9.34-4.18,9.34-9.34v-170.81h640.58v170.81c0,5.16,4.19,9.34,9.35,9.34h102.57c5.16,0,9.34-4.18,9.34-9.34v-170.81h60.33V234.28l27.7,82c-10.72,4.07-18.36,14.41-18.36,26.56v84.43c0,15.71,12.73,28.44,28.42,28.44s28.44-12.73,28.44-28.44v-84.43c0-15.7-12.73-28.43-28.44-28.43ZM248.96,4.19h638.23l166.35,90.97H82.61L248.96,4.19ZM72.38,108.63h484.41v436.91H72.38V108.63Zm991.38,907.85h-116.14v-115.51h-8.13v115.51H193.56v-115.51h-8.13v115.51h-113.05v-464.75h991.38v464.75Zm0-470.94h-484.41V108.63h484.41v436.91Z"/>
          <g>
            <path d="m607.05,144.97h23.27v6.12h-7.81v18.66h-7.65v-18.66h-7.81v-6.12Z" style="fill: #ed1c24;"/>
            <path d="m634.09,144.97h7.67v24.77h-7.67v-24.77Z" style="fill: #ed1c24;"/>
            <path d="m657.56,144.97h7.67v13.46c0,2.83-.25,4.98-.75,6.45-.5,1.48-1.51,2.72-3.02,3.75s-3.46,1.54-5.82,1.54c-2.5,0-4.44-.34-5.81-1.01-1.37-.68-2.44-1.66-3.19-2.96-.75-1.3-1.19-2.91-1.33-4.82l7.32-1c.01,1.09.11,1.9.29,2.43.18.53.48.96.91,1.28.29.21.71.32,1.25.32.86,0,1.48-.32,1.88-.95.4-.64.6-1.71.6-3.22v-15.26Z" style="fill: #ed1c24;"/>
            <path d="m684.67,165.65h-8.69l-1.21,4.09h-7.82l9.31-24.77h8.35l9.31,24.77h-8.02l-1.24-4.09Zm-1.59-5.36l-2.73-8.9-2.71,8.9h5.44Z" style="fill: #ed1c24;"/>
            <path d="m696.46,169.74v-24.77h12.76c2.37,0,4.17.2,5.42.61,1.25.41,2.26,1.16,3.02,2.26.77,1.1,1.15,2.44,1.15,4.01,0,1.37-.29,2.56-.88,3.56-.59,1-1.39,1.81-2.42,2.42-.65.39-1.55.72-2.69.98.91.3,1.58.61,1.99.91.28.2.69.64,1.22,1.3.53.67.89,1.18,1.07,1.54l3.71,7.18h-8.65l-4.09-7.57c-.52-.98-.98-1.62-1.39-1.91-.55-.38-1.18-.57-1.88-.57h-.68v10.05h-7.69Zm7.69-14.73h3.23c.35,0,1.02-.11,2.03-.34.51-.1.92-.36,1.24-.78.32-.42.48-.9.48-1.44,0-.8-.25-1.41-.76-1.84-.51-.43-1.46-.64-2.86-.64h-3.36v5.04Z" style="fill: #ed1c24;"/>
            <path d="m738.5,165.65h-8.69l-1.21,4.09h-7.82l9.31-24.77h8.35l9.31,24.77h-8.02l-1.24-4.09Zm-1.59-5.36l-2.73-8.9-2.71,8.9h5.44Z" style="fill: #ed1c24;"/>
            <path d="m759.96,158.05h10v5.32h-10v-5.32Z" style="fill: #ed1c24;"/>
            <path d="m784.83,144.97h7.65v8.67h8.36v-8.67h7.69v24.77h-7.69v-10.02h-8.36v10.02h-7.65v-24.77Z" style="fill: #ed1c24;"/>
            <path d="m828.86,165.65h-8.69l-1.21,4.09h-7.82l9.31-24.77h8.35l9.31,24.77h-8.02l-1.24-4.09Zm-1.59-5.36l-2.73-8.9-2.71,8.9h5.44Z" style="fill: #ed1c24;"/>
            <path d="m839.21,161.54l7.28-.46c.16,1.18.48,2.08.96,2.7.79,1,1.92,1.5,3.38,1.5,1.09,0,1.94-.26,2.53-.77s.89-1.11.89-1.78c0-.64-.28-1.22-.84-1.72-.56-.51-1.87-.99-3.92-1.44-3.36-.75-5.75-1.76-7.18-3.01-1.44-1.25-2.16-2.84-2.16-4.78,0-1.27.37-2.48,1.11-3.61.74-1.13,1.85-2.02,3.33-2.67,1.48-.65,3.51-.97,6.09-.97,3.17,0,5.58.59,7.24,1.77,1.66,1.18,2.65,3.05,2.97,5.62l-7.22.42c-.19-1.12-.59-1.93-1.21-2.43-.61-.51-1.46-.76-2.54-.76-.89,0-1.56.19-2.01.57-.45.38-.68.84-.68,1.38,0,.39.19.75.56,1.07.36.33,1.22.63,2.57.91,3.35.72,5.74,1.45,7.19,2.19,1.45.74,2.5,1.65,3.16,2.75.66,1.09.99,2.31.99,3.67,0,1.59-.44,3.05-1.32,4.39-.88,1.34-2.11,2.36-3.68,3.05-1.58.69-3.57,1.04-5.96,1.04-4.21,0-7.13-.81-8.75-2.43s-2.54-3.68-2.75-6.18Z" style="fill: #ed1c24;"/>
            <path d="m863.8,144.97h23.27v6.12h-7.81v18.66h-7.65v-18.66h-7.81v-6.12Z" style="fill: #ed1c24;"/>
            <path d="m890.83,144.97h7.67v24.77h-7.67v-24.77Z" style="fill: #ed1c24;"/>
            <path d="m904.05,144.97h7.15l9.33,13.71v-13.71h7.22v24.77h-7.22l-9.28-13.6v13.6h-7.2v-24.77Z" style="fill: #ed1c24;"/>
            <path d="m947.72,165.65h-8.69l-1.21,4.09h-7.82l9.31-24.77h8.35l9.31,24.77h-8.02l-1.24-4.09Zm-1.59-5.36l-2.73-8.9-2.71,8.9h5.44Z" style="fill: #ed1c24;"/>
            <path d="m959.37,144.97h12.72c2.77,0,4.85.66,6.23,1.98,1.38,1.32,2.07,3.19,2.07,5.63s-.75,4.46-2.26,5.86-3.8,2.11-6.89,2.11h-4.19v9.19h-7.69v-24.77Zm7.69,10.56h1.88c1.48,0,2.51-.26,3.11-.77.6-.51.9-1.17.9-1.97s-.26-1.44-.78-1.98c-.52-.54-1.49-.81-2.92-.81h-2.18v5.53Z" style="fill: #ed1c24;"/>
            <path d="m1000.52,144.97h7.64v14.76c0,1.46-.23,2.85-.68,4.15-.46,1.3-1.17,2.44-2.15,3.41-.97.97-2,1.66-3.07,2.05-1.49.55-3.27.83-5.36.83-1.21,0-2.52-.08-3.95-.25s-2.62-.5-3.57-1-1.83-1.21-2.63-2.14c-.79-.92-1.34-1.87-1.63-2.85-.47-1.58-.71-2.97-.71-4.19v-14.76h7.64v15.11c0,1.35.37,2.41,1.12,3.17s1.79,1.14,3.12,1.14,2.35-.37,3.1-1.12c.75-.75,1.12-1.81,1.12-3.18v-15.11Z" style="fill: #ed1c24;"/>
            <path d="m1013.33,169.74v-24.77h12.76c2.37,0,4.17.2,5.42.61,1.25.41,2.26,1.16,3.02,2.26.77,1.1,1.15,2.44,1.15,4.01,0,1.37-.29,2.56-.88,3.56-.59,1-1.39,1.81-2.42,2.42-.65.39-1.55.72-2.69.98.91.3,1.58.61,1.99.91.28.2.69.64,1.22,1.3.53.67.89,1.18,1.07,1.54l3.71,7.18h-8.65l-4.09-7.57c-.52-.98-.98-1.62-1.39-1.91-.55-.38-1.18-.57-1.88-.57h-.68v10.05h-7.69Zm7.69-14.73h3.23c.35,0,1.02-.11,2.03-.34.51-.1.92-.36,1.24-.78.32-.42.48-.9.48-1.44,0-.8-.25-1.41-.76-1.84-.51-.43-1.46-.64-2.86-.64h-3.36v5.04Z" style="fill: #ed1c24;"/>
          </g>
          <g>
            <path d="m624.09,500.58v20.4l-.47-.28c-.13-.06-.24-.12-.35-.16-.11-.05-.15-.07-.12-.07l-2.12-1.27c-.35-.25-.7-.48-1.06-.68-.36-.2-.71-.43-1.06-.68-.16-.06-.3-.14-.42-.24-.25-.19-.38-.31-.38-.38v-10.93c-.63-.09-1.22-.24-1.79-.45-.56-.2-1.11-.43-1.65-.68l-1.98-.99c-.13-.06-.24-.13-.35-.21-.11-.08-.24-.15-.4-.21.09.06.19.14.28.24s.19.19.28.28c.88.91,1.46,1.98,1.74,3.2.31,1.07.42,2.18.33,3.34s-.46,2.2-1.08,3.11c-.47.72-1.1,1.31-1.88,1.77-.79.46-1.6.76-2.45.92-1.22.25-2.43.24-3.6-.05s-2.32-.72-3.42-1.32c-.53-.28-1.07-.58-1.6-.89-.53-.31-1.07-.64-1.6-.99-.53-.34-1.06-.68-1.58-1.01-.52-.33-1.03-.67-1.53-1.01-.28-.19-.56-.38-.82-.59-.27-.2-.53-.42-.78-.64-.44-.41-.86-.84-1.27-1.29-.41-.46-.79-.92-1.13-1.39-1.7-2.07-3.03-4.32-4-6.74.06.06.13.1.21.12.08.02.15.06.21.12.13.06.28.16.47.28.38.22.75.43,1.11.64.36.21.71.42,1.06.64.35.25.69.48,1.04.68.34.2.69.43,1.04.68.16.06.29.14.4.24.11.09.23.19.35.28l.09.09c.69,1.63,1.57,3.23,2.64,4.8.85,1.29,1.74,2.45,2.69,3.49.75.19,1.52.29,2.31.31.78.02,1.55-.09,2.31-.31.75-.22,1.48-.56,2.19-1.01.71-.46,1.28-1.04,1.72-1.77.25-.44.45-.92.59-1.44.14-.52.24-1.04.31-1.58.09-.88.05-1.76-.14-2.64s-.5-1.7-.94-2.45c-.06-.03-.16-.05-.28-.05-.6-.06-1.18-.08-1.74-.05-.57.03-1.15.09-1.74.19-.19.06-.38.1-.57.12s-.39.04-.61.07c-.19-.06-.33-.12-.42-.19-.06-.06-.14-.11-.24-.14-.09-.03-.17-.08-.24-.14-.38-.22-.75-.43-1.11-.64-.36-.2-.71-.42-1.06-.64-.35-.25-.69-.48-1.04-.68-.35-.2-.69-.43-1.04-.68-.16-.09-.29-.18-.4-.26-.11-.08-.23-.16-.35-.26l-.09-.09c.19-.06.38-.1.57-.12.19-.02.39-.05.61-.12,1.19-.28,2.29-.75,3.3-1.41.91-.6,1.72-1.32,2.43-2.17s1.22-1.81,1.53-2.87c.28-.97.3-1.99.05-3.06-1.16.06-2.26.3-3.3.71-1.04.44-2,1.01-2.9,1.72-.9.71-1.64,1.56-2.24,2.57,0,.03-.16-.04-.47-.21-.31-.17-.65-.37-1.01-.59-.36-.22-.71-.42-1.04-.61-.33-.19-.51-.3-.54-.33s-.2-.15-.52-.35c-.31-.2-.65-.42-1.01-.66-.36-.24-.69-.45-.99-.64s-.43-.3-.4-.33c.6-1,1.35-1.88,2.26-2.61.91-.74,1.92-1.33,3.01-1.77,1.04-.38,2.13-.59,3.3-.64,1.16-.05,2.24.18,3.25.68.35.16.67.33.99.52.31.19.63.38.94.57.75.44,1.49.89,2.21,1.34.72.46,1.44.92,2.17,1.39.25.19.49.38.71.57.22.19.44.41.66.66.6.75.94,1.59,1.04,2.5.12,1,0,1.98-.4,2.92-.39.94-.9,1.79-1.53,2.54-.63.72-1.33,1.33-2.12,1.84.22.12.43.25.64.38.2.13.43.27.68.42.03.03.05.05.07.05.02,0,.04.02.07.05.13.06.35.16.66.28.19.09.38.18.57.26.19.08.38.15.56.21.78.25,1.59.44,2.43.56.83.13,1.66.06,2.47-.19.57-.16,1.12-.42,1.67-.8.55-.38.95-.85,1.2-1.41v-10.41h-2.07c-.09-.03-.24-.11-.42-.24-.13-.06-.28-.16-.47-.28-.38-.22-.75-.43-1.11-.64-.36-.2-.71-.42-1.06-.64-.66-.41-1.35-.86-2.07-1.37-.16-.06-.29-.14-.4-.24-.11-.09-.23-.19-.35-.28-.06,0-.09-.03-.09-.09h14.41c.13.03.28.11.47.24.19.13.35.22.47.28l2.12,1.27c.34.22.7.44,1.06.66.36.22.71.46,1.06.71.28.16.53.33.75.52l.09.09h-6.41v10.74Z" style="fill: red;"/>
            <path d="m669.59,489.65l.09.09h-40.98c-.09-.03-.24-.11-.42-.24-.12-.06-.28-.16-.47-.28-.38-.22-.75-.43-1.11-.64-.36-.2-.71-.42-1.06-.64-.66-.41-1.35-.86-2.07-1.37-.16-.06-.29-.14-.4-.24-.11-.09-.23-.19-.35-.28l-.09-.09h40.98c.09.03.24.11.42.24.06.06.14.11.24.14.09.03.17.08.24.14.35.22.71.43,1.08.64.38.2.74.42,1.08.64.35.25.69.48,1.04.68.34.21.69.43,1.04.68.16.06.29.14.4.24.11.09.23.19.35.28Zm-8.9,8.29s0,.03.09.09c.09.06.2.13.33.19.12.09.27.2.42.33-.16.06-.32.12-.49.17-.17.05-.34.1-.49.17-1.7.63-3.31,1.42-4.83,2.38-1.52.96-2.87,2.13-4.03,3.51-.09.13-.19.24-.28.33-.09.09-.19.2-.28.33-.63.88-1.15,1.79-1.55,2.73-.16.41-.28.77-.38,1.08-.22-.09-.38-.17-.49-.24-.11-.06-.21-.12-.31-.17s-.13-.07-.09-.07c-.82-.44-1.54-.88-2.17-1.32-.35-.22-.69-.43-1.04-.64-.35-.2-.69-.43-1.04-.68-.16-.09-.3-.19-.42-.28-.13-.06-.24-.12-.33-.19-.09-.06-.13-.11-.09-.14v-.05c.06-.25.13-.48.21-.68.08-.2.17-.43.26-.68.44-.94,1.04-1.88,1.79-2.83.03-.06.06-.1.09-.12.03-.02.08-.05.14-.12-.06-.35-.17-.68-.31-1.01-.14-.33-.32-.65-.54-.97-.85-.16-1.7-.18-2.57-.07-.86.11-1.69.37-2.47.78-.91.47-1.75,1.12-2.52,1.93-.77.82-1.33,1.73-1.67,2.73-.35,1.01-.47,1.99-.38,2.94s.34,1.89.73,2.8c.39.91.9,1.77,1.51,2.59.61.82,1.26,1.57,1.95,2.26.25.25.5.48.75.68.25.2.5.43.75.68.35.16.68.3,1.01.42.33.13.67.25,1.01.38.12.06.25.13.38.21.12.08.25.15.38.21.13.06.24.13.33.19.09.06.2.13.33.19.38.25.76.49,1.15.71.39.22.78.46,1.15.71.28.19.57.38.87.59.3.21.59.4.87.59.19.12.31.22.38.28h-.09c-1.41-.53-2.77-1.17-4.07-1.91-1.3-.74-2.6-1.5-3.89-2.28-1.29-.82-2.54-1.63-3.77-2.45s-2.37-1.76-3.44-2.83c-.69-.66-1.35-1.41-1.98-2.24-.63-.83-1.15-1.7-1.55-2.61-.41-.91-.67-1.85-.78-2.83-.11-.97,0-1.96.35-2.97.35-1,.9-1.92,1.65-2.73.75-.82,1.6-1.48,2.54-1.98.85-.44,1.75-.71,2.71-.8.96-.09,1.89-.03,2.8.19.53.13,1.04.28,1.51.47.47.19.93.41,1.37.66.82.47,1.63.96,2.45,1.46.82.5,1.63,1.02,2.45,1.55,1.19-1.1,2.51-2.04,3.96-2.83,1.44-.78,2.95-1.43,4.52-1.93.19.06.33.13.42.19.06.06.14.11.24.14s.17.08.24.14l2.12,1.27c.75.47,1.46.93,2.12,1.37Z" style="fill: red;"/>
            <path d="m669.68,489.75h-8.15v31.13c-.19-.06-.34-.14-.47-.24-.12-.06-.24-.12-.35-.17-.11-.05-.15-.07-.12-.07-.34-.22-.69-.43-1.05-.64s-.71-.43-1.05-.68c-.34-.22-.69-.44-1.05-.66-.36-.22-.71-.44-1.05-.66-.16-.09-.3-.19-.42-.28-.28-.16-.42-.27-.42-.33v-27.41h-2.17c-.06-.03-.13-.06-.21-.09-.08-.03-.15-.06-.21-.09-.06-.06-.14-.11-.24-.14-.09-.03-.17-.08-.24-.14-.82-.44-1.54-.88-2.17-1.32-.34-.22-.69-.44-1.04-.66-.35-.22-.69-.44-1.04-.66-.16-.09-.29-.19-.4-.28-.11-.09-.23-.17-.35-.24l-.09-.09h16.3c.19.06.33.12.42.19.06.06.14.11.24.14.09.03.17.08.24.14.35.22.7.43,1.06.64.36.2.71.43,1.06.68.35.22.7.43,1.06.64.36.21.71.43,1.06.68.12.09.25.18.38.26.12.08.25.17.38.26l.09.09Z" style="fill: red;"/>
            <path d="m697.47,489.75h-30.8c-.09-.03-.24-.11-.42-.24-.16-.09-.31-.17-.47-.24-.38-.25-.75-.48-1.11-.68-.36-.2-.71-.42-1.06-.64-.66-.41-1.35-.86-2.07-1.37-.16-.06-.29-.14-.4-.24-.11-.09-.23-.19-.35-.28l-.09-.09h30.76c.16.03.3.11.42.24.09.06.18.11.26.14.08.03.17.08.26.14.35.19.7.39,1.06.61.36.22.71.44,1.06.66.34.25.7.48,1.06.68.36.21.71.43,1.06.68.28.16.53.33.75.52l.09.09Zm-10.36,8.86c.75.75,1.32,1.63,1.7,2.64.47,1.22.64,2.43.52,3.63-.06,1.04-.33,2.03-.8,2.97-.47.94-1.1,1.77-1.88,2.5-.82.72-1.74,1.3-2.76,1.72-1.02.42-2.08.65-3.18.68-1.13,0-2.18-.19-3.16-.57-.38-.16-.74-.32-1.08-.49-.35-.17-.69-.35-1.04-.54-.69-.41-1.37-.82-2.05-1.22-.68-.41-1.34-.83-2-1.27-.31-.22-.62-.42-.92-.61s-.6-.39-.92-.61c-.85-.66-1.55-1.45-2.12-2.38-.57-.93-.93-1.92-1.08-2.99-.16-1.04-.11-2.06.14-3.08.25-1.02.69-1.95,1.32-2.8.63-.91,1.4-1.66,2.31-2.26.91-.6,1.9-1.02,2.97-1.27,1.1-.28,2.17-.33,3.2-.14.6.06,1.16.2,1.7.4.53.21,1.07.45,1.6.73.53.28,1.05.58,1.55.89.5.31,1.02.63,1.55.94.5.31,1,.63,1.51.94.5.31.99.64,1.46.99.25.19.49.38.73.57.24.19.48.41.73.66Zm-4.38,5.04c.41-1,.62-2.03.64-3.06.02-1.04-.17-2.06-.54-3.06-.09-.25-.2-.48-.31-.68-.11-.2-.23-.42-.35-.64-1.41-.19-2.8-.04-4.17.45-1.37.49-2.54,1.26-3.51,2.33-.72.79-1.27,1.67-1.65,2.64-.38.97-.57,1.98-.57,3.01,0,1.57.41,3,1.22,4.29,1.7.19,3.33-.08,4.9-.8.97-.44,1.84-1.04,2.59-1.81.75-.77,1.33-1.66,1.74-2.66Z" style="fill: red;"/>
            <path d="m697.28,489.75h-8.15v31.13c-.19-.06-.34-.14-.47-.24-.12-.06-.24-.12-.35-.17-.11-.05-.15-.07-.12-.07-.34-.22-.69-.43-1.05-.64s-.71-.43-1.05-.68c-.34-.22-.69-.44-1.05-.66-.36-.22-.71-.44-1.05-.66-.16-.09-.3-.19-.42-.28-.28-.16-.42-.27-.42-.33v-27.41h-2.17c-.06-.03-.13-.06-.21-.09-.08-.03-.15-.06-.21-.09-.06-.06-.14-.11-.24-.14-.09-.03-.17-.08-.24-.14-.82-.44-1.54-.88-2.17-1.32-.34-.22-.69-.44-1.04-.66-.35-.22-.69-.44-1.04-.66-.16-.09-.29-.19-.4-.28-.11-.09-.23-.17-.35-.24l-.09-.09h16.3c.19.06.33.12.42.19.06.06.14.11.24.14.09.03.17.08.24.14.35.22.7.43,1.06.64.36.2.71.43,1.06.68.35.22.7.43,1.06.64.36.21.71.43,1.06.68.12.09.25.18.38.26.12.08.25.17.38.26l.09.09Z" style="fill: red;"/>
            <path d="m713.91,489.79v8.15c0,.6-.09,1.19-.28,1.79-.34,1.19-.99,2.2-1.94,3.01-.95.82-2.06,1.21-3.34,1.18-.78,0-1.5-.14-2.16-.42-.25-.06-.47-.13-.66-.21s-.39-.18-.61-.31c-.66-.34-1.32-.71-1.98-1.08-.66-.38-1.3-.77-1.93-1.18.72,1.16,1.46,2.3,2.21,3.42.75,1.12,1.54,2.22,2.36,3.32,1.66,2.29,3.37,4.52,5.11,6.69s3.59,4.27,5.53,6.31c-.06-.03-.13-.05-.21-.07-.08-.02-.15-.05-.21-.12-.09-.06-.18-.11-.26-.14-.08-.03-.17-.08-.26-.14l-2.11-1.27c-.34-.25-.69-.48-1.05-.68-.36-.2-.71-.43-1.05-.68-.12-.09-.27-.19-.42-.28-.16-.09-.28-.2-.37-.33-1.09-1.13-2.14-2.28-3.14-3.46-1-1.18-2.01-2.36-3.01-3.56-1.44-1.82-2.85-3.67-4.22-5.53-1.37-1.87-2.68-3.79-3.93-5.77-.53-.79-1.04-1.56-1.53-2.33-.49-.77-.95-1.56-1.39-2.38.06.03.14.06.24.07s.17.05.24.12c.19.13.35.22.47.28.35.22.7.43,1.06.64.36.2.71.43,1.06.68.35.22.7.43,1.06.64.36.21.71.43,1.06.68.09.06.24.15.42.26.19.11.31.23.38.35.69.94,1.44,1.84,2.26,2.68.22.03.43.05.64.07.2.02.43.02.68.02,1.26-.06,2.35-.52,3.27-1.37.93-.85,1.55-1.87,1.86-3.06.09-.35.15-.7.17-1.06.02-.36.02-.71.02-1.06v-3.86h-14.23c-.09-.03-.24-.11-.42-.24-.12-.06-.28-.16-.47-.28-.38-.19-.75-.39-1.11-.61-.36-.22-.71-.44-1.06-.66-.66-.41-1.35-.86-2.07-1.37-.16-.06-.29-.14-.4-.24-.11-.09-.23-.19-.35-.28l-.09-.09h27.27c.13.03.28.11.47.24.19.13.35.22.47.28l2.12,1.27c.34.22.7.44,1.06.66.36.22.71.46,1.06.71.28.16.53.33.75.52l.09.09h-7.11Z" style="fill: red;"/>
            <path d="m728.84,504.79c-.09-.02-.17-.05-.24-.12-.19-.12-.35-.22-.47-.28l-2.12-1.27c-.35-.25-.7-.48-1.06-.68-.36-.2-.71-.43-1.06-.68-.13-.06-.24-.14-.35-.24-.11-.09-.24-.19-.4-.28l-.09-.09h9.94c.06.03.14.06.24.09s.17.06.24.09c.06.06.13.11.21.14.08.03.17.08.26.14.35.22.7.43,1.06.64.36.21.71.43,1.06.68.35.22.7.44,1.06.66.36.22.71.44,1.06.66.12.09.24.19.35.28.11.09.24.17.4.24,0,.06.03.09.09.09h-9.94c-.06-.03-.14-.05-.24-.07Z" style="fill: red;"/>
            <path d="m775.85,489.65c.06,0,.09.03.09.09h-19.31v10.88h6.74c.09.03.24.11.42.24.06.06.14.11.24.14.09.03.17.08.24.14.35.19.7.39,1.06.61.36.22.71.44,1.06.66.34.22.7.44,1.06.66.36.22.71.46,1.06.71.28.16.53.33.75.52l.09.09h-12.72v3.39c0,.31-.02.61-.05.89-.03.28-.09.57-.19.85-.16.47-.39.93-.71,1.39-.31.46-.68.83-1.11,1.13-.42.3-.89.51-1.39.64-.5.13-1.02.11-1.55-.05-.41-.16-.75-.31-1.04-.47-.47-.25-.93-.52-1.39-.8-.46-.28-.9-.56-1.34-.85l-2.68-1.7c-.25-.19-.49-.39-.73-.61-.24-.22-.43-.46-.59-.71-.53-.97-.68-2.03-.42-3.16.13-.6.34-1.15.64-1.67.3-.52.7-.95,1.2-1.3.31-.22.64-.39.99-.52.35-.12.69-.19,1.04-.19v-.05h3.34v-10.88h-6.83c-.09-.03-.24-.11-.42-.24-.09-.06-.18-.11-.26-.14-.08-.03-.15-.06-.21-.09-.38-.22-.75-.44-1.11-.66-.36-.22-.71-.44-1.06-.66-.66-.41-1.35-.86-2.07-1.37-.16-.06-.29-.14-.4-.24-.11-.09-.23-.19-.35-.28l-.09-.09h32.12c.19.06.33.14.42.24.12.06.28.16.47.28.38.22.75.43,1.11.64.36.2.71.42,1.06.64.35.25.7.48,1.06.68.36.21.71.43,1.06.68.12.06.24.14.35.24.11.09.23.19.35.28Zm-25.86,17.1c.12-.25.22-.46.28-.61-.09.13-.18.25-.26.38-.08.12-.15.25-.21.38-.03.09-.08.21-.14.33.12-.12.24-.28.33-.47Z" style="fill: red;"/>
            <path d="m777.5,489.75h-8.15v31.13c-.19-.06-.34-.14-.47-.24-.12-.06-.24-.12-.35-.17-.11-.05-.15-.07-.12-.07-.34-.22-.69-.43-1.05-.64s-.71-.43-1.05-.68c-.34-.22-.69-.44-1.05-.66-.36-.22-.71-.44-1.05-.66-.16-.09-.3-.19-.42-.28-.28-.16-.42-.27-.42-.33v-27.41h-2.17c-.06-.03-.13-.06-.21-.09-.08-.03-.15-.06-.21-.09-.06-.06-.14-.11-.24-.14-.09-.03-.17-.08-.24-.14-.82-.44-1.54-.88-2.17-1.32-.34-.22-.69-.44-1.04-.66-.35-.22-.69-.44-1.04-.66-.16-.09-.29-.19-.4-.28-.11-.09-.23-.17-.35-.24l-.09-.09h16.3c.19.06.33.12.42.19.06.06.14.11.24.14.09.03.17.08.24.14.35.22.7.43,1.06.64.36.2.71.43,1.06.68.35.22.7.43,1.06.64.36.21.71.43,1.06.68.12.09.25.18.38.26.12.08.25.17.38.26l.09.09Z" style="fill: red;"/>
            <path d="m759.69,483.43l.09.09-.09-.09-1.7-1.55c-.16-.16-.31-.31-.47-.45-.16-.14-.31-.29-.47-.45-.97-.91-1.93-1.81-2.87-2.69-.94-.88-1.9-1.76-2.87-2.64l-.14-.14c-.16-.12-.29-.24-.4-.35s-.24-.23-.4-.35c-.38-.34-.76-.71-1.15-1.08-.39-.38-.78-.74-1.15-1.08-.22-.19-.44-.38-.66-.59-.22-.2-.44-.4-.66-.59-.16-.16-.31-.31-.47-.47-.16-.16-.31-.33-.47-.52-.22-.22-.43-.48-.64-.78-.2-.3-.37-.61-.49-.94-.12-.33-.21-.66-.26-.99-.05-.33,0-.67.12-1.01l.05-.09c.16-.38.4-.67.73-.89.33-.22.7-.38,1.11-.5.41-.11.82-.17,1.25-.19.42-.02.81-.02,1.15-.02.19.06.35.13.47.19.19.13.35.22.47.28l2.12,1.27c.35.25.7.48,1.06.68.36.21.71.43,1.06.68.13.09.24.18.35.26.11.08.24.17.4.26l.09.09h-1.04c-.6.06-1.22.2-1.86.4-.64.2-1.09.59-1.34,1.15-.06.09-.1.2-.12.31-.02.11-.04.21-.07.31-.06.72.1,1.41.49,2.07.39.66.84,1.22,1.34,1.7.31.31.62.6.92.87.3.27.62.56.97.87.5.44,1,.9,1.48,1.37.49.47.98.93,1.48,1.37,1.1,1.04,2.21,2.07,3.32,3.08,1.12,1.02,2.22,2.05,3.32,3.08.06.03.13.08.19.14.28.25.56.5.82.75.27.25.53.5.78.75l-5.84-3.58Z" style="fill: red;"/>
            <path d="m794.22,489.79v8.15c0,.6-.09,1.19-.28,1.79-.34,1.19-.99,2.2-1.94,3.01-.95.82-2.06,1.21-3.34,1.18-.78,0-1.5-.14-2.16-.42-.25-.06-.47-.13-.66-.21s-.39-.18-.61-.31c-.66-.34-1.32-.71-1.98-1.08-.66-.38-1.3-.77-1.93-1.18.72,1.16,1.46,2.3,2.21,3.42.75,1.12,1.54,2.22,2.36,3.32,1.66,2.29,3.37,4.52,5.11,6.69s3.59,4.27,5.53,6.31c-.06-.03-.13-.05-.21-.07-.08-.02-.15-.05-.21-.12-.09-.06-.18-.11-.26-.14-.08-.03-.17-.08-.26-.14l-2.11-1.27c-.34-.25-.69-.48-1.05-.68-.36-.2-.71-.43-1.05-.68-.12-.09-.27-.19-.42-.28-.16-.09-.28-.2-.37-.33-1.09-1.13-2.14-2.28-3.14-3.46-1-1.18-2.01-2.36-3.01-3.56-1.44-1.82-2.85-3.67-4.22-5.53-1.37-1.87-2.68-3.79-3.93-5.77-.53-.79-1.04-1.56-1.53-2.33-.49-.77-.95-1.56-1.39-2.38.06.03.14.06.24.07s.17.05.24.12c.19.13.35.22.47.28.35.22.7.43,1.06.64.36.2.71.43,1.06.68.35.22.7.43,1.06.64.36.21.71.43,1.06.68.09.06.24.15.42.26.19.11.31.23.38.35.69.94,1.44,1.84,2.26,2.68.22.03.43.05.64.07.2.02.43.02.68.02,1.26-.06,2.35-.52,3.27-1.37.93-.85,1.55-1.87,1.86-3.06.09-.35.15-.7.17-1.06.02-.36.02-.71.02-1.06v-3.86h-14.23c-.09-.03-.24-.11-.42-.24-.12-.06-.28-.16-.47-.28-.38-.19-.75-.39-1.11-.61-.36-.22-.71-.44-1.06-.66-.66-.41-1.35-.86-2.07-1.37-.16-.06-.29-.14-.4-.24-.11-.09-.23-.19-.35-.28l-.09-.09h27.27c.13.03.28.11.47.24.19.13.35.22.47.28l2.12,1.27c.34.22.7.44,1.06.66.36.22.71.46,1.06.71.28.16.53.33.75.52l.09.09h-7.11Z" style="fill: red;"/>
            <path d="m810.13,498.84c-.85.38-1.62.89-2.31,1.53-.69.64-1.24,1.41-1.65,2.28-.47.94-.73,1.92-.78,2.92-.05,1,.06,1.99.33,2.94.27.96.67,1.88,1.2,2.78.53.89,1.15,1.7,1.84,2.43.97.31,1.99.51,3.04.59,1.05.08,2.09.02,3.11-.19,1.02-.2,1.98-.56,2.89-1.06.91-.5,1.69-1.18,2.35-2.03.59-.75,1.02-1.59,1.28-2.52.27-.93.37-1.88.3-2.85-.09-1.29-.41-2.5-.96-3.65-.55-1.15-1.24-2.19-2.08-3.13.19.06.33.14.42.24.09.03.18.06.26.09.08.03.16.08.26.14.35.22.7.43,1.06.64.36.21.71.43,1.06.68.35.22.7.43,1.06.64.36.2.71.43,1.06.68.12.09.27.19.42.28.16.09.28.2.38.33.66.72,1.23,1.52,1.72,2.4.49.88.85,1.79,1.08,2.73.24.94.32,1.9.26,2.87-.06.97-.33,1.92-.8,2.83-.41.85-.96,1.59-1.65,2.24-.69.64-1.48,1.17-2.35,1.58-1.01.44-2.05.71-3.13.8-1.08.09-2.17.05-3.27-.14-.57-.12-1.13-.27-1.7-.42-.57-.16-1.12-.36-1.65-.61-.38-.16-.75-.34-1.11-.54-.36-.2-.73-.42-1.11-.64-.97-.57-1.94-1.15-2.9-1.74-.96-.6-1.91-1.22-2.85-1.88s-1.82-1.41-2.64-2.26c-.82-.85-1.49-1.81-2.03-2.87-.47-.94-.81-1.93-1.01-2.97-.2-1.04-.21-2.07-.02-3.11.35-1.88,1.27-3.44,2.78-4.66.82-.63,1.72-1.1,2.71-1.41s1.99-.5,2.99-.57c.47-.03.93-.04,1.39-.02.46.02.92.02,1.39.02h7.02v-4.38h-18.56c-.09-.03-.24-.11-.42-.24-.06-.06-.14-.11-.24-.14-.09-.03-.17-.08-.24-.14-.38-.22-.75-.43-1.11-.64-.36-.2-.71-.42-1.06-.64-.66-.41-1.35-.86-2.07-1.37-.16-.06-.29-.14-.4-.24-.11-.09-.23-.19-.35-.28l-.09-.09h33.54c.09.03.24.11.42.24.06.06.14.11.24.14s.17.08.24.14l2.12,1.27c.35.22.7.44,1.06.66.36.22.71.46,1.06.71.16.06.29.14.4.24.11.09.23.19.35.28l.09.09h-9v8.1h-9.73c-.3,0-.6.03-.92.09-1.04.09-2.04.36-3.01.8Z" style="fill: red;"/>
            <path d="m840.24,504.79c-.09-.02-.17-.05-.24-.12-.19-.12-.35-.22-.47-.28l-2.12-1.27c-.35-.25-.7-.48-1.06-.68-.36-.2-.71-.43-1.06-.68-.13-.06-.24-.14-.35-.24-.11-.09-.24-.19-.4-.28l-.09-.09h9.94c.06.03.14.06.24.09s.17.06.24.09c.06.06.13.11.21.14.08.03.17.08.26.14.35.22.7.43,1.06.64.36.21.71.43,1.06.68.35.22.7.44,1.06.66.36.22.71.44,1.06.66.12.09.24.19.35.28.11.09.24.17.4.24,0,.06.03.09.09.09h-9.94c-.06-.03-.14-.05-.24-.07Z" style="fill: red;"/>
            <path d="m861.53,496.95c-.44.35-.65.77-.64,1.27.02.5.12.97.31,1.41.12.25.22.42.28.52.94-.25,1.91-.38,2.9-.38s1.94.13,2.85.38c.56.16,1.08.36,1.55.61.25.09.49.21.71.33.22.13.45.27.71.42.69.38,1.37.77,2.03,1.18.66.41,1.32.83,1.98,1.27.63.41,1.25.84,1.86,1.29.61.46,1.14,1,1.58,1.62.28.44.51.9.68,1.37.17.47.27.97.31,1.51.06.72,0,1.41-.19,2.05s-.46,1.26-.8,1.86c0,.03-.16-.04-.47-.21s-.7-.39-1.15-.66c-.46-.27-.94-.56-1.46-.87-.52-.31-1-.62-1.44-.92-.44-.3-.81-.54-1.11-.73-.3-.19-.43-.3-.4-.33.44-.72.75-1.49.92-2.31.17-.82.18-1.63.02-2.45-.06-.28-.15-.55-.26-.8-.11-.25-.23-.5-.35-.75-1.13-.16-2.28-.13-3.46.07-1.18.2-2.27.57-3.27,1.11l.05.05c-.06,0-.11-.01-.14-.05-1.32.72-2.37,1.67-3.16,2.83-.53.79-.91,1.64-1.13,2.57-.22.93-.2,1.84.05,2.75.16.53.38,1.05.68,1.55.3.5.64.97,1.01,1.41,1.29.35,2.58.49,3.89.45,1.3-.05,2.6-.26,3.89-.64.16.03.3.11.42.24.09.06.18.11.26.14.08.03.17.08.26.14l2.12,1.27c.35.22.7.44,1.06.66.36.22.71.46,1.06.71.12.06.24.14.35.24.11.09.24.19.4.28l.09.09c-.25.06-.48.12-.68.16-.2.05-.43.1-.68.17-1.1.22-2.23.32-3.39.31-1.16-.02-2.29-.2-3.39-.54-.63-.19-1.22-.42-1.79-.68-.57-.27-1.12-.57-1.65-.92-.97-.53-1.92-1.09-2.83-1.67-.91-.58-1.82-1.18-2.73-1.81-.41-.25-.85-.58-1.32-.99-.6-.5-1.14-1.07-1.62-1.7-.49-.63-.89-1.3-1.2-2.03-.31-.82-.44-1.66-.38-2.54.06-.88.3-1.73.71-2.54.44-.82.98-1.52,1.62-2.12.64-.6,1.36-1.11,2.14-1.55-.41-.44-.82-.88-1.22-1.32-.41-.44-.8-.89-1.18-1.37-.25-.34-.49-.68-.73-1.01-.24-.33-.45-.68-.64-1.06-.25-.44-.42-.93-.52-1.48-.09-.55.06-1.03.47-1.44.44-.44.98-.71,1.62-.82.64-.11,1.23-.2,1.77-.26.53-.03,1.08-.05,1.65-.05h10.36v-2.5h-15.68c-.19-.06-.33-.12-.42-.19-.13-.06-.28-.16-.47-.28-.82-.44-1.54-.88-2.17-1.32-.35-.22-.69-.43-1.04-.64-.35-.2-.69-.43-1.04-.68-.16-.09-.29-.18-.4-.26-.11-.08-.23-.17-.35-.26l-.09-.09h29.16c.19.06.35.12.47.19.19.13.35.22.47.28l2.12,1.27c.35.25.7.48,1.06.68.36.21.71.43,1.06.68.12.09.25.18.38.26.12.08.25.17.38.26l.09.09h-7.49v6.22s-.05.05-.14.05h-7.77c-.63,0-1.24,0-1.84-.02-.6-.02-1.21,0-1.84.02-.38.03-.75.06-1.11.09-.36.03-.71.09-1.06.19-.25.06-.51.14-.78.24-.27.09-.51.24-.73.42Z" style="fill: red;"/>
            <path d="m918.71,481.5c1.6,1.7,2.94,3.52,4,5.46-.09-.03-.18-.06-.26-.09-.08-.03-.15-.06-.21-.09-.06-.06-.13-.11-.21-.14-.08-.03-.17-.08-.26-.14-.35-.22-.7-.44-1.06-.66-.36-.22-.71-.44-1.06-.66-.35-.22-.7-.44-1.06-.66-.36-.22-.71-.44-1.06-.66-.13-.09-.25-.19-.38-.28-.13-.09-.25-.19-.38-.28l-.09-.05c-1.16-2.2-2.67-4.19-4.52-5.98-.25-.25-.51-.49-.78-.73-.27-.24-.53-.48-.78-.73-.35-.16-.68-.3-.99-.42-.31-.12-.64-.25-.99-.38-.03,0-.14-.03-.33-.09-2.2-.75-4.49-1.18-6.88-1.27-.57-.03-1.13-.04-1.7-.02-.56.02-1.13.1-1.7.26-1.07.25-2.03.64-2.87,1.18-.85.57-1.6,1.26-2.26,2.07s-1.16,1.73-1.5,2.73c-.34,1.01-.51,2.03-.49,3.08.02,1.05.19,2.08.54,3.09h2.91c.19.06.33.12.42.19.06.06.14.11.24.14.09.03.17.08.24.14.35.22.7.43,1.06.64.36.2.71.43,1.06.68.35.22.7.43,1.06.64.36.21.71.43,1.06.68.12.09.25.18.38.26.12.08.25.17.38.26l.09.09h-8.15v34.43c-.19-.06-.34-.14-.47-.24-.13-.06-.24-.12-.35-.16-.11-.05-.15-.07-.12-.07-.34-.22-.69-.43-1.05-.64s-.71-.43-1.05-.68c-.34-.22-.69-.44-1.05-.66-.36-.22-.71-.44-1.05-.66-.16-.09-.3-.19-.42-.28-.28-.16-.42-.27-.42-.33v-30.71h-2.17c-.06-.03-.13-.06-.21-.09-.08-.03-.15-.06-.21-.09-.06-.06-.14-.11-.24-.14-.09-.03-.17-.08-.24-.14-.82-.44-1.54-.88-2.17-1.32-.35-.22-.69-.44-1.04-.66-.35-.22-.69-.44-1.04-.66-.16-.09-.29-.19-.4-.28-.11-.09-.23-.17-.35-.24l-.09-.09h12.03c-.22-.13-.43-.25-.64-.38-.2-.12-.4-.25-.59-.38-.75-.47-1.46-.93-2.12-1.37-.16-.06-.29-.14-.4-.24-.11-.09-.23-.19-.35-.28l-.09-.09c-.53-1.07-.85-2.2-.94-3.39-.09-1.19.03-2.35.38-3.49.31-1,.78-1.92,1.39-2.75s1.36-1.55,2.24-2.14c.91-.66,1.85-1.1,2.81-1.32,1.03-.28,2.13-.39,3.29-.33,1.19.06,2.36.19,3.51.38,1.15.19,2.28.47,3.41.85,1.07.35,2.15.77,3.25,1.27.97.44,1.92.93,2.85,1.48.93.55,1.84,1.12,2.76,1.72.91.57,1.82,1.14,2.73,1.72.91.58,1.77,1.22,2.59,1.91.44.35.87.71,1.3,1.11.42.39.84.79,1.25,1.2Z" style="fill: red;"/>
            <path d="m932.74,489.65c.06,0,.09.03.09.09h-19.64v7.49c0,.25-.02.44-.05.57h6.64c.19.06.35.12.47.19.06.06.14.11.24.14.09.03.17.08.24.14l2.12,1.27c.35.25.7.48,1.06.68.36.2.71.43,1.06.68.12.09.24.18.35.26.11.08.24.17.4.26l.09.09h-13.74c-.34.47-.75.87-1.22,1.2-.47.33-.98.56-1.54.68-.31.06-.62.09-.94.07-.31-.02-.61-.07-.89-.17-.38-.09-.75-.24-1.13-.42-.41-.22-.8-.44-1.18-.66-.38-.22-.77-.45-1.18-.71.63,1.1,1.28,2.19,1.96,3.27.67,1.08,1.37,2.16,2.09,3.23,1.56,2.26,3.18,4.47,4.87,6.62,1.69,2.15,3.47,4.23,5.36,6.24-.19-.06-.33-.13-.42-.19s-.18-.11-.26-.14c-.08-.03-.16-.08-.26-.14-.35-.22-.7-.43-1.06-.64-.36-.2-.71-.43-1.06-.68-.35-.22-.7-.43-1.06-.64-.36-.2-.71-.43-1.06-.68-.12-.09-.26-.19-.42-.28-.16-.09-.28-.2-.37-.33-1.15-1.22-2.27-2.48-3.37-3.77-1.09-1.29-2.14-2.61-3.14-3.96-2.76-3.58-5.24-7.29-7.44-11.12-.44-.78-.88-1.56-1.32-2.33-.44-.77-.85-1.56-1.23-2.38.09.03.24.11.42.24.09.06.18.11.26.14.08.03.17.08.26.14l2.12,1.27c.35.25.69.48,1.04.68.35.21.69.43,1.04.68.16.06.29.14.4.24.11.09.23.19.35.28.06,0,.09.03.09.09.22.41.44.8.66,1.18.22.38.45.75.71,1.13.66-.09,1.24-.33,1.74-.71.53-.38.97-.83,1.32-1.37.35-.53.6-1.1.75-1.7.12-.38.2-.76.21-1.15.02-.39.02-.79.02-1.2v-3.82h-14.37c-.09-.03-.24-.11-.42-.24-.12-.06-.28-.16-.47-.28-.38-.22-.75-.43-1.11-.64-.36-.2-.71-.42-1.06-.64-.66-.41-1.35-.86-2.07-1.37-.16-.06-.29-.14-.4-.24-.11-.09-.23-.19-.35-.28l-.09-.09h20.35v-.05l.09.05h19.55c.09.03.24.11.42.24.12.06.28.16.47.28.38.22.75.43,1.11.64.36.2.71.42,1.06.64.35.25.69.48,1.04.68.35.21.69.43,1.04.68.16.06.29.14.4.24.11.09.23.19.35.28Z" style="fill: red;"/>
            <path d="m953.33,489.65c.06,0,.09.03.09.09h-34.24c-.09-.03-.24-.11-.42-.24-.09-.06-.18-.11-.26-.14-.08-.03-.15-.06-.21-.09-.38-.22-.75-.44-1.11-.66-.36-.22-.71-.44-1.06-.66-.66-.41-1.35-.86-2.07-1.37-.16-.06-.29-.14-.4-.24-.11-.09-.23-.19-.35-.28l-.09-.09h34.24c.09.03.24.11.42.24.06.06.14.11.24.14.09.03.17.08.24.14.35.22.71.43,1.08.64.38.2.74.42,1.08.64.35.25.69.48,1.04.68.34.21.69.43,1.04.68.16.06.29.14.4.24.11.09.23.19.35.28Zm-8.57,7.4c.16.06.29.14.4.24.11.09.23.19.35.28.06,0,.09.03.09.09h-12.39c-.5,0-1.01.03-1.51.09-.88.09-1.66.3-2.35.61-.82.35-1.54.8-2.17,1.37-.63.57-1.1,1.26-1.41,2.07-.44,1.13-.55,2.3-.33,3.51.22,1.21.57,2.35,1.04,3.41.41.91.86,1.78,1.37,2.61.5.83,1.04,1.64,1.6,2.43.82,1.1,1.66,2.16,2.54,3.18.88,1.02,1.77,2.03,2.68,3.04-.09-.03-.24-.11-.42-.24-.06-.06-.14-.11-.24-.14s-.17-.08-.24-.14c-.38-.19-.75-.39-1.11-.61-.36-.22-.71-.44-1.06-.66-.66-.41-1.35-.86-2.07-1.37-.31-.16-.6-.36-.85-.61-.53-.56-1.06-1.13-1.58-1.7s-1.04-1.16-1.58-1.79c-.72-.88-1.41-1.77-2.07-2.68-.66-.91-1.29-1.87-1.88-2.87-.41-.69-.77-1.41-1.08-2.14-.31-.74-.58-1.5-.8-2.28-.25-1-.35-2.03-.28-3.06.06-1.04.41-1.99,1.04-2.87.5-.66,1.11-1.2,1.84-1.62.72-.42,1.49-.75,2.31-.97.41-.09.81-.17,1.2-.24.39-.06.79-.09,1.2-.09h12.62c.09.03.24.11.42.24.09.06.18.1.26.12.08.02.15.06.21.12.38.22.75.44,1.11.66.36.22.71.44,1.06.66.66.41,1.35.86,2.07,1.37Z" style="fill: red;"/>
            <path d="m953.7,489.75h-8.15v31.13c-.19-.06-.34-.14-.47-.24-.12-.06-.24-.12-.35-.17-.11-.05-.15-.07-.12-.07-.34-.22-.69-.43-1.05-.64s-.71-.43-1.05-.68c-.34-.22-.69-.44-1.05-.66-.36-.22-.71-.44-1.05-.66-.16-.09-.3-.19-.42-.28-.28-.16-.42-.27-.42-.33v-27.41h-2.17c-.06-.03-.13-.06-.21-.09-.08-.03-.15-.06-.21-.09-.06-.06-.14-.11-.24-.14-.09-.03-.17-.08-.24-.14-.82-.44-1.54-.88-2.17-1.32-.34-.22-.69-.44-1.04-.66-.35-.22-.69-.44-1.04-.66-.16-.09-.29-.19-.4-.28-.11-.09-.23-.17-.35-.24l-.09-.09h16.3c.19.06.33.12.42.19.06.06.14.11.24.14.09.03.17.08.24.14.35.22.7.43,1.06.64.36.2.71.43,1.06.68.35.22.7.43,1.06.64.36.21.71.43,1.06.68.12.09.25.18.38.26.12.08.25.17.38.26l.09.09Z" style="fill: red;"/>
            <path d="m986.02,489.65l.05.09h-33.3c-.09-.03-.24-.11-.42-.24-.09-.06-.18-.11-.26-.14-.08-.03-.15-.06-.21-.09-.38-.22-.75-.44-1.11-.66-.36-.22-.71-.44-1.06-.66-.66-.41-1.35-.86-2.07-1.37-.16-.06-.29-.14-.4-.24-.11-.09-.23-.19-.35-.28l-.09-.09h33.3c.12.03.28.11.47.24.19.13.35.22.47.28l2.12,1.27c.35.25.7.48,1.06.68.36.21.71.43,1.06.68.12.06.24.14.35.24.11.09.24.19.4.28Zm-7.82,9.89c.12.09.25.18.38.26.12.08.25.17.38.26l.09.09h-15.21c.28.19.56.38.82.59.27.21.53.43.78.68.6.6,1,1.27,1.22,2.03.28.85.38,1.73.28,2.64-.09.91-.36,1.76-.8,2.54-.47.91-1.14,1.7-2,2.36-.86.66-1.85,1-2.94,1.04-.25,0-.49-.02-.71-.05-.22-.03-.46-.09-.71-.19-.31-.09-.57-.2-.75-.33-.72-.35-1.41-.72-2.07-1.13-.66-.41-1.32-.83-1.98-1.27-.75-.47-1.5-.97-2.24-1.48-.74-.52-1.28-1.2-1.62-2.05-.47-1.07-.62-2.2-.45-3.39s.6-2.26,1.3-3.2c.35-.44.73-.84,1.15-1.2.42-.36.9-.67,1.44-.92.25-.12.53-.21.82-.26.3-.05.59-.09.87-.12h16.82c.19.06.33.13.42.19.06.06.14.11.24.14.09.03.17.08.24.14l2.12,1.27c.35.25.7.48,1.06.68.36.2.71.43,1.06.68Zm-17.57,4.24c.35-1.13.42-2.25.24-3.34-.72.25-1.37.65-1.95,1.2-.58.55-1.06,1.17-1.44,1.86s-.64,1.43-.8,2.21c-.16.79-.16,1.55,0,2.31.94-.35,1.76-.9,2.45-1.67.69-.77,1.19-1.62,1.51-2.57Z" style="fill: red;"/>
            <path d="m987.19,489.75h-8.15v31.13c-.19-.06-.34-.14-.47-.24-.12-.06-.24-.12-.35-.17-.11-.05-.15-.07-.12-.07-.34-.22-.69-.43-1.05-.64s-.71-.43-1.05-.68c-.34-.22-.69-.44-1.05-.66-.36-.22-.71-.44-1.05-.66-.16-.09-.3-.19-.42-.28-.28-.16-.42-.27-.42-.33v-27.41h-2.17c-.06-.03-.13-.06-.21-.09-.08-.03-.15-.06-.21-.09-.06-.06-.14-.11-.24-.14-.09-.03-.17-.08-.24-.14-.82-.44-1.54-.88-2.17-1.32-.34-.22-.69-.44-1.04-.66-.35-.22-.69-.44-1.04-.66-.16-.09-.29-.19-.4-.28-.11-.09-.23-.17-.35-.24l-.09-.09h16.3c.19.06.33.12.42.19.06.06.14.11.24.14.09.03.17.08.24.14.35.22.7.43,1.06.64.36.2.71.43,1.06.68.35.22.7.43,1.06.64.36.21.71.43,1.06.68.12.09.25.18.38.26.12.08.25.17.38.26l.09.09Z" style="fill: red;"/>
            <path d="m998.4,489.75h-8.15v31.13c-.19-.06-.34-.14-.47-.24-.12-.06-.24-.12-.35-.17-.11-.05-.15-.07-.12-.07-.34-.22-.69-.43-1.05-.64s-.71-.43-1.05-.68c-.34-.22-.69-.44-1.05-.66-.36-.22-.71-.44-1.05-.66-.16-.09-.3-.19-.42-.28-.28-.16-.42-.27-.42-.33v-27.41h-2.17c-.06-.03-.13-.06-.21-.09-.08-.03-.15-.06-.21-.09-.06-.06-.14-.11-.24-.14-.09-.03-.17-.08-.24-.14-.82-.44-1.54-.88-2.17-1.32-.34-.22-.69-.44-1.04-.66-.35-.22-.69-.44-1.04-.66-.16-.09-.29-.19-.4-.28-.11-.09-.23-.17-.35-.24l-.09-.09h16.3c.19.06.33.12.42.19.06.06.14.11.24.14.09.03.17.08.24.14.35.22.7.43,1.06.64.36.2.71.43,1.06.68.35.22.7.43,1.06.64.36.21.71.43,1.06.68.12.09.25.18.38.26.12.08.25.17.38.26l.09.09Z" style="fill: red;"/>
            <path d="m1001.09,492.01v8.01c0,.94.09,1.88.28,2.83.19.94.5,1.82.94,2.64.97.13,1.96.11,2.97-.05,1-.16,1.93-.5,2.78-1.04.91-.6,1.64-1.36,2.19-2.28.55-.93.93-1.92,1.15-2.99.19.09.35.17.47.24.12.06.24.12.33.17s.12.07.09.07c.38.22.74.43,1.08.64.35.2.69.43,1.04.68.38.22.74.44,1.08.66.35.22.69.44,1.04.66.16.09.3.19.42.28.28.16.42.27.42.33-.22,1.04-.58,2.01-1.08,2.92-.5.91-1.21,1.66-2.12,2.26-.91.6-1.92.98-3.01,1.15-1.1.17-2.18.18-3.25.02-1.1-.16-2.07-.46-2.92-.9-.44-.22-.86-.45-1.27-.71-.41-.25-.83-.5-1.27-.75-.63-.38-1.24-.75-1.84-1.13-.6-.38-1.21-.79-1.84-1.22-.22-.16-.43-.32-.64-.5-.2-.17-.4-.35-.59-.54-.56-.56-1.03-1.21-1.39-1.93-.36-.72-.62-1.46-.78-2.21-.12-.53-.2-1.04-.24-1.53-.03-.49-.05-1-.05-1.53v-6.5h-.42c-.09-.03-.24-.11-.42-.24-.16-.09-.31-.17-.47-.24-.38-.22-.75-.44-1.11-.66-.36-.22-.71-.44-1.06-.66-.66-.41-1.35-.86-2.07-1.37-.16-.06-.29-.14-.4-.24-.11-.09-.23-.19-.35-.28-.03,0-.05,0-.05-.02s-.02-.02-.05-.02h30.24c.09,0,.24.06.42.19.06.06.14.11.24.14.09.03.17.08.24.14l2.12,1.27c.35.25.7.48,1.06.68.36.21.71.43,1.06.68.16.06.29.14.4.24.11.09.23.19.35.28l.09.09h-23.83v2.26Z" style="fill: red;"/>
            <path d="m1025.53,489.75h-8.15v31.13c-.19-.06-.34-.14-.47-.24-.12-.06-.24-.12-.35-.17-.11-.05-.15-.07-.12-.07-.34-.22-.69-.43-1.05-.64s-.71-.43-1.05-.68c-.34-.22-.69-.44-1.05-.66-.36-.22-.71-.44-1.05-.66-.16-.09-.3-.19-.42-.28-.28-.16-.42-.27-.42-.33v-27.41h-2.17c-.06-.03-.13-.06-.21-.09-.08-.03-.15-.06-.21-.09-.06-.06-.14-.11-.24-.14-.09-.03-.17-.08-.24-.14-.82-.44-1.54-.88-2.17-1.32-.34-.22-.69-.44-1.04-.66-.35-.22-.69-.44-1.04-.66-.16-.09-.29-.19-.4-.28-.11-.09-.23-.17-.35-.24l-.09-.09h16.3c.19.06.33.12.42.19.06.06.14.11.24.14.09.03.17.08.24.14.35.22.7.43,1.06.64.36.2.71.43,1.06.68.35.22.7.43,1.06.64.36.21.71.43,1.06.68.12.09.25.18.38.26.12.08.25.17.38.26l.09.09Z" style="fill: red;"/>
            <path d="m1024.26,527.33c.06.75-.06,1.49-.38,2.21-.31.72-.74,1.35-1.27,1.88s-1.13.96-1.79,1.27c-.66.31-1.35.53-2.07.66-1.82.31-3.63.2-5.44-.33-1.81-.53-3.51-1.21-5.11-2.03-.38-.22-.75-.43-1.13-.64-.38-.2-.74-.43-1.08-.68-.78-.47-1.56-.94-2.33-1.41-.77-.47-1.53-.96-2.28-1.46-.5-.35-1-.7-1.48-1.06-.49-.36-.97-.75-1.44-1.15-1.41-1.22-2.59-2.61-3.53-4.15.19.06.35.12.47.19.19.12.35.22.47.28.35.22.7.43,1.06.64.36.2.71.43,1.06.68.35.22.7.43,1.06.64.36.2.71.43,1.06.68.13.09.24.18.35.26.11.08.24.17.4.26l.09.09c.35.63.73,1.21,1.15,1.74s.89,1.04,1.39,1.51c.16.16.31.31.47.45.16.14.31.27.47.4.22.12.44.23.66.31.22.08.44.17.66.26.16.06.31.11.45.14.14.03.29.06.45.09,1.04.34,2.14.57,3.3.68,1.16.11,2.29.04,3.39-.21-.03-.03-.06-.05-.09-.07-.03-.02-.06-.04-.09-.07-.09-.06-.18-.11-.26-.14-.08-.03-.17-.08-.26-.14l-2.12-1.27c-.35-.25-.69-.48-1.04-.68-.34-.2-.69-.43-1.04-.68-.16-.06-.29-.14-.4-.24-.11-.09-.23-.19-.35-.28-.06,0-.09-.03-.09-.09-.25-.69-.35-1.41-.31-2.17.05-.75.24-1.46.59-2.12.6-1.19,1.52-2.03,2.78-2.5.5-.22,1.02-.34,1.55-.38.53-.03,1.07,0,1.6.09.53.06,1.04.21,1.51.42.22.09.44.21.66.33.22.13.44.25.66.38,1.54.91,3.05,1.85,4.52,2.83.47.31.92.64,1.34.99s.79.79,1.11,1.32c.41.75.63,1.51.66,2.26Zm-6.03-2.73c.09-.79.03-1.49-.19-2.12-.53.06-1.05.2-1.55.4-.5.2-.97.5-1.41.87-.82.72-1.37,1.6-1.65,2.64-.28,1.04-.25,2.07.09,3.11.91-.25,1.7-.64,2.36-1.18.6-.44,1.11-.99,1.55-1.65.44-.66.71-1.35.8-2.07Z" style="fill: red;"/>
            <path d="m1042.21,489.79v8.15c0,.6-.09,1.19-.28,1.79-.34,1.19-.99,2.2-1.94,3.01-.95.82-2.06,1.21-3.34,1.18-.78,0-1.5-.14-2.16-.42-.25-.06-.47-.13-.66-.21s-.39-.18-.61-.31c-.66-.34-1.32-.71-1.98-1.08-.66-.38-1.3-.77-1.93-1.18.72,1.16,1.46,2.3,2.21,3.42.75,1.12,1.54,2.22,2.36,3.32,1.66,2.29,3.37,4.52,5.11,6.69s3.59,4.27,5.53,6.31c-.06-.03-.13-.05-.21-.07-.08-.02-.15-.05-.21-.12-.09-.06-.18-.11-.26-.14-.08-.03-.17-.08-.26-.14l-2.11-1.27c-.34-.25-.69-.48-1.05-.68-.36-.2-.71-.43-1.05-.68-.12-.09-.27-.19-.42-.28-.16-.09-.28-.2-.37-.33-1.09-1.13-2.14-2.28-3.14-3.46-1-1.18-2.01-2.36-3.01-3.56-1.44-1.82-2.85-3.67-4.22-5.53-1.37-1.87-2.68-3.79-3.93-5.77-.53-.79-1.04-1.56-1.53-2.33-.49-.77-.95-1.56-1.39-2.38.06.03.14.06.24.07s.17.05.24.12c.19.13.35.22.47.28.35.22.7.43,1.06.64.36.2.71.43,1.06.68.35.22.7.43,1.06.64.36.21.71.43,1.06.68.09.06.24.15.42.26.19.11.31.23.38.35.69.94,1.44,1.84,2.26,2.68.22.03.43.05.64.07.2.02.43.02.68.02,1.26-.06,2.35-.52,3.27-1.37.93-.85,1.55-1.87,1.86-3.06.09-.35.15-.7.17-1.06.02-.36.02-.71.02-1.06v-3.86h-14.23c-.09-.03-.24-.11-.42-.24-.12-.06-.28-.16-.47-.28-.38-.19-.75-.39-1.11-.61-.36-.22-.71-.44-1.06-.66-.66-.41-1.35-.86-2.07-1.37-.16-.06-.29-.14-.4-.24-.11-.09-.23-.19-.35-.28l-.09-.09h27.27c.13.03.28.11.47.24.19.13.35.22.47.28l2.12,1.27c.34.22.7.44,1.06.66.36.22.71.46,1.06.71.28.16.53.33.75.52l.09.09h-7.11Z" style="fill: red;"/>
          </g>
          <rect x="72.38" y="900.83" width="113.05" height="115.66" style="fill: #ef3b39;"/>
          <rect x="947.62" y="900.83" width="115.66" height="115.66" style="fill: #ef3b39;"/>
          <g>
            <path d="m308.44,145.96h-174.47v-4.09c0-4.98,2.38-7.48,7.13-7.48h12.5c2.1,0,4.01.64,5.73,1.93,1.71,1.29,2.57,2.86,2.57,4.73v4.67h12.04v-5.26c0-4.36-1.58-8.22-4.73-11.57-3.15-3.35-6.48-5.02-9.99-5.02h-23.72c-4.52,0-8.1,1.54-10.75,4.62-2.65,3.08-3.97,6.68-3.97,10.81v6.66h-7.83v10.52h7.83v59.01h13.2v-59.01h34.71v9.7c-2.57-1.09-5.22-1.64-7.95-1.64-6.15,0-10.28.9-12.39,2.69-2.96,2.49-4.44,5.69-4.44,9.58v28.4c0,6.86,3.58,10.28,10.75,10.28h6.54v-7.01h-1.4c-1.87,0-2.8-.97-2.8-2.92v-29.45c0-2.73,2.02-4.09,6.08-4.09,1.79,0,3.23.47,4.32,1.4.86.7,1.29,1.44,1.29,2.22v39.85h13.09v-59.01h51.77v8.06h-29.8v11.92c3.58,0,5.65.2,6.19.58,1.56,1.09,2.41,1.75,2.57,1.99.7.86,1.05,2.34,1.05,4.44v19.98c0,.7-.45,1.29-1.34,1.75-.9.47-1.73.7-2.51.7-2.73,0-4.09-.86-4.09-2.57v-13.67h-13.09v11.45c0,2.26,1.25,4.56,3.74,6.89,3.35,3.27,8.18,4.91,14.49,4.91s10.48-1.6,13.2-4.79c1.79-2.02,2.69-4.28,2.69-6.78v-14.96c0-2.41-.31-4.28-.93-5.61-.78-1.64-1.95-3.12-3.51-4.44h11.34v39.15h13.09v-59.01h12.27v59.01l13.09.12v-59.13h20.22v13.56c0,2.65-.62,4.56-1.87,5.73-1.25,1.17-2.77,1.71-4.56,1.64h-5.73v12.85h4.79c1.48.08,2.49.47,3.04,1.17.7,1.48,1.05,2.57,1.05,3.27v10.75c0,3.12.97,5.57,2.92,7.36,1.95,1.79,5.06,2.69,9.35,2.69h8.88v-7.01h-3.39c-3.12,0-4.67-1.48-4.67-4.44v-11.22c0-2.26-1.05-4.4-3.16-6.43-2.49-2.41-4.75-3.62-6.78-3.62,3.58.16,6.68-.72,9.29-2.63,2.61-1.91,3.91-4.34,3.91-7.3v-16.36h11.45v59.01l13.09.12v-59.13h8.76v-10.52h-30.15Z" style="fill: red;"/>
            <path d="m507.47,145.96l-7.71-22.32-19.98-1.17v12.39l11.92-2.1,3.86,13.2h-104.59v-4.09c0-4.98,2.38-7.48,7.13-7.48h12.5c2.1,0,4.01.64,5.73,1.93,1.71,1.29,2.57,2.86,2.57,4.73v4.67h12.04v-5.26c0-4.36-1.58-8.22-4.73-11.57-3.16-3.35-6.49-5.02-9.99-5.02h-23.72c-4.52,0-8.1,1.54-10.75,4.62-2.65,3.08-3.97,6.68-3.97,10.81v6.66h-7.83v10.52h7.83v59.01h13.2v-59.01h31.9v7.13c-2.42-.7-5.92-1.05-10.52-1.05-3.27,0-5.84.66-7.71,1.99-2.49,1.71-3.74,3.86-3.74,6.43v9.35c0,2.8.93,4.95,2.8,6.43,1.64,1.33,3.08,2.12,4.32,2.4,1.25.27,4.4.53,9.47.76,1.09.08,2.18.39,3.27.93,1.4.78,2.1,1.64,2.1,2.57v12.27c0,1.71-1.36,2.65-4.09,2.8-.93.08-1.91-.12-2.92-.58-1.25-.54-1.87-1.32-1.87-2.34v-9.47h-13.09v10.52c0,2.57,1.4,4.75,4.21,6.54,2.57,1.56,5.45,2.34,8.65,2.34h9.11c2.73,0,5.38-1.01,7.95-3.04,3.43-2.73,5.14-6.5,5.14-11.34v-10.63c0-2.34-.78-4.44-2.34-6.31-2.03-2.26-4.87-3.39-8.53-3.39-4.13,0-7.17-.43-9.11-1.28-1.33-.54-1.99-1.09-1.99-1.64v-5.61c0-1.87,1.44-2.81,4.32-2.81,3.04,0,4.56,1.13,4.56,3.39v3.04h13.09v-19.4h8.18v30.97c0,2.8.89,5.61,2.69,8.41,2.73,4.44,7.01,6.66,12.85,6.66,3.97,0,6.89-.93,8.76-2.8v15.78h13.09v-59.01h12.85v59.01l12.97.23v-59.25h8.88v-10.52h-8.76Zm-39.03,44.76c0,1.09-.51,2.1-1.52,3.04-1.25,1.17-2.8,1.75-4.67,1.75-3.35,0-5.02-1.52-5.02-4.56v-34.47h11.22v34.24Z" style="fill: red;"/>
          </g>
          <g>
            <polygon points="100.37 556.5 104.86 565.61 114.92 567.07 107.64 574.16 109.36 584.17 100.37 579.44 91.38 584.17 93.09 574.16 85.82 567.07 95.87 565.61 100.37 556.5" style="fill: #2e3192;"/>
            <polygon points="135.01 556.5 139.51 565.61 149.56 567.07 142.29 574.16 144 584.17 135.01 579.44 126.02 584.17 127.74 574.16 120.46 567.07 130.52 565.61 135.01 556.5" style="fill: #2e3192;"/>
            <polygon points="169.66 556.5 174.15 565.61 184.21 567.07 176.93 574.16 178.65 584.17 169.66 579.44 160.66 584.17 162.38 574.16 155.11 567.07 165.16 565.61 169.66 556.5" style="fill: #2e3192;"/>
            <polygon points="204.3 556.5 208.8 565.61 218.85 567.07 211.58 574.16 213.29 584.17 204.3 579.44 195.31 584.17 197.03 574.16 189.75 567.07 199.81 565.61 204.3 556.5" style="fill: #2e3192;"/>
            <polygon points="238.95 556.5 243.44 565.61 253.5 567.07 246.22 574.16 247.94 584.17 238.95 579.44 229.95 584.17 231.67 574.16 224.4 567.07 234.45 565.61 238.95 556.5" style="fill: #2e3192;"/>
            <polygon points="273.59 556.5 278.09 565.61 288.14 567.07 280.87 574.16 282.58 584.17 273.59 579.44 264.6 584.17 266.32 574.16 259.04 567.07 269.1 565.61 273.59 556.5" style="fill: #2e3192;"/>
            <polygon points="308.24 556.5 312.73 565.61 322.79 567.07 315.51 574.16 317.23 584.17 308.24 579.44 299.24 584.17 300.96 574.16 293.69 567.07 303.74 565.61 308.24 556.5" style="fill: #2e3192;"/>
            <polygon points="342.88 556.5 347.38 565.61 357.43 567.07 350.16 574.16 351.87 584.17 342.88 579.44 333.89 584.17 335.61 574.16 328.33 567.07 338.38 565.61 342.88 556.5" style="fill: #2e3192;"/>
            <polygon points="377.53 556.5 382.02 565.61 392.07 567.07 384.8 574.16 386.52 584.17 377.53 579.44 368.53 584.17 370.25 574.16 362.98 567.07 373.03 565.61 377.53 556.5" style="fill: #2e3192;"/>
            <polygon points="412.17 556.5 416.67 565.61 426.72 567.07 419.44 574.16 421.16 584.17 412.17 579.44 403.18 584.17 404.9 574.16 397.62 567.07 407.67 565.61 412.17 556.5" style="fill: #2e3192;"/>
            <polygon points="446.82 556.5 451.31 565.61 461.36 567.07 454.09 574.16 455.81 584.17 446.82 579.44 437.82 584.17 439.54 574.16 432.27 567.07 442.32 565.61 446.82 556.5" style="fill: #2e3192;"/>
            <polygon points="481.46 556.5 485.96 565.61 496.01 567.07 488.73 574.16 490.45 584.17 481.46 579.44 472.47 584.17 474.19 574.16 466.91 567.07 476.96 565.61 481.46 556.5" style="fill: #2e3192;"/>
            <polygon points="516.1 556.5 520.6 565.61 530.65 567.07 523.38 574.16 525.1 584.17 516.1 579.44 507.11 584.17 508.83 574.16 501.56 567.07 511.61 565.61 516.1 556.5" style="fill: #2e3192;"/>
            <polygon points="550.75 556.5 555.25 565.61 565.3 567.07 558.02 574.16 559.74 584.17 550.75 579.44 541.76 584.17 543.47 574.16 536.2 567.07 546.25 565.61 550.75 556.5" style="fill: #2e3192;"/>
            <polygon points="585.39 556.5 589.89 565.61 599.94 567.07 592.67 574.16 594.39 584.17 585.39 579.44 576.4 584.17 578.12 574.16 570.85 567.07 580.9 565.61 585.39 556.5" style="fill: #2e3192;"/>
            <polygon points="620.04 556.5 624.53 565.61 634.59 567.07 627.31 574.16 629.03 584.17 620.04 579.44 611.05 584.17 612.76 574.16 605.49 567.07 615.54 565.61 620.04 556.5" style="fill: #2e3192;"/>
            <polygon points="654.68 556.5 659.18 565.61 669.23 567.07 661.96 574.16 663.68 584.17 654.68 579.44 645.69 584.17 647.41 574.16 640.13 567.07 650.19 565.61 654.68 556.5" style="fill: #2e3192;"/>
            <polygon points="689.33 556.5 693.82 565.61 703.88 567.07 696.6 574.16 698.32 584.17 689.33 579.44 680.34 584.17 682.05 574.16 674.78 567.07 684.83 565.61 689.33 556.5" style="fill: #2e3192;"/>
            <polygon points="723.97 556.5 728.47 565.61 738.52 567.07 731.25 574.16 732.97 584.17 723.97 579.44 714.98 584.17 716.7 574.16 709.42 567.07 719.48 565.61 723.97 556.5" style="fill: #2e3192;"/>
            <polygon points="758.62 556.5 763.11 565.61 773.17 567.07 765.89 574.16 767.61 584.17 758.62 579.44 749.63 584.17 751.34 574.16 744.07 567.07 754.12 565.61 758.62 556.5" style="fill: #2e3192;"/>
            <polygon points="793.26 556.5 797.76 565.61 807.81 567.07 800.54 574.16 802.25 584.17 793.26 579.44 784.27 584.17 785.99 574.16 778.71 567.07 788.77 565.61 793.26 556.5" style="fill: #2e3192;"/>
            <polygon points="827.91 556.5 832.4 565.61 842.46 567.07 835.18 574.16 836.9 584.17 827.91 579.44 818.92 584.17 820.63 574.16 813.36 567.07 823.41 565.61 827.91 556.5" style="fill: #2e3192;"/>
            <polygon points="862.55 556.5 867.05 565.61 877.1 567.07 869.83 574.16 871.54 584.17 862.55 579.44 853.56 584.17 855.28 574.16 848 567.07 858.06 565.61 862.55 556.5" style="fill: #2e3192;"/>
            <polygon points="897.2 556.5 901.69 565.61 911.75 567.07 904.47 574.16 906.19 584.17 897.2 579.44 888.21 584.17 889.92 574.16 882.65 567.07 892.7 565.61 897.2 556.5" style="fill: #2e3192;"/>
            <polygon points="931.84 556.5 936.34 565.61 946.39 567.07 939.12 574.16 940.83 584.17 931.84 579.44 922.85 584.17 924.57 574.16 917.29 567.07 927.35 565.61 931.84 556.5" style="fill: #2e3192;"/>
            <polygon points="966.49 556.5 970.98 565.61 981.04 567.07 973.76 574.16 975.48 584.17 966.49 579.44 957.5 584.17 959.21 574.16 951.94 567.07 961.99 565.61 966.49 556.5" style="fill: #2e3192;"/>
            <polygon points="1001.13 556.5 1005.63 565.61 1015.68 567.07 1008.41 574.16 1010.12 584.17 1001.13 579.44 992.14 584.17 993.86 574.16 986.58 567.07 996.64 565.61 1001.13 556.5" style="fill: #2e3192;"/>
            <polygon points="1035.78 556.5 1040.27 565.61 1050.33 567.07 1043.05 574.16 1044.77 584.17 1035.78 579.44 1026.78 584.17 1028.5 574.16 1021.23 567.07 1031.28 565.61 1035.78 556.5" style="fill: #2e3192;"/>
          </g>
          <path d="m347.78,854.82h-169.74c-44.73,0-84.08-36.59-96.53-89.76h0s248.28,0,248.28,0l18,89.76Z" style="fill: #231f20;"/>
          <g>
            <circle cx="171.17" cy="808.31" r="40.09" style="fill: url(#uuid-3bcf332c-eb98-4261-be95-379dc9a9002b);"/>
            <circle cx="171.17" cy="808.31" r="28.06" style="fill: url(#uuid-24ff91e7-9502-4d7b-a2a8-c658ceeb419a); mix-blend-mode: screen;"/>
            <circle cx="171.17" cy="808.31" r="16.59" style="fill: url(#uuid-c0c0006a-b10d-4956-8ee3-a67e229cead5); mix-blend-mode: screen;"/>
          </g>
          <g>
            <circle cx="261.65" cy="808.31" r="32.21" style="fill: url(#uuid-44fc4fd7-1c04-46e9-a2fd-8964ee71aaa2);"/>
            <circle cx="261.65" cy="808.31" r="22.54" style="fill: url(#uuid-bcc77a36-f34c-43f0-908d-4aef3bf3f05d); mix-blend-mode: screen;"/>
            <circle cx="261.65" cy="808.31" r="13.33" style="fill: url(#uuid-151953cb-4754-4470-9c7a-012440d58f78); mix-blend-mode: screen;"/>
          </g>
          <path d="m789.31,854.82h169.74c44.73,0,84.08-36.59,96.53-89.76h0s-248.28,0-248.28,0l-18,89.76Z" style="fill: #231f20;"/>
          <g>
            <circle cx="965.92" cy="808.31" r="40.09" style="fill: url(#uuid-a63ae9f3-e75d-4bd5-b5eb-62bfe8600921);"/>
            <circle cx="965.92" cy="808.31" r="28.06" style="fill: url(#uuid-7a99a027-8353-4ff3-845c-e74d05cc3f89); mix-blend-mode: screen;"/>
            <circle cx="965.92" cy="808.31" r="16.59" style="fill: url(#uuid-3ea816c6-c7a1-4df2-8243-48d85a211bf7); mix-blend-mode: screen;"/>
          </g>
          <g>
            <circle cx="875.44" cy="808.31" r="32.21" style="fill: url(#uuid-d169d12e-a8ed-452e-b63c-307524d53046);"/>
            <circle cx="875.44" cy="808.31" r="22.54" style="fill: url(#uuid-bccbc417-202c-41e1-b933-f99626df7570); mix-blend-mode: screen;"/>
            <circle cx="875.44" cy="808.31" r="13.33" style="fill: url(#uuid-e04348ab-f8d7-4caa-a6f1-2805638195d8); mix-blend-mode: screen;"/>
          </g>
          <path d="m197.32,632.13c2.94,0,5.6,1.19,7.53,3.12,1.93,1.93,3.12,4.59,3.12,7.53v9.97h13.18c6.83,0,12.37,5.54,12.37,12.37,0,3.42-1.38,6.51-3.62,8.75-2.24,2.24-5.33,3.62-8.75,3.62h-13.18v9.97c0,2.94-1.19,5.6-3.12,7.53-1.93,1.93-4.59,3.12-7.53,3.12v-14.56h-33.56c-2.3,0-4.27-1.46-5.01-3.51-.21-.57-.32-1.18-.32-1.81,0-.25.02-.49.05-.73.16-1.18.71-2.23,1.51-3.03.96-.96,2.29-1.56,3.77-1.56h38.89v3.1l18.85-10.88-18.85-10.88v3.1h-38.89c-2.69,0-4.92-2-5.27-4.59-.03-.24-.05-.49-.05-.73,0-.43.05-.84.14-1.24.23-.97.73-1.84,1.42-2.53.96-.96,2.29-1.56,3.77-1.56h33.56v-14.56m0-6h-6v14.56h-27.56c-3.03,0-5.87,1.18-8.01,3.32-1.48,1.48-2.52,3.34-3.01,5.38-.2.86-.31,1.74-.31,2.62,0,.52.04,1.05.11,1.57.77,5.56,5.59,9.76,11.22,9.76h42.65l3.08,1.78-3.08,1.78h-42.65c-3.03,0-5.87,1.18-8.01,3.32-1.73,1.73-2.87,4.02-3.21,6.45-.07.5-.11,1.03-.11,1.55,0,1.32.23,2.62.68,3.86,1.61,4.46,5.89,7.46,10.65,7.46h27.56v14.56h6c4.45,0,8.63-1.73,11.77-4.88,3.14-3.14,4.88-7.33,4.88-11.77v-3.97h7.18c4.91,0,9.52-1.91,12.99-5.38,3.47-3.47,5.38-8.08,5.38-12.99,0-10.13-8.24-18.37-18.37-18.37h-7.18v-3.97c0-4.45-1.73-8.63-4.88-11.77-3.15-3.14-7.33-4.88-11.77-4.88h0Z" style="fill: #2e3192;"/>
          <g>
            <path d="m181.95,716.75h-5.41v-2.1c0-.84-.39-1.55-1.16-2.13-.77-.58-1.63-.87-2.57-.87h-5.62c-2.14,0-3.2,1.12-3.2,3.36v1.84h4.04v4.73h-4.04v26.52h-5.93v-26.52h-3.52v-4.73h3.52v-2.99c0-1.85.59-3.47,1.79-4.86,1.19-1.38,2.8-2.07,4.83-2.07h10.66c1.58,0,3.07.75,4.49,2.26,1.42,1.5,2.13,3.24,2.13,5.2v2.36Z" style="fill: #ed1c24;"/>
            <path d="m192.92,721.58h-4.52v26.52h-5.93v-15.39h-4.94v2.42c0,.84-.36,1.58-1.08,2.23-.72.65-1.6.97-2.65.97h-1.52c-1.54,0-2.68-.7-3.41-2.1-.49-.95-.74-1.98-.74-3.1v-.95c0-1.79.63-3.15,1.89-4.1.91-.67,2.24-1,3.99-1h8.45v-5.51h-16.91v-4.73h27.36v4.73Z" style="fill: #ed1c24;"/>
            <path d="m205.42,721.58h-2.99v14.91c0,3.12-1.17,4.67-3.52,4.67h-2.57c-.98,0-1.8-.32-2.47-.95-.67-.63-1-1.4-1-2.31v-5.3c0-1.79.61-2.68,1.84-2.68h1.84v-8.35h-6.09v-4.73h14.97v4.73Z" style="fill: #ed1c24;"/>
            <path d="m216.76,721.58h-3.94v26.57l-5.88-.05v-26.52h-3.73v-4.73h13.55v4.73Z" style="fill: #ed1c24;"/>
            <path d="m241.18,721.58h-4.62v26.52h-5.88v-12.13h-4.73v2.62c0,2.52-1.37,3.78-4.1,3.78-3.08,0-4.62-1.33-4.62-3.99v-4.94c0-1.12.56-1.68,1.68-1.68h1.1v-10.19h-5.46v-4.73h26.62v4.73Zm-10.5,10.19v-10.19h-4.73v10.19h4.73Z" style="fill: #ed1c24;"/>
          </g>
          <g>
            <path d="m919.28,721.58h-4.57v26.57l-5.88-.05v-17.96c0-.67-.47-1-1.42-1-.88,0-1.31.37-1.31,1.1v7.72h-5.88v-7.3c0-1.12-.61-1.68-1.84-1.68-1.12,0-1.68.53-1.68,1.58v12.71c0,1.12.66,1.68,2,1.68h2.52v3.15h-3.99c-1.75,0-3.2-.44-4.36-1.31-1.37-.98-2.05-2.33-2.05-4.04v-12.34c0-.91.28-1.77.84-2.57,1.05-1.54,2.91-2.31,5.57-2.31,2.45,0,4.46,1.05,6.04,3.15.56-1.12,1.12-1.82,1.68-2.1.84-.42,1.47-.63,1.89-.63h2v-4.36h-21.06v-4.73h31.51v4.73Z" style="fill: #ed1c24;"/>
            <path d="m936.92,748.1h-5.88v-3.68c-1.4,1.05-2.8,1.58-4.2,1.58-2.42,0-4.29-.68-5.62-2.05-1.02-1.05-1.52-2.24-1.52-3.57v-7.88c0-.95.59-1.89,1.79-2.84.95-.74,2.26-1.1,3.94-1.1h1.89c1.47,0,2.4-.21,2.78-.63.21-.24.31-1.33.31-3.26v-2.89c0-1.19-.72-1.79-2.15-1.79s-2.1.63-2.1,1.89v4.78h-5.88v-4.73c0-1.75.4-2.97,1.21-3.68,1.08-.95,2.4-1.42,3.94-1.42h5.2c1.82,0,3.22.46,4.2,1.37,1.08,1.02,1.63,2.36,1.63,4.04v4.46c0,1.54-.39,2.61-1.16,3.2-1.16.88-2.35,1.31-3.57,1.31h-2.73c-1.33,0-2.29.4-2.89,1.21-.35.49-.52.95-.52,1.37v7.04c0,1.37.94,2.05,2.84,2.05.56,0,1.14-.2,1.73-.6.59-.4.89-.85.89-1.34v-5.67h5.88v12.81Zm4.73-19.38h-5.2v-2.73h5.2v2.73Z" style="fill: #ed1c24;"/>
            <path d="m963.86,721.58h-4.62v26.52h-5.88v-12.13h-4.73v2.62c0,2.52-1.37,3.78-4.1,3.78-3.08,0-4.62-1.33-4.62-3.99v-4.94c0-1.12.56-1.68,1.68-1.68h1.1v-10.19h-5.46v-4.73h26.62v4.73Zm-10.5,10.19v-10.19h-4.73v10.19h4.73Z" style="fill: #ed1c24;"/>
            <path d="m974.89,721.58h-4.04v26.52h-5.88v-26.52h-3.57v-4.73h3.57v-1.84c0-2.24-1.14-3.36-3.41-3.36h-.1c-.73,0-1.35.28-1.84.84-.49.56-.74,1.28-.74,2.15v2.1h-5.93v-2.36c0-1.92.81-3.68,2.42-5.25,1.51-1.47,3.06-2.21,4.67-2.21h4.04c2.03,0,3.69.72,4.99,2.15,1.19,1.33,1.79,2.92,1.79,4.78v2.99h4.04v4.73Z" style="fill: #ed1c24;"/>
          </g>
          <g>
            <path d="m135.45,520.36l-11.03-25.02h-.37v25.02h-8.81v-46.65h9.49l6.53,16.21h.37v-16.21h8.88v46.65h-5.05Z" style="fill: #ef3b39;"/>
            <path d="m156.46,521.16c-5.98,0-8.75-.92-10.35-3.82-1.6-2.83-2.28-5.67-2.28-20.34s.68-17.38,2.28-20.28c1.6-2.83,4.38-3.82,10.35-3.82s8.69.99,10.29,3.82c1.6,2.9,2.28,5.61,2.28,20.28s-.68,17.5-2.28,20.34c-1.6,2.9-4.38,3.82-10.29,3.82Zm2.96-24.41c0-10.29-.18-11.96-.55-13.13-.31-.8-.86-1.17-2.4-1.17s-2.16.37-2.4,1.17c-.43,1.17-.62,2.83-.62,13.13s.19,11.65.62,12.88c.25.8.86,1.11,2.4,1.11s2.1-.31,2.4-1.11c.37-1.23.55-2.9.55-12.88Z" style="fill: #ef3b39;"/>
            <path d="m192.64,520.36l-11.03-25.02h-.37v25.02h-8.81v-46.65h9.49l6.53,16.21h.37v-16.21h8.88v46.65h-5.05Z" style="fill: #ef3b39;"/>
            <path d="m227.28,488.19c.06-.62.06-.92.06-2.03,0-2.9-.49-3.82-2.83-3.82s-2.77.92-2.77,3.82c0,2.71.68,3.45,2.22,4.38,3.7,2.16,6.16,2.71,8.57,4.31,2.71,1.91,3.94,4.07,3.94,11.83,0,11.09-2.77,14.48-12.2,14.48-7.7,0-11.22-2.53-11.22-9.86,0-2.34.12-5.05.49-6.53h8.07c-.12.49-.12,1.05-.12,1.73,0,3.58.49,4.75,2.96,4.75s3.02-.8,3.02-4.75c0-2.4-.68-3.33-2.34-4.5-3.02-2.03-6.9-2.96-9.43-5.24-2.53-2.22-2.71-5.92-2.71-12.08,0-8.75,2.34-11.77,11.52-11.77,8.32,0,11.28,2.4,11.28,10.29,0,2.53-.12,3.82-.49,4.99h-8.01Z" style="fill: #ef3b39;"/>
            <path d="m245.28,520.36v-36.79h-7.33v-9.86h24.34v9.86h-7.33v36.79h-9.68Z" style="fill: #ef3b39;"/>
            <path d="m276.47,521.16c-5.98,0-8.75-.92-10.35-3.82-1.6-2.83-2.28-5.67-2.28-20.34s.68-17.38,2.28-20.28c1.6-2.83,4.38-3.82,10.35-3.82s8.69.99,10.29,3.82c1.6,2.9,2.28,5.61,2.28,20.28s-.68,17.5-2.28,20.34c-1.6,2.9-4.38,3.82-10.29,3.82Zm2.96-24.41c0-10.29-.18-11.96-.55-13.13-.31-.8-.86-1.17-2.4-1.17s-2.16.37-2.4,1.17c-.43,1.17-.62,2.83-.62,13.13s.19,11.65.62,12.88c.25.8.86,1.11,2.4,1.11s2.1-.31,2.4-1.11c.37-1.23.55-2.9.55-12.88Z" style="fill: #ef3b39;"/>
            <path d="m292.49,520.36v-46.65h13.99c8.32,0,10.54,4.07,10.54,16.02s-2.22,16.58-10.54,16.58h-4.31v14.05h-9.68Zm12.26-23.67c1.79,0,2.47-1.6,2.47-7.21,0-4.93-.8-6.04-2.71-6.04h-2.34v13.25h2.59Z" style="fill: #ef3b39;"/>
            <path d="m332.43,520.36v-46.65h20.65v9.86h-10.97v8.2h10.79v9.43h-10.79v8.81h10.91v10.35h-20.58Z" style="fill: #ef3b39;"/>
            <path d="m372.49,520.36l-3.14-17.01h-.68l-3.33,17.01h-9.98v-.31l6.04-25.45-4.87-20.58v-.31h10.05l2.46,13h.68l2.83-13h9.37v.31l-5.05,20.58,5.98,25.45v.31h-10.35Z" style="fill: #ef3b39;"/>
            <path d="m385.56,520.36v-46.65h13.99c8.32,0,10.54,4.07,10.54,16.02s-2.22,16.58-10.54,16.58h-4.31v14.05h-9.68Zm12.26-23.67c1.79,0,2.47-1.6,2.47-7.21,0-4.93-.8-6.04-2.71-6.04h-2.34v13.25h2.59Z" style="fill: #ef3b39;"/>
            <path d="m428.58,520.36c-.49-1.54-.68-2.46-1.91-13.25-.43-4.31-.99-4.93-2.22-4.93h-1.48v18.18h-9.68v-46.65h14.11c8.38,0,10.54,3.58,10.54,12.57,0,9.61-1.36,10.29-4.01,11.83v.37c.49.43,1.05.8,1.48,1.91.68,1.48,1.36,4.25,2.03,9.68.92,7.58.99,8.63,1.42,9.98v.31h-10.29Zm-2.9-26.87c1.79,0,2.47-1.23,2.47-5.55,0-3.7-.8-4.62-2.71-4.62h-2.47v10.17h2.71Z" style="fill: #ef3b39;"/>
            <path d="m441.77,520.36v-46.65h20.65v9.86h-10.97v8.2h10.79v9.43h-10.79v8.81h10.91v10.35h-20.58Z" style="fill: #ef3b39;"/>
            <path d="m479.61,488.19c.06-.62.06-.92.06-2.03,0-2.9-.49-3.82-2.83-3.82s-2.77.92-2.77,3.82c0,2.71.68,3.45,2.22,4.38,3.7,2.16,6.16,2.71,8.57,4.31,2.71,1.91,3.94,4.07,3.94,11.83,0,11.09-2.77,14.48-12.2,14.48-7.7,0-11.22-2.53-11.22-9.86,0-2.34.12-5.05.49-6.53h8.07c-.12.49-.12,1.05-.12,1.73,0,3.58.49,4.75,2.96,4.75s3.02-.8,3.02-4.75c0-2.4-.68-3.33-2.34-4.5-3.02-2.03-6.9-2.96-9.43-5.24-2.53-2.22-2.71-5.92-2.71-12.08,0-8.75,2.34-11.77,11.52-11.77,8.32,0,11.28,2.4,11.28,10.29,0,2.53-.12,3.82-.49,4.99h-8.01Z" style="fill: #ef3b39;"/>
            <path d="m505.5,488.19c.06-.62.06-.92.06-2.03,0-2.9-.49-3.82-2.83-3.82s-2.77.92-2.77,3.82c0,2.71.68,3.45,2.22,4.38,3.7,2.16,6.16,2.71,8.57,4.31,2.71,1.91,3.94,4.07,3.94,11.83,0,11.09-2.77,14.48-12.2,14.48-7.7,0-11.22-2.53-11.22-9.86,0-2.34.12-5.05.49-6.53h8.07c-.12.49-.12,1.05-.12,1.73,0,3.58.49,4.75,2.96,4.75s3.02-.8,3.02-4.75c0-2.4-.68-3.33-2.34-4.5-3.02-2.03-6.9-2.96-9.43-5.24-2.53-2.22-2.71-5.92-2.71-12.08,0-8.75,2.34-11.77,11.52-11.77,8.32,0,11.28,2.4,11.28,10.29,0,2.53-.12,3.82-.49,4.99h-8.01Z" style="fill: #ef3b39;"/>
          </g>
          <path d="m288.58,673.49l3.63,6.28h10.2l-5.1,8.84,5.1,8.84h-10.2l-3.63,6.28-3.63-6.28h-10.2l5.1-8.84-5.1-8.84h10.2l3.63-6.28m0-10l-4.33,7.5-2.19,3.78h-15.98l4.33,7.5,3.66,6.34-3.66,6.34-4.33,7.5h15.98l2.19,3.78,4.33,7.5,4.33-7.5,2.19-3.78h15.98l-4.33-7.5-3.66-6.34,3.66-6.34,4.33-7.5h-15.98l-2.19-3.78-4.33-7.5h0Z" style="fill: #2e3192;"/>
          <path d="m278.55,626.34l3.63,6.28h10.2l-5.1,8.84,5.1,8.84h-10.2l-3.63,6.28-3.63-6.28h-10.2l5.1-8.84-5.1-8.84h10.2l3.63-6.28m0-10l-4.33,7.5-2.19,3.78h-15.98l4.33,7.5,3.66,6.34-3.66,6.34-4.33,7.5h15.98l2.19,3.78,4.33,7.5,4.33-7.5,2.19-3.78h15.98l-4.33-7.5-3.66-6.34,3.66-6.34,4.33-7.5h-15.98l-2.19-3.78-4.33-7.5h0Z" style="fill: #2e3192;"/>
          <path d="m302.41,720.63l3.63,6.28h10.2l-5.1,8.84,5.1,8.84h-10.2l-3.63,6.28-3.63-6.28h-10.2l5.1-8.84-5.1-8.84h10.2l3.63-6.28m0-10l-4.33,7.5-2.19,3.78h-15.98l4.33,7.5,3.66,6.34-3.66,6.34-4.33,7.5h15.98l2.19,3.78,4.33,7.5,4.33-7.5,2.19-3.78h15.98l-4.33-7.5-3.66-6.34,3.66-6.34,4.33-7.5h-15.98l-2.19-3.78-4.33-7.5h0Z" style="fill: #2e3192;"/>
          <path d="m846.22,673.49l3.63,6.28h10.2l-5.1,8.84,5.1,8.84h-10.2l-3.63,6.28-3.63-6.28h-10.2l5.1-8.84-5.1-8.84h10.2l3.63-6.28m0-10l-4.33,7.5-2.19,3.78h-15.98l4.33,7.5,3.66,6.34-3.66,6.34-4.33,7.5h15.98l2.19,3.78,4.33,7.5,4.33-7.5,2.19-3.78h15.98l-4.33-7.5-3.66-6.34,3.66-6.34,4.33-7.5h-15.98l-2.19-3.78-4.33-7.5h0Z" style="fill: #2e3192;"/>
          <path d="m856.26,626.34l3.63,6.28h10.2l-5.1,8.84,5.1,8.84h-10.2l-3.63,6.28-3.63-6.28h-10.2l5.1-8.84-5.1-8.84h10.2l3.63-6.28m0-10l-4.33,7.5-2.19,3.78h-15.98l4.33,7.5,3.66,6.34-3.66,6.34-4.33,7.5h15.98l2.19,3.78,4.33,7.5,4.33-7.5,2.19-3.78h15.98l-4.33-7.5-3.66-6.34,3.66-6.34,4.33-7.5h-15.98l-2.19-3.78-4.33-7.5h0Z" style="fill: #2e3192;"/>
          <path d="m832.39,720.63l3.63,6.28h10.2l-5.1,8.84,5.1,8.84h-10.2l-3.63,6.28-3.63-6.28h-10.2l5.1-8.84-5.1-8.84h10.2l3.63-6.28m0-10l-4.33,7.5-2.19,3.78h-15.98l4.33,7.5,3.66,6.34-3.66,6.34-4.33,7.5h15.98l2.19,3.78,4.33,7.5,4.33-7.5,2.19-3.78h15.98l-4.33-7.5-3.66-6.34,3.66-6.34,4.33-7.5h-15.98l-2.19-3.78-4.33-7.5h0Z" style="fill: #2e3192;"/>
        </g>
      </g>
    </g>
  </g>
</svg>