<?xml version="1.0" encoding="UTF-8"?>
<svg xmlns="http://www.w3.org/2000/svg" xmlns:xlink="http://www.w3.org/1999/xlink" viewBox="0 0 1136.15 1202.83">
  <defs>
    <radialGradient id="uuid-b7996097-f49b-4090-a0bd-8566b6b85fbf" cx="103.2" cy="611.15" fx="103.2" fy="611.15" r="23.68" gradientUnits="userSpaceOnUse">
      <stop offset="0" stop-color="#f14942"/>
      <stop offset=".05" stop-color="#f15041"/>
      <stop offset=".28" stop-color="#f46a3f"/>
      <stop offset=".51" stop-color="#f67d3e"/>
      <stop offset=".75" stop-color="#f7893d"/>
      <stop offset="1" stop-color="#f88d3d"/>
    </radialGradient>
    <radialGradient id="uuid-f8371e55-2841-46af-9438-93e546825d30" cx="103.2" cy="611.15" fx="103.2" fy="611.15" r="13.15" gradientUnits="userSpaceOnUse">
      <stop offset="0" stop-color="#fff"/>
      <stop offset="0" stop-color="#fefefd"/>
      <stop offset=".14" stop-color="#fdfacc"/>
      <stop offset=".28" stop-color="#fcf6a2"/>
      <stop offset=".41" stop-color="#faf27f"/>
      <stop offset=".55" stop-color="#faf065"/>
      <stop offset=".7" stop-color="#f9ee52"/>
      <stop offset=".84" stop-color="#f9ed46"/>
      <stop offset="1" stop-color="#f9ed43"/>
    </radialGradient>
    <radialGradient id="uuid-de4c0a6c-6279-415c-a022-84671900d94a" cx="1032.95" fx="1032.95" r="23.68" xlink:href="#uuid-b7996097-f49b-4090-a0bd-8566b6b85fbf"/>
    <radialGradient id="uuid-fe3acdc0-7185-47e1-8258-71d75360719c" cx="1032.95" cy="611.15" fx="1032.95" fy="611.15" xlink:href="#uuid-f8371e55-2841-46af-9438-93e546825d30"/>
    <radialGradient id="uuid-a4b634e1-2b1f-4463-80f7-d65bd2da23a2" cx="215.47" cy="759.89" fx="215.47" fy="759.89" r="64.17" gradientUnits="userSpaceOnUse">
      <stop offset="0" stop-color="#fff"/>
      <stop offset="1" stop-color="#f26739"/>
    </radialGradient>
    <radialGradient id="uuid-c4545d83-d153-49d1-b59b-92ebc7ebf641" cx="215.47" cy="759.89" fx="215.47" fy="759.89" r="53.06" xlink:href="#uuid-a4b634e1-2b1f-4463-80f7-d65bd2da23a2"/>
    <radialGradient id="uuid-c8f2c4a5-0b50-42ab-8241-a13d833d0d85" cx="215.47" cy="759.89" fx="215.47" fy="759.89" r="52.11" xlink:href="#uuid-a4b634e1-2b1f-4463-80f7-d65bd2da23a2"/>
    <clipPath id="uuid-25b110c7-20a7-42f6-bc21-7a41df1dae6c">
      <polygon points="771.53 825.02 363.2 825.02 342.58 724.77 789.32 724.77 771.53 825.02" style="fill: none;"/>
    </clipPath>
    <clipPath id="uuid-f917bc64-a28d-40b8-aa5e-1e0ec1499f08">
      <polygon points="748.15 710.35 390.48 710.35 372.42 636.81 763.73 636.81 748.15 710.35" style="fill: none;"/>
    </clipPath>
    <radialGradient id="uuid-dcc25169-a6ba-4e66-ab95-aa65d28ba0a7" cx="363.24" cy="962.36" fx="385.18" fy="962.36" r="22.01" gradientUnits="userSpaceOnUse">
      <stop offset="0" stop-color="#fff"/>
      <stop offset="1" stop-color="#c9c9c9"/>
    </radialGradient>
    <radialGradient id="uuid-dcc12744-b7be-42d1-96c9-95e601eb3288" cx="363.24" cy="962.36" fx="375.6" fy="962.36" r="12.4" xlink:href="#uuid-dcc25169-a6ba-4e66-ab95-aa65d28ba0a7"/>
    <radialGradient id="uuid-f59a904b-d748-4e0e-ad0d-5ca277304efd" cx="267.35" cy="962.36" fx="298.69" fy="962.36" r="31.45" gradientUnits="userSpaceOnUse">
      <stop offset="0" stop-color="#fff"/>
      <stop offset="1" stop-color="#f36543"/>
    </radialGradient>
    <radialGradient id="uuid-ab7238da-01df-4e00-bb97-9bf9ca259641" cx="267.35" cy="962.36" fx="289.28" fy="962.36" r="22.01" xlink:href="#uuid-f59a904b-d748-4e0e-ad0d-5ca277304efd"/>
    <radialGradient id="uuid-682d7d67-223a-4418-8391-529aeecb01d2" cx="267.35" cy="962.36" fx="280.32" fy="962.36" r="13.01" gradientUnits="userSpaceOnUse">
      <stop offset="0" stop-color="#fff"/>
      <stop offset="1" stop-color="#f9ed43"/>
    </radialGradient>
    <radialGradient id="uuid-05cc85fd-fdd8-4936-92b9-e3c0b88279d9" cx="5783.72" cy="-4233.95" fx="5805.66" fy="-4233.95" r="22.01" gradientTransform="translate(6553.54 -3271.59) rotate(-180)" xlink:href="#uuid-dcc25169-a6ba-4e66-ab95-aa65d28ba0a7"/>
    <radialGradient id="uuid-b2d231e3-341d-43f0-b86d-b2d87e083cc9" cx="5783.72" cy="-4233.95" fx="5796.08" fy="-4233.95" r="12.4" gradientTransform="translate(6553.54 -3271.59) rotate(-180)" xlink:href="#uuid-dcc25169-a6ba-4e66-ab95-aa65d28ba0a7"/>
    <radialGradient id="uuid-5aed27d5-8f65-40c6-9fe7-463459fd2c5e" cx="5687.83" cy="-4233.95" fx="5719.17" fy="-4233.95" r="31.45" gradientTransform="translate(6553.54 -3271.59) rotate(-180)" xlink:href="#uuid-f59a904b-d748-4e0e-ad0d-5ca277304efd"/>
    <radialGradient id="uuid-c53929e7-f818-4e8b-8f5f-2254ad359862" cx="5687.83" cy="-4233.95" fx="5709.77" fy="-4233.95" r="22.01" gradientTransform="translate(6553.54 -3271.59) rotate(-180)" xlink:href="#uuid-f59a904b-d748-4e0e-ad0d-5ca277304efd"/>
    <radialGradient id="uuid-12eb42f8-c0ae-4367-8a03-3c41c4a6b3ae" cx="5687.83" cy="-4233.95" fx="5700.8" fy="-4233.95" r="13.01" gradientTransform="translate(6553.54 -3271.59) rotate(-180)" xlink:href="#uuid-682d7d67-223a-4418-8391-529aeecb01d2"/>
    <radialGradient id="uuid-1610a527-1d55-4bce-b237-f8c25aaad909" cx="922.83" fx="922.83" xlink:href="#uuid-a4b634e1-2b1f-4463-80f7-d65bd2da23a2"/>
    <radialGradient id="uuid-5f6b0fa0-dcaf-4409-b9c3-7a9e2d94d6b6" cx="922.83" cy="759.89" fx="922.83" fy="759.89" r="53.06" xlink:href="#uuid-a4b634e1-2b1f-4463-80f7-d65bd2da23a2"/>
    <radialGradient id="uuid-36315cb3-141b-4874-b966-f67211176376" cx="922.83" cy="759.89" fx="922.83" fy="759.89" r="52.11" xlink:href="#uuid-a4b634e1-2b1f-4463-80f7-d65bd2da23a2"/>
  </defs>
  <g style="isolation: isolate;">
    <g id="uuid-b37c0a7d-c600-43dc-b91d-6c3814a94590" data-name="Layer 2">
      <g id="uuid-30a6bc03-aca0-4be0-8ee0-94c55c04f602" data-name="Layer 1">
        <rect x="72.39" y="209.31" width="991.38" height="246.4" style="fill: #b3b3b3;"/>
        <path d="m470,364.68v91.03H184.49v-91.03c0-55.79,45.23-101.01,101.02-101.01h83.48c55.78,0,101.01,45.22,101.01,101.01Z" style="fill: #fff;"/>
        <rect id="uuid-c57cea2d-8551-4ec2-b2d8-fe8c14f30a35" data-name="Right Tyre" x="888.37" y="959.36" width="121.26" height="243.47" rx="9.34" ry="9.34"/>
        <rect id="uuid-2101802e-46ee-4496-a548-5e378fde0b51" data-name="Left Tyre" x="126.52" y="959.36" width="121.26" height="243.47" rx="9.34" ry="9.34"/>
        <rect x="72.39" y="551.73" width="991.38" height="464.76" style="fill: #ccc;"/>
        <rect x="72.39" y="900.98" width="991.38" height="115.51" style="fill: #2e3192;"/>
        <rect x="69.29" y="884.76" width="1000.66" height="16.22" style="fill: #00aeef;"/>
        <rect x="193.66" y="900.98" width="749.9" height="17.22" style="fill: #fff;"/>
        <rect x="403.49" y="935.25" width="326.08" height="54.22" style="fill: #ff0;"/>
        <path d="m401.3,933.07v58.59h330.44v-58.59h-330.44Zm328.26,56.4h-326.08v-54.22h326.08v54.22Z"/>
        <rect x="72.39" y="108.63" width="484.41" height="120.94" style="fill: #fff200;"/>
        <path d="m439.39,410.11c0,6.66-5.4,12.05-12.06,12.05h-96.27v33.55h-16.08v-33.55h-87.44c-6.66,0-12.06-5.39-12.06-12.05s5.4-12.06,12.06-12.06h199.8c6.66,0,12.06,5.39,12.06,12.06Z"/>
        <rect x="579.35" y="108.63" width="484.41" height="120.94"/>
        <rect x="787.22" y="-67.23" width="68.67" height="452.41" transform="translate(980.53 -662.59) rotate(90)" style="fill: #fff;"/>
        <circle cx="930.04" cy="651.63" r="39.7" style="fill: #f0f0f0; stroke: #00ac5e; stroke-miterlimit: 10; stroke-width: 6.2px;"/>
        <polygon points="307.24 590.27 821.56 590.27 771.25 870.22 364.47 870.22 307.24 590.27" style="fill: #5b5752; stroke: #231300; stroke-miterlimit: 10; stroke-width: 1.55px;"/>
        <g>
          <path d="m907.01,657.35v-13h3.7c1.12,0,2.01.27,2.67.83.66.55.99,1.27.99,2.15,0,.74-.2,1.38-.6,1.92-.4.54-.95.93-1.65,1.16v.04c.88.1,1.58.43,2.1.99.53.56.79,1.29.79,2.18,0,1.11-.4,2.01-1.2,2.7-.8.69-1.8,1.03-3.02,1.03h-3.79Zm1.52-11.62v4.2h1.56c.83,0,1.49-.2,1.97-.6.48-.4.72-.97.72-1.7,0-1.26-.83-1.89-2.49-1.89h-1.75Zm0,5.56v4.68h2.07c.89,0,1.59-.21,2.08-.63.49-.42.74-1,.74-1.74,0-1.53-1.05-2.3-3.14-2.3h-1.75Z" style="fill: #231300; stroke: #00ac5e; stroke-miterlimit: 10; stroke-width: 1.55px;"/>
          <path d="m917.05,656.82v-1.79c.21.18.45.34.74.49s.59.27.91.37.64.18.96.23.62.08.89.08c.94,0,1.64-.17,2.1-.52s.69-.85.69-1.5c0-.35-.08-.66-.23-.92-.15-.26-.37-.5-.64-.71-.27-.21-.59-.42-.96-.62-.37-.2-.77-.4-1.2-.62-.45-.23-.88-.46-1.27-.7-.39-.24-.73-.5-1.02-.78-.29-.29-.52-.61-.68-.97-.17-.36-.25-.78-.25-1.26,0-.59.13-1.11.39-1.54.26-.44.6-.8,1.02-1.08s.91-.5,1.45-.63c.54-.14,1.09-.21,1.65-.21,1.28,0,2.21.15,2.8.46v1.71c-.77-.53-1.75-.8-2.96-.8-.33,0-.66.04-1,.11-.33.07-.63.18-.89.34-.26.16-.47.36-.63.61-.16.25-.24.55-.24.91,0,.33.06.62.19.86s.31.46.55.66c.24.2.54.39.88.58s.75.39,1.2.62c.46.23.91.47,1.32.73s.78.53,1.1.84c.31.31.56.65.75,1.03.18.37.28.8.28,1.29,0,.64-.12,1.18-.38,1.63s-.59.81-1.01,1.08-.92.48-1.47.6-1.14.19-1.76.19c-.21,0-.46-.02-.76-.05-.3-.03-.61-.08-.92-.14-.31-.06-.61-.14-.89-.24-.28-.09-.51-.2-.67-.31Z" style="fill: #231300; stroke: #00ac5e; stroke-miterlimit: 10; stroke-width: 1.55px;"/>
          <path d="m932.06,652.76h-4.95v-1.17h4.95v1.17Z" style="fill: #231300; stroke: #00ac5e; stroke-miterlimit: 10; stroke-width: 1.55px;"/>
          <path d="m949.68,644.35l-4.81,13h-1.68l-4.71-13h1.69l3.6,10.3c.11.33.2.72.26,1.15h.04c.05-.36.15-.75.3-1.17l3.67-10.29h1.64Z" style="fill: #231300; stroke: #00ac5e; stroke-miterlimit: 10; stroke-width: 1.55px;"/>
          <path d="m954.34,644.35v1.3h-1.27v10.39h1.27v1.3h-4.06v-1.3h1.27v-10.39h-1.27v-1.3h4.06Z" style="fill: #231300; stroke: #00ac5e; stroke-miterlimit: 10; stroke-width: 1.55px;"/>
        </g>
        <g>
          <path d="m529.78,625.24c-.24-.74-.33-1.19-.92-6.39-.21-2.08-.48-2.38-1.07-2.38h-.71v8.77h-4.67v-22.51h6.81c4.04,0,5.09,1.73,5.09,6.07,0,4.64-.65,4.97-1.93,5.71v.18c.24.21.51.39.71.92.33.71.65,2.05.98,4.67.45,3.66.48,4.16.68,4.82v.15h-4.97Zm-1.4-12.97c.86,0,1.19-.59,1.19-2.68,0-1.78-.39-2.23-1.31-2.23h-1.19v4.91h1.31Z" style="fill: #fff;"/>
          <path d="m536.15,625.24v-4.49h4.67v4.49h-4.67Z" style="fill: #fff;"/>
          <path d="m548.96,609.71c.03-.3.03-.45.03-.98,0-1.4-.24-1.84-1.37-1.84s-1.34.45-1.34,1.84c0,1.31.33,1.67,1.07,2.11,1.78,1.04,2.97,1.31,4.13,2.08,1.31.92,1.9,1.96,1.9,5.71,0,5.35-1.34,6.99-5.89,6.99-3.72,0-5.41-1.22-5.41-4.76,0-1.13.06-2.44.24-3.15h3.9c-.06.24-.06.5-.06.83,0,1.72.24,2.29,1.43,2.29s1.46-.39,1.46-2.29c0-1.16-.33-1.61-1.13-2.17-1.46-.98-3.33-1.43-4.55-2.53-1.22-1.07-1.31-2.86-1.31-5.83,0-4.22,1.13-5.68,5.56-5.68,4.01,0,5.44,1.16,5.44,4.97,0,1.22-.06,1.84-.24,2.41h-3.87Z" style="fill: #fff;"/>
          <path d="m554.47,625.24v-4.49h4.67v4.49h-4.67Z" style="fill: #fff;"/>
          <path d="m568.53,625.24c-.24-.74-.33-1.19-.92-6.39-.21-2.08-.48-2.38-1.07-2.38h-.71v8.77h-4.67v-22.51h6.81c4.04,0,5.09,1.73,5.09,6.07,0,4.64-.65,4.97-1.93,5.71v.18c.24.21.51.39.71.92.33.71.65,2.05.98,4.67.45,3.66.48,4.16.68,4.82v.15h-4.97Zm-1.4-12.97c.86,0,1.19-.59,1.19-2.68,0-1.78-.39-2.23-1.31-2.23h-1.19v4.91h1.31Z" style="fill: #fff;"/>
          <path d="m574.9,625.24v-4.49h4.67v4.49h-4.67Z" style="fill: #fff;"/>
          <path d="m582.42,625.24v-17.75h-3.54v-4.76h11.75v4.76h-3.54v17.75h-4.67Z" style="fill: #fff;"/>
          <path d="m589.95,625.24v-4.49h4.67v4.49h-4.67Z" style="fill: #fff;"/>
          <path d="m607.73,616.61c.06.71.09,1.4.09,2.02,0,4.79-.77,6.99-5.8,6.99-2.97,0-4.37-.48-5.14-1.84-.77-1.31-1.1-3.03-1.1-9.99s.33-8.3,1.1-9.67c.77-1.34,2.17-1.79,5-1.79,5.06,0,5.89,1.84,5.89,6.63,0,.56-.03,1.25-.06,1.99h-4.37c0-2.38-.09-3.03-.21-3.45-.09-.39-.48-.57-1.25-.57s-1.04.18-1.16.57c-.21.59-.3,1.34-.3,6.21s.09,5.68.3,6.33c.12.39.42.54,1.31.54.62,0,.95-.15,1.07-.51.3-.83.33-1.64.33-3.48h4.31Z" style="fill: #fff;"/>
          <path d="m609.07,625.24v-4.49h4.67v4.49h-4.67Z" style="fill: #fff;"/>
        </g>
        <rect x="579.36" y="455.71" width="484.41" height="89.84" style="fill: #fff;"/>
        <rect x="77.03" y="590.27" width="52.35" height="41.76" style="fill: url(#uuid-b7996097-f49b-4090-a0bd-8566b6b85fbf);"/>
        <rect x="88.66" y="599.55" width="29.08" height="23.2" style="fill: url(#uuid-f8371e55-2841-46af-9438-93e546825d30);"/>
        <rect x="1006.77" y="590.27" width="52.35" height="41.76" style="fill: url(#uuid-de4c0a6c-6279-415c-a022-84671900d94a);"/>
        <rect x="1018.41" y="599.55" width="29.08" height="23.2" style="fill: url(#uuid-fe3acdc0-7185-47e1-8258-71d75360719c);"/>
        <rect x="142.26" y="706.27" width="146.42" height="107.24" rx="32.51" ry="32.51" style="fill: url(#uuid-a4b634e1-2b1f-4463-80f7-d65bd2da23a2);"/>
        <rect x="154.94" y="715.55" width="121.08" height="88.68" rx="28.79" ry="28.79" style="fill: url(#uuid-c4545d83-d153-49d1-b59b-92ebc7ebf641); mix-blend-mode: screen;"/>
        <rect x="170.59" y="727.01" width="89.77" height="65.75" rx="22.19" ry="22.19" style="fill: url(#uuid-c8f2c4a5-0b50-42ab-8241-a13d833d0d85); mix-blend-mode: screen;"/>
        <g>
          <polygon points="771.53 825.02 363.2 825.02 342.58 724.77 789.32 724.77 771.53 825.02" style="fill: #7d5945;"/>
          <g style="clip-path: url(#uuid-25b110c7-20a7-42f6-bc21-7a41df1dae6c);">
            <g>
              <g>
                <line x1="297.98" y1="638.79" x2="297.98" y2="911.01" style="fill: #231300; stroke: #231300; stroke-miterlimit: 10; stroke-width: 1.55px;"/>
                <line x1="306.49" y1="638.79" x2="306.49" y2="911.01" style="fill: #231300; stroke: #231300; stroke-miterlimit: 10; stroke-width: 1.55px;"/>
                <line x1="315" y1="638.79" x2="315" y2="911.01" style="fill: #231300; stroke: #231300; stroke-miterlimit: 10; stroke-width: 1.55px;"/>
                <line x1="323.5" y1="638.79" x2="323.5" y2="911.01" style="fill: #231300; stroke: #231300; stroke-miterlimit: 10; stroke-width: 1.55px;"/>
                <line x1="332.01" y1="638.79" x2="332.01" y2="911.01" style="fill: #231300; stroke: #231300; stroke-miterlimit: 10; stroke-width: 1.55px;"/>
                <line x1="340.52" y1="638.79" x2="340.52" y2="911.01" style="fill: #231300; stroke: #231300; stroke-miterlimit: 10; stroke-width: 1.55px;"/>
                <line x1="349.03" y1="638.79" x2="349.03" y2="911.01" style="fill: #231300; stroke: #231300; stroke-miterlimit: 10; stroke-width: 1.55px;"/>
                <line x1="357.53" y1="638.79" x2="357.53" y2="911.01" style="fill: #231300; stroke: #231300; stroke-miterlimit: 10; stroke-width: 1.55px;"/>
                <line x1="366.04" y1="638.79" x2="366.04" y2="911.01" style="fill: #231300; stroke: #231300; stroke-miterlimit: 10; stroke-width: 1.55px;"/>
                <line x1="374.55" y1="638.79" x2="374.55" y2="911.01" style="fill: #231300; stroke: #231300; stroke-miterlimit: 10; stroke-width: 1.55px;"/>
                <line x1="383.05" y1="638.79" x2="383.05" y2="911.01" style="fill: #231300; stroke: #231300; stroke-miterlimit: 10; stroke-width: 1.55px;"/>
                <line x1="391.56" y1="638.79" x2="391.56" y2="911.01" style="fill: #231300; stroke: #231300; stroke-miterlimit: 10; stroke-width: 1.55px;"/>
                <line x1="400.07" y1="638.79" x2="400.07" y2="911.01" style="fill: #231300; stroke: #231300; stroke-miterlimit: 10; stroke-width: 1.55px;"/>
                <line x1="408.57" y1="638.79" x2="408.57" y2="911.01" style="fill: #231300; stroke: #231300; stroke-miterlimit: 10; stroke-width: 1.55px;"/>
                <line x1="417.08" y1="638.79" x2="417.08" y2="911.01" style="fill: #231300; stroke: #231300; stroke-miterlimit: 10; stroke-width: 1.55px;"/>
                <line x1="425.59" y1="638.79" x2="425.59" y2="911.01" style="fill: #231300; stroke: #231300; stroke-miterlimit: 10; stroke-width: 1.55px;"/>
                <line x1="434.09" y1="638.79" x2="434.09" y2="911.01" style="fill: #231300; stroke: #231300; stroke-miterlimit: 10; stroke-width: 1.55px;"/>
                <line x1="442.6" y1="638.79" x2="442.6" y2="911.01" style="fill: #231300; stroke: #231300; stroke-miterlimit: 10; stroke-width: 1.55px;"/>
                <line x1="451.11" y1="638.79" x2="451.11" y2="911.01" style="fill: #231300; stroke: #231300; stroke-miterlimit: 10; stroke-width: 1.55px;"/>
                <line x1="459.61" y1="638.79" x2="459.61" y2="911.01" style="fill: #231300; stroke: #231300; stroke-miterlimit: 10; stroke-width: 1.55px;"/>
                <line x1="468.12" y1="638.79" x2="468.12" y2="911.01" style="fill: #231300; stroke: #231300; stroke-miterlimit: 10; stroke-width: 1.55px;"/>
                <line x1="476.63" y1="638.79" x2="476.63" y2="911.01" style="fill: #231300; stroke: #231300; stroke-miterlimit: 10; stroke-width: 1.55px;"/>
                <line x1="485.13" y1="638.79" x2="485.13" y2="911.01" style="fill: #231300; stroke: #231300; stroke-miterlimit: 10; stroke-width: 1.55px;"/>
                <line x1="493.64" y1="638.79" x2="493.64" y2="911.01" style="fill: #231300; stroke: #231300; stroke-miterlimit: 10; stroke-width: 1.55px;"/>
                <line x1="502.15" y1="638.79" x2="502.15" y2="911.01" style="fill: #231300; stroke: #231300; stroke-miterlimit: 10; stroke-width: 1.55px;"/>
                <line x1="510.65" y1="638.79" x2="510.65" y2="911.01" style="fill: #231300; stroke: #231300; stroke-miterlimit: 10; stroke-width: 1.55px;"/>
                <line x1="519.16" y1="638.79" x2="519.16" y2="911.01" style="fill: #231300; stroke: #231300; stroke-miterlimit: 10; stroke-width: 1.55px;"/>
                <line x1="527.67" y1="638.79" x2="527.67" y2="911.01" style="fill: #231300; stroke: #231300; stroke-miterlimit: 10; stroke-width: 1.55px;"/>
                <line x1="536.17" y1="638.79" x2="536.17" y2="911.01" style="fill: #231300; stroke: #231300; stroke-miterlimit: 10; stroke-width: 1.55px;"/>
                <line x1="544.68" y1="638.79" x2="544.68" y2="911.01" style="fill: #231300; stroke: #231300; stroke-miterlimit: 10; stroke-width: 1.55px;"/>
                <line x1="553.19" y1="638.79" x2="553.19" y2="911.01" style="fill: #231300; stroke: #231300; stroke-miterlimit: 10; stroke-width: 1.55px;"/>
                <line x1="561.69" y1="638.79" x2="561.69" y2="911.01" style="fill: #231300; stroke: #231300; stroke-miterlimit: 10; stroke-width: 1.55px;"/>
                <line x1="293.73" y1="906.75" x2="565.95" y2="906.75" style="fill: #231300; stroke: #231300; stroke-miterlimit: 10; stroke-width: 1.55px;"/>
                <line x1="293.73" y1="898.25" x2="565.95" y2="898.25" style="fill: #231300; stroke: #231300; stroke-miterlimit: 10; stroke-width: 1.55px;"/>
                <line x1="293.73" y1="889.74" x2="565.95" y2="889.74" style="fill: #231300; stroke: #231300; stroke-miterlimit: 10; stroke-width: 1.55px;"/>
                <line x1="293.73" y1="881.23" x2="565.95" y2="881.23" style="fill: #231300; stroke: #231300; stroke-miterlimit: 10; stroke-width: 1.55px;"/>
                <line x1="293.73" y1="872.73" x2="565.95" y2="872.73" style="fill: #231300; stroke: #231300; stroke-miterlimit: 10; stroke-width: 1.55px;"/>
                <line x1="293.73" y1="864.22" x2="565.95" y2="864.22" style="fill: #231300; stroke: #231300; stroke-miterlimit: 10; stroke-width: 1.55px;"/>
                <line x1="293.73" y1="855.71" x2="565.95" y2="855.71" style="fill: #231300; stroke: #231300; stroke-miterlimit: 10; stroke-width: 1.55px;"/>
                <line x1="293.73" y1="847.21" x2="565.95" y2="847.21" style="fill: #231300; stroke: #231300; stroke-miterlimit: 10; stroke-width: 1.55px;"/>
                <line x1="293.73" y1="838.7" x2="565.95" y2="838.7" style="fill: #231300; stroke: #231300; stroke-miterlimit: 10; stroke-width: 1.55px;"/>
                <line x1="293.73" y1="830.19" x2="565.95" y2="830.19" style="fill: #231300; stroke: #231300; stroke-miterlimit: 10; stroke-width: 1.55px;"/>
                <line x1="293.73" y1="821.69" x2="565.95" y2="821.69" style="fill: #231300; stroke: #231300; stroke-miterlimit: 10; stroke-width: 1.55px;"/>
                <line x1="293.73" y1="813.18" x2="565.95" y2="813.18" style="fill: #231300; stroke: #231300; stroke-miterlimit: 10; stroke-width: 1.55px;"/>
                <line x1="293.73" y1="804.67" x2="565.95" y2="804.67" style="fill: #231300; stroke: #231300; stroke-miterlimit: 10; stroke-width: 1.55px;"/>
                <line x1="293.73" y1="796.17" x2="565.95" y2="796.17" style="fill: #231300; stroke: #231300; stroke-miterlimit: 10; stroke-width: 1.55px;"/>
                <line x1="293.73" y1="787.66" x2="565.95" y2="787.66" style="fill: #231300; stroke: #231300; stroke-miterlimit: 10; stroke-width: 1.55px;"/>
                <line x1="293.73" y1="779.15" x2="565.95" y2="779.15" style="fill: #231300; stroke: #231300; stroke-miterlimit: 10; stroke-width: 1.55px;"/>
                <line x1="293.73" y1="770.64" x2="565.95" y2="770.64" style="fill: #231300; stroke: #231300; stroke-miterlimit: 10; stroke-width: 1.55px;"/>
                <line x1="293.73" y1="762.14" x2="565.95" y2="762.14" style="fill: #231300; stroke: #231300; stroke-miterlimit: 10; stroke-width: 1.55px;"/>
                <line x1="293.73" y1="753.63" x2="565.95" y2="753.63" style="fill: #231300; stroke: #231300; stroke-miterlimit: 10; stroke-width: 1.55px;"/>
                <line x1="293.73" y1="745.12" x2="565.95" y2="745.12" style="fill: #231300; stroke: #231300; stroke-miterlimit: 10; stroke-width: 1.55px;"/>
                <line x1="293.73" y1="736.62" x2="565.95" y2="736.62" style="fill: #231300; stroke: #231300; stroke-miterlimit: 10; stroke-width: 1.55px;"/>
                <line x1="293.73" y1="728.11" x2="565.95" y2="728.11" style="fill: #231300; stroke: #231300; stroke-miterlimit: 10; stroke-width: 1.55px;"/>
                <line x1="293.73" y1="719.6" x2="565.95" y2="719.6" style="fill: #231300; stroke: #231300; stroke-miterlimit: 10; stroke-width: 1.55px;"/>
                <line x1="293.73" y1="711.1" x2="565.95" y2="711.1" style="fill: #231300; stroke: #231300; stroke-miterlimit: 10; stroke-width: 1.55px;"/>
                <line x1="293.73" y1="702.59" x2="565.95" y2="702.59" style="fill: #231300; stroke: #231300; stroke-miterlimit: 10; stroke-width: 1.55px;"/>
                <line x1="293.73" y1="694.08" x2="565.95" y2="694.08" style="fill: #231300; stroke: #231300; stroke-miterlimit: 10; stroke-width: 1.55px;"/>
                <line x1="293.73" y1="685.58" x2="565.95" y2="685.58" style="fill: #231300; stroke: #231300; stroke-miterlimit: 10; stroke-width: 1.55px;"/>
                <line x1="293.73" y1="677.07" x2="565.95" y2="677.07" style="fill: #231300; stroke: #231300; stroke-miterlimit: 10; stroke-width: 1.55px;"/>
                <line x1="293.73" y1="668.56" x2="565.95" y2="668.56" style="fill: #231300; stroke: #231300; stroke-miterlimit: 10; stroke-width: 1.55px;"/>
                <line x1="293.73" y1="660.06" x2="565.95" y2="660.06" style="fill: #231300; stroke: #231300; stroke-miterlimit: 10; stroke-width: 1.55px;"/>
                <line x1="293.73" y1="651.55" x2="565.95" y2="651.55" style="fill: #231300; stroke: #231300; stroke-miterlimit: 10; stroke-width: 1.55px;"/>
                <line x1="293.73" y1="643.04" x2="565.95" y2="643.04" style="fill: #231300; stroke: #231300; stroke-miterlimit: 10; stroke-width: 1.55px;"/>
              </g>
              <g>
                <line x1="570.2" y1="638.79" x2="570.2" y2="911.01" style="fill: #231300; stroke: #231300; stroke-miterlimit: 10; stroke-width: 1.55px;"/>
                <line x1="578.71" y1="638.79" x2="578.71" y2="911.01" style="fill: #231300; stroke: #231300; stroke-miterlimit: 10; stroke-width: 1.55px;"/>
                <line x1="587.22" y1="638.79" x2="587.22" y2="911.01" style="fill: #231300; stroke: #231300; stroke-miterlimit: 10; stroke-width: 1.55px;"/>
                <line x1="595.72" y1="638.79" x2="595.72" y2="911.01" style="fill: #231300; stroke: #231300; stroke-miterlimit: 10; stroke-width: 1.55px;"/>
                <line x1="604.23" y1="638.79" x2="604.23" y2="911.01" style="fill: #231300; stroke: #231300; stroke-miterlimit: 10; stroke-width: 1.55px;"/>
                <line x1="612.74" y1="638.79" x2="612.74" y2="911.01" style="fill: #231300; stroke: #231300; stroke-miterlimit: 10; stroke-width: 1.55px;"/>
                <line x1="621.24" y1="638.79" x2="621.24" y2="911.01" style="fill: #231300; stroke: #231300; stroke-miterlimit: 10; stroke-width: 1.55px;"/>
                <line x1="629.75" y1="638.79" x2="629.75" y2="911.01" style="fill: #231300; stroke: #231300; stroke-miterlimit: 10; stroke-width: 1.55px;"/>
                <line x1="638.26" y1="638.79" x2="638.26" y2="911.01" style="fill: #231300; stroke: #231300; stroke-miterlimit: 10; stroke-width: 1.55px;"/>
                <line x1="646.76" y1="638.79" x2="646.76" y2="911.01" style="fill: #231300; stroke: #231300; stroke-miterlimit: 10; stroke-width: 1.55px;"/>
                <line x1="655.27" y1="638.79" x2="655.27" y2="911.01" style="fill: #231300; stroke: #231300; stroke-miterlimit: 10; stroke-width: 1.55px;"/>
                <line x1="663.78" y1="638.79" x2="663.78" y2="911.01" style="fill: #231300; stroke: #231300; stroke-miterlimit: 10; stroke-width: 1.55px;"/>
                <line x1="672.28" y1="638.79" x2="672.28" y2="911.01" style="fill: #231300; stroke: #231300; stroke-miterlimit: 10; stroke-width: 1.55px;"/>
                <line x1="680.79" y1="638.79" x2="680.79" y2="911.01" style="fill: #231300; stroke: #231300; stroke-miterlimit: 10; stroke-width: 1.55px;"/>
                <line x1="689.3" y1="638.79" x2="689.3" y2="911.01" style="fill: #231300; stroke: #231300; stroke-miterlimit: 10; stroke-width: 1.55px;"/>
                <line x1="697.8" y1="638.79" x2="697.8" y2="911.01" style="fill: #231300; stroke: #231300; stroke-miterlimit: 10; stroke-width: 1.55px;"/>
                <line x1="706.31" y1="638.79" x2="706.31" y2="911.01" style="fill: #231300; stroke: #231300; stroke-miterlimit: 10; stroke-width: 1.55px;"/>
                <line x1="714.82" y1="638.79" x2="714.82" y2="911.01" style="fill: #231300; stroke: #231300; stroke-miterlimit: 10; stroke-width: 1.55px;"/>
                <line x1="723.32" y1="638.79" x2="723.32" y2="911.01" style="fill: #231300; stroke: #231300; stroke-miterlimit: 10; stroke-width: 1.55px;"/>
                <line x1="731.83" y1="638.79" x2="731.83" y2="911.01" style="fill: #231300; stroke: #231300; stroke-miterlimit: 10; stroke-width: 1.55px;"/>
                <line x1="740.34" y1="638.79" x2="740.34" y2="911.01" style="fill: #231300; stroke: #231300; stroke-miterlimit: 10; stroke-width: 1.55px;"/>
                <line x1="748.84" y1="638.79" x2="748.84" y2="911.01" style="fill: #231300; stroke: #231300; stroke-miterlimit: 10; stroke-width: 1.55px;"/>
                <line x1="757.35" y1="638.79" x2="757.35" y2="911.01" style="fill: #231300; stroke: #231300; stroke-miterlimit: 10; stroke-width: 1.55px;"/>
                <line x1="765.86" y1="638.79" x2="765.86" y2="911.01" style="fill: #231300; stroke: #231300; stroke-miterlimit: 10; stroke-width: 1.55px;"/>
                <line x1="774.36" y1="638.79" x2="774.36" y2="911.01" style="fill: #231300; stroke: #231300; stroke-miterlimit: 10; stroke-width: 1.55px;"/>
                <line x1="782.87" y1="638.79" x2="782.87" y2="911.01" style="fill: #231300; stroke: #231300; stroke-miterlimit: 10; stroke-width: 1.55px;"/>
                <line x1="791.38" y1="638.79" x2="791.38" y2="911.01" style="fill: #231300; stroke: #231300; stroke-miterlimit: 10; stroke-width: 1.55px;"/>
                <line x1="799.88" y1="638.79" x2="799.88" y2="911.01" style="fill: #231300; stroke: #231300; stroke-miterlimit: 10; stroke-width: 1.55px;"/>
                <line x1="808.39" y1="638.79" x2="808.39" y2="911.01" style="fill: #231300; stroke: #231300; stroke-miterlimit: 10; stroke-width: 1.55px;"/>
                <line x1="816.9" y1="638.79" x2="816.9" y2="911.01" style="fill: #231300; stroke: #231300; stroke-miterlimit: 10; stroke-width: 1.55px;"/>
                <line x1="825.41" y1="638.79" x2="825.41" y2="911.01" style="fill: #231300; stroke: #231300; stroke-miterlimit: 10; stroke-width: 1.55px;"/>
                <line x1="833.91" y1="638.79" x2="833.91" y2="911.01" style="fill: #231300; stroke: #231300; stroke-miterlimit: 10; stroke-width: 1.55px;"/>
                <line x1="565.95" y1="906.75" x2="838.17" y2="906.75" style="fill: #231300; stroke: #231300; stroke-miterlimit: 10; stroke-width: 1.55px;"/>
                <line x1="565.95" y1="898.25" x2="838.17" y2="898.25" style="fill: #231300; stroke: #231300; stroke-miterlimit: 10; stroke-width: 1.55px;"/>
                <line x1="565.95" y1="889.74" x2="838.17" y2="889.74" style="fill: #231300; stroke: #231300; stroke-miterlimit: 10; stroke-width: 1.55px;"/>
                <line x1="565.95" y1="881.23" x2="838.17" y2="881.23" style="fill: #231300; stroke: #231300; stroke-miterlimit: 10; stroke-width: 1.55px;"/>
                <line x1="565.95" y1="872.73" x2="838.17" y2="872.73" style="fill: #231300; stroke: #231300; stroke-miterlimit: 10; stroke-width: 1.55px;"/>
                <line x1="565.95" y1="864.22" x2="838.17" y2="864.22" style="fill: #231300; stroke: #231300; stroke-miterlimit: 10; stroke-width: 1.55px;"/>
                <line x1="565.95" y1="855.71" x2="838.17" y2="855.71" style="fill: #231300; stroke: #231300; stroke-miterlimit: 10; stroke-width: 1.55px;"/>
                <line x1="565.95" y1="847.21" x2="838.17" y2="847.21" style="fill: #231300; stroke: #231300; stroke-miterlimit: 10; stroke-width: 1.55px;"/>
                <line x1="565.95" y1="838.7" x2="838.17" y2="838.7" style="fill: #231300; stroke: #231300; stroke-miterlimit: 10; stroke-width: 1.55px;"/>
                <line x1="565.95" y1="830.19" x2="838.17" y2="830.19" style="fill: #231300; stroke: #231300; stroke-miterlimit: 10; stroke-width: 1.55px;"/>
                <line x1="565.95" y1="821.69" x2="838.17" y2="821.69" style="fill: #231300; stroke: #231300; stroke-miterlimit: 10; stroke-width: 1.55px;"/>
                <line x1="565.95" y1="813.18" x2="838.17" y2="813.18" style="fill: #231300; stroke: #231300; stroke-miterlimit: 10; stroke-width: 1.55px;"/>
                <line x1="565.95" y1="804.67" x2="838.17" y2="804.67" style="fill: #231300; stroke: #231300; stroke-miterlimit: 10; stroke-width: 1.55px;"/>
                <line x1="565.95" y1="796.17" x2="838.17" y2="796.17" style="fill: #231300; stroke: #231300; stroke-miterlimit: 10; stroke-width: 1.55px;"/>
                <line x1="565.95" y1="787.66" x2="838.17" y2="787.66" style="fill: #231300; stroke: #231300; stroke-miterlimit: 10; stroke-width: 1.55px;"/>
                <line x1="565.95" y1="779.15" x2="838.17" y2="779.15" style="fill: #231300; stroke: #231300; stroke-miterlimit: 10; stroke-width: 1.55px;"/>
                <line x1="565.95" y1="770.64" x2="838.17" y2="770.64" style="fill: #231300; stroke: #231300; stroke-miterlimit: 10; stroke-width: 1.55px;"/>
                <line x1="565.95" y1="762.14" x2="838.17" y2="762.14" style="fill: #231300; stroke: #231300; stroke-miterlimit: 10; stroke-width: 1.55px;"/>
                <line x1="565.95" y1="753.63" x2="838.17" y2="753.63" style="fill: #231300; stroke: #231300; stroke-miterlimit: 10; stroke-width: 1.55px;"/>
                <line x1="565.95" y1="745.12" x2="838.17" y2="745.12" style="fill: #231300; stroke: #231300; stroke-miterlimit: 10; stroke-width: 1.55px;"/>
                <line x1="565.95" y1="736.62" x2="838.17" y2="736.62" style="fill: #231300; stroke: #231300; stroke-miterlimit: 10; stroke-width: 1.55px;"/>
                <line x1="565.95" y1="728.11" x2="838.17" y2="728.11" style="fill: #231300; stroke: #231300; stroke-miterlimit: 10; stroke-width: 1.55px;"/>
                <line x1="565.95" y1="719.6" x2="838.17" y2="719.6" style="fill: #231300; stroke: #231300; stroke-miterlimit: 10; stroke-width: 1.55px;"/>
                <line x1="565.95" y1="711.1" x2="838.17" y2="711.1" style="fill: #231300; stroke: #231300; stroke-miterlimit: 10; stroke-width: 1.55px;"/>
                <line x1="565.95" y1="702.59" x2="838.17" y2="702.59" style="fill: #231300; stroke: #231300; stroke-miterlimit: 10; stroke-width: 1.55px;"/>
                <line x1="565.95" y1="694.08" x2="838.17" y2="694.08" style="fill: #231300; stroke: #231300; stroke-miterlimit: 10; stroke-width: 1.55px;"/>
                <line x1="565.95" y1="685.58" x2="838.17" y2="685.58" style="fill: #231300; stroke: #231300; stroke-miterlimit: 10; stroke-width: 1.55px;"/>
                <line x1="565.95" y1="677.07" x2="838.17" y2="677.07" style="fill: #231300; stroke: #231300; stroke-miterlimit: 10; stroke-width: 1.55px;"/>
                <line x1="565.95" y1="668.56" x2="838.17" y2="668.56" style="fill: #231300; stroke: #231300; stroke-miterlimit: 10; stroke-width: 1.55px;"/>
                <line x1="565.95" y1="660.06" x2="838.17" y2="660.06" style="fill: #231300; stroke: #231300; stroke-miterlimit: 10; stroke-width: 1.55px;"/>
                <line x1="565.95" y1="651.55" x2="838.17" y2="651.55" style="fill: #231300; stroke: #231300; stroke-miterlimit: 10; stroke-width: 1.55px;"/>
                <line x1="565.95" y1="643.04" x2="838.17" y2="643.04" style="fill: #231300; stroke: #231300; stroke-miterlimit: 10; stroke-width: 1.55px;"/>
              </g>
            </g>
          </g>
        </g>
        <g>
          <polygon points="748.15 710.35 390.48 710.35 372.42 636.81 763.73 636.81 748.15 710.35" style="fill: #00b6f3;"/>
          <g style="clip-path: url(#uuid-f917bc64-a28d-40b8-aa5e-1e0ec1499f08);">
            <g>
              <g>
                <line x1="367.83" y1="570.6" x2="367.83" y2="770.31" style="fill: none; stroke: #4859a4; stroke-miterlimit: 10; stroke-width: 1.55px;"/>
                <line x1="375.28" y1="570.6" x2="375.28" y2="770.31" style="fill: none; stroke: #4859a4; stroke-miterlimit: 10; stroke-width: 1.55px;"/>
                <line x1="382.73" y1="570.6" x2="382.73" y2="770.31" style="fill: none; stroke: #4859a4; stroke-miterlimit: 10; stroke-width: 1.55px;"/>
                <line x1="390.18" y1="570.6" x2="390.18" y2="770.31" style="fill: none; stroke: #4859a4; stroke-miterlimit: 10; stroke-width: 1.55px;"/>
                <line x1="397.63" y1="570.6" x2="397.63" y2="770.31" style="fill: none; stroke: #4859a4; stroke-miterlimit: 10; stroke-width: 1.55px;"/>
                <line x1="405.08" y1="570.6" x2="405.08" y2="770.31" style="fill: none; stroke: #4859a4; stroke-miterlimit: 10; stroke-width: 1.55px;"/>
                <line x1="412.54" y1="570.6" x2="412.54" y2="770.31" style="fill: none; stroke: #4859a4; stroke-miterlimit: 10; stroke-width: 1.55px;"/>
                <line x1="419.99" y1="570.6" x2="419.99" y2="770.31" style="fill: none; stroke: #4859a4; stroke-miterlimit: 10; stroke-width: 1.55px;"/>
                <line x1="427.44" y1="570.6" x2="427.44" y2="770.31" style="fill: none; stroke: #4859a4; stroke-miterlimit: 10; stroke-width: 1.55px;"/>
                <line x1="434.89" y1="570.6" x2="434.89" y2="770.31" style="fill: none; stroke: #4859a4; stroke-miterlimit: 10; stroke-width: 1.55px;"/>
                <line x1="442.34" y1="570.6" x2="442.34" y2="770.31" style="fill: none; stroke: #4859a4; stroke-miterlimit: 10; stroke-width: 1.55px;"/>
                <line x1="449.79" y1="570.6" x2="449.79" y2="770.31" style="fill: none; stroke: #4859a4; stroke-miterlimit: 10; stroke-width: 1.55px;"/>
                <line x1="457.24" y1="570.6" x2="457.24" y2="770.31" style="fill: none; stroke: #4859a4; stroke-miterlimit: 10; stroke-width: 1.55px;"/>
                <line x1="464.7" y1="570.6" x2="464.7" y2="770.31" style="fill: none; stroke: #4859a4; stroke-miterlimit: 10; stroke-width: 1.55px;"/>
                <line x1="472.15" y1="570.6" x2="472.15" y2="770.31" style="fill: none; stroke: #4859a4; stroke-miterlimit: 10; stroke-width: 1.55px;"/>
                <line x1="479.6" y1="570.6" x2="479.6" y2="770.31" style="fill: none; stroke: #4859a4; stroke-miterlimit: 10; stroke-width: 1.55px;"/>
                <line x1="487.05" y1="570.6" x2="487.05" y2="770.31" style="fill: none; stroke: #4859a4; stroke-miterlimit: 10; stroke-width: 1.55px;"/>
                <line x1="494.5" y1="570.6" x2="494.5" y2="770.31" style="fill: none; stroke: #4859a4; stroke-miterlimit: 10; stroke-width: 1.55px;"/>
                <line x1="501.95" y1="570.6" x2="501.95" y2="770.31" style="fill: none; stroke: #4859a4; stroke-miterlimit: 10; stroke-width: 1.55px;"/>
                <line x1="509.4" y1="570.6" x2="509.4" y2="770.31" style="fill: none; stroke: #4859a4; stroke-miterlimit: 10; stroke-width: 1.55px;"/>
                <line x1="516.85" y1="570.6" x2="516.85" y2="770.31" style="fill: none; stroke: #4859a4; stroke-miterlimit: 10; stroke-width: 1.55px;"/>
                <line x1="524.31" y1="570.6" x2="524.31" y2="770.31" style="fill: none; stroke: #4859a4; stroke-miterlimit: 10; stroke-width: 1.55px;"/>
                <line x1="531.76" y1="570.6" x2="531.76" y2="770.31" style="fill: none; stroke: #4859a4; stroke-miterlimit: 10; stroke-width: 1.55px;"/>
                <line x1="539.21" y1="570.6" x2="539.21" y2="770.31" style="fill: none; stroke: #4859a4; stroke-miterlimit: 10; stroke-width: 1.55px;"/>
                <line x1="546.66" y1="570.6" x2="546.66" y2="770.31" style="fill: none; stroke: #4859a4; stroke-miterlimit: 10; stroke-width: 1.55px;"/>
                <line x1="554.11" y1="570.6" x2="554.11" y2="770.31" style="fill: none; stroke: #4859a4; stroke-miterlimit: 10; stroke-width: 1.55px;"/>
                <line x1="561.56" y1="570.6" x2="561.56" y2="770.31" style="fill: none; stroke: #4859a4; stroke-miterlimit: 10; stroke-width: 1.55px;"/>
                <line x1="569.01" y1="570.6" x2="569.01" y2="770.31" style="fill: none; stroke: #4859a4; stroke-miterlimit: 10; stroke-width: 1.55px;"/>
                <line x1="576.47" y1="570.6" x2="576.47" y2="770.31" style="fill: none; stroke: #4859a4; stroke-miterlimit: 10; stroke-width: 1.55px;"/>
                <line x1="583.92" y1="570.6" x2="583.92" y2="770.31" style="fill: none; stroke: #4859a4; stroke-miterlimit: 10; stroke-width: 1.55px;"/>
                <line x1="591.37" y1="570.6" x2="591.37" y2="770.31" style="fill: none; stroke: #4859a4; stroke-miterlimit: 10; stroke-width: 1.55px;"/>
                <line x1="598.82" y1="570.6" x2="598.82" y2="770.31" style="fill: none; stroke: #4859a4; stroke-miterlimit: 10; stroke-width: 1.55px;"/>
                <line x1="364.1" y1="767.19" x2="602.55" y2="767.19" style="fill: none; stroke: #4859a4; stroke-miterlimit: 10; stroke-width: 1.55px;"/>
                <line x1="364.1" y1="760.95" x2="602.55" y2="760.95" style="fill: none; stroke: #4859a4; stroke-miterlimit: 10; stroke-width: 1.55px;"/>
                <line x1="364.1" y1="754.71" x2="602.55" y2="754.71" style="fill: none; stroke: #4859a4; stroke-miterlimit: 10; stroke-width: 1.55px;"/>
                <line x1="364.1" y1="748.47" x2="602.55" y2="748.47" style="fill: none; stroke: #4859a4; stroke-miterlimit: 10; stroke-width: 1.55px;"/>
                <line x1="364.1" y1="742.23" x2="602.55" y2="742.23" style="fill: none; stroke: #4859a4; stroke-miterlimit: 10; stroke-width: 1.55px;"/>
                <line x1="364.1" y1="735.99" x2="602.55" y2="735.99" style="fill: none; stroke: #4859a4; stroke-miterlimit: 10; stroke-width: 1.55px;"/>
                <line x1="364.1" y1="729.75" x2="602.55" y2="729.75" style="fill: none; stroke: #4859a4; stroke-miterlimit: 10; stroke-width: 1.55px;"/>
                <line x1="364.1" y1="723.51" x2="602.55" y2="723.51" style="fill: none; stroke: #4859a4; stroke-miterlimit: 10; stroke-width: 1.55px;"/>
                <line x1="364.1" y1="717.27" x2="602.55" y2="717.27" style="fill: none; stroke: #4859a4; stroke-miterlimit: 10; stroke-width: 1.55px;"/>
                <line x1="364.1" y1="711.03" x2="602.55" y2="711.03" style="fill: none; stroke: #4859a4; stroke-miterlimit: 10; stroke-width: 1.55px;"/>
                <line x1="364.1" y1="704.78" x2="602.55" y2="704.78" style="fill: none; stroke: #4859a4; stroke-miterlimit: 10; stroke-width: 1.55px;"/>
                <line x1="364.1" y1="698.54" x2="602.55" y2="698.54" style="fill: none; stroke: #4859a4; stroke-miterlimit: 10; stroke-width: 1.55px;"/>
                <line x1="364.1" y1="692.3" x2="602.55" y2="692.3" style="fill: none; stroke: #4859a4; stroke-miterlimit: 10; stroke-width: 1.55px;"/>
                <line x1="364.1" y1="686.06" x2="602.55" y2="686.06" style="fill: none; stroke: #4859a4; stroke-miterlimit: 10; stroke-width: 1.55px;"/>
                <line x1="364.1" y1="679.82" x2="602.55" y2="679.82" style="fill: none; stroke: #4859a4; stroke-miterlimit: 10; stroke-width: 1.55px;"/>
                <line x1="364.1" y1="673.58" x2="602.55" y2="673.58" style="fill: none; stroke: #4859a4; stroke-miterlimit: 10; stroke-width: 1.55px;"/>
                <line x1="364.1" y1="667.34" x2="602.55" y2="667.34" style="fill: none; stroke: #4859a4; stroke-miterlimit: 10; stroke-width: 1.55px;"/>
                <line x1="364.1" y1="661.1" x2="602.55" y2="661.1" style="fill: none; stroke: #4859a4; stroke-miterlimit: 10; stroke-width: 1.55px;"/>
                <line x1="364.1" y1="654.86" x2="602.55" y2="654.86" style="fill: none; stroke: #4859a4; stroke-miterlimit: 10; stroke-width: 1.55px;"/>
                <line x1="364.1" y1="648.62" x2="602.55" y2="648.62" style="fill: none; stroke: #4859a4; stroke-miterlimit: 10; stroke-width: 1.55px;"/>
                <line x1="364.1" y1="642.37" x2="602.55" y2="642.37" style="fill: none; stroke: #4859a4; stroke-miterlimit: 10; stroke-width: 1.55px;"/>
                <line x1="364.1" y1="636.13" x2="602.55" y2="636.13" style="fill: none; stroke: #4859a4; stroke-miterlimit: 10; stroke-width: 1.55px;"/>
                <line x1="364.1" y1="629.89" x2="602.55" y2="629.89" style="fill: none; stroke: #4859a4; stroke-miterlimit: 10; stroke-width: 1.55px;"/>
                <line x1="364.1" y1="623.65" x2="602.55" y2="623.65" style="fill: none; stroke: #4859a4; stroke-miterlimit: 10; stroke-width: 1.55px;"/>
                <line x1="364.1" y1="617.41" x2="602.55" y2="617.41" style="fill: none; stroke: #4859a4; stroke-miterlimit: 10; stroke-width: 1.55px;"/>
                <line x1="364.1" y1="611.17" x2="602.55" y2="611.17" style="fill: none; stroke: #4859a4; stroke-miterlimit: 10; stroke-width: 1.55px;"/>
                <line x1="364.1" y1="604.93" x2="602.55" y2="604.93" style="fill: none; stroke: #4859a4; stroke-miterlimit: 10; stroke-width: 1.55px;"/>
                <line x1="364.1" y1="598.69" x2="602.55" y2="598.69" style="fill: none; stroke: #4859a4; stroke-miterlimit: 10; stroke-width: 1.55px;"/>
                <line x1="364.1" y1="592.45" x2="602.55" y2="592.45" style="fill: none; stroke: #4859a4; stroke-miterlimit: 10; stroke-width: 1.55px;"/>
                <line x1="364.1" y1="586.21" x2="602.55" y2="586.21" style="fill: none; stroke: #4859a4; stroke-miterlimit: 10; stroke-width: 1.55px;"/>
                <line x1="364.1" y1="579.97" x2="602.55" y2="579.97" style="fill: none; stroke: #4859a4; stroke-miterlimit: 10; stroke-width: 1.55px;"/>
                <line x1="364.1" y1="573.72" x2="602.55" y2="573.72" style="fill: none; stroke: #4859a4; stroke-miterlimit: 10; stroke-width: 1.55px;"/>
              </g>
              <g>
                <line x1="606.27" y1="570.6" x2="606.27" y2="770.31" style="fill: none; stroke: #4859a4; stroke-miterlimit: 10; stroke-width: 1.55px;"/>
                <line x1="613.72" y1="570.6" x2="613.72" y2="770.31" style="fill: none; stroke: #4859a4; stroke-miterlimit: 10; stroke-width: 1.55px;"/>
                <line x1="621.17" y1="570.6" x2="621.17" y2="770.31" style="fill: none; stroke: #4859a4; stroke-miterlimit: 10; stroke-width: 1.55px;"/>
                <line x1="628.63" y1="570.6" x2="628.63" y2="770.31" style="fill: none; stroke: #4859a4; stroke-miterlimit: 10; stroke-width: 1.55px;"/>
                <line x1="636.08" y1="570.6" x2="636.08" y2="770.31" style="fill: none; stroke: #4859a4; stroke-miterlimit: 10; stroke-width: 1.55px;"/>
                <line x1="643.53" y1="570.6" x2="643.53" y2="770.31" style="fill: none; stroke: #4859a4; stroke-miterlimit: 10; stroke-width: 1.55px;"/>
                <line x1="650.98" y1="570.6" x2="650.98" y2="770.31" style="fill: none; stroke: #4859a4; stroke-miterlimit: 10; stroke-width: 1.55px;"/>
                <line x1="658.43" y1="570.6" x2="658.43" y2="770.31" style="fill: none; stroke: #4859a4; stroke-miterlimit: 10; stroke-width: 1.55px;"/>
                <line x1="665.88" y1="570.6" x2="665.88" y2="770.31" style="fill: none; stroke: #4859a4; stroke-miterlimit: 10; stroke-width: 1.55px;"/>
                <line x1="673.33" y1="570.6" x2="673.33" y2="770.31" style="fill: none; stroke: #4859a4; stroke-miterlimit: 10; stroke-width: 1.55px;"/>
                <line x1="680.79" y1="570.6" x2="680.79" y2="770.31" style="fill: none; stroke: #4859a4; stroke-miterlimit: 10; stroke-width: 1.55px;"/>
                <line x1="688.24" y1="570.6" x2="688.24" y2="770.31" style="fill: none; stroke: #4859a4; stroke-miterlimit: 10; stroke-width: 1.55px;"/>
                <line x1="695.69" y1="570.6" x2="695.69" y2="770.31" style="fill: none; stroke: #4859a4; stroke-miterlimit: 10; stroke-width: 1.55px;"/>
                <line x1="703.14" y1="570.6" x2="703.14" y2="770.31" style="fill: none; stroke: #4859a4; stroke-miterlimit: 10; stroke-width: 1.55px;"/>
                <line x1="710.59" y1="570.6" x2="710.59" y2="770.31" style="fill: none; stroke: #4859a4; stroke-miterlimit: 10; stroke-width: 1.55px;"/>
                <line x1="718.04" y1="570.6" x2="718.04" y2="770.31" style="fill: none; stroke: #4859a4; stroke-miterlimit: 10; stroke-width: 1.55px;"/>
                <line x1="725.49" y1="570.6" x2="725.49" y2="770.31" style="fill: none; stroke: #4859a4; stroke-miterlimit: 10; stroke-width: 1.55px;"/>
                <line x1="732.95" y1="570.6" x2="732.95" y2="770.31" style="fill: none; stroke: #4859a4; stroke-miterlimit: 10; stroke-width: 1.55px;"/>
                <line x1="740.4" y1="570.6" x2="740.4" y2="770.31" style="fill: none; stroke: #4859a4; stroke-miterlimit: 10; stroke-width: 1.55px;"/>
                <line x1="747.85" y1="570.6" x2="747.85" y2="770.31" style="fill: none; stroke: #4859a4; stroke-miterlimit: 10; stroke-width: 1.55px;"/>
                <line x1="755.3" y1="570.6" x2="755.3" y2="770.31" style="fill: none; stroke: #4859a4; stroke-miterlimit: 10; stroke-width: 1.55px;"/>
                <line x1="762.75" y1="570.6" x2="762.75" y2="770.31" style="fill: none; stroke: #4859a4; stroke-miterlimit: 10; stroke-width: 1.55px;"/>
                <line x1="770.2" y1="570.6" x2="770.2" y2="770.31" style="fill: none; stroke: #4859a4; stroke-miterlimit: 10; stroke-width: 1.55px;"/>
                <line x1="777.65" y1="570.6" x2="777.65" y2="770.31" style="fill: none; stroke: #4859a4; stroke-miterlimit: 10; stroke-width: 1.55px;"/>
                <line x1="785.11" y1="570.6" x2="785.11" y2="770.31" style="fill: none; stroke: #4859a4; stroke-miterlimit: 10; stroke-width: 1.55px;"/>
                <line x1="792.56" y1="570.6" x2="792.56" y2="770.31" style="fill: none; stroke: #4859a4; stroke-miterlimit: 10; stroke-width: 1.55px;"/>
                <line x1="800.01" y1="570.6" x2="800.01" y2="770.31" style="fill: none; stroke: #4859a4; stroke-miterlimit: 10; stroke-width: 1.55px;"/>
                <line x1="807.46" y1="570.6" x2="807.46" y2="770.31" style="fill: none; stroke: #4859a4; stroke-miterlimit: 10; stroke-width: 1.55px;"/>
                <line x1="814.91" y1="570.6" x2="814.91" y2="770.31" style="fill: none; stroke: #4859a4; stroke-miterlimit: 10; stroke-width: 1.55px;"/>
                <line x1="822.36" y1="570.6" x2="822.36" y2="770.31" style="fill: none; stroke: #4859a4; stroke-miterlimit: 10; stroke-width: 1.55px;"/>
                <line x1="829.81" y1="570.6" x2="829.81" y2="770.31" style="fill: none; stroke: #4859a4; stroke-miterlimit: 10; stroke-width: 1.55px;"/>
                <line x1="837.27" y1="570.6" x2="837.27" y2="770.31" style="fill: none; stroke: #4859a4; stroke-miterlimit: 10; stroke-width: 1.55px;"/>
                <line x1="602.55" y1="767.19" x2="840.99" y2="767.19" style="fill: none; stroke: #4859a4; stroke-miterlimit: 10; stroke-width: 1.55px;"/>
                <line x1="602.55" y1="760.95" x2="840.99" y2="760.95" style="fill: none; stroke: #4859a4; stroke-miterlimit: 10; stroke-width: 1.55px;"/>
                <line x1="602.55" y1="754.71" x2="840.99" y2="754.71" style="fill: none; stroke: #4859a4; stroke-miterlimit: 10; stroke-width: 1.55px;"/>
                <line x1="602.55" y1="748.47" x2="840.99" y2="748.47" style="fill: none; stroke: #4859a4; stroke-miterlimit: 10; stroke-width: 1.55px;"/>
                <line x1="602.55" y1="742.23" x2="840.99" y2="742.23" style="fill: none; stroke: #4859a4; stroke-miterlimit: 10; stroke-width: 1.55px;"/>
                <line x1="602.55" y1="735.99" x2="840.99" y2="735.99" style="fill: none; stroke: #4859a4; stroke-miterlimit: 10; stroke-width: 1.55px;"/>
                <line x1="602.55" y1="729.75" x2="840.99" y2="729.75" style="fill: none; stroke: #4859a4; stroke-miterlimit: 10; stroke-width: 1.55px;"/>
                <line x1="602.55" y1="723.51" x2="840.99" y2="723.51" style="fill: none; stroke: #4859a4; stroke-miterlimit: 10; stroke-width: 1.55px;"/>
                <line x1="602.55" y1="717.27" x2="840.99" y2="717.27" style="fill: none; stroke: #4859a4; stroke-miterlimit: 10; stroke-width: 1.55px;"/>
                <line x1="602.55" y1="711.03" x2="840.99" y2="711.03" style="fill: none; stroke: #4859a4; stroke-miterlimit: 10; stroke-width: 1.55px;"/>
                <line x1="602.55" y1="704.78" x2="840.99" y2="704.78" style="fill: none; stroke: #4859a4; stroke-miterlimit: 10; stroke-width: 1.55px;"/>
                <line x1="602.55" y1="698.54" x2="840.99" y2="698.54" style="fill: none; stroke: #4859a4; stroke-miterlimit: 10; stroke-width: 1.55px;"/>
                <line x1="602.55" y1="692.3" x2="840.99" y2="692.3" style="fill: none; stroke: #4859a4; stroke-miterlimit: 10; stroke-width: 1.55px;"/>
                <line x1="602.55" y1="686.06" x2="840.99" y2="686.06" style="fill: none; stroke: #4859a4; stroke-miterlimit: 10; stroke-width: 1.55px;"/>
                <line x1="602.55" y1="679.82" x2="840.99" y2="679.82" style="fill: none; stroke: #4859a4; stroke-miterlimit: 10; stroke-width: 1.55px;"/>
                <line x1="602.55" y1="673.58" x2="840.99" y2="673.58" style="fill: none; stroke: #4859a4; stroke-miterlimit: 10; stroke-width: 1.55px;"/>
                <line x1="602.55" y1="667.34" x2="840.99" y2="667.34" style="fill: none; stroke: #4859a4; stroke-miterlimit: 10; stroke-width: 1.55px;"/>
                <line x1="602.55" y1="661.1" x2="840.99" y2="661.1" style="fill: none; stroke: #4859a4; stroke-miterlimit: 10; stroke-width: 1.55px;"/>
                <line x1="602.55" y1="654.86" x2="840.99" y2="654.86" style="fill: none; stroke: #4859a4; stroke-miterlimit: 10; stroke-width: 1.55px;"/>
                <line x1="602.55" y1="648.62" x2="840.99" y2="648.62" style="fill: none; stroke: #4859a4; stroke-miterlimit: 10; stroke-width: 1.55px;"/>
                <line x1="602.55" y1="642.37" x2="840.99" y2="642.37" style="fill: none; stroke: #4859a4; stroke-miterlimit: 10; stroke-width: 1.55px;"/>
                <line x1="602.55" y1="636.13" x2="840.99" y2="636.13" style="fill: none; stroke: #4859a4; stroke-miterlimit: 10; stroke-width: 1.55px;"/>
                <line x1="602.55" y1="629.89" x2="840.99" y2="629.89" style="fill: none; stroke: #4859a4; stroke-miterlimit: 10; stroke-width: 1.55px;"/>
                <line x1="602.55" y1="623.65" x2="840.99" y2="623.65" style="fill: none; stroke: #4859a4; stroke-miterlimit: 10; stroke-width: 1.55px;"/>
                <line x1="602.55" y1="617.41" x2="840.99" y2="617.41" style="fill: none; stroke: #4859a4; stroke-miterlimit: 10; stroke-width: 1.55px;"/>
                <line x1="602.55" y1="611.17" x2="840.99" y2="611.17" style="fill: none; stroke: #4859a4; stroke-miterlimit: 10; stroke-width: 1.55px;"/>
                <line x1="602.55" y1="604.93" x2="840.99" y2="604.93" style="fill: none; stroke: #4859a4; stroke-miterlimit: 10; stroke-width: 1.55px;"/>
                <line x1="602.55" y1="598.69" x2="840.99" y2="598.69" style="fill: none; stroke: #4859a4; stroke-miterlimit: 10; stroke-width: 1.55px;"/>
                <line x1="602.55" y1="592.45" x2="840.99" y2="592.45" style="fill: none; stroke: #4859a4; stroke-miterlimit: 10; stroke-width: 1.55px;"/>
                <line x1="602.55" y1="586.21" x2="840.99" y2="586.21" style="fill: none; stroke: #4859a4; stroke-miterlimit: 10; stroke-width: 1.55px;"/>
                <line x1="602.55" y1="579.97" x2="840.99" y2="579.97" style="fill: none; stroke: #4859a4; stroke-miterlimit: 10; stroke-width: 1.55px;"/>
                <line x1="602.55" y1="573.72" x2="840.99" y2="573.72" style="fill: none; stroke: #4859a4; stroke-miterlimit: 10; stroke-width: 1.55px;"/>
              </g>
            </g>
          </g>
        </g>
        <path d="m613.32,853.79s-11.31.03-14.15.31c-20.16,8.11-41.23,8.11-62.21.06-2.82-.33-14.13-.38-14.13-.38v-16.85s11.31.02,14.13.12c20.98,6.2,41.35,4.8,62.21-.02,2.83-.08,14.15-.1,14.15-.1v16.85Z" style="fill: #00b6f3;"/>
        <circle cx="363.31" cy="870.22" r="11.6" style="fill: #231300; stroke: #231300; stroke-miterlimit: 10; stroke-width: 1.55px;"/>
        <circle cx="771.25" cy="870.22" r="11.6" style="fill: #231300; stroke: #231300; stroke-miterlimit: 10; stroke-width: 1.55px;"/>
        <g>
          <path d="m426.84,977.77v-32h6.03v32h-6.03Zm2.4-12.87v-5.81h11.13c.94,0,1.69-.34,2.25-1.03.56-.69.85-1.6.87-2.73,0-1.13-.28-2.04-.85-2.73s-1.32-1.03-2.28-1.03h-11.13v-5.81h11.61c1.77,0,3.32.4,4.65,1.19,1.33.79,2.36,1.91,3.09,3.34.73,1.44,1.1,3.12,1.1,5.04s-.37,3.6-1.11,5.04-1.77,2.55-3.09,3.34c-1.32.79-2.87,1.19-4.64,1.19h-11.61Zm14.49,12.87l-7.76-13.86,6.44-1.01,8.62,14.87h-7.3Z"/>
          <path d="m461.28,978.1c-1.95,0-3.69-.38-5.23-1.14-1.54-.76-2.73-1.84-3.58-3.23l4.93-3.58c.53.67,1.16,1.19,1.9,1.56.74.37,1.51.55,2.32.55,1.16,0,2.05-.41,2.68-1.22.63-.81.95-1.96.95-3.44v-21.79h6.25v21.82c0,3.33-.89,5.91-2.67,7.74-1.78,1.83-4.29,2.75-7.53,2.75Z"/>
          <path d="m489.47,977.77v-5.43l10.97-14.43c.5-.64.88-1.31,1.15-1.99.27-.68.41-1.32.41-1.9v-.04c0-.87-.28-1.53-.84-2-.56-.47-1.35-.7-2.38-.7s-1.79.33-2.41.98-1,1.58-1.13,2.78v.02h-6.18v-.02c.21-3.03,1.18-5.39,2.91-7.06,1.74-1.67,3.99-2.51,6.76-2.51,3.01,0,5.33.73,6.98,2.18s2.47,3.5,2.47,6.16v.02c0,1.45-.25,2.89-.76,4.32-.51,1.43-1.21,2.72-2.12,3.88l-7.87,9.94h10.93v5.81h-18.91Z"/>
          <path d="m522.79,978.1c-3.18,0-5.57-.82-7.17-2.45s-2.4-3.84-2.4-6.63v-14.54c0-2.83.81-5.05,2.42-6.66s3.99-2.42,7.15-2.42,5.55.8,7.16,2.41c1.61,1.61,2.41,3.83,2.41,6.67v14.54c0,2.83-.81,5.05-2.42,6.66s-4,2.42-7.15,2.42Zm0-5.81c1.26,0,2.17-.43,2.72-1.29.55-.86.83-2.03.83-3.53v-11.46c0-1.51-.28-2.69-.83-3.54-.55-.85-1.46-1.28-2.72-1.28s-2.15.43-2.71,1.28c-.56.85-.83,2.03-.83,3.54v11.46c0,1.5.28,2.67.83,3.53.56.86,1.46,1.29,2.71,1.29Z"/>
          <path d="m550.83,977.77v-31.98h6.03v31.98h-6.03Zm2.75-12.4v-5.8h10.23c1.08,0,1.96-.36,2.64-1.09.67-.73,1.01-1.68,1.01-2.87s-.33-2.19-1-2.91c-.67-.72-1.55-1.09-2.65-1.09h-10.23v-5.81h10.07c2.02,0,3.79.41,5.29,1.22,1.5.81,2.67,1.95,3.51,3.42.84,1.47,1.25,3.19,1.25,5.17s-.42,3.68-1.25,5.15c-.83,1.47-2.01,2.6-3.52,3.41s-3.27,1.21-5.28,1.21h-10.07Z"/>
          <path d="m573.81,977.77l12.23-31.98h3.83l12.23,31.98h-6.49l-7.65-21.84-7.65,21.84h-6.49Zm5.87-5.12v-5.8h16.82v5.8h-16.82Z"/>
          <path d="m617,977.77v-5.43l10.97-14.43c.5-.64.88-1.31,1.15-1.99.27-.68.41-1.32.41-1.9v-.04c0-.87-.28-1.53-.84-2-.56-.47-1.35-.7-2.38-.7s-1.79.33-2.41.98-1,1.58-1.13,2.78v.02h-6.18v-.02c.21-3.03,1.18-5.39,2.91-7.06,1.74-1.67,3.99-2.51,6.76-2.51,3.01,0,5.33.73,6.98,2.18s2.47,3.5,2.47,6.16v.02c0,1.45-.25,2.89-.76,4.32-.51,1.43-1.21,2.72-2.12,3.88l-7.87,9.94h10.93v5.81h-18.91Z"/>
          <path d="m658.15,945.79v4l-7.17,27.97h-6.53l6.95-26.17h-5.5v4.82h-6.03v-10.62h18.27Z"/>
          <path d="m680.82,945.79v4l-7.17,27.97h-6.53l6.95-26.17h-5.5v4.82h-6.03v-10.62h18.27Z"/>
          <path d="m695.91,978.1c-2.04,0-3.82-.37-5.33-1.1-1.52-.73-2.7-1.77-3.54-3.1-.84-1.33-1.26-2.89-1.26-4.68v-.53c0-1.6.44-3.1,1.32-4.51.88-1.41,2.05-2.47,3.52-3.19-1.25-.62-2.25-1.5-3.02-2.64-.77-1.14-1.16-2.36-1.16-3.65v-.84c0-2.54.87-4.57,2.6-6.1,1.73-1.53,4.02-2.3,6.88-2.3s5.15.77,6.88,2.3c1.73,1.53,2.6,3.57,2.6,6.1v.84c0,1.32-.39,2.55-1.17,3.68s-1.8,2-3.08,2.61c1.48.72,2.67,1.78,3.56,3.19.89,1.41,1.34,2.91,1.34,4.51v.53c0,1.79-.42,3.35-1.26,4.68-.84,1.33-2.02,2.37-3.54,3.1-1.52.73-3.29,1.1-5.33,1.1Zm0-5.81c1.23,0,2.22-.36,2.98-1.09.75-.73,1.13-1.68,1.13-2.87v-.31c0-1.09-.38-1.96-1.13-2.62s-1.75-.99-2.98-.99-2.22.33-2.98.99c-.76.66-1.13,1.54-1.13,2.64v.33c0,1.17.38,2.12,1.13,2.84.75.72,1.75,1.08,2.98,1.08Zm0-13.72c1.04,0,1.88-.33,2.51-.99s.95-1.54.95-2.64v-.31c0-1.01-.32-1.83-.95-2.44-.63-.62-1.47-.92-2.51-.92s-1.86.31-2.5.92c-.64.62-.96,1.44-.96,2.46v.33c0,1.07.32,1.94.96,2.59s1.47.99,2.5.99Z"/>
        </g>
        <g>
          <circle cx="363.24" cy="962.36" r="22.01" style="fill: url(#uuid-dcc25169-a6ba-4e66-ab95-aa65d28ba0a7);"/>
          <circle cx="363.24" cy="962.36" r="12.4" style="fill: url(#uuid-dcc12744-b7be-42d1-96c9-95e601eb3288);"/>
        </g>
        <circle cx="267.35" cy="962.36" r="31.45" style="fill: url(#uuid-f59a904b-d748-4e0e-ad0d-5ca277304efd);"/>
        <circle cx="267.35" cy="962.36" r="22.01" style="fill: url(#uuid-ab7238da-01df-4e00-bb97-9bf9ca259641); mix-blend-mode: screen;"/>
        <circle cx="267.35" cy="962.36" r="13.01" style="fill: url(#uuid-682d7d67-223a-4418-8391-529aeecb01d2); mix-blend-mode: screen;"/>
        <g>
          <circle cx="769.81" cy="962.36" r="22.01" style="fill: url(#uuid-05cc85fd-fdd8-4936-92b9-e3c0b88279d9);"/>
          <circle cx="769.81" cy="962.36" r="12.4" style="fill: url(#uuid-b2d231e3-341d-43f0-b86d-b2d87e083cc9);"/>
        </g>
        <g>
          <circle cx="865.71" cy="962.36" r="31.45" style="fill: url(#uuid-5aed27d5-8f65-40c6-9fe7-463459fd2c5e);"/>
          <circle cx="865.71" cy="962.36" r="22.01" style="fill: url(#uuid-c53929e7-f818-4e8b-8f5f-2254ad359862); mix-blend-mode: screen;"/>
          <circle cx="865.71" cy="962.36" r="13.01" style="fill: url(#uuid-12eb42f8-c0ae-4367-8a03-3c41c4a6b3ae); mix-blend-mode: screen;"/>
        </g>
        <rect x="72.39" y="455.71" width="484.41" height="89.83" style="fill: #ccc;"/>
        <polygon points="1053.54 95.16 82.61 95.16 248.96 4.19 887.19 4.19 1053.54 95.16" style="fill: #b1b0b0;"/>
        <path d="m1107.72,314.42c-.56,0-1.1.05-1.66.08l-36.1-105.75h-.01s0-106.31,0-106.31v-3.09L888.27,0H247.88L66.2,99.35v109.45l-36.11,105.7c-.56-.03-1.1-.08-1.67-.08-15.7,0-28.42,12.73-28.42,28.42v84.43c0,15.71,12.73,28.43,28.42,28.43s28.44-12.73,28.44-28.43v-84.43c0-12.15-7.64-22.49-18.37-26.56l27.71-82v788.39h1003.75V234.28l27.7,82c-10.72,4.07-18.36,14.41-18.36,26.56v84.43c0,15.71,12.73,28.43,28.42,28.43s28.43-12.73,28.43-28.43v-84.43c0-15.7-12.73-28.42-28.43-28.42ZM248.96,4.19h638.23l166.35,90.97H82.61L248.96,4.19ZM72.39,108.63h484.41v436.91H72.39V108.63Zm991.38,907.86h-116.14v-115.51h-8.14v115.51H193.56v-115.51h-8.13v115.51h-113.05v-464.76h991.38v464.76Zm0-470.94h-484.41V108.63h484.41v436.91Z"/>
        <rect x="849.62" y="706.27" width="146.42" height="107.24" rx="32.51" ry="32.51" style="fill: url(#uuid-1610a527-1d55-4bce-b237-f8c25aaad909);"/>
        <rect x="862.29" y="715.55" width="121.08" height="88.68" rx="28.79" ry="28.79" style="fill: url(#uuid-5f6b0fa0-dcaf-4409-b9c3-7a9e2d94d6b6); mix-blend-mode: screen;"/>
        <rect x="877.94" y="727.01" width="89.77" height="65.75" rx="22.19" ry="22.19" style="fill: url(#uuid-36315cb3-141b-4874-b966-f67211176376); mix-blend-mode: screen;"/>
        <g>
          <path d="m631.67,169.52l-4.67-6.98h-3.77v6.98h-4.8v-21.81h9.97c2.6,0,4.62.63,6.06,1.9,1.44,1.27,2.17,3.03,2.17,5.3v.06c0,1.77-.43,3.2-1.29,4.32-.86,1.11-1.99,1.93-3.38,2.45l5.33,7.79h-5.61Zm.09-14.36c0-1.04-.33-1.82-1-2.34-.67-.52-1.59-.78-2.77-.78h-4.77v6.26h4.86c1.18,0,2.09-.28,2.73-.84.63-.56.95-1.31.95-2.24v-.06Z" style="fill: #ed1c24;"/>
          <path d="m657.18,169.52l-1.99-4.89h-9.22l-1.99,4.89h-4.89l9.35-21.96h4.42l9.35,21.96h-5.02Zm-6.6-16.2l-2.9,7.07h5.79l-2.9-7.07Z" style="fill: #ed1c24;"/>
          <path d="m677.68,165.44c-.37.98-.9,1.79-1.57,2.45s-1.49,1.14-2.45,1.46c-.96.32-2,.48-3.15.48-1.7,0-3.13-.32-4.28-.97-1.15-.64-2.1-1.41-2.85-2.31l3.02-3.36c.62.69,1.25,1.22,1.88,1.6s1.33.58,2.1.58c.91,0,1.63-.29,2.15-.86.52-.57.78-1.49.78-2.76v-14.05h4.92v14.27c0,1.33-.19,2.48-.56,3.46Z" style="fill: #ed1c24;"/>
          <path d="m699.37,169.52l-1.99-4.89h-9.22l-1.99,4.89h-4.89l9.35-21.96h4.42l9.35,21.96h-5.02Zm-6.6-16.2l-2.9,7.07h5.79l-2.9-7.07Z" style="fill: #ed1c24;"/>
          <path d="m722.93,165.95c-.39.84-.94,1.55-1.64,2.12-.7.57-1.54,1.01-2.51,1.31s-2.05.45-3.23.45c-1.66,0-3.29-.29-4.89-.86-1.6-.57-3.05-1.45-4.36-2.63l2.84-3.4c1,.81,2.02,1.45,3.07,1.93,1.05.48,2.2.72,3.44.72,1,0,1.77-.18,2.32-.54.55-.36.83-.87.83-1.51v-.06c0-.31-.06-.59-.17-.83-.11-.24-.33-.46-.66-.67-.32-.21-.77-.42-1.34-.62-.57-.21-1.32-.42-2.23-.65-1.1-.27-2.1-.57-3-.9-.9-.33-1.66-.74-2.28-1.23-.62-.49-1.11-1.09-1.45-1.82-.34-.73-.52-1.63-.52-2.71v-.06c0-1,.19-1.89.56-2.69s.89-1.49,1.56-2.07c.67-.58,1.47-1.03,2.4-1.34.93-.31,1.96-.47,3.08-.47,1.6,0,3.07.24,4.41.72,1.34.48,2.57,1.16,3.69,2.06l-2.49,3.61c-.98-.66-1.93-1.19-2.87-1.57-.94-.38-1.87-.58-2.8-.58s-1.64.18-2.1.54c-.47.36-.7.82-.7,1.36v.06c0,.35.07.66.2.92.13.26.38.49.73.7.35.21.84.4,1.45.59.61.19,1.39.4,2.33.65,1.1.29,2.09.62,2.95.98s1.59.8,2.19,1.31,1.04,1.11,1.34,1.79.45,1.51.45,2.46v.06c0,1.08-.2,2.04-.59,2.88Z" style="fill: #ed1c24;"/>
          <path d="m737.56,152.13v17.38h-4.8v-17.38h-6.64v-4.42h18.07v4.42h-6.64Z" style="fill: #ed1c24;"/>
          <path d="m761.52,169.52v-8.75h-8.85v8.75h-4.8v-21.81h4.8v8.63h8.85v-8.63h4.8v21.81h-4.8Z" style="fill: #ed1c24;"/>
          <path d="m787.79,169.52l-1.99-4.89h-9.22l-1.99,4.89h-4.89l9.35-21.96h4.42l9.35,21.96h-5.02Zm-6.6-16.2l-2.9,7.07h5.79l-2.9-7.07Z" style="fill: #ed1c24;"/>
          <path d="m811.46,169.52l-10.56-13.86v13.86h-4.74v-21.81h4.42l10.22,13.43v-13.43h4.74v21.81h-4.08Z" style="fill: #ed1c24;"/>
          <path d="m843.37,169.52l-4.67-6.98h-3.77v6.98h-4.8v-21.81h9.97c2.6,0,4.62.63,6.06,1.9,1.44,1.27,2.17,3.03,2.17,5.3v.06c0,1.77-.43,3.2-1.29,4.32-.86,1.11-1.99,1.93-3.38,2.45l5.33,7.79h-5.61Zm.09-14.36c0-1.04-.33-1.82-1-2.34-.67-.52-1.59-.78-2.77-.78h-4.77v6.26h4.86c1.18,0,2.09-.28,2.73-.84.63-.56.95-1.31.95-2.24v-.06Z" style="fill: #ed1c24;"/>
          <path d="m873.99,162.99c-.58,1.36-1.39,2.55-2.41,3.58s-2.25,1.84-3.68,2.43c-1.42.59-2.97.89-4.66.89s-3.23-.3-4.64-.89c-1.41-.59-2.63-1.39-3.66-2.4-1.03-1.01-1.83-2.19-2.4-3.55s-.86-2.82-.86-4.38v-.06c0-1.56.29-3.02.87-4.38.58-1.36,1.39-2.55,2.42-3.58,1.03-1.03,2.25-1.84,3.68-2.43,1.42-.59,2.98-.89,4.66-.89s3.23.3,4.64.89c1.41.59,2.63,1.39,3.66,2.4,1.03,1.01,1.83,2.19,2.4,3.55s.86,2.82.86,4.38v.06c0,1.56-.29,3.02-.87,4.38Zm-4.14-4.38c0-.93-.16-1.82-.48-2.65-.32-.83-.78-1.56-1.37-2.18s-1.29-1.12-2.1-1.48c-.81-.36-1.69-.55-2.65-.55s-1.86.18-2.66.53-1.49.84-2.06,1.46c-.57.62-1.02,1.34-1.34,2.17-.32.82-.48,1.7-.48,2.63v.06c0,.93.16,1.82.48,2.65.32.83.78,1.56,1.37,2.18.59.62,1.29,1.12,2.09,1.48.8.36,1.69.55,2.66.55s1.84-.18,2.65-.53c.81-.35,1.5-.84,2.07-1.46s1.02-1.34,1.34-2.17c.32-.82.48-1.7.48-2.63v-.06Z" style="fill: #ed1c24;"/>
          <path d="m895.36,169.52l-1.99-4.89h-9.22l-1.99,4.89h-4.89l9.35-21.96h4.42l9.35,21.96h-5.02Zm-6.6-16.2l-2.9,7.07h5.79l-2.9-7.07Z" style="fill: #ed1c24;"/>
          <path d="m923,162.91c-.56,1.33-1.36,2.48-2.38,3.46s-2.25,1.74-3.68,2.31c-1.42.56-2.99.84-4.69.84h-8.5v-21.81h8.5c1.7,0,3.27.28,4.69.83,1.42.55,2.65,1.31,3.68,2.29,1.03.98,1.82,2.12,2.38,3.44.56,1.32.84,2.75.84,4.28v.06c0,1.54-.28,2.97-.84,4.3Zm-4.17-4.3c0-.96-.16-1.84-.48-2.65-.32-.81-.77-1.51-1.34-2.09-.57-.58-1.26-1.03-2.07-1.36s-1.7-.48-2.68-.48h-3.71v13.15h3.71c.98,0,1.87-.16,2.68-.47s1.5-.76,2.07-1.34c.57-.58,1.02-1.27,1.34-2.06s.48-1.67.48-2.65v-.06Z" style="fill: #ed1c24;"/>
          <path d="m952.07,169.67h-4.17l-4.92-14.27-4.92,14.27h-4.17l-7.45-21.96h5.14l4.52,14.77,4.89-14.83h4.11l4.89,14.83,4.52-14.77h5.02l-7.45,21.96Z" style="fill: #ed1c24;"/>
          <path d="m979.3,169.52l-1.99-4.89h-9.22l-1.99,4.89h-4.89l9.35-21.96h4.42l9.35,21.96h-5.02Zm-6.6-16.2l-2.9,7.07h5.79l-2.9-7.07Z" style="fill: #ed1c24;"/>
          <path d="m998.61,160.82v8.69h-4.8v-8.6l-8.38-13.21h5.61l5.2,8.75,5.3-8.75h5.45l-8.38,13.12Z" style="fill: #ed1c24;"/>
          <path d="m1025.16,165.95c-.39.84-.94,1.55-1.64,2.12-.7.57-1.54,1.01-2.51,1.31s-2.05.45-3.23.45c-1.66,0-3.29-.29-4.89-.86-1.6-.57-3.05-1.45-4.36-2.63l2.84-3.4c1,.81,2.02,1.45,3.07,1.93,1.05.48,2.2.72,3.44.72,1,0,1.77-.18,2.32-.54.55-.36.83-.87.83-1.51v-.06c0-.31-.06-.59-.17-.83-.11-.24-.33-.46-.66-.67-.32-.21-.77-.42-1.34-.62-.57-.21-1.32-.42-2.23-.65-1.1-.27-2.1-.57-3-.9-.9-.33-1.66-.74-2.28-1.23-.62-.49-1.11-1.09-1.45-1.82-.34-.73-.52-1.63-.52-2.71v-.06c0-1,.19-1.89.56-2.69s.89-1.49,1.56-2.07c.67-.58,1.47-1.03,2.4-1.34.93-.31,1.96-.47,3.08-.47,1.6,0,3.07.24,4.41.72,1.34.48,2.57,1.16,3.69,2.06l-2.49,3.61c-.98-.66-1.93-1.19-2.87-1.57-.94-.38-1.87-.58-2.8-.58s-1.64.18-2.1.54c-.47.36-.7.82-.7,1.36v.06c0,.35.07.66.2.92.13.26.38.49.73.7.35.21.84.4,1.45.59.61.19,1.39.4,2.33.65,1.1.29,2.09.62,2.95.98s1.59.8,2.19,1.31,1.04,1.11,1.34,1.79.45,1.51.45,2.46v.06c0,1.08-.2,2.04-.59,2.88Z" style="fill: #ed1c24;"/>
        </g>
        <g>
          <path d="m652.61,486.44l.11.11h-49.46c-.11-.04-.27-.13-.49-.27-.11-.07-.21-.13-.3-.16-.09-.04-.17-.07-.25-.11-.44-.26-.87-.51-1.29-.77-.42-.26-.83-.51-1.23-.77-.77-.48-1.57-1.01-2.41-1.59-.18-.07-.34-.17-.47-.27-.13-.11-.26-.22-.41-.33l-.11-.11h49.46c.11.04.27.13.49.27.07.07.16.13.27.16.11.04.2.09.27.16l2.47,1.48c.4.29.81.56,1.23.8.42.24.83.5,1.23.79.33.18.62.38.88.6Zm-9.1,10.42c.33.18.62.38.88.6l.11.11h-17.33c.22.33.44.66.66.99.22.33.44.68.66,1.04.88,1.5,1.63,3.05,2.25,4.66.33.88.6,1.79.82,2.74.22.95.31,1.9.27,2.85-.07.95-.29,1.83-.66,2.63-.37.8-.91,1.52-1.65,2.14-.77.62-1.62,1.12-2.55,1.48-.93.37-1.89.49-2.88.38-.48-.04-.94-.13-1.4-.27-.46-.15-.89-.31-1.29-.49-.95-.47-1.86-.98-2.74-1.51-.88-.53-1.74-1.07-2.58-1.62-.59-.4-1.17-.79-1.75-1.15-.58-.37-1.13-.77-1.65-1.21-.91-.73-1.75-1.54-2.5-2.41-.75-.88-1.44-1.79-2.06-2.74-1.39-2.12-2.56-4.36-3.51-6.72s-1.72-4.78-2.3-7.27c.15.04.33.13.55.27.07.07.16.13.27.17.11.04.2.09.27.17.4.22.81.46,1.23.71.42.26.83.51,1.23.77.4.26.81.51,1.23.77.42.26.83.53,1.23.82.33.18.62.38.88.6l.11.11c.4,1.83.91,3.55,1.54,5.15.4,1.21.88,2.4,1.43,3.59.55,1.19,1.13,2.35,1.75,3.48.47.77.96,1.53,1.45,2.28.49.75,1.03,1.47,1.62,2.17,1.46.11,2.89-.24,4.28-1.04.4-.29.8-.6,1.21-.93.4-.33.75-.69,1.04-1.1.51-.73.86-1.55,1.04-2.47.18-.95.21-1.89.08-2.82-.13-.93-.34-1.84-.63-2.71-.29-.88-.62-1.73-.99-2.55-.37-.82-.77-1.63-1.21-2.44-.29-.47-.58-.94-.85-1.4-.27-.46-.56-.91-.85-1.34-.07-.07-.1-.11-.08-.11h17.36c.11,0,.27.07.49.22.07.07.16.13.27.16.11.04.2.09.27.17l2.47,1.48c.4.29.81.56,1.23.8.42.24.83.5,1.23.79Zm-28.9,14.59c-.07-.07-.13-.11-.16-.11s.02.04.16.11Z" style="fill: red;"/>
          <path d="m653.98,486.55h-9.49v36.25c-.22-.07-.4-.17-.54-.27-.15-.07-.28-.14-.41-.19s-.17-.08-.14-.08c-.4-.26-.81-.5-1.22-.74-.42-.24-.83-.5-1.22-.79-.4-.26-.81-.51-1.22-.77-.42-.26-.83-.51-1.22-.77-.18-.11-.34-.22-.49-.33-.33-.18-.49-.31-.49-.38v-31.92h-2.52c-.07-.04-.16-.07-.25-.11-.09-.04-.17-.07-.25-.11-.07-.07-.16-.13-.27-.16-.11-.04-.2-.09-.27-.16-.95-.51-1.79-1.02-2.52-1.54-.4-.26-.8-.51-1.21-.77-.4-.25-.8-.51-1.21-.77-.18-.11-.34-.22-.47-.33-.13-.11-.26-.2-.41-.27l-.11-.11h18.97c.22.07.38.15.49.22.07.07.16.13.27.16.11.04.2.09.27.16.4.26.81.5,1.23.74.42.24.83.5,1.23.8.4.26.81.5,1.23.74.42.24.83.5,1.23.79.15.11.29.21.44.3.15.09.29.19.44.3l.11.11Z" style="fill: red;"/>
          <path d="m688.03,486.55h-25.72c.84.62,1.53,1.37,2.06,2.25.53.88.94,1.83,1.23,2.85.22.84.37,1.73.44,2.66.07.93-.04,1.84-.33,2.71-.44,1.43-1.35,2.61-2.74,3.56-.59.37-1.2.66-1.84.88-.64.22-1.31.4-2,.55-.44.07-.88.13-1.32.16-.44.04-.9.05-1.37.05-.04,0-.09,0-.16-.03-.07-.02-.09,0-.06.08.07.29.15.51.22.66.69,2.12,1.7,4,3.02,5.65,1.13.18,2.28.19,3.43.03,1.15-.16,2.26-.45,3.32-.85.95-.33,1.84-.76,2.66-1.29.82-.53,1.58-1.16,2.28-1.89.91-1.02,1.61-2.14,2.08-3.34.22-.47.38-1.01.49-1.59.22.07.4.16.55.27.15.07.27.15.38.22.11.07.15.09.11.05.4.26.81.5,1.23.74.42.24.85.5,1.29.79.4.26.8.51,1.21.77.4.26.8.51,1.21.77.18.11.35.22.49.33.11.07.22.15.33.22s.16.13.16.17c-.07.37-.15.66-.22.88-.44,1.43-1.15,2.71-2.14,3.84-.99,1.13-2.14,2.03-3.45,2.69-1.06.51-2.18.91-3.35,1.21-.62.15-1.24.26-1.86.36-.62.09-1.24.12-1.86.08-1.06,0-2.05-.16-2.96-.49-.51-.18-.99-.36-1.43-.55-.91-.47-1.8-.98-2.66-1.51-.86-.53-1.73-1.07-2.6-1.62-.73-.47-1.47-.96-2.22-1.45-.75-.49-1.44-1.05-2.06-1.67-.33-.29-.63-.6-.9-.93-.27-.33-.56-.68-.85-1.04-.8-1.13-1.52-2.38-2.14-3.73-.15-.37-.28-.71-.41-1.04-.13-.33-.25-.68-.36-1.04,0-.04.07-.05.22-.05h.52c.16,0,.34-.02.52-.05,1.28-.07,2.57-.33,3.87-.77,1.3-.44,2.37-1.17,3.21-2.19.58-.69,1-1.47,1.23-2.33s.32-1.73.25-2.61c-.07-1.17-.29-2.3-.66-3.4h-9.1c-.11-.04-.27-.13-.49-.27-.18-.11-.37-.2-.55-.27-.44-.29-.87-.56-1.29-.79-.42-.24-.83-.48-1.23-.74-.77-.48-1.57-1.01-2.41-1.59-.18-.07-.34-.17-.47-.27-.13-.11-.26-.22-.41-.33l-.11-.11h38.71c.18.04.35.13.49.27.11.07.21.13.3.16.09.04.19.09.3.16.4.22.81.46,1.23.71.42.26.83.51,1.23.77.4.29.81.56,1.23.8.42.24.83.5,1.23.79.33.18.62.38.88.6l.11.11Z" style="fill: red;"/>
          <path d="m690.17,486.55h-9.49v36.25c-.22-.07-.4-.17-.54-.27-.15-.07-.28-.14-.41-.19s-.17-.08-.14-.08c-.4-.26-.81-.5-1.22-.74-.42-.24-.83-.5-1.22-.79-.4-.26-.81-.51-1.22-.77-.42-.26-.83-.51-1.22-.77-.18-.11-.34-.22-.49-.33-.33-.18-.49-.31-.49-.38v-31.92h-2.52c-.07-.04-.16-.07-.25-.11-.09-.04-.17-.07-.25-.11-.07-.07-.16-.13-.27-.16-.11-.04-.2-.09-.27-.16-.95-.51-1.79-1.02-2.52-1.54-.4-.26-.8-.51-1.21-.77-.4-.25-.8-.51-1.21-.77-.18-.11-.34-.22-.47-.33-.13-.11-.26-.2-.41-.27l-.11-.11h18.97c.22.07.38.15.49.22.07.07.16.13.27.16.11.04.2.09.27.16.4.26.81.5,1.23.74.42.24.83.5,1.23.8.4.26.81.5,1.23.74.42.24.83.5,1.23.79.15.11.29.21.44.3.15.09.29.19.44.3l.11.11Z" style="fill: red;"/>
          <path d="m693.3,489.18v9.32c0,1.1.11,2.19.33,3.29.22,1.1.58,2.12,1.1,3.07,1.13.15,2.28.13,3.45-.05,1.17-.18,2.25-.58,3.24-1.21,1.06-.69,1.91-1.58,2.55-2.66.64-1.08,1.09-2.24,1.34-3.48.22.11.4.2.55.27.15.07.27.14.38.19.11.06.15.08.11.08.44.26.86.5,1.26.74.4.24.8.5,1.21.79.44.26.86.51,1.26.77.4.26.8.51,1.21.77.18.11.35.22.49.33.33.18.49.31.49.38-.26,1.21-.68,2.34-1.26,3.4-.58,1.06-1.41,1.94-2.47,2.63-1.06.7-2.23,1.14-3.51,1.34-1.28.2-2.54.21-3.78.03-1.28-.18-2.41-.53-3.4-1.04-.51-.25-1.01-.53-1.48-.82-.48-.29-.97-.58-1.48-.88-.73-.44-1.44-.88-2.14-1.32-.69-.44-1.41-.91-2.14-1.43-.26-.18-.5-.37-.74-.58-.24-.2-.47-.41-.69-.63-.66-.66-1.2-1.41-1.62-2.25-.42-.84-.72-1.7-.9-2.58-.15-.62-.24-1.21-.27-1.78-.04-.57-.05-1.16-.05-1.78v-7.57h-.49c-.11-.04-.27-.13-.49-.27-.18-.11-.36-.2-.55-.27-.44-.26-.87-.51-1.29-.77-.42-.26-.83-.51-1.23-.77-.77-.48-1.57-1.01-2.41-1.59-.18-.07-.34-.17-.47-.27-.13-.11-.26-.22-.41-.33-.04,0-.05,0-.05-.03s-.02-.03-.06-.03h35.2c.11,0,.27.07.49.22.07.07.16.13.27.16.11.04.2.09.27.16l2.47,1.48c.4.29.81.56,1.23.8.42.24.83.5,1.23.79.18.07.34.17.47.27.13.11.26.22.41.33l.11.11h-27.75v2.63Z" style="fill: red;"/>
          <path d="m721.76,486.55h-9.49v36.25c-.22-.07-.4-.17-.54-.27-.15-.07-.28-.14-.41-.19s-.17-.08-.14-.08c-.4-.26-.81-.5-1.22-.74-.42-.24-.83-.5-1.22-.79-.4-.26-.81-.51-1.22-.77-.42-.26-.83-.51-1.22-.77-.18-.11-.34-.22-.49-.33-.33-.18-.49-.31-.49-.38v-31.92h-2.52c-.07-.04-.16-.07-.25-.11-.09-.04-.17-.07-.25-.11-.07-.07-.16-.13-.27-.16-.11-.04-.2-.09-.27-.16-.95-.51-1.79-1.02-2.52-1.54-.4-.26-.8-.51-1.21-.77-.4-.25-.8-.51-1.21-.77-.18-.11-.34-.22-.47-.33-.13-.11-.26-.2-.41-.27l-.11-.11h18.97c.22.07.38.15.49.22.07.07.16.13.27.16.11.04.2.09.27.16.4.26.81.5,1.23.74.42.24.83.5,1.23.8.4.26.81.5,1.23.74.42.24.83.5,1.23.79.15.11.29.21.44.3.15.09.29.19.44.3l.11.11Z" style="fill: red;"/>
          <path d="m720.28,530.31c.07.88-.07,1.74-.44,2.58-.37.84-.86,1.57-1.48,2.19-.62.62-1.32,1.11-2.08,1.48-.77.37-1.57.62-2.41.77-2.12.37-4.23.24-6.33-.38-2.1-.62-4.09-1.41-5.95-2.36-.44-.26-.88-.5-1.32-.74-.44-.24-.86-.5-1.26-.79-.91-.55-1.82-1.1-2.71-1.64-.9-.55-1.78-1.12-2.66-1.7-.58-.4-1.16-.81-1.73-1.23-.57-.42-1.12-.87-1.67-1.34-1.65-1.43-3.02-3.04-4.11-4.83.22.07.4.15.55.22.22.15.4.25.55.33.4.25.81.5,1.23.74.42.24.83.5,1.23.79.4.26.81.5,1.23.74.42.24.83.5,1.23.79.15.11.28.21.41.3.13.09.28.19.47.3l.11.11c.4.73.85,1.41,1.34,2.03.49.62,1.03,1.21,1.62,1.75.18.18.37.36.55.52.18.16.37.32.55.47.26.14.51.26.77.36.26.09.51.19.77.3.18.07.36.13.52.17.16.04.34.07.52.11,1.21.4,2.49.67,3.84.79,1.35.13,2.67.04,3.95-.25-.04-.04-.07-.06-.11-.08-.04-.02-.07-.05-.11-.08-.11-.07-.21-.13-.3-.17-.09-.04-.19-.09-.3-.16l-2.47-1.48c-.4-.29-.8-.56-1.21-.79-.4-.24-.8-.5-1.21-.79-.18-.07-.34-.17-.47-.27-.13-.11-.26-.22-.41-.33-.07,0-.11-.04-.11-.11-.29-.8-.41-1.65-.36-2.52.05-.88.28-1.7.69-2.47.69-1.39,1.77-2.36,3.24-2.91.58-.26,1.19-.4,1.81-.44.62-.04,1.24,0,1.86.11.62.07,1.21.24,1.75.49.26.11.51.24.77.38.26.15.51.29.77.44,1.79,1.06,3.55,2.16,5.26,3.29.55.37,1.07.75,1.56,1.15.49.4.92.91,1.29,1.54.48.88.73,1.75.77,2.63Zm-7.02-3.18c.11-.91.04-1.74-.22-2.47-.62.07-1.22.23-1.81.47-.58.24-1.13.58-1.65,1.01-.95.84-1.59,1.86-1.92,3.07-.33,1.21-.29,2.41.11,3.62,1.06-.29,1.97-.75,2.74-1.37.69-.51,1.3-1.15,1.81-1.92.51-.77.82-1.57.93-2.41Z" style="fill: red;"/>
          <path d="m741.17,486.6v9.49c0,.69-.11,1.39-.33,2.08-.4,1.39-1.15,2.56-2.26,3.51-1.11.95-2.4,1.41-3.89,1.37-.91,0-1.75-.17-2.52-.49-.29-.07-.55-.16-.77-.25s-.46-.21-.71-.36c-.77-.4-1.54-.82-2.3-1.26-.77-.44-1.52-.89-2.25-1.37.84,1.35,1.7,2.68,2.58,3.98.88,1.3,1.79,2.59,2.74,3.87,1.94,2.67,3.92,5.26,5.95,7.79,2.03,2.52,4.18,4.97,6.44,7.35-.07-.04-.16-.06-.25-.08-.09-.02-.17-.06-.25-.14-.11-.07-.21-.13-.3-.17-.09-.04-.19-.09-.3-.17l-2.46-1.48c-.4-.29-.81-.56-1.22-.79-.42-.24-.83-.5-1.22-.79-.15-.11-.31-.22-.49-.33-.18-.11-.33-.24-.44-.38-1.27-1.32-2.49-2.66-3.66-4.03-1.17-1.37-2.34-2.75-3.51-4.14-1.68-2.12-3.32-4.27-4.91-6.44-1.59-2.17-3.12-4.41-4.58-6.72-.62-.91-1.22-1.82-1.78-2.71-.57-.9-1.1-1.82-1.62-2.77.07.04.16.06.27.08.11.02.2.06.27.14.22.15.4.26.55.33.4.26.81.5,1.23.74.42.24.83.5,1.23.79.4.26.81.5,1.23.74.42.24.83.5,1.23.79.11.07.27.17.49.3.22.13.36.27.44.41.8,1.1,1.68,2.14,2.63,3.12.26.04.5.06.74.08.24.02.5.03.79.03,1.46-.07,2.73-.6,3.81-1.59,1.08-.99,1.8-2.17,2.17-3.56.11-.4.17-.81.19-1.23.02-.42.03-.83.03-1.23v-4.5h-16.56c-.11-.04-.27-.13-.49-.27-.15-.07-.33-.18-.55-.33-.44-.22-.87-.46-1.29-.71-.42-.26-.83-.51-1.23-.77-.77-.47-1.57-1.01-2.41-1.59-.18-.07-.34-.17-.47-.27-.13-.11-.26-.22-.41-.33l-.11-.11h31.75c.15.04.33.13.55.27s.4.26.55.33l2.47,1.48c.4.26.81.51,1.23.77.42.26.83.53,1.23.82.33.18.62.38.88.6l.11.11h-8.28Z" style="fill: red;"/>
          <path d="m758.55,504.07c-.11-.02-.2-.06-.27-.14-.22-.15-.4-.25-.55-.33l-2.47-1.48c-.4-.29-.81-.56-1.23-.79-.42-.24-.83-.5-1.23-.79-.15-.07-.28-.16-.41-.27-.13-.11-.28-.22-.47-.33l-.11-.11h11.57c.07.04.16.07.27.11.11.04.2.07.27.11.07.07.16.13.25.17.09.04.19.09.3.17.4.26.81.5,1.23.74.42.24.83.5,1.23.79.4.26.81.51,1.23.77.42.26.83.51,1.23.77.15.11.28.22.41.33.13.11.28.2.47.27,0,.07.04.11.11.11h-11.57c-.07-.04-.16-.06-.27-.08Z" style="fill: red;"/>
          <path d="m802.37,496.69c-.22-.07-.4-.17-.54-.27-.15-.07-.28-.14-.41-.19s-.17-.08-.14-.08c-.04-.04-.13-.09-.27-.17.07.04.14.07.19.11.05.04.12.07.19.11.14.11.29.21.44.3.15.09.29.19.44.3l.11.11h-8.17c-.69,0-1.38,0-2.06.03-.68.02-1.36.08-2.06.19-.95.15-1.89.37-2.82.66-.93.29-1.8.73-2.6,1.32-1.57,1.13-2.56,2.67-2.96,4.61-.22,1.17-.24,2.38-.05,3.62.18,1.24.47,2.43.88,3.56.69,1.79,1.63,3.33,2.8,4.61,1.9.55,3.8.75,5.7.6,1.06-.11,2.08-.32,3.07-.63.99-.31,1.95-.74,2.9-1.29,1.99-1.13,3.66-2.72,5.01-4.77.25.11.44.2.57.27.13.07.3.18.52.33l2.47,1.48s.25.17.63.41.79.49,1.21.77c.42.27.8.52,1.12.74.33.22.49.35.49.38-.84,1.24-1.85,2.35-3.02,3.32-1.17.97-2.45,1.73-3.84,2.28-1.92.8-3.93,1.17-6.02,1.1-2.09-.07-4.09-.55-5.99-1.43-.29-.11-.57-.24-.82-.38-.26-.15-.53-.31-.82-.49-1.1-.62-2.19-1.25-3.26-1.89-1.08-.64-2.15-1.33-3.21-2.06-.55-.4-1.09-.79-1.62-1.18-.53-.38-1.05-.83-1.56-1.34-1.54-1.54-2.65-3.27-3.34-5.21-.4-1.13-.69-2.32-.88-3.56-.18-1.24-.15-2.47.11-3.67.22-.91.59-1.76,1.1-2.55.51-.79,1.15-1.45,1.92-2,.8-.55,1.66-.98,2.58-1.29.91-.31,1.85-.54,2.8-.69.69-.07,1.38-.12,2.06-.14.68-.02,1.36-.03,2.06-.03h8.17c.22.07.4.15.54.22.22.15.4.26.54.33.04.04.13.09.27.16-.07-.04-.14-.07-.19-.11-.05-.04-.12-.07-.19-.11-.18-.11-.34-.22-.49-.33-.33-.18-.49-.31-.49-.38v-5.81h-21.61c-.22-.07-.38-.15-.49-.22-.07-.07-.16-.13-.27-.16-.11-.04-.2-.09-.27-.16-.95-.51-1.79-1.02-2.52-1.54-.4-.26-.8-.5-1.21-.74-.4-.24-.8-.5-1.21-.79-.18-.11-.34-.21-.47-.3-.13-.09-.26-.19-.41-.3l-.11-.11h38.88c.07.04.16.07.25.11.09.04.17.07.25.11.07.07.16.13.27.16.11.04.2.09.27.16.4.26.81.5,1.23.74.42.24.85.5,1.29.8.4.26.8.51,1.21.77.4.26.8.51,1.21.77.18.11.34.22.47.33.13.11.26.2.41.27l.11.11h-10.31v10.14Z" style="fill: red;"/>
          <path d="m826.77,486.55h-9.49v36.25c-.22-.07-.4-.17-.54-.27-.15-.07-.28-.14-.41-.19s-.17-.08-.14-.08c-.4-.26-.81-.5-1.22-.74-.42-.24-.83-.5-1.22-.79-.4-.26-.81-.51-1.22-.77-.42-.26-.83-.51-1.22-.77-.18-.11-.34-.22-.49-.33-.33-.18-.49-.31-.49-.38v-31.92h-2.52c-.07-.04-.16-.07-.25-.11-.09-.04-.17-.07-.25-.11-.07-.07-.16-.13-.27-.16-.11-.04-.2-.09-.27-.16-.95-.51-1.79-1.02-2.52-1.54-.4-.26-.8-.51-1.21-.77-.4-.25-.8-.51-1.21-.77-.18-.11-.34-.22-.47-.33-.13-.11-.26-.2-.41-.27l-.11-.11h18.97c.22.07.38.15.49.22.07.07.16.13.27.16.11.04.2.09.27.16.4.26.81.5,1.23.74.42.24.83.5,1.23.8.4.26.81.5,1.23.74.42.24.83.5,1.23.79.15.11.29.21.44.3.15.09.29.19.44.3l.11.11Z" style="fill: red;"/>
          <path d="m806.04,479.2l.11.11-.11-.11-1.97-1.81c-.18-.18-.37-.36-.55-.52-.18-.16-.37-.34-.55-.52-1.13-1.06-2.25-2.1-3.35-3.13s-2.21-2.05-3.34-3.07l-.16-.17c-.18-.15-.34-.28-.47-.41-.13-.13-.28-.26-.47-.41-.44-.4-.89-.82-1.34-1.26-.46-.44-.9-.86-1.34-1.26-.26-.22-.51-.45-.77-.69-.26-.24-.51-.47-.77-.69-.18-.18-.36-.37-.55-.55-.18-.18-.36-.38-.55-.6-.26-.25-.5-.56-.74-.91-.24-.35-.43-.71-.58-1.1-.15-.38-.25-.77-.3-1.15-.05-.38,0-.78.14-1.18l.05-.11c.18-.44.47-.79.85-1.04s.81-.45,1.29-.58c.48-.13.96-.2,1.45-.22.49-.02.94-.03,1.34-.03.22.07.4.15.55.22.22.15.4.26.55.33l2.47,1.48c.4.29.81.56,1.23.8.42.24.83.5,1.23.79.15.11.28.21.41.3.13.09.28.19.47.3l.11.11h-1.21c-.69.07-1.42.23-2.17.46-.75.24-1.27.69-1.56,1.34-.07.11-.12.23-.14.36-.02.13-.05.25-.08.36-.07.84.12,1.65.58,2.41.46.77.98,1.43,1.56,1.97.37.37.72.71,1.07,1.02.35.31.72.65,1.12,1.01.59.51,1.16,1.04,1.73,1.59.57.55,1.14,1.08,1.73,1.59,1.28,1.21,2.57,2.4,3.87,3.59,1.3,1.19,2.59,2.39,3.87,3.59.07.04.15.09.22.17.33.29.65.58.96.88.31.29.61.58.9.88l-6.8-4.17Z" style="fill: red;"/>
          <path d="m817.45,472.95c.48.4.85.88,1.12,1.43s.41,1.13.41,1.75c0,1.06-.38,1.99-1.15,2.8-.77.8-1.7,1.21-2.8,1.21-.47,0-1.02-.09-1.65-.28-.18-.07-.37-.17-.58-.3-.2-.13-.39-.25-.58-.36-.62-.33-1.22-.68-1.81-1.04-.58-.37-1.17-.75-1.75-1.15-.51-.36-.97-.76-1.37-1.18-.4-.42-.69-.94-.88-1.56-.18-.62-.22-1.23-.11-1.84.11-.6.37-1.16.77-1.67.4-.48.87-.86,1.4-1.15.53-.29,1.11-.44,1.73-.44.7,0,1.32.13,1.86.38.48.22.94.48,1.4.77.46.29.9.59,1.34.88.44.29.89.57,1.34.82.46.26.89.57,1.29.93Zm-4.77,3.51c1.1-.8,1.65-1.88,1.65-3.24,0-.18,0-.36-.03-.52-.02-.16-.05-.34-.08-.52-.55.11-1.06.31-1.54.6-.47.29-.86.69-1.15,1.21-.58.99-.73,2.05-.44,3.18.55-.11,1.08-.35,1.59-.71Z" style="fill: red;"/>
          <path d="m849.47,490.22v.38c1.06-.29,2.13-.39,3.21-.3,1.08.09,2.11.38,3.1.85.18.07.37.16.58.25.2.09.39.19.58.3.73.4,1.46.83,2.19,1.29.73.46,1.46.92,2.19,1.4.62.4,1.24.79,1.86,1.15.62.37,1.21.8,1.75,1.32.99.88,1.74,1.83,2.25,2.85.58,1.13.93,2.33,1.04,3.59.11,1.26-.04,2.48-.44,3.65-.4,1.17-1,2.22-1.78,3.15-.79.93-1.71,1.67-2.77,2.22-1.28.66-2.63,1.01-4.06,1.04-1.43.04-2.8-.22-4.11-.77-.29-.11-.58-.25-.85-.41-.27-.16-.54-.34-.79-.52-.48-.29-.93-.57-1.37-.82-.44-.25-.88-.53-1.32-.82-.22-.15-.43-.28-.63-.41-.2-.13-.41-.26-.63-.41v13.76c-.22-.07-.4-.16-.55-.27-.29-.18-.46-.27-.49-.27-.44-.25-.87-.51-1.29-.77-.42-.25-.83-.51-1.23-.77-.4-.26-.8-.51-1.21-.77-.4-.26-.8-.51-1.21-.77-.04-.04-.21-.15-.52-.33-.31-.18-.47-.31-.47-.38v-5.54c-1.06.29-2.13.39-3.21.3-1.08-.09-2.11-.38-3.1-.85-.18-.07-.38-.16-.58-.25-.2-.09-.39-.19-.58-.3-.77-.4-1.52-.83-2.25-1.29-.73-.46-1.46-.92-2.19-1.4-.62-.4-1.23-.79-1.84-1.18-.6-.38-1.18-.81-1.73-1.29-.95-.84-1.72-1.79-2.3-2.85-.55-1.13-.88-2.33-.99-3.59-.11-1.26.04-2.48.44-3.65s1-2.22,1.78-3.15c.79-.93,1.71-1.67,2.77-2.22,1.28-.66,2.63-1,4.06-1.04,1.43-.04,2.8.22,4.11.77.29.11.57.25.82.41.26.17.53.34.82.52.44.29.89.57,1.34.82.46.26.9.53,1.34.82.22.15.43.28.63.41.2.13.41.27.63.41v-7.95h-18.86c-.22-.07-.38-.15-.49-.22-.07-.07-.16-.13-.27-.16-.11-.04-.2-.09-.27-.16-.95-.51-1.79-1.02-2.52-1.54-.4-.26-.8-.5-1.21-.74-.4-.24-.8-.5-1.21-.79-.18-.11-.34-.21-.47-.3-.13-.09-.26-.19-.41-.3l-.11-.11h49.96c.07.04.16.07.25.11.09.04.17.07.25.11.07.07.16.13.27.16.11.04.2.09.27.16.4.26.81.5,1.23.74.42.24.83.5,1.23.8.4.26.81.51,1.23.77.42.26.83.51,1.23.77.18.11.34.22.47.33.13.11.26.2.41.27l.11.11h-24.13v3.67Zm-9.71,16.07c.88-.88,1.55-1.89,2.03-3.04.48-1.15.71-2.35.71-3.59v-4.72c-1.65-.4-3.29-.38-4.94.05-1.65.44-3.05,1.28-4.22,2.52-.84.88-1.5,1.89-1.97,3.04-.48,1.15-.69,2.37-.66,3.65.07,1.72.55,3.31,1.43,4.77.18.04.36.06.52.08s.34.03.52.03c1.24-.04,2.44-.29,3.59-.77,1.15-.47,2.15-1.15,2.99-2.03Zm12.45-8.88c-.88.88-1.55,1.89-2.03,3.04-.48,1.15-.71,2.35-.71,3.59v4.71c1.65.4,3.29.38,4.94-.05,1.65-.44,3.05-1.28,4.22-2.52.84-.91,1.5-1.94,1.97-3.07.47-1.13.69-2.34.66-3.62-.07-1.72-.55-3.33-1.43-4.83-.18,0-.36,0-.52-.03-.16-.02-.34,0-.52.03-1.24,0-2.44.24-3.59.71-1.15.47-2.15,1.15-2.99,2.03Z" style="fill: red;"/>
          <path d="m882.26,504.07c-.11-.02-.2-.06-.27-.14-.22-.15-.4-.25-.55-.33l-2.47-1.48c-.4-.29-.81-.56-1.23-.79-.42-.24-.83-.5-1.23-.79-.15-.07-.28-.16-.41-.27-.13-.11-.28-.22-.47-.33l-.11-.11h11.57c.07.04.16.07.27.11.11.04.2.07.27.11.07.07.16.13.25.17.09.04.19.09.3.17.4.26.81.5,1.23.74.42.24.83.5,1.23.79.4.26.81.51,1.23.77.42.26.83.51,1.23.77.15.11.28.22.41.33.13.11.28.2.47.27,0,.07.04.11.11.11h-11.57c-.07-.04-.16-.06-.27-.08Z" style="fill: red;"/>
          <path d="m924.71,490.22v.38c1.06-.29,2.13-.39,3.21-.3,1.08.09,2.11.38,3.1.85.18.07.37.16.58.25.2.09.39.19.58.3.73.4,1.46.83,2.19,1.29.73.46,1.46.92,2.19,1.4.62.4,1.24.79,1.86,1.15.62.37,1.21.8,1.75,1.32.99.88,1.74,1.83,2.25,2.85.58,1.13.93,2.33,1.04,3.59.11,1.26-.04,2.48-.44,3.65-.4,1.17-1,2.22-1.78,3.15-.79.93-1.71,1.67-2.77,2.22-1.28.66-2.63,1.01-4.06,1.04-1.43.04-2.8-.22-4.11-.77-.29-.11-.58-.25-.85-.41-.27-.16-.54-.34-.79-.52-.48-.29-.93-.57-1.37-.82-.44-.25-.88-.53-1.32-.82-.22-.15-.43-.28-.63-.41-.2-.13-.41-.26-.63-.41v13.76c-.22-.07-.4-.16-.55-.27-.29-.18-.46-.27-.49-.27-.44-.25-.87-.51-1.29-.77-.42-.25-.83-.51-1.23-.77-.4-.26-.8-.51-1.21-.77-.4-.26-.8-.51-1.21-.77-.04-.04-.21-.15-.52-.33-.31-.18-.47-.31-.47-.38v-5.54c-1.06.29-2.13.39-3.21.3-1.08-.09-2.11-.38-3.1-.85-.18-.07-.38-.16-.58-.25-.2-.09-.39-.19-.58-.3-.77-.4-1.52-.83-2.25-1.29-.73-.46-1.46-.92-2.19-1.4-.62-.4-1.23-.79-1.84-1.18-.6-.38-1.18-.81-1.73-1.29-.95-.84-1.72-1.79-2.3-2.85-.55-1.13-.88-2.33-.99-3.59-.11-1.26.04-2.48.44-3.65s1-2.22,1.78-3.15c.79-.93,1.71-1.67,2.77-2.22,1.28-.66,2.63-1,4.06-1.04,1.43-.04,2.8.22,4.11.77.29.11.57.25.82.41.26.17.53.34.82.52.44.29.89.57,1.34.82.46.26.9.53,1.34.82.22.15.43.28.63.41.2.13.41.27.63.41v-7.95h-18.86c-.22-.07-.38-.15-.49-.22-.07-.07-.16-.13-.27-.16-.11-.04-.2-.09-.27-.16-.95-.51-1.79-1.02-2.52-1.54-.4-.26-.8-.5-1.21-.74-.4-.24-.8-.5-1.21-.79-.18-.11-.34-.21-.47-.3-.13-.09-.26-.19-.41-.3l-.11-.11h49.96c.07.04.16.07.25.11.09.04.17.07.25.11.07.07.16.13.27.16.11.04.2.09.27.16.4.26.81.5,1.23.74.42.24.83.5,1.23.8.4.26.81.51,1.23.77.42.26.83.51,1.23.77.18.11.34.22.47.33.13.11.26.2.41.27l.11.11h-24.13v3.67Zm-9.71,16.07c.88-.88,1.55-1.89,2.03-3.04.48-1.15.71-2.35.71-3.59v-4.72c-1.65-.4-3.29-.38-4.94.05-1.65.44-3.05,1.28-4.22,2.52-.84.88-1.5,1.89-1.97,3.04-.48,1.15-.69,2.37-.66,3.65.07,1.72.55,3.31,1.43,4.77.18.04.36.06.52.08s.34.03.52.03c1.24-.04,2.44-.29,3.59-.77,1.15-.47,2.15-1.15,2.99-2.03Zm12.45-8.88c-.88.88-1.55,1.89-2.03,3.04-.48,1.15-.71,2.35-.71,3.59v4.71c1.65.4,3.29.38,4.94-.05,1.65-.44,3.05-1.28,4.22-2.52.84-.91,1.5-1.94,1.97-3.07.47-1.13.69-2.34.66-3.62-.07-1.72-.55-3.33-1.43-4.83-.18,0-.36,0-.52-.03-.16-.02-.34,0-.52.03-1.24,0-2.44.24-3.59.71-1.15.47-2.15,1.15-2.99,2.03Z" style="fill: red;"/>
          <path d="m963.36,486.55h-9.49v36.25c-.22-.07-.4-.17-.54-.27-.15-.07-.28-.14-.41-.19s-.17-.08-.14-.08c-.4-.26-.81-.5-1.22-.74-.42-.24-.83-.5-1.22-.79-.4-.26-.81-.51-1.22-.77-.42-.26-.83-.51-1.22-.77-.18-.11-.34-.22-.49-.33-.33-.18-.49-.31-.49-.38v-31.92h-2.52c-.07-.04-.16-.07-.25-.11-.09-.04-.17-.07-.25-.11-.07-.07-.16-.13-.27-.16-.11-.04-.2-.09-.27-.16-.95-.51-1.79-1.02-2.52-1.54-.4-.26-.8-.51-1.21-.77-.4-.25-.8-.51-1.21-.77-.18-.11-.34-.22-.47-.33-.13-.11-.26-.2-.41-.27l-.11-.11h18.97c.22.07.38.15.49.22.07.07.16.13.27.16.11.04.2.09.27.16.4.26.81.5,1.23.74.42.24.83.5,1.23.8.4.26.81.5,1.23.74.42.24.83.5,1.23.79.15.11.29.21.44.3.15.09.29.19.44.3l.11.11Z" style="fill: red;"/>
          <path d="m942.64,479.2l.11.11-.11-.11-1.97-1.81c-.18-.18-.37-.36-.55-.52-.18-.16-.37-.34-.55-.52-1.13-1.06-2.25-2.1-3.35-3.13s-2.21-2.05-3.34-3.07l-.16-.17c-.18-.15-.34-.28-.47-.41-.13-.13-.28-.26-.47-.41-.44-.4-.89-.82-1.34-1.26-.46-.44-.9-.86-1.34-1.26-.26-.22-.51-.45-.77-.69-.26-.24-.51-.47-.77-.69-.18-.18-.36-.37-.55-.55-.18-.18-.36-.38-.55-.6-.26-.25-.5-.56-.74-.91-.24-.35-.43-.71-.58-1.1-.15-.38-.25-.77-.3-1.15-.05-.38,0-.78.14-1.18l.05-.11c.18-.44.47-.79.85-1.04s.81-.45,1.29-.58c.48-.13.96-.2,1.45-.22.49-.02.94-.03,1.34-.03.22.07.4.15.55.22.22.15.4.26.55.33l2.47,1.48c.4.29.81.56,1.23.8.42.24.83.5,1.23.79.15.11.28.21.41.3.13.09.28.19.47.3l.11.11h-1.21c-.69.07-1.42.23-2.17.46-.75.24-1.27.69-1.56,1.34-.07.11-.12.23-.14.36-.02.13-.05.25-.08.36-.07.84.12,1.65.58,2.41.46.77.98,1.43,1.56,1.97.37.37.72.71,1.07,1.02.35.31.72.65,1.12,1.01.59.51,1.16,1.04,1.73,1.59.57.55,1.14,1.08,1.73,1.59,1.28,1.21,2.57,2.4,3.87,3.59,1.3,1.19,2.59,2.39,3.87,3.59.07.04.15.09.22.17.33.29.65.58.96.88.31.29.61.58.9.88l-6.8-4.17Z" style="fill: red;"/>
          <path d="m987.05,496.69c-.22-.07-.4-.17-.54-.27-.15-.07-.28-.14-.41-.19s-.17-.08-.14-.08c-.04-.04-.13-.09-.27-.17.07.04.14.07.19.11.05.04.12.07.19.11.14.11.29.21.44.3.15.09.29.19.44.3l.11.11h-8.17c-.69,0-1.38,0-2.06.03-.68.02-1.36.08-2.06.19-.95.15-1.89.37-2.82.66-.93.29-1.8.73-2.6,1.32-1.57,1.13-2.56,2.67-2.96,4.61-.22,1.17-.24,2.38-.05,3.62.18,1.24.47,2.43.88,3.56.69,1.79,1.63,3.33,2.8,4.61,1.9.55,3.8.75,5.7.6,1.06-.11,2.08-.32,3.07-.63.99-.31,1.95-.74,2.9-1.29,1.99-1.13,3.66-2.72,5.01-4.77.25.11.44.2.57.27.13.07.3.18.52.33l2.47,1.48s.25.17.63.41.79.49,1.21.77c.42.27.8.52,1.12.74.33.22.49.35.49.38-.84,1.24-1.85,2.35-3.02,3.32-1.17.97-2.45,1.73-3.84,2.28-1.92.8-3.93,1.17-6.02,1.1-2.09-.07-4.09-.55-5.99-1.43-.29-.11-.57-.24-.82-.38-.26-.15-.53-.31-.82-.49-1.1-.62-2.19-1.25-3.26-1.89-1.08-.64-2.15-1.33-3.21-2.06-.55-.4-1.09-.79-1.62-1.18-.53-.38-1.05-.83-1.56-1.34-1.54-1.54-2.65-3.27-3.34-5.21-.4-1.13-.69-2.32-.88-3.56-.18-1.24-.15-2.47.11-3.67.22-.91.59-1.76,1.1-2.55.51-.79,1.15-1.45,1.92-2,.8-.55,1.66-.98,2.58-1.29.91-.31,1.85-.54,2.8-.69.69-.07,1.38-.12,2.06-.14.68-.02,1.36-.03,2.06-.03h8.17c.22.07.4.15.54.22.22.15.4.26.54.33.04.04.13.09.27.16-.07-.04-.14-.07-.19-.11-.05-.04-.12-.07-.19-.11-.18-.11-.34-.22-.49-.33-.33-.18-.49-.31-.49-.38v-5.81h-21.61c-.22-.07-.38-.15-.49-.22-.07-.07-.16-.13-.27-.16-.11-.04-.2-.09-.27-.16-.95-.51-1.79-1.02-2.52-1.54-.4-.26-.8-.5-1.21-.74-.4-.24-.8-.5-1.21-.79-.18-.11-.34-.21-.47-.3-.13-.09-.26-.19-.41-.3l-.11-.11h38.88c.07.04.16.07.25.11.09.04.17.07.25.11.07.07.16.13.27.16.11.04.2.09.27.16.4.26.81.5,1.23.74.42.24.85.5,1.29.8.4.26.8.51,1.21.77.4.26.8.51,1.21.77.18.11.34.22.47.33.13.11.26.2.41.27l.11.11h-10.31v10.14Z" style="fill: red;"/>
          <path d="m1011.46,486.55h-9.49v36.25c-.22-.07-.4-.17-.54-.27-.15-.07-.28-.14-.41-.19s-.17-.08-.14-.08c-.4-.26-.81-.5-1.22-.74-.42-.24-.83-.5-1.22-.79-.4-.26-.81-.51-1.22-.77-.42-.26-.83-.51-1.22-.77-.18-.11-.34-.22-.49-.33-.33-.18-.49-.31-.49-.38v-31.92h-2.52c-.07-.04-.16-.07-.25-.11-.09-.04-.17-.07-.25-.11-.07-.07-.16-.13-.27-.16-.11-.04-.2-.09-.27-.16-.95-.51-1.79-1.02-2.52-1.54-.4-.26-.8-.51-1.21-.77-.4-.25-.8-.51-1.21-.77-.18-.11-.34-.22-.47-.33-.13-.11-.26-.2-.41-.27l-.11-.11h18.97c.22.07.38.15.49.22.07.07.16.13.27.16.11.04.2.09.27.16.4.26.81.5,1.23.74.42.24.83.5,1.23.8.4.26.81.5,1.23.74.42.24.83.5,1.23.79.15.11.29.21.44.3.15.09.29.19.44.3l.11.11Z" style="fill: red;"/>
        </g>
        <g>
          <path d="m285.33,137.12h-151.19v9.48h42.46v7.27h-26.87v10.75c3.23,0,5.09.18,5.58.53,1.4.98,2.18,1.58,2.32,1.79.63.77.95,2.11.95,4v18.02c0,.63-.4,1.16-1.21,1.58-.81.42-1.56.63-2.27.63-2.46,0-3.69-.77-3.69-2.32v-12.33h-11.8v10.33c0,2.04,1.12,4.11,3.37,6.22,3.02,2.95,7.38,4.43,13.06,4.43s9.45-1.44,11.91-4.32c1.62-1.83,2.42-3.86,2.42-6.11v-13.49c0-2.18-.28-3.86-.84-5.06-.7-1.47-1.76-2.81-3.16-4h10.22v35.29h11.8v-53.21h12.54c.98,0,1.79.51,2.42,1.53.63,1.02.95,2.02.95,3v6.11c0,2.67-1.51,4-4.53,4h-1.58v18.65c0,2.6,1.09,4.95,3.27,7.06,3.16,3.16,8.08,4.74,14.75,4.74,2.11,0,4.11-.42,6.01-1.26.77-.49,1.54-.95,2.32-1.37v10.75h11.8v-53.21h10.01v27.92c0,2.53.81,5.06,2.42,7.58,2.46,4,6.32,6.01,11.59,6.01,3.58,0,6.22-.84,7.9-2.53v12.6c-1.46-.17-3.03-.27-4.74-.27h-7.27v9.9c.84-.42,2.88-.63,6.11-.63,2.32,0,3.76.07,4.32.21,1.69.35,2.53,1.33,2.53,2.95,0,2.32-2.98,3.51-8.96,3.58-3.86,0-8.15-1.58-12.85-4.74-3.16-2.18-5.2-3.9-6.11-5.16v11.59c1.26,1.26,3.2,2.63,5.79,4.11,4.85,2.67,9.76,4.04,14.75,4.11,5.06.07,9.31-.91,12.75-2.95,4.15-2.53,6.22-6.29,6.22-11.27,0-4.67-2.08-7.92-6.21-9.8h5.47v-53.21h20.02v12.22c0,2.39-.56,4.11-1.69,5.16-1.12,1.05-2.49,1.55-4.11,1.48h-5.16v11.59h4.32c1.33.07,2.25.42,2.74,1.05.63,1.33.95,2.32.95,2.95v9.69c0,2.81.88,5.02,2.63,6.64,1.75,1.62,4.56,2.42,8.43,2.42h8.01v-6.32h-3.06c-2.81,0-4.21-1.33-4.21-4v-10.11c0-2.04-.95-3.97-2.84-5.79-2.25-2.18-4.29-3.27-6.11-3.27,3.23.14,6.02-.65,8.38-2.37,2.35-1.72,3.53-3.92,3.53-6.58v-14.75h10.96v-9.48h-37.51Zm-60.79,44.25c-1.26,1.97-3.83,2.95-7.69,2.95-2.04,0-3.65-.58-4.85-1.74-1.2-1.16-1.79-2.51-1.79-4.06v-11.38c1.69,0,3.09-.49,4.21-1.48,1.12-.98,1.69-2.32,1.69-4v-9.38c0-1.19-.37-2.37-1.11-3.53-.74-1.16-1.46-1.88-2.16-2.16h11.69v34.77Zm42.35-1.16c-1.12,1.05-2.53,1.58-4.21,1.58-3.02,0-4.53-1.37-4.53-4.11v-31.08h10.11v30.87c0,.98-.46,1.9-1.37,2.74Z" style="fill: red;"/>
          <path d="m470.31,137.12l-6.95-20.12-18.02-1.05v11.17l10.75-1.9,3.48,11.91h-94.29v-3.69c0-4.49,2.14-6.74,6.43-6.74h11.27c1.9,0,3.62.58,5.16,1.74,1.54,1.16,2.32,2.58,2.32,4.27v4.21h10.85v-4.74c0-3.93-1.42-7.41-4.27-10.43-2.84-3.02-5.85-4.53-9.01-4.53h-21.39c-4.07,0-7.31,1.39-9.69,4.16-2.39,2.78-3.58,6.02-3.58,9.75v6.01h-7.06v9.48h7.06v53.21h11.91v-53.21h28.76v6.43c-2.18-.63-5.34-.95-9.48-.95-2.95,0-5.27.6-6.95,1.79-2.25,1.55-3.37,3.48-3.37,5.79v8.43c0,2.53.84,4.46,2.53,5.79,1.48,1.2,2.77,1.92,3.9,2.16,1.12.25,3.97.47,8.53.68.98.07,1.97.35,2.95.84,1.26.7,1.9,1.48,1.9,2.32v11.06c0,1.55-1.23,2.39-3.69,2.53-.84.07-1.72-.11-2.63-.53-1.12-.49-1.69-1.19-1.69-2.11v-8.53h-11.8v9.48c0,2.32,1.26,4.29,3.79,5.9,2.32,1.41,4.92,2.11,7.8,2.11h8.22c2.46,0,4.85-.91,7.16-2.74,3.09-2.46,4.64-5.86,4.64-10.22v-9.59c0-2.11-.7-4-2.11-5.69-1.83-2.04-4.39-3.06-7.69-3.06-3.72,0-6.46-.38-8.22-1.16-1.2-.49-1.79-.98-1.79-1.48v-5.06c0-1.69,1.3-2.53,3.9-2.53,2.74,0,4.11,1.02,4.11,3.06v2.74h11.8v-17.49h7.38v27.92c0,2.53.81,5.06,2.42,7.58,2.46,4,6.32,6.01,11.59,6.01,3.58,0,6.22-.84,7.9-2.53v14.22h11.8v-53.21h11.59v53.21l11.69.21v-53.42h8.01v-9.48h-7.9Zm-35.19,40.35c0,.98-.46,1.9-1.37,2.74-1.12,1.05-2.53,1.58-4.21,1.58-3.02,0-4.53-1.37-4.53-4.11v-31.08h10.11v30.87Z" style="fill: red;"/>
        </g>
      </g>
    </g>
  </g>
</svg>