<?xml version="1.0" encoding="UTF-8"?>
<svg xmlns="http://www.w3.org/2000/svg" xmlns:xlink="http://www.w3.org/1999/xlink" viewBox="0 0 1136.15 1202.82">
  <defs>
    <radialGradient id="uuid-c18b6986-9685-4d69-a4c8-862613ba9341" cx="103.2" cy="624.63" fx="103.2" fy="624.63" r="23.86" gradientUnits="userSpaceOnUse">
      <stop offset="0" stop-color="#f14942"/>
      <stop offset=".05" stop-color="#f15041"/>
      <stop offset=".28" stop-color="#f46a3f"/>
      <stop offset=".51" stop-color="#f67d3e"/>
      <stop offset=".75" stop-color="#f7893d"/>
      <stop offset="1" stop-color="#f88d3d"/>
    </radialGradient>
    <radialGradient id="uuid-4903115c-a654-423c-916b-7179bc301a2b" cx="103.2" cy="624.63" fx="103.2" fy="624.63" r="13.26" gradientUnits="userSpaceOnUse">
      <stop offset="0" stop-color="#fff"/>
      <stop offset="0" stop-color="#fefefd"/>
      <stop offset=".14" stop-color="#fdfacc"/>
      <stop offset=".28" stop-color="#fcf6a2"/>
      <stop offset=".41" stop-color="#faf27f"/>
      <stop offset=".55" stop-color="#faf065"/>
      <stop offset=".7" stop-color="#f9ee52"/>
      <stop offset=".84" stop-color="#f9ed46"/>
      <stop offset="1" stop-color="#f9ed43"/>
    </radialGradient>
    <radialGradient id="uuid-d1db931a-ec85-41c0-931e-88aaba914024" cx="1031.83" fx="1031.83" xlink:href="#uuid-c18b6986-9685-4d69-a4c8-862613ba9341"/>
    <radialGradient id="uuid-bb0f0f83-98e8-4fdb-aa9b-7d36738e190d" cx="1031.83" fx="1031.83" xlink:href="#uuid-4903115c-a654-423c-916b-7179bc301a2b"/>
    <radialGradient id="uuid-c8133ba2-25a6-452c-b1c1-ec1a8778ba0a" cx="363.24" cy="962.36" fx="385.18" fy="962.36" r="22.01" gradientUnits="userSpaceOnUse">
      <stop offset="0" stop-color="#fff"/>
      <stop offset="1" stop-color="#c9c9c9"/>
    </radialGradient>
    <radialGradient id="uuid-c4d0158b-6885-438e-969a-5e23b1ef82a8" cx="363.24" cy="962.36" fx="375.6" fy="962.36" r="12.4" xlink:href="#uuid-c8133ba2-25a6-452c-b1c1-ec1a8778ba0a"/>
    <radialGradient id="uuid-2386dba6-55ac-4908-bd32-902e58a3f08b" cx="267.35" cy="962.36" fx="298.69" fy="962.36" r="31.45" gradientUnits="userSpaceOnUse">
      <stop offset="0" stop-color="#fff"/>
      <stop offset="1" stop-color="#f36543"/>
    </radialGradient>
    <radialGradient id="uuid-a62402c0-0b41-48bd-98f9-842cb682a59b" cx="267.35" cy="962.36" fx="289.28" fy="962.36" r="22.01" xlink:href="#uuid-2386dba6-55ac-4908-bd32-902e58a3f08b"/>
    <radialGradient id="uuid-9a90a8a5-2307-410a-93d6-9aa47f029ca6" cx="267.35" cy="962.36" fx="280.32" fy="962.36" r="13.01" gradientUnits="userSpaceOnUse">
      <stop offset="0" stop-color="#fff"/>
      <stop offset="1" stop-color="#f9ed43"/>
    </radialGradient>
    <radialGradient id="uuid-3b95ff68-bec8-476c-ac33-7ea1c25e4fbe" cx="65.16" cy="-7062.53" fx="87.1" fy="-7062.53" r="22.01" gradientTransform="translate(834.97 -6100.17) rotate(-180)" xlink:href="#uuid-c8133ba2-25a6-452c-b1c1-ec1a8778ba0a"/>
    <radialGradient id="uuid-37e20007-3c0b-49a8-9fe2-86df808e7d49" cx="65.16" cy="-7062.53" fx="77.52" fy="-7062.53" r="12.4" gradientTransform="translate(834.97 -6100.17) rotate(-180)" xlink:href="#uuid-c8133ba2-25a6-452c-b1c1-ec1a8778ba0a"/>
    <radialGradient id="uuid-ff2a4964-b58f-4042-bd5d-fd86436f01f5" cx="-30.73" cy="-7062.53" fx=".62" fy="-7062.53" r="31.45" gradientTransform="translate(834.97 -6100.17) rotate(-180)" xlink:href="#uuid-2386dba6-55ac-4908-bd32-902e58a3f08b"/>
    <radialGradient id="uuid-8bd682a7-9ae3-4412-abb5-a6f77259be55" cx="-30.73" cy="-7062.53" fx="-8.79" fy="-7062.53" r="22.01" gradientTransform="translate(834.97 -6100.17) rotate(-180)" xlink:href="#uuid-2386dba6-55ac-4908-bd32-902e58a3f08b"/>
    <radialGradient id="uuid-a9cca0e5-65a6-4648-ac64-b31a35b46ddd" cx="-30.73" cy="-7062.53" fx="-17.76" fy="-7062.53" r="13.01" gradientTransform="translate(834.97 -6100.17) rotate(-180)" xlink:href="#uuid-9a90a8a5-2307-410a-93d6-9aa47f029ca6"/>
    <radialGradient id="uuid-ddd67acc-97e9-4861-89c1-047c5c8e5180" cx="171.17" cy="808.31" fx="211.13" fy="808.31" r="40.09" xlink:href="#uuid-2386dba6-55ac-4908-bd32-902e58a3f08b"/>
    <radialGradient id="uuid-b86c148a-79ab-4818-9ad4-05842d62eac2" cx="171.17" cy="808.31" fx="199.14" fy="808.31" r="28.06" xlink:href="#uuid-2386dba6-55ac-4908-bd32-902e58a3f08b"/>
    <radialGradient id="uuid-d1b86762-3b91-4350-9ac9-23e5c5e71d5c" cx="171.17" cy="808.31" fx="187.7" fy="808.31" r="16.59" xlink:href="#uuid-9a90a8a5-2307-410a-93d6-9aa47f029ca6"/>
    <radialGradient id="uuid-52be7eaa-c9ae-4d91-8f9c-288468d4beea" cx="261.65" cy="808.31" fx="293.76" fy="808.31" r="32.21" xlink:href="#uuid-2386dba6-55ac-4908-bd32-902e58a3f08b"/>
    <radialGradient id="uuid-f2070267-04c4-4c24-9776-9f06b58b895f" cx="261.65" cy="808.31" fx="284.12" fy="808.31" r="22.54" xlink:href="#uuid-2386dba6-55ac-4908-bd32-902e58a3f08b"/>
    <radialGradient id="uuid-9f76f0d0-cf6c-4c03-8791-14923381ea36" cx="261.65" cy="808.31" fx="274.94" fy="808.31" r="13.33" xlink:href="#uuid-9a90a8a5-2307-410a-93d6-9aa47f029ca6"/>
    <radialGradient id="uuid-276fde2f-93b1-49ba-a388-202bcbff3f4c" cx="-2649.65" cy="808.31" fx="-2609.68" fy="808.31" r="40.09" gradientTransform="translate(-1683.72) rotate(-180) scale(1 -1)" xlink:href="#uuid-2386dba6-55ac-4908-bd32-902e58a3f08b"/>
    <radialGradient id="uuid-b2000516-0e8d-42b7-92a8-d05f825ae09a" cx="-2649.65" cy="808.31" fx="-2621.68" fy="808.31" r="28.06" gradientTransform="translate(-1683.72) rotate(-180) scale(1 -1)" xlink:href="#uuid-2386dba6-55ac-4908-bd32-902e58a3f08b"/>
    <radialGradient id="uuid-6edcdba3-fe8a-4271-bdff-bf1224d99fe5" cx="-2649.65" cy="808.31" fx="-2633.11" fy="808.31" r="16.59" gradientTransform="translate(-1683.72) rotate(-180) scale(1 -1)" xlink:href="#uuid-9a90a8a5-2307-410a-93d6-9aa47f029ca6"/>
    <radialGradient id="uuid-08c50523-ac5e-4a61-97ca-1c5fb4ddfb1e" cx="-2559.16" cy="808.31" fx="-2527.06" fy="808.31" r="32.21" gradientTransform="translate(-1683.72) rotate(-180) scale(1 -1)" xlink:href="#uuid-2386dba6-55ac-4908-bd32-902e58a3f08b"/>
    <radialGradient id="uuid-47b0589b-4076-4c8a-9714-b7130a59eeb2" cx="-2559.16" cy="808.31" fx="-2536.7" fy="808.31" r="22.54" gradientTransform="translate(-1683.72) rotate(-180) scale(1 -1)" xlink:href="#uuid-2386dba6-55ac-4908-bd32-902e58a3f08b"/>
    <radialGradient id="uuid-4c25f43e-ca4d-40bc-9fc2-1652336412e7" cx="-2559.16" cy="808.31" fx="-2545.88" fy="808.31" r="13.33" gradientTransform="translate(-1683.72) rotate(-180) scale(1 -1)" xlink:href="#uuid-9a90a8a5-2307-410a-93d6-9aa47f029ca6"/>
  </defs>
  <g style="isolation: isolate;">
    <g id="uuid-ee0c9fe4-0848-4001-9b57-1377847dadf4" data-name="Layer 2">
      <g id="uuid-0f0c5227-1a07-4b06-9a31-6452a52d68c4" data-name="Layer 1">
        <rect x="72.38" y="229.57" width="991.38" height="226.14" style="fill: #d1d3d4;"/>
        <path d="m470,364.68v91.03H184.49v-91.03c0-55.79,45.23-101.01,101.02-101.01h83.48c55.78,0,101.01,45.22,101.01,101.01Z" style="fill: #fff;"/>
        <rect x="72.38" y="551.73" width="991.38" height="464.76" style="fill: #e6e7e8;"/>
        <rect x="193.56" y="900.97" width="754.07" height="115.51" style="fill: #2e3192;"/>
        <rect x="69.29" y="884.75" width="1000.66" height="16.22" style="fill: #2e3192;"/>
        <rect x="193.66" y="900.97" width="745.83" height="17.22" style="fill: #fff;"/>
        <rect x="403.48" y="935.25" width="326.08" height="54.22" style="fill: #ff0;"/>
        <path d="m401.3,933.07v58.59h330.44v-58.59h-330.44Zm328.26,56.4h-326.08v-54.22h326.08v54.22Z"/>
        <rect x="72.38" y="108.63" width="484.41" height="120.94" style="fill: #fff200;"/>
        <path d="m439.38,410.11c0,6.66-5.4,12.05-12.06,12.05h-96.27v33.55h-16.08v-33.55h-87.44c-6.66,0-12.06-5.39-12.06-12.05s5.4-12.06,12.06-12.06h199.8c6.66,0,12.06,5.39,12.06,12.06Z"/>
        <rect x="579.35" y="108.63" width="484.41" height="120.94" style="fill: #fff200;"/>
        <circle cx="930.04" cy="651.62" r="39.7" style="fill: #f0f0f0; stroke: #00ac5e; stroke-miterlimit: 10; stroke-width: 6.2px;"/>
        <polygon points="307.24 590.26 821.56 590.26 771.25 870.21 364.47 870.21 307.24 590.26" style="fill: #bcbec0;"/>
        <g>
          <path d="m907.01,657.34v-13h3.7c1.12,0,2.01.27,2.67.82.66.55.99,1.27.99,2.15,0,.74-.2,1.38-.6,1.92-.4.54-.95.93-1.65,1.16v.04c.88.1,1.58.43,2.1.99.53.56.79,1.29.79,2.18,0,1.11-.4,2.01-1.2,2.7s-1.8,1.03-3.02,1.03h-3.79Zm1.52-11.62v4.2h1.56c.83,0,1.49-.2,1.97-.6.48-.4.72-.97.72-1.7,0-1.26-.83-1.89-2.49-1.89h-1.75Zm0,5.56v4.68h2.07c.89,0,1.59-.21,2.08-.63.49-.42.74-1,.74-1.74,0-1.53-1.05-2.3-3.14-2.3h-1.75Z" style="fill: #231300; stroke: #00ac5e; stroke-miterlimit: 10; stroke-width: 1.55px;"/>
          <path d="m917.04,656.82v-1.79c.21.18.45.34.74.49.29.15.59.27.91.37s.64.18.96.23c.32.05.62.08.89.08.94,0,1.64-.17,2.1-.52.46-.35.69-.85.69-1.5,0-.35-.08-.66-.23-.92-.15-.26-.37-.5-.64-.71-.27-.21-.59-.42-.96-.62-.37-.2-.77-.4-1.2-.62-.45-.23-.88-.46-1.27-.7-.39-.24-.73-.5-1.02-.78-.29-.28-.52-.61-.68-.96-.17-.36-.25-.78-.25-1.26,0-.59.13-1.11.39-1.55.26-.44.6-.8,1.02-1.08.42-.28.91-.5,1.45-.63.54-.14,1.09-.21,1.65-.21,1.28,0,2.21.15,2.8.46v1.71c-.77-.53-1.75-.8-2.96-.8-.33,0-.66.04-1,.1-.33.07-.63.18-.89.34s-.47.36-.63.61-.24.55-.24.91c0,.33.06.62.19.86.12.24.31.46.55.66.24.2.54.39.88.58.35.19.75.39,1.2.62.46.23.91.47,1.32.72s.78.54,1.1.84c.31.31.56.65.75,1.02s.28.8.28,1.29c0,.64-.12,1.18-.38,1.63-.25.44-.59.8-1.01,1.08-.43.28-.92.48-1.47.6-.56.12-1.14.19-1.76.19-.21,0-.46-.02-.76-.05-.3-.03-.61-.08-.92-.14-.31-.06-.61-.14-.89-.24-.28-.09-.51-.2-.67-.31Z" style="fill: #231300; stroke: #00ac5e; stroke-miterlimit: 10; stroke-width: 1.55px;"/>
          <path d="m932.06,652.76h-4.95v-1.17h4.95v1.17Z" style="fill: #231300; stroke: #00ac5e; stroke-miterlimit: 10; stroke-width: 1.55px;"/>
          <path d="m949.68,644.35l-4.81,13h-1.68l-4.71-13h1.69l3.6,10.3c.11.33.2.72.26,1.15h.04c.05-.36.15-.75.3-1.17l3.67-10.29h1.64Z" style="fill: #231300; stroke: #00ac5e; stroke-miterlimit: 10; stroke-width: 1.55px;"/>
          <path d="m954.34,644.35v1.3h-1.27v10.38h1.27v1.31h-4.06v-1.31h1.27v-10.38h-1.27v-1.3h4.06Z" style="fill: #231300; stroke: #00ac5e; stroke-miterlimit: 10; stroke-width: 1.55px;"/>
        </g>
        <g>
          <path d="m520.85,623.04c-.3-.94-.41-1.51-1.17-8.1-.26-2.64-.6-3.01-1.36-3.01h-.9v11.11h-5.92v-28.52h8.63c5.12,0,6.44,2.19,6.44,7.69,0,5.88-.83,6.29-2.45,7.23v.23c.3.26.64.49.9,1.17.41.9.83,2.6,1.24,5.91.56,4.63.6,5.27.87,6.1v.19h-6.29Zm-1.77-16.43c1.09,0,1.51-.75,1.51-3.39,0-2.26-.49-2.83-1.66-2.83h-1.51v6.22h1.66Z" style="fill: #ef3b39;"/>
          <path d="m528.91,623.04v-5.69h5.92v5.69h-5.92Z" style="fill: #ef3b39;"/>
          <path d="m545.15,603.37c.04-.38.04-.56.04-1.24,0-1.77-.3-2.34-1.73-2.34s-1.7.57-1.7,2.34c0,1.66.41,2.11,1.36,2.67,2.26,1.32,3.77,1.66,5.24,2.64,1.66,1.17,2.41,2.49,2.41,7.23,0,6.78-1.7,8.85-7.46,8.85-4.71,0-6.86-1.54-6.86-6.03,0-1.43.08-3.09.3-3.99h4.94c-.08.3-.08.64-.08,1.05,0,2.18.3,2.9,1.81,2.9s1.85-.49,1.85-2.9c0-1.47-.41-2.03-1.43-2.75-1.85-1.24-4.22-1.81-5.76-3.2-1.54-1.36-1.66-3.62-1.66-7.38,0-5.35,1.43-7.2,7.04-7.2,5.09,0,6.89,1.47,6.89,6.29,0,1.54-.08,2.34-.3,3.05h-4.9Z" style="fill: #ef3b39;"/>
          <path d="m552.12,623.04v-5.69h5.92v5.69h-5.92Z" style="fill: #ef3b39;"/>
          <path d="m569.94,623.04c-.3-.94-.41-1.51-1.17-8.1-.26-2.64-.6-3.01-1.36-3.01h-.9v11.11h-5.92v-28.52h8.63c5.12,0,6.44,2.19,6.44,7.69,0,5.88-.83,6.29-2.45,7.23v.23c.3.26.64.49.9,1.17.41.9.83,2.6,1.24,5.91.56,4.63.6,5.27.87,6.1v.19h-6.29Zm-1.77-16.43c1.09,0,1.51-.75,1.51-3.39,0-2.26-.49-2.83-1.66-2.83h-1.51v6.22h1.66Z" style="fill: #ef3b39;"/>
          <path d="m578,623.04v-5.69h5.92v5.69h-5.92Z" style="fill: #ef3b39;"/>
          <path d="m587.53,623.04v-22.49h-4.48v-6.03h14.88v6.03h-4.48v22.49h-5.91Z" style="fill: #ef3b39;"/>
          <path d="m597.06,623.04v-5.69h5.92v5.69h-5.92Z" style="fill: #ef3b39;"/>
          <path d="m619.59,612.11c.08.9.11,1.77.11,2.56,0,6.07-.98,8.85-7.35,8.85-3.77,0-5.54-.6-6.52-2.34-.98-1.66-1.39-3.84-1.39-12.66s.41-10.51,1.39-12.24c.98-1.7,2.75-2.26,6.33-2.26,6.4,0,7.46,2.34,7.46,8.4,0,.72-.04,1.58-.08,2.52h-5.54c0-3.01-.11-3.84-.26-4.37-.11-.49-.6-.72-1.58-.72s-1.32.23-1.47.72c-.26.75-.38,1.7-.38,7.87s.11,7.2.38,8.02c.15.49.53.68,1.66.68.79,0,1.21-.19,1.36-.64.38-1.05.41-2.07.41-4.41h5.46Z" style="fill: #ef3b39;"/>
          <path d="m621.28,623.04v-5.69h5.92v5.69h-5.92Z" style="fill: #ef3b39;"/>
        </g>
        <g>
          <path d="m512.29,724.77l-.3-4.08h-1.77l-.28,4.08h-3.69l1.89-17.66h6.16l1.77,17.66h-3.78Zm-1.07-13.97h-.26l-.58,6.32h1.45l-.61-6.32Z" style="fill: #ef3b39;"/>
          <path d="m522.04,712.59c.02-.23.02-.35.02-.77,0-1.1-.19-1.45-1.07-1.45s-1.05.35-1.05,1.45c0,1.03.26,1.31.84,1.66,1.4.82,2.33,1.03,3.24,1.63,1.03.72,1.49,1.54,1.49,4.48,0,4.2-1.05,5.48-4.62,5.48-2.92,0-4.25-.96-4.25-3.73,0-.89.05-1.91.19-2.47h3.06c-.05.19-.05.4-.05.65,0,1.35.19,1.8,1.12,1.8s1.14-.3,1.14-1.8c0-.91-.26-1.26-.89-1.7-1.14-.77-2.61-1.12-3.57-1.98-.96-.84-1.03-2.24-1.03-4.57,0-3.31.89-4.46,4.36-4.46,3.15,0,4.27.91,4.27,3.9,0,.96-.05,1.45-.19,1.89h-3.03Z" style="fill: #ef3b39;"/>
          <path d="m532.8,724.77v-7.26h-2.29v7.26h-3.76v-17.66h3.76v6.84h2.29v-6.84h3.76v17.66h-3.76Z" style="fill: #ef3b39;"/>
          <path d="m542.6,725.07c-2.26,0-3.31-.35-3.92-1.45-.61-1.07-.86-2.15-.86-7.7s.26-6.58.86-7.68c.61-1.07,1.66-1.45,3.92-1.45s3.29.37,3.9,1.45c.61,1.1.86,2.12.86,7.68s-.26,6.63-.86,7.7c-.61,1.1-1.66,1.45-3.9,1.45Zm1.12-9.24c0-3.9-.07-4.53-.21-4.97-.12-.3-.33-.44-.91-.44s-.82.14-.91.44c-.16.44-.23,1.07-.23,4.97s.07,4.41.23,4.88c.09.3.33.42.91.42s.79-.12.91-.42c.14-.47.21-1.1.21-4.88Z" style="fill: #ef3b39;"/>
          <path d="m554.82,724.77l-2.22-7.93h-.23c.05.4.05.86.05,1.31v6.63h-3.76v-17.66h3.76v6.44c0,.37-.02.65-.05.96h.23l2.36-7.4h3.85v.12l-2.68,7.89,2.89,9.54v.12h-4.2Z" style="fill: #ef3b39;"/>
          <path d="m564.67,724.77v-17.66h3.66v13.74h3.78v3.92h-7.44Z" style="fill: #ef3b39;"/>
          <path d="m573.2,724.77v-17.66h7.82v3.73h-4.15v3.1h4.08v3.57h-4.08v3.34h4.13v3.92h-7.79Z" style="fill: #ef3b39;"/>
          <path d="m585.01,724.77v-6.44l-3.22-11.11v-.12h3.78c1,4.41,1.12,4.97,1.26,5.72h.23c.14-.75.26-1.31,1.31-5.72h3.66v.12l-3.08,11.06v6.49h-3.94Z" style="fill: #ef3b39;"/>
          <path d="m592.92,724.77v-17.66h3.66v13.74h3.78v3.92h-7.44Z" style="fill: #ef3b39;"/>
          <path d="m606.98,724.77l-.3-4.08h-1.77l-.28,4.08h-3.69l1.89-17.66h6.16l1.77,17.66h-3.78Zm-1.07-13.97h-.26l-.58,6.32h1.45l-.61-6.32Z" style="fill: #ef3b39;"/>
          <path d="m619.47,724.77l-4.18-9.47h-.14v9.47h-3.34v-17.66h3.59l2.47,6.14h.14v-6.14h3.36v17.66h-1.91Z" style="fill: #ef3b39;"/>
          <path d="m622.92,724.77v-17.66h4.92c2.24,0,3.31.37,3.92,1.4.61,1.05.84,2.08.84,7.42s-.23,6.42-.84,7.44c-.61,1.05-1.68,1.4-3.92,1.4h-4.92Zm4.83-3.9c.58,0,.79-.12.91-.42.14-.42.21-.98.21-4.6s-.07-4.25-.21-4.67c-.12-.26-.33-.37-.91-.37h-1.17v10.06h1.17Z" style="fill: #ef3b39;"/>
        </g>
        <rect x="579.35" y="455.7" width="484.41" height="89.84" style="fill: #f1f2f2;"/>
        <g>
          <rect x="76.82" y="603.59" width="52.76" height="42.09" style="fill: url(#uuid-c18b6986-9685-4d69-a4c8-862613ba9341);"/>
          <rect x="88.54" y="612.94" width="29.31" height="23.38" style="fill: url(#uuid-4903115c-a654-423c-916b-7179bc301a2b);"/>
        </g>
        <g>
          <rect x="1005.45" y="603.59" width="52.76" height="42.09" style="fill: url(#uuid-d1db931a-ec85-41c0-931e-88aaba914024);"/>
          <rect x="1017.17" y="612.94" width="29.31" height="23.38" style="fill: url(#uuid-bb0f0f83-98e8-4fdb-aa9b-7d36738e190d);"/>
        </g>
        <polygon points="771.53 830.37 363.2 830.37 342.58 730.13 789.31 730.13 771.53 830.37" style="fill: #231f20;"/>
        <polygon points="771.53 825.02 363.2 825.02 342.58 724.77 789.31 724.77 771.53 825.02" style="fill: none;"/>
        <polygon points="750.67 701.89 393 701.89 374.93 628.34 766.25 628.34 750.67 701.89" style="fill: #231f20;"/>
        <path d="m613.32,853.78s-11.31.03-14.15.31c-20.16,8.11-41.23,8.11-62.21.06-2.82-.33-14.13-.38-14.13-.38v-16.85s11.31.02,14.13.12c20.98,6.2,41.35,4.8,62.21-.02,2.83-.08,14.15-.1,14.15-.1v16.85Z" style="fill: #2e3192;"/>
        <circle cx="363.31" cy="870.21" r="11.6" style="fill: #231300; stroke: #231300; stroke-miterlimit: 10; stroke-width: 1.55px;"/>
        <circle cx="771.25" cy="870.21" r="11.6" style="fill: #231300; stroke: #231300; stroke-miterlimit: 10; stroke-width: 1.55px;"/>
        <g>
          <path d="m424.6,977.76v-32h6.03v32h-6.03Zm2.4-12.87v-5.8h11.13c.94,0,1.69-.35,2.25-1.03.56-.69.85-1.6.87-2.73,0-1.13-.28-2.04-.85-2.73s-1.32-1.03-2.28-1.03h-11.13v-5.81h11.61c1.77,0,3.32.4,4.65,1.19,1.33.79,2.36,1.91,3.09,3.34.73,1.44,1.1,3.12,1.1,5.04s-.37,3.6-1.11,5.04c-.74,1.44-1.77,2.55-3.09,3.34-1.32.79-2.87,1.19-4.64,1.19h-11.61Zm14.49,12.87l-7.76-13.85,6.44-1.01,8.62,14.87h-7.3Z"/>
          <path d="m459.04,978.09c-1.95,0-3.69-.38-5.23-1.14-1.54-.76-2.73-1.84-3.58-3.23l4.93-3.58c.53.67,1.16,1.2,1.9,1.56.74.37,1.51.55,2.32.55,1.16,0,2.05-.41,2.68-1.22.63-.81.95-1.96.95-3.44v-21.79h6.25v21.82c0,3.33-.89,5.91-2.67,7.74s-4.29,2.75-7.53,2.75Z"/>
          <path d="m497.28,978.09c-3.18,0-5.57-.82-7.17-2.45s-2.4-3.84-2.4-6.63v-14.54c0-2.83.81-5.05,2.42-6.66,1.61-1.61,3.99-2.42,7.15-2.42s5.55.8,7.16,2.41,2.41,3.83,2.41,6.67v14.54c0,2.83-.81,5.05-2.42,6.66-1.61,1.61-4,2.42-7.15,2.42Zm0-5.81c1.26,0,2.17-.43,2.72-1.29.55-.86.83-2.04.83-3.53v-11.46c0-1.51-.28-2.69-.83-3.54s-1.46-1.28-2.72-1.28-2.15.42-2.71,1.28c-.56.85-.83,2.03-.83,3.54v11.46c0,1.5.28,2.67.83,3.53.56.86,1.46,1.29,2.71,1.29Z"/>
          <path d="m516.28,977.76l6.95-15.88,1.08.79c-.38.69-.95,1.19-1.69,1.5-.75.31-1.61.46-2.6.46-2.43,0-4.39-.85-5.88-2.56-1.49-1.71-2.23-3.98-2.23-6.81v-.02c0-3.11.82-5.52,2.45-7.22s3.94-2.56,6.92-2.56,5.28.86,6.91,2.58,2.44,4.16,2.44,7.31v.02c0,1.3-.22,2.7-.65,4.19s-.96,2.99-1.59,4.5l-5.72,13.7h-6.38Zm4.99-18.76c1.06,0,1.87-.34,2.45-1.02s.87-1.65.87-2.89v-.02c0-1.2-.29-2.13-.87-2.78s-1.4-.98-2.45-.98-1.89.33-2.47.99c-.58.66-.87,1.59-.87,2.79v.02c0,1.25.29,2.21.87,2.88.58.67,1.4,1.01,2.47,1.01Z"/>
          <path d="m548.43,977.76v-31.98h6.03v31.98h-6.03Zm2.75-12.4v-5.81h10.23c1.08,0,1.96-.36,2.64-1.09.67-.73,1.01-1.68,1.01-2.87s-.33-2.19-1-2.91-1.55-1.09-2.65-1.09h-10.23v-5.81h10.07c2.02,0,3.79.41,5.29,1.22,1.5.81,2.67,1.95,3.51,3.42.84,1.47,1.25,3.19,1.25,5.17s-.42,3.68-1.25,5.15c-.83,1.47-2.01,2.6-3.52,3.41-1.51.81-3.27,1.21-5.28,1.21h-10.07Z"/>
          <path d="m571.41,977.76l12.23-31.98h3.83l12.23,31.98h-6.49l-7.65-21.84-7.65,21.84h-6.49Zm5.87-5.12v-5.81h16.82v5.81h-16.82Z"/>
          <path d="m614.65,972.86v-5.54l9.85-21.51h6.82l-9.59,21.24h14.36v5.81h-21.44Zm12.91,4.93v-18.82h6.03v18.82h-6.03Z"/>
          <path d="m644.42,977.76l6.95-15.88,1.08.79c-.38.69-.95,1.19-1.69,1.5-.75.31-1.61.46-2.6.46-2.43,0-4.39-.85-5.88-2.56-1.49-1.71-2.23-3.98-2.23-6.81v-.02c0-3.11.82-5.52,2.45-7.22s3.94-2.56,6.92-2.56,5.28.86,6.91,2.58,2.44,4.16,2.44,7.31v.02c0,1.3-.22,2.7-.65,4.19s-.96,2.99-1.59,4.5l-5.72,13.7h-6.38Zm4.99-18.76c1.06,0,1.87-.34,2.45-1.02s.87-1.65.87-2.89v-.02c0-1.2-.29-2.13-.87-2.78s-1.4-.98-2.45-.98-1.89.33-2.47.99c-.58.66-.87,1.59-.87,2.79v.02c0,1.25.29,2.21.87,2.88.58.67,1.4,1.01,2.47,1.01Z"/>
          <path d="m673.19,978.09c-2.57,0-4.72-.84-6.46-2.51-1.74-1.67-2.71-4.02-2.91-7.06v-.02h6.03v.02c.12,1.17.48,2.09,1.08,2.74s1.39.98,2.35.98c1.06,0,1.87-.35,2.45-1.04.58-.7.87-1.67.87-2.91v-2.68c0-1.26-.26-2.23-.77-2.91-.51-.68-1.25-1.02-2.2-1.02-.87,0-1.6.22-2.21.66-.61.44-1.03,1.05-1.26,1.85h-5.63v-18.38h17.18v5.81h-11.15v5.65c.47-.46,1.1-.81,1.88-1.06.78-.25,1.56-.37,2.32-.37,2.51,0,4.45.85,5.82,2.56,1.37,1.71,2.06,4.12,2.06,7.22v2.68c0,3.12-.82,5.54-2.46,7.25-1.64,1.71-3.97,2.56-6.97,2.56Z"/>
          <path d="m698.15,978.09c-2.04,0-3.82-.37-5.33-1.1s-2.7-1.77-3.54-3.1c-.84-1.33-1.26-2.89-1.26-4.68v-.53c0-1.6.44-3.1,1.32-4.51s2.05-2.47,3.52-3.19c-1.25-.62-2.25-1.5-3.02-2.64-.77-1.14-1.16-2.36-1.16-3.65v-.84c0-2.54.87-4.57,2.6-6.1,1.73-1.53,4.02-2.3,6.88-2.3s5.15.77,6.88,2.3c1.73,1.53,2.6,3.57,2.6,6.1v.84c0,1.32-.39,2.55-1.17,3.68-.78,1.14-1.8,2-3.08,2.61,1.48.72,2.67,1.78,3.56,3.19.89,1.41,1.34,2.91,1.34,4.51v.53c0,1.79-.42,3.35-1.26,4.68-.84,1.33-2.02,2.37-3.54,3.1s-3.29,1.1-5.33,1.1Zm0-5.81c1.23,0,2.22-.36,2.98-1.09s1.13-1.68,1.13-2.87v-.31c0-1.08-.38-1.96-1.13-2.62s-1.75-.99-2.98-.99-2.22.33-2.98.99c-.76.66-1.13,1.54-1.13,2.64v.33c0,1.17.38,2.12,1.13,2.84.75.72,1.75,1.08,2.98,1.08Zm0-13.72c1.04,0,1.88-.33,2.51-.99.63-.66.95-1.54.95-2.64v-.31c0-1.01-.32-1.83-.95-2.44-.63-.62-1.47-.92-2.51-.92s-1.86.31-2.5.92c-.64.62-.96,1.44-.96,2.46v.33c0,1.07.32,1.94.96,2.6.64.66,1.47.99,2.5.99Z"/>
        </g>
        <g>
          <circle cx="363.24" cy="962.36" r="22.01" style="fill: url(#uuid-c8133ba2-25a6-452c-b1c1-ec1a8778ba0a);"/>
          <circle cx="363.24" cy="962.36" r="12.4" style="fill: url(#uuid-c4d0158b-6885-438e-969a-5e23b1ef82a8);"/>
        </g>
        <circle cx="267.35" cy="962.36" r="31.45" style="fill: url(#uuid-2386dba6-55ac-4908-bd32-902e58a3f08b);"/>
        <circle cx="267.35" cy="962.36" r="22.01" style="fill: url(#uuid-a62402c0-0b41-48bd-98f9-842cb682a59b); mix-blend-mode: screen;"/>
        <circle cx="267.35" cy="962.36" r="13.01" style="fill: url(#uuid-9a90a8a5-2307-410a-93d6-9aa47f029ca6); mix-blend-mode: screen;"/>
        <g>
          <circle cx="769.81" cy="962.36" r="22.01" style="fill: url(#uuid-3b95ff68-bec8-476c-ac33-7ea1c25e4fbe);"/>
          <circle cx="769.81" cy="962.36" r="12.4" style="fill: url(#uuid-37e20007-3c0b-49a8-9fe2-86df808e7d49);"/>
        </g>
        <g>
          <circle cx="865.7" cy="962.36" r="31.45" style="fill: url(#uuid-ff2a4964-b58f-4042-bd5d-fd86436f01f5);"/>
          <circle cx="865.7" cy="962.36" r="22.01" style="fill: url(#uuid-8bd682a7-9ae3-4412-abb5-a6f77259be55); mix-blend-mode: screen;"/>
          <circle cx="865.7" cy="962.36" r="13.01" style="fill: url(#uuid-a9cca0e5-65a6-4648-ac64-b31a35b46ddd); mix-blend-mode: screen;"/>
        </g>
        <rect x="72.38" y="455.71" width="484.41" height="89.83" style="fill: #e6e7e8;"/>
        <polygon points="1053.54 95.16 82.61 95.16 248.96 4.19 887.19 4.19 1053.54 95.16" style="fill: #e6e7e8;"/>
        <path d="m1107.71,314.41c-.55,0-1.1.06-1.65.09l-36.1-105.75h-.01s0-109.4,0-109.4L888.27,0H247.88L66.2,99.35v109.45l-36.11,105.7c-.56-.03-1.1-.09-1.67-.09-15.69,0-28.42,12.73-28.42,28.43v84.43c0,15.71,12.73,28.44,28.42,28.44s28.44-12.73,28.44-28.44v-84.43c0-12.15-7.65-22.49-18.37-26.56l27.71-82v788.39h60.32v170.81c0,5.16,4.18,9.34,9.34,9.34h102.58c5.16,0,9.34-4.18,9.34-9.34v-170.81h640.58v170.81c0,5.16,4.19,9.34,9.35,9.34h102.57c5.16,0,9.34-4.18,9.34-9.34v-170.81h60.33V234.28l27.7,82c-10.72,4.07-18.36,14.41-18.36,26.56v84.43c0,15.71,12.73,28.44,28.42,28.44s28.44-12.73,28.44-28.44v-84.43c0-15.7-12.73-28.43-28.44-28.43ZM248.96,4.19h638.23l166.35,90.97H82.61L248.96,4.19ZM72.38,108.63h484.41v436.91H72.38V108.63Zm991.38,907.85h-116.14v-115.51h-8.13v115.51H193.56v-115.51h-8.13v115.51h-113.05v-464.75h991.38v464.75Zm0-470.94h-484.41V108.63h484.41v436.91Z"/>
        <g>
          <path d="m658.49,491.55c.07,0,.11.04.11.11h-35.4v9.42c0,.28-.04.57-.11.85-.11.71-.32,1.38-.63,2-.32.62-.76,1.14-1.32,1.57-.85.6-1.81.94-2.91,1.01-1.09.07-2.1-.07-3.02-.43l-.96-.48c-.35-.18-.7-.37-1.04-.59-.34-.21-.68-.43-1.04-.64.28.92.61,1.81.98,2.66.37.85.75,1.7,1.14,2.55.71,1.49,1.53,2.93,2.47,4.31.94,1.38,1.98,2.66,3.15,3.83.04.07.07.12.11.13.03.02.07.04.11.08.7.25,1.43.44,2.19.59.76.14,1.53.23,2.31.27,2.38.11,4.68-.2,6.92-.93,2.24-.73,4.33-1.77,6.28-3.11.64-.46,1.26-.94,1.86-1.44.6-.5,1.19-1.05,1.76-1.65.07-.04.11-.07.13-.11.02-.04.06-.09.13-.16-.5.07-1,.12-1.52.13-.51.02-1.02-.03-1.52-.13-.32-.07-.63-.15-.93-.24-.3-.09-.59-.19-.88-.29-.18-.07-.36-.16-.56-.27-.2-.11-.38-.21-.56-.32-.85-.5-1.7-.99-2.53-1.49-.83-.5-1.66-1.01-2.48-1.54-.71-.5-1.4-.99-2.08-1.49-.67-.5-1.21-1.15-1.6-1.97-.53-.96-.75-2.02-.64-3.19.14-1.17.55-2.25,1.22-3.25.67-.99,1.51-1.81,2.5-2.45,1.06-.71,2.25-1.2,3.57-1.46,1.31-.27,2.61-.22,3.89.13.64.18,1.21.39,1.7.64.67.36,1.32.72,1.94,1.09.62.37,1.23.75,1.84,1.14.6.39,1.22.78,1.84,1.17.62.39,1.22.8,1.78,1.22.99.71,1.7,1.6,2.13,2.66.35.92.48,1.85.37,2.77-.11.92-.39,1.79-.85,2.61-.5.92-1.14,1.72-1.94,2.4-.8.67-1.68,1.21-2.63,1.6.39.21.79.43,1.2.67.41.23.81.47,1.2.72.04.04.23.17.59.4.35.23.74.48,1.14.75.41.27.93.63,1.57,1.09-.32.43-.67.83-1.06,1.22-.5.5-.99.97-1.49,1.41-.5.44-1.03.88-1.6,1.3-1.85,1.38-3.85,2.48-6.02,3.3-2.16.82-4.42,1.26-6.76,1.33-2.02,0-3.99-.32-5.91-.96-.5-.18-.98-.37-1.44-.59-.46-.21-.94-.44-1.44-.69-.67-.39-1.33-.78-1.98-1.17-.65-.39-1.29-.78-1.93-1.17s-1.27-.79-1.9-1.2c-.63-.41-1.27-.84-1.9-1.3-1.49-1.06-2.82-2.27-3.99-3.62-1.17-1.35-2.22-2.8-3.14-4.36-.75-1.24-1.41-2.53-2-3.86-.59-1.33-1.11-2.67-1.57-4.02-.18-.53-.35-1.07-.51-1.62-.16-.55-.29-1.11-.4-1.68-.04-.07-.05-.12-.05-.16s-.02-.09-.05-.16c.21.07.39.14.53.21.21.14.39.25.53.32l2.4,1.44c.39.28.79.54,1.2.77.41.23.81.49,1.2.77.14.07.27.16.4.27.12.11.27.21.45.32l.11.11c0,.11.04.27.11.48.04.18.09.35.16.53.07.18.14.36.21.53.71-.07,1.39-.27,2.05-.59.66-.32,1.22-.78,1.68-1.38.35-.5.61-1.05.77-1.65.16-.6.26-1.21.29-1.81.03-.28.04-.55.03-.8-.02-.25-.03-.5-.03-.75v-3.62h-10.54c-.11-.04-.27-.12-.48-.27-.07-.07-.16-.12-.27-.16-.11-.04-.19-.09-.27-.16-.43-.25-.84-.49-1.25-.72-.41-.23-.81-.47-1.2-.72-.75-.46-1.53-.98-2.34-1.54-.18-.07-.33-.16-.45-.27-.12-.11-.26-.21-.4-.32l-.11-.11h17.3v-.05h.05s.06,0,.08.03c.02.02.04.03.08.03h35.19c.11.04.27.12.48.27.14.07.32.18.53.32.43.25.84.49,1.25.72.41.23.81.47,1.2.72.75.46,1.52.98,2.34,1.54.18.07.33.16.45.27.12.11.26.21.4.32Zm-24.01,15.7c1.28-.14,2.5-.52,3.67-1.14s2.15-1.45,2.93-2.48c.64-.89,1.08-1.87,1.33-2.95.25-1.08.18-2.14-.21-3.17-1.35,0-2.57.27-3.67.8-1.14.5-2.15,1.18-3.03,2.05-.89.87-1.53,1.89-1.92,3.06-.43,1.28-.41,2.57.05,3.89h.43c.14,0,.28-.02.43-.05Z" style="fill: red;"/>
          <path d="m658.38,491.55h-9.21v35.18c-.21-.07-.39-.16-.53-.27-.14-.07-.27-.13-.4-.19-.12-.05-.17-.08-.13-.08-.39-.25-.78-.49-1.19-.72-.4-.23-.8-.49-1.19-.77-.39-.25-.78-.5-1.19-.75-.41-.25-.8-.5-1.19-.75-.18-.11-.33-.21-.48-.32-.32-.18-.48-.3-.48-.37v-30.98h-2.45c-.07-.04-.15-.07-.24-.11-.09-.04-.17-.07-.24-.11-.07-.07-.16-.12-.27-.16s-.19-.09-.27-.16c-.92-.5-1.74-.99-2.45-1.49-.39-.25-.78-.5-1.17-.75-.39-.25-.78-.5-1.17-.75-.18-.11-.33-.21-.45-.32-.12-.11-.26-.2-.4-.27l-.11-.11h18.42c.21.07.37.14.48.21.07.07.16.12.27.16s.19.09.27.16c.39.25.79.49,1.2.72.41.23.81.49,1.2.77.39.25.79.49,1.2.72.41.23.81.49,1.2.77.14.11.28.21.43.29.14.09.28.19.43.29l.11.11Z" style="fill: red;"/>
          <path d="m638.26,484.42l.11.11-.11-.11-1.92-1.76c-.18-.18-.35-.35-.53-.5-.18-.16-.35-.33-.53-.51-1.1-1.03-2.18-2.04-3.25-3.03-1.06-.99-2.15-1.99-3.25-2.98l-.16-.16c-.18-.14-.33-.27-.45-.4-.12-.12-.27-.26-.45-.4-.43-.39-.86-.8-1.3-1.22-.44-.43-.88-.83-1.3-1.22-.25-.21-.5-.43-.75-.67-.25-.23-.5-.45-.75-.67-.18-.18-.35-.35-.53-.53-.18-.18-.35-.37-.53-.58-.25-.25-.49-.54-.72-.88-.23-.34-.42-.69-.56-1.06-.14-.37-.24-.75-.29-1.12-.05-.37,0-.75.13-1.14l.05-.11c.18-.43.45-.76.83-1.01.37-.25.79-.43,1.25-.56.46-.12.93-.2,1.41-.21s.91-.03,1.3-.03c.21.07.39.14.53.21.21.14.39.25.53.32l2.4,1.44c.39.29.79.54,1.2.77.41.23.81.49,1.2.77.14.11.28.2.4.29.12.09.27.19.45.29l.11.11h-1.17c-.67.07-1.38.22-2.1.45-.73.23-1.23.67-1.52,1.3-.07.11-.11.22-.13.35-.02.12-.04.24-.08.35-.07.82.12,1.6.56,2.34.44.75.95,1.38,1.52,1.92.35.36.7.68,1.04.99.34.3.7.63,1.09.98.57.5,1.13,1.01,1.68,1.54.55.53,1.11,1.05,1.68,1.54,1.24,1.17,2.49,2.33,3.75,3.49,1.26,1.15,2.51,2.32,3.75,3.49.07.04.14.09.21.16.32.29.63.57.93.85.3.28.59.57.88.85l-6.6-4.05Z" style="fill: red;"/>
          <path d="m693.04,491.44c.07,0,.11.04.11.11h-38.7c-.11-.04-.27-.12-.48-.27-.11-.07-.2-.12-.29-.16-.09-.04-.17-.07-.24-.11-.43-.25-.84-.5-1.25-.75-.41-.25-.81-.5-1.2-.75-.75-.46-1.53-.98-2.34-1.54-.18-.07-.33-.16-.45-.27-.12-.11-.26-.21-.4-.32l-.11-.11h38.7c.11.04.27.12.48.27.07.07.16.12.27.16s.19.09.27.16c.39.25.8.49,1.22.72.43.23.83.47,1.22.72.39.28.78.54,1.17.77.39.23.78.49,1.17.77.18.07.33.16.45.27.12.11.26.21.4.32Zm-9.69,8.36c.18.07.33.16.45.27.12.11.26.21.4.32.07,0,.11.04.11.11h-14c-.57,0-1.14.04-1.7.11-.99.11-1.88.34-2.66.69-.92.39-1.74.9-2.45,1.54-.71.64-1.24,1.42-1.6,2.34-.5,1.28-.62,2.6-.37,3.97.25,1.37.64,2.65,1.17,3.86.46,1.03.98,2.01,1.54,2.95.57.94,1.17,1.86,1.81,2.74.92,1.24,1.88,2.44,2.87,3.59.99,1.15,2,2.3,3.03,3.43-.11-.03-.27-.12-.48-.27-.07-.07-.16-.12-.27-.16-.11-.03-.2-.09-.27-.16-.43-.21-.84-.44-1.25-.69-.41-.25-.81-.5-1.2-.75-.75-.46-1.53-.98-2.34-1.54-.36-.18-.67-.41-.96-.69-.6-.64-1.2-1.28-1.78-1.92-.59-.64-1.18-1.31-1.78-2.02-.82-.99-1.6-2-2.34-3.03-.75-1.03-1.46-2.11-2.13-3.25-.46-.78-.87-1.59-1.22-2.42-.35-.83-.66-1.69-.9-2.58-.28-1.14-.39-2.29-.32-3.46.07-1.17.46-2.25,1.17-3.25.57-.75,1.26-1.36,2.08-1.84.82-.48,1.69-.84,2.61-1.09.46-.11.91-.19,1.36-.27.44-.07.9-.11,1.36-.11h14.27c.11.04.27.12.48.27.11.07.2.12.29.13.09.02.17.06.24.13.43.25.84.5,1.25.75.41.25.81.5,1.2.75.75.46,1.53.98,2.34,1.54Z" style="fill: red;"/>
          <path d="m693.46,491.55h-9.21v35.18c-.21-.07-.39-.16-.53-.27-.14-.07-.27-.13-.4-.19-.12-.05-.17-.08-.13-.08-.39-.25-.78-.49-1.19-.72-.4-.23-.8-.49-1.19-.77-.39-.25-.78-.5-1.19-.75-.41-.25-.8-.5-1.19-.75-.18-.11-.33-.21-.48-.32-.32-.18-.48-.3-.48-.37v-30.98h-2.45c-.07-.04-.15-.07-.24-.11-.09-.04-.17-.07-.24-.11-.07-.07-.16-.12-.27-.16s-.19-.09-.27-.16c-.92-.5-1.74-.99-2.45-1.49-.39-.25-.78-.5-1.17-.75-.39-.25-.78-.5-1.17-.75-.18-.11-.33-.21-.45-.32-.12-.11-.26-.2-.4-.27l-.11-.11h18.42c.21.07.37.14.48.21.07.07.16.12.27.16s.19.09.27.16c.39.25.79.49,1.2.72.41.23.81.49,1.2.77.39.25.79.49,1.2.72.41.23.81.49,1.2.77.14.11.28.21.43.29.14.09.28.19.43.29l.11.11Z" style="fill: red;"/>
          <path d="m722.26,495.75v4.15h-14.27c-.25,0-.5,0-.75.03-.25.02-.48.06-.69.13-.6.18-1.03.5-1.28.96-.18.32-.28.67-.29,1.04-.02.37.03.74.13,1.09.14.64.36,1.27.67,1.89.3.62.63,1.23.98,1.84.11.18.21.35.32.51.11.16.21.33.32.51.39-.07.75-.16,1.06-.27s.64-.23.96-.37c.75-.28,1.5-.54,2.26-.77.76-.23,1.55-.38,2.37-.45h.67c.23,0,.47.02.72.05.39.07.75.2,1.09.37.34.18.67.36.98.53.6.36,1.18.7,1.73,1.04.55.34,1.13.7,1.73,1.09.35.21.71.44,1.06.67.35.23.71.47,1.06.72.14.11.27.21.4.29.12.09.26.21.4.35.32.35.53.76.64,1.22.14.43.23.87.27,1.33.03.46.05.91.05,1.33,0,.46-.04.91-.11,1.36-.07.44-.16.88-.27,1.3-.25.92-.59,1.79-1.04,2.61-.44.82-1,1.56-1.68,2.24-.78.75-1.66,1.33-2.63,1.76-.98.43-2,.69-3.06.8-1.03.11-2.04.07-3.03-.11-.99-.18-1.97-.46-2.93-.85-.85-.35-1.68-.76-2.48-1.22s-1.59-.94-2.37-1.44c-1.1-.67-2.18-1.35-3.25-2.02s-2.09-1.4-3.09-2.18c-1.6-1.24-3.08-2.6-4.44-4.07-1.37-1.47-2.65-3.02-3.86-4.66-.6-.78-1.18-1.57-1.73-2.37-.55-.8-1.07-1.62-1.57-2.47.18.07.36.16.53.27.21.14.39.25.53.32l2.4,1.44c.39.25.79.5,1.2.75.41.25.81.51,1.2.8.32.18.6.37.85.58l.11.11c.21.39.44.79.69,1.2.25.41.51.81.8,1.2,1.03,1.49,2.1,2.93,3.22,4.31,1.12,1.38,2.32,2.71,3.59,3.99.28.28.57.55.85.8.28.25.57.5.85.75.03.04.06.05.08.05s.04.02.08.05l.64.16c1.03.29,2.08.44,3.14.45,1.06.02,2.11-.12,3.14-.4.96-.28,1.84-.72,2.66-1.3.82-.58,1.53-1.29,2.13-2.1,1.1-1.53,1.76-3.23,1.97-5.11.04-.18.05-.36.05-.56s.02-.38.05-.56c-.46.14-.9.28-1.33.43-.43.14-.83.3-1.22.48-.39.14-.79.25-1.2.32-.41.07-.81.07-1.2,0-.28-.04-.54-.09-.77-.16-.23-.07-.49-.14-.77-.21-.18-.07-.35-.15-.51-.24-.16-.09-.33-.19-.51-.29-.71-.39-1.42-.8-2.13-1.22-.71-.43-1.42-.87-2.13-1.33-.89-.53-1.74-1.09-2.56-1.68-.82-.59-1.56-1.29-2.24-2.1-.46-.53-.88-1.1-1.25-1.7s-.72-1.22-1.04-1.86c-.25-.5-.49-1.02-.72-1.57-.23-.55-.35-1.11-.35-1.68,0-.32.04-.63.13-.93.09-.3.26-.56.51-.77.46-.35.94-.55,1.44-.59.28-.07.56-.1.82-.08.27.02.54.03.83.03h13.52s.05-.02.05-.05v-3.99h-26.24c-.11-.04-.27-.12-.48-.27-.07-.07-.16-.12-.27-.16-.11-.04-.19-.09-.27-.16-.43-.25-.84-.49-1.25-.72-.41-.23-.81-.47-1.2-.72-.75-.46-1.53-.98-2.34-1.54-.18-.07-.33-.16-.45-.27-.12-.11-.26-.21-.4-.32l-.11-.11h41.09c.11.04.27.12.48.27.07.07.16.12.27.16s.19.09.27.16c.39.25.79.49,1.2.72.41.23.82.47,1.25.72.75.46,1.53.98,2.34,1.54.18.07.33.16.45.27.12.11.26.21.4.32l.11.11h-8.09v4.1Z" style="fill: red;"/>
          <path d="m745.36,491.55h-9.21v38.91c-.21-.07-.39-.16-.53-.27-.14-.07-.27-.13-.4-.19-.12-.05-.17-.08-.13-.08-.39-.25-.78-.49-1.19-.72-.4-.23-.8-.49-1.19-.77-.39-.25-.78-.5-1.19-.75-.41-.25-.8-.5-1.19-.75-.18-.11-.33-.21-.48-.32-.32-.18-.48-.3-.48-.37v-34.71h-2.45c-.07-.04-.15-.07-.24-.11-.09-.04-.17-.07-.24-.11-.07-.07-.16-.12-.27-.16s-.19-.09-.27-.16c-.92-.5-1.74-.99-2.45-1.49-.39-.25-.78-.5-1.17-.75-.39-.25-.78-.5-1.17-.75-.18-.11-.33-.21-.45-.32-.12-.11-.26-.2-.4-.27l-.11-.11h13.17c-.25-.14-.49-.28-.72-.43-.23-.14-.45-.28-.67-.43-.85-.53-1.65-1.05-2.4-1.54-.18-.11-.34-.21-.48-.32-.32-.18-.48-.3-.48-.37.25-1.74.13-3.45-.35-5.14-.48-1.69-1.29-3.2-2.42-4.55-1.21-.28-2.42-.38-3.65-.29s-2.39.45-3.49,1.09c-1.03.6-1.9,1.37-2.61,2.29-.71.92-1.21,1.95-1.49,3.09-.35,1.35-.37,2.71-.05,4.1.32,1.38.94,2.59,1.86,3.62-.18-.04-.34-.11-.48-.21-.11-.07-.2-.12-.29-.16-.09-.04-.19-.09-.29-.16l-2.4-1.44c-.39-.28-.79-.54-1.2-.77-.41-.23-.81-.49-1.2-.77-.14-.07-.3-.17-.48-.29-.18-.12-.34-.26-.48-.4-.75-.92-1.3-1.95-1.68-3.09-.37-1.13-.49-2.29-.35-3.46.14-.99.43-1.93.85-2.82.43-.89.99-1.68,1.7-2.39.89-.85,1.89-1.49,3.01-1.92,1.12-.43,2.28-.62,3.49-.58,1.24.07,2.43.3,3.57.69.28.07.57.17.85.29.28.12.57.26.85.4.92.46,1.83.97,2.71,1.52.89.55,1.77,1.11,2.66,1.68.85.53,1.69,1.08,2.53,1.65.83.57,1.6,1.22,2.32,1.97.39.43.74.88,1.06,1.36.32.48.62.97.9,1.46,1.02,2.02,1.48,4.13,1.37,6.33h3.14c.21.07.37.14.48.21.07.07.16.12.27.16s.19.09.27.16c.39.25.79.49,1.2.72.41.23.81.49,1.2.77.39.25.79.49,1.2.72.41.23.81.49,1.2.77.14.11.28.21.43.29.14.09.28.19.43.29l.11.11Z" style="fill: red;"/>
          <path d="m752.23,508.55c-.11-.02-.2-.06-.27-.13-.21-.14-.39-.25-.53-.32l-2.4-1.44c-.39-.28-.79-.54-1.2-.77-.41-.23-.81-.49-1.2-.77-.14-.07-.28-.16-.4-.27-.12-.11-.28-.21-.45-.32l-.11-.11h11.23c.07.04.16.07.27.11s.19.07.27.11c.07.07.15.12.24.16.09.04.19.09.29.16.39.25.79.49,1.2.72.41.23.81.49,1.2.77.39.25.79.5,1.2.75.41.25.81.5,1.2.75.14.11.27.21.4.32.12.11.27.2.45.27,0,.07.03.11.11.11h-11.23c-.07-.04-.16-.06-.27-.08Z" style="fill: red;"/>
          <path d="m815.73,491.44l.11.11h-48.01c-.11-.04-.27-.12-.48-.27-.11-.07-.2-.12-.29-.16-.09-.04-.17-.07-.24-.11-.43-.25-.84-.5-1.25-.75-.41-.25-.81-.5-1.2-.75-.75-.46-1.53-.98-2.34-1.54-.18-.07-.33-.16-.45-.27-.12-.11-.26-.21-.4-.32l-.11-.11h48.01c.11.04.27.12.48.27.07.07.16.12.27.16s.19.09.27.16l2.4,1.44c.39.28.79.54,1.2.77.41.23.81.49,1.2.77.32.18.6.37.85.59Zm-8.84,10.11c.32.18.6.37.85.59l.11.11h-16.82l.64.96c.21.32.43.66.64,1.01.85,1.46,1.58,2.96,2.18,4.52.32.85.59,1.74.8,2.66.21.92.3,1.85.27,2.77-.07.92-.28,1.78-.64,2.56-.36.78-.89,1.47-1.6,2.08-.75.6-1.57,1.08-2.48,1.44-.9.36-1.84.48-2.79.37-.46-.04-.91-.12-1.36-.27-.44-.14-.86-.3-1.25-.48-.92-.46-1.81-.95-2.66-1.46-.85-.51-1.69-1.04-2.5-1.57-.57-.39-1.14-.76-1.7-1.12-.57-.35-1.1-.75-1.6-1.17-.89-.71-1.69-1.49-2.42-2.34-.73-.85-1.39-1.74-2-2.66-1.35-2.06-2.48-4.23-3.41-6.52s-1.67-4.64-2.24-7.05c.14.04.32.12.53.27.07.07.16.12.27.16.11.04.2.09.27.16.39.21.79.44,1.2.69.41.25.81.5,1.2.75.39.25.79.5,1.2.75.41.25.81.52,1.2.8.32.18.6.37.85.59l.11.11c.39,1.77.89,3.44,1.49,5,.39,1.17.85,2.33,1.38,3.49s1.1,2.28,1.7,3.38c.46.75.93,1.48,1.41,2.21s1,1.43,1.57,2.1c1.42.11,2.8-.23,4.15-1.01.39-.28.78-.58,1.17-.91.39-.32.73-.67,1.01-1.06.5-.71.83-1.51,1.01-2.39.18-.92.2-1.84.08-2.74-.12-.9-.33-1.78-.61-2.63-.28-.85-.6-1.68-.96-2.47-.36-.8-.75-1.59-1.17-2.37-.28-.46-.56-.91-.82-1.36-.27-.44-.54-.88-.83-1.3-.07-.07-.1-.11-.08-.11h16.85c.11,0,.27.07.48.21.07.07.16.12.27.16.11.04.19.09.27.16l2.4,1.44c.39.28.79.54,1.2.77.41.23.81.49,1.2.77Zm-28.05,14.16c-.07-.07-.12-.11-.16-.11s.02.04.16.11Z" style="fill: red;"/>
          <path d="m817.06,491.55h-9.21v35.18c-.21-.07-.39-.16-.53-.27-.14-.07-.27-.13-.4-.19-.12-.05-.17-.08-.13-.08-.39-.25-.78-.49-1.19-.72-.4-.23-.8-.49-1.19-.77-.39-.25-.78-.5-1.19-.75-.41-.25-.8-.5-1.19-.75-.18-.11-.33-.21-.48-.32-.32-.18-.48-.3-.48-.37v-30.98h-2.45c-.07-.04-.15-.07-.24-.11-.09-.04-.17-.07-.24-.11-.07-.07-.16-.12-.27-.16s-.19-.09-.27-.16c-.92-.5-1.74-.99-2.45-1.49-.39-.25-.78-.5-1.17-.75-.39-.25-.78-.5-1.17-.75-.18-.11-.33-.21-.45-.32-.12-.11-.26-.2-.4-.27l-.11-.11h18.42c.21.07.37.14.48.21.07.07.16.12.27.16s.19.09.27.16c.39.25.79.49,1.2.72.41.23.81.49,1.2.77.39.25.79.49,1.2.72.41.23.81.49,1.2.77.14.11.28.21.43.29.14.09.28.19.43.29l.11.11Z" style="fill: red;"/>
          <path d="m850.11,491.55h-24.96c.82.6,1.48,1.33,2,2.18.51.85.91,1.77,1.2,2.77.21.82.35,1.68.43,2.58.07.9-.04,1.78-.32,2.63-.43,1.38-1.31,2.54-2.66,3.46-.57.35-1.16.64-1.78.85-.62.21-1.27.39-1.94.53-.43.07-.85.12-1.28.16s-.87.05-1.33.05c-.04,0-.09,0-.16-.03-.07-.02-.09,0-.05.08.07.28.14.5.21.64.67,2.06,1.65,3.89,2.93,5.48,1.1.18,2.21.19,3.33.03,1.12-.16,2.19-.43,3.22-.83.92-.32,1.78-.74,2.58-1.25.8-.51,1.53-1.13,2.21-1.84.89-.99,1.56-2.08,2.02-3.25.21-.46.37-.98.48-1.54.21.07.39.16.53.27.14.07.27.14.37.21s.14.09.11.05c.39.25.79.49,1.2.72.41.23.83.49,1.25.77.39.25.78.5,1.17.75.39.25.78.5,1.17.75.18.11.34.21.48.32.11.07.21.14.32.21s.16.12.16.16c-.07.36-.14.64-.21.85-.43,1.38-1.12,2.63-2.08,3.73-.96,1.1-2.08,1.97-3.35,2.61-1.03.5-2.11.89-3.25,1.17-.6.14-1.21.26-1.81.35-.6.09-1.21.12-1.81.08-1.03,0-1.99-.16-2.87-.48-.5-.18-.96-.35-1.38-.53-.89-.46-1.75-.95-2.58-1.46-.83-.51-1.68-1.04-2.53-1.57-.71-.46-1.43-.93-2.16-1.41-.73-.48-1.39-1.02-2-1.62-.32-.28-.61-.58-.88-.9s-.54-.66-.83-1.01c-.78-1.1-1.47-2.31-2.08-3.62-.14-.35-.27-.69-.4-1.01-.12-.32-.24-.66-.35-1.01,0-.03.07-.05.21-.05h.51c.16,0,.33-.02.51-.05,1.24-.07,2.49-.32,3.75-.75,1.26-.43,2.3-1.13,3.11-2.13.57-.67.97-1.43,1.2-2.26.23-.83.31-1.68.24-2.53-.07-1.13-.28-2.24-.64-3.3h-8.84c-.11-.04-.27-.12-.48-.27-.18-.11-.35-.2-.53-.27-.43-.28-.84-.54-1.25-.77-.41-.23-.81-.47-1.2-.72-.75-.46-1.53-.98-2.34-1.54-.18-.07-.33-.16-.45-.27-.12-.11-.26-.21-.4-.32l-.11-.11h37.58c.18.04.34.12.48.27.11.07.2.12.29.16.09.04.19.09.29.16.39.21.79.44,1.2.69.41.25.81.5,1.2.75.39.28.79.54,1.2.77.41.23.81.49,1.2.77.32.18.6.37.85.59l.11.11Z" style="fill: red;"/>
          <path d="m852.19,491.55h-9.21v35.18c-.21-.07-.39-.16-.53-.27-.14-.07-.27-.13-.4-.19-.12-.05-.17-.08-.13-.08-.39-.25-.78-.49-1.19-.72-.4-.23-.8-.49-1.19-.77-.39-.25-.78-.5-1.19-.75-.41-.25-.8-.5-1.19-.75-.18-.11-.33-.21-.48-.32-.32-.18-.48-.3-.48-.37v-30.98h-2.45c-.07-.04-.15-.07-.24-.11-.09-.04-.17-.07-.24-.11-.07-.07-.16-.12-.27-.16s-.19-.09-.27-.16c-.92-.5-1.74-.99-2.45-1.49-.39-.25-.78-.5-1.17-.75-.39-.25-.78-.5-1.17-.75-.18-.11-.33-.21-.45-.32-.12-.11-.26-.2-.4-.27l-.11-.11h18.42c.21.07.37.14.48.21.07.07.16.12.27.16s.19.09.27.16c.39.25.79.49,1.2.72.41.23.81.49,1.2.77.39.25.79.49,1.2.72.41.23.81.49,1.2.77.14.11.28.21.43.29.14.09.28.19.43.29l.11.11Z" style="fill: red;"/>
          <path d="m855.22,494.1v9.05c0,1.06.11,2.13.32,3.19s.57,2.06,1.06,2.98c1.1.14,2.22.12,3.35-.05,1.14-.18,2.18-.57,3.14-1.17,1.03-.67,1.85-1.54,2.48-2.58.62-1.05,1.06-2.17,1.3-3.38.21.11.39.2.53.27.14.07.27.13.37.19.11.05.14.08.11.08.43.25.83.49,1.22.72.39.23.78.49,1.17.77.43.25.83.5,1.22.75.39.25.78.5,1.17.75.18.11.34.21.48.32.32.18.48.3.48.37-.25,1.17-.66,2.27-1.22,3.3-.57,1.03-1.37,1.88-2.4,2.56-1.03.67-2.16,1.11-3.41,1.3-1.24.2-2.47.21-3.67.03-1.24-.18-2.34-.51-3.3-1.01-.5-.25-.98-.51-1.44-.8-.46-.28-.94-.57-1.44-.85-.71-.43-1.4-.85-2.08-1.28-.67-.43-1.37-.89-2.08-1.38-.25-.18-.49-.36-.72-.56-.23-.19-.45-.4-.67-.61-.64-.64-1.16-1.37-1.57-2.18-.41-.82-.7-1.65-.88-2.5-.14-.6-.23-1.18-.27-1.73-.04-.55-.05-1.13-.05-1.73v-7.35h-.48c-.11-.04-.27-.12-.48-.27-.18-.11-.35-.2-.53-.27-.43-.25-.84-.5-1.25-.75-.41-.25-.81-.5-1.2-.75-.75-.46-1.53-.98-2.34-1.54-.18-.07-.33-.16-.45-.27-.12-.11-.26-.21-.4-.32-.03,0-.05,0-.05-.03,0-.02-.02-.03-.05-.03h34.17c.11,0,.27.07.48.21.07.07.16.12.27.16s.19.09.27.16l2.4,1.44c.39.28.79.54,1.2.77.41.23.81.49,1.2.77.18.07.33.16.45.27.12.11.26.21.4.32l.11.11h-26.93v2.55Z" style="fill: red;"/>
          <path d="m882.85,491.55h-9.21v35.18c-.21-.07-.39-.16-.53-.27-.14-.07-.27-.13-.4-.19-.12-.05-.17-.08-.13-.08-.39-.25-.78-.49-1.19-.72-.4-.23-.8-.49-1.19-.77-.39-.25-.78-.5-1.19-.75-.41-.25-.8-.5-1.19-.75-.18-.11-.33-.21-.48-.32-.32-.18-.48-.3-.48-.37v-30.98h-2.45c-.07-.04-.15-.07-.24-.11-.09-.04-.17-.07-.24-.11-.07-.07-.16-.12-.27-.16s-.19-.09-.27-.16c-.92-.5-1.74-.99-2.45-1.49-.39-.25-.78-.5-1.17-.75-.39-.25-.78-.5-1.17-.75-.18-.11-.33-.21-.45-.32-.12-.11-.26-.2-.4-.27l-.11-.11h18.42c.21.07.37.14.48.21.07.07.16.12.27.16s.19.09.27.16c.39.25.79.49,1.2.72.41.23.81.49,1.2.77.39.25.79.49,1.2.72.41.23.81.49,1.2.77.14.11.28.21.43.29.14.09.28.19.43.29l.11.11Z" style="fill: red;"/>
          <path d="m881.41,534.03c.07.85-.07,1.68-.43,2.5-.35.82-.83,1.53-1.44,2.13-.6.6-1.28,1.08-2.02,1.44-.75.35-1.52.6-2.34.75-2.06.35-4.11.23-6.15-.37-2.04-.6-3.97-1.37-5.78-2.29-.43-.25-.85-.49-1.28-.72-.43-.23-.83-.49-1.22-.77-.89-.53-1.76-1.06-2.63-1.6-.87-.53-1.73-1.08-2.58-1.65-.57-.39-1.13-.79-1.68-1.2-.55-.41-1.09-.84-1.62-1.3-1.6-1.38-2.93-2.95-3.99-4.68.21.07.39.14.53.21.21.14.39.25.53.32.39.25.79.49,1.2.72.41.23.81.49,1.2.77.39.25.79.49,1.2.72.41.23.81.49,1.2.77.14.11.28.2.4.29.12.09.28.19.45.29l.11.11c.39.71.82,1.37,1.3,1.97.48.6,1,1.17,1.57,1.7.18.18.36.35.53.5.18.16.35.31.53.45.25.14.5.26.75.35.25.09.5.19.75.29.18.07.35.12.51.16s.33.07.51.11c1.17.39,2.41.65,3.73.77,1.31.12,2.59.04,3.83-.24-.03-.04-.07-.06-.11-.08-.03-.02-.07-.04-.11-.08-.11-.07-.2-.12-.29-.16-.09-.04-.19-.09-.29-.16l-2.4-1.44c-.39-.28-.78-.54-1.17-.77-.39-.23-.78-.49-1.17-.77-.18-.07-.33-.16-.45-.27-.12-.11-.26-.21-.4-.32-.07,0-.11-.04-.11-.11-.28-.78-.4-1.6-.35-2.45.05-.85.28-1.65.67-2.39.67-1.35,1.72-2.29,3.14-2.82.57-.25,1.15-.39,1.76-.43.6-.04,1.21,0,1.81.11.6.07,1.17.23,1.7.48.25.11.5.23.75.37.25.14.5.28.75.43,1.74,1.03,3.44,2.09,5.11,3.19.53.35,1.04.73,1.52,1.12.48.39.9.89,1.25,1.49.46.85.71,1.7.75,2.56Zm-6.81-3.09c.11-.89.04-1.69-.21-2.4-.6.07-1.19.22-1.76.45-.57.23-1.1.56-1.6.98-.92.82-1.54,1.81-1.86,2.98-.32,1.17-.28,2.34.11,3.51,1.03-.28,1.92-.73,2.66-1.33.67-.5,1.26-1.12,1.76-1.86.5-.75.8-1.53.91-2.34Z" style="fill: red;"/>
          <path d="m901.69,491.6v9.21c0,.67-.11,1.35-.32,2.02-.39,1.35-1.12,2.48-2.19,3.41-1.07.92-2.33,1.37-3.78,1.33-.88,0-1.7-.16-2.45-.48-.28-.07-.53-.15-.75-.24s-.44-.2-.69-.35c-.75-.39-1.49-.8-2.24-1.22-.75-.43-1.47-.87-2.18-1.33.82,1.31,1.65,2.6,2.5,3.86.85,1.26,1.74,2.51,2.66,3.75,1.88,2.59,3.81,5.11,5.78,7.56,1.97,2.45,4.06,4.83,6.25,7.13-.07-.04-.15-.06-.24-.08-.09-.02-.17-.06-.24-.13-.11-.07-.2-.12-.29-.16-.09-.04-.19-.09-.29-.16l-2.39-1.44c-.39-.28-.78-.54-1.19-.77-.41-.23-.8-.49-1.19-.77-.14-.11-.3-.21-.48-.32s-.32-.23-.42-.37c-1.23-1.28-2.42-2.58-3.55-3.91-1.13-1.33-2.27-2.67-3.4-4.02-1.63-2.06-3.22-4.14-4.76-6.25-1.54-2.11-3.03-4.28-4.44-6.52-.6-.89-1.18-1.76-1.73-2.63-.55-.87-1.07-1.76-1.57-2.69.07.04.16.06.27.08.11.02.2.06.27.13.21.14.39.25.53.32.39.25.79.49,1.2.72.41.23.81.49,1.2.77.39.25.79.49,1.2.72.41.23.81.49,1.2.77.11.07.27.17.48.29.21.12.35.26.43.4.78,1.06,1.63,2.08,2.56,3.03.25.04.49.06.72.08.23.02.49.03.77.03,1.42-.07,2.65-.59,3.7-1.54,1.05-.96,1.75-2.11,2.1-3.46.11-.39.17-.79.19-1.2.02-.41.03-.81.03-1.2v-4.36h-16.08c-.11-.04-.27-.12-.48-.27-.14-.07-.32-.18-.53-.32-.43-.21-.84-.44-1.25-.69-.41-.25-.81-.5-1.2-.75-.75-.46-1.53-.98-2.34-1.54-.18-.07-.33-.16-.45-.27-.12-.11-.26-.21-.4-.32l-.11-.11h30.82c.14.04.32.12.53.27s.39.25.53.32l2.4,1.44c.39.25.79.5,1.2.75.41.25.81.52,1.2.8.32.18.6.37.85.59l.11.11h-8.04Z" style="fill: red;"/>
          <path d="m918.57,508.55c-.11-.02-.2-.06-.27-.13-.21-.14-.39-.25-.53-.32l-2.4-1.44c-.39-.28-.79-.54-1.2-.77-.41-.23-.81-.49-1.2-.77-.14-.07-.28-.16-.4-.27-.12-.11-.28-.21-.45-.32l-.11-.11h11.23c.07.04.16.07.27.11s.19.07.27.11c.07.07.15.12.24.16.09.04.19.09.29.16.39.25.79.49,1.2.72.41.23.81.49,1.2.77.39.25.79.5,1.2.75.41.25.81.5,1.2.75.14.11.27.21.4.32.12.11.27.2.45.27,0,.07.03.11.11.11h-11.23c-.07-.04-.16-.06-.27-.08Z" style="fill: red;"/>
          <path d="m959.77,495.11v.37c1.03-.28,2.07-.38,3.11-.29,1.05.09,2.05.36,3.01.83.18.07.36.15.56.24.19.09.38.19.56.29.71.39,1.42.81,2.13,1.25.71.44,1.42.9,2.13,1.36.6.39,1.21.76,1.81,1.12.6.36,1.17.78,1.7,1.28.96.85,1.69,1.78,2.18,2.77.57,1.1.9,2.26,1.01,3.49s-.04,2.4-.43,3.54c-.39,1.14-.97,2.16-1.73,3.06-.76.9-1.66,1.62-2.69,2.16-1.24.64-2.56.98-3.94,1.01-1.38.04-2.71-.21-3.99-.75-.28-.11-.56-.24-.83-.4s-.52-.33-.77-.51c-.46-.28-.9-.55-1.33-.8s-.85-.51-1.28-.8c-.21-.14-.42-.27-.61-.4-.2-.12-.4-.26-.61-.4v13.36c-.21-.07-.39-.16-.53-.27-.28-.18-.44-.27-.48-.27-.43-.25-.84-.5-1.25-.75-.41-.25-.81-.5-1.2-.75-.39-.25-.78-.5-1.17-.75-.39-.25-.78-.5-1.17-.75-.04-.04-.2-.14-.51-.32-.3-.18-.45-.3-.45-.37v-5.38c-1.03.29-2.07.38-3.11.29-1.05-.09-2.05-.36-3.01-.83-.18-.07-.36-.15-.56-.24-.2-.09-.38-.19-.56-.29-.75-.39-1.47-.81-2.18-1.25-.71-.44-1.42-.9-2.13-1.36-.6-.39-1.2-.77-1.78-1.14-.59-.37-1.14-.79-1.68-1.25-.92-.82-1.67-1.74-2.24-2.77-.53-1.1-.85-2.26-.96-3.49s.04-2.4.43-3.54c.39-1.13.97-2.16,1.73-3.06.76-.9,1.66-1.62,2.69-2.16,1.24-.64,2.56-.98,3.94-1.01,1.38-.04,2.71.21,3.99.75.28.11.55.24.8.4.25.16.51.33.8.51.43.28.86.55,1.3.8.44.25.88.52,1.3.8.21.14.42.28.61.4.19.12.4.26.61.4v-7.72h-18.31c-.21-.07-.37-.14-.48-.21-.07-.07-.16-.12-.27-.16s-.19-.09-.27-.16c-.92-.5-1.74-.99-2.45-1.49-.39-.25-.78-.49-1.17-.72-.39-.23-.78-.49-1.17-.77-.18-.11-.33-.2-.45-.29-.12-.09-.26-.19-.4-.29l-.11-.11h48.49c.07.04.15.07.24.11.09.04.17.07.24.11.07.07.16.12.27.16s.19.09.27.16c.39.25.79.49,1.2.72.41.23.81.49,1.2.77.39.25.79.5,1.2.75.41.25.81.5,1.2.75.18.11.33.21.45.32.12.11.26.2.4.27l.11.11h-23.42v3.57Zm-9.42,15.6c.85-.85,1.51-1.84,1.97-2.96.46-1.12.69-2.28.69-3.49v-4.58c-1.6-.39-3.19-.37-4.79.05-1.6.43-2.96,1.24-4.1,2.45-.82.85-1.46,1.84-1.92,2.96-.46,1.12-.67,2.3-.64,3.54.07,1.67.53,3.21,1.38,4.63.18.04.35.06.51.08.16.02.33.03.51.03,1.21-.03,2.37-.28,3.49-.75,1.12-.46,2.08-1.12,2.9-1.97Zm12.08-8.62c-.85.85-1.51,1.84-1.97,2.96-.46,1.12-.69,2.28-.69,3.49v4.58c1.6.39,3.19.37,4.79-.05,1.6-.43,2.96-1.24,4.1-2.45.82-.89,1.45-1.88,1.92-2.98.46-1.1.67-2.27.64-3.51-.07-1.67-.53-3.23-1.38-4.68-.18,0-.35,0-.51-.03-.16-.02-.33,0-.51.03-1.21,0-2.37.23-3.49.69-1.12.46-2.08,1.12-2.9,1.97Z" style="fill: red;"/>
          <path d="m997.29,491.55h-9.21v35.18c-.21-.07-.39-.16-.53-.27-.14-.07-.27-.13-.4-.19-.12-.05-.17-.08-.13-.08-.39-.25-.78-.49-1.19-.72-.4-.23-.8-.49-1.19-.77-.39-.25-.78-.5-1.19-.75-.41-.25-.8-.5-1.19-.75-.18-.11-.33-.21-.48-.32-.32-.18-.48-.3-.48-.37v-30.98h-2.45c-.07-.04-.15-.07-.24-.11-.09-.04-.17-.07-.24-.11-.07-.07-.16-.12-.27-.16s-.19-.09-.27-.16c-.92-.5-1.74-.99-2.45-1.49-.39-.25-.78-.5-1.17-.75-.39-.25-.78-.5-1.17-.75-.18-.11-.33-.21-.45-.32-.12-.11-.26-.2-.4-.27l-.11-.11h18.42c.21.07.37.14.48.21.07.07.16.12.27.16s.19.09.27.16c.39.25.79.49,1.2.72.41.23.81.49,1.2.77.39.25.79.49,1.2.72.41.23.81.49,1.2.77.14.11.28.21.43.29.14.09.28.19.43.29l.11.11Z" style="fill: red;"/>
          <path d="m977.17,484.42l.11.11-.11-.11-1.92-1.76c-.18-.18-.35-.35-.53-.5-.18-.16-.35-.33-.53-.51-1.1-1.03-2.18-2.04-3.25-3.03-1.06-.99-2.15-1.99-3.25-2.98l-.16-.16c-.18-.14-.33-.27-.45-.4-.12-.12-.27-.26-.45-.4-.43-.39-.86-.8-1.3-1.22-.44-.43-.88-.83-1.3-1.22-.25-.21-.5-.43-.75-.67-.25-.23-.5-.45-.75-.67-.18-.18-.35-.35-.53-.53-.18-.18-.35-.37-.53-.58-.25-.25-.49-.54-.72-.88-.23-.34-.42-.69-.56-1.06-.14-.37-.24-.75-.29-1.12-.05-.37,0-.75.13-1.14l.05-.11c.18-.43.45-.76.83-1.01.37-.25.79-.43,1.25-.56.46-.12.93-.2,1.41-.21s.91-.03,1.3-.03c.21.07.39.14.53.21.21.14.39.25.53.32l2.4,1.44c.39.29.79.54,1.2.77.41.23.81.49,1.2.77.14.11.28.2.4.29.12.09.27.19.45.29l.11.11h-1.17c-.67.07-1.38.22-2.1.45-.73.23-1.23.67-1.52,1.3-.07.11-.11.22-.13.35-.02.12-.04.24-.08.35-.07.82.12,1.6.56,2.34.44.75.95,1.38,1.52,1.92.35.36.7.68,1.04.99.34.3.7.63,1.09.98.57.5,1.13,1.01,1.68,1.54.55.53,1.11,1.05,1.68,1.54,1.24,1.17,2.49,2.33,3.75,3.49,1.26,1.15,2.51,2.32,3.75,3.49.07.04.14.09.21.16.32.29.63.57.93.85.3.28.59.57.88.85l-6.6-4.05Z" style="fill: red;"/>
          <path d="m1020.29,501.4c-.21-.07-.39-.16-.53-.27-.14-.07-.27-.13-.4-.19-.12-.05-.17-.08-.13-.08-.03-.04-.12-.09-.26-.16.07.04.13.07.18.11.05.04.11.07.18.11.14.11.28.21.42.29.14.09.28.19.42.29l.11.11h-7.93c-.67,0-1.34,0-2,.03-.66.02-1.32.08-2,.19-.92.14-1.84.36-2.74.64-.9.28-1.75.71-2.53,1.28-1.53,1.1-2.48,2.59-2.87,4.47-.21,1.14-.23,2.31-.05,3.51.18,1.21.46,2.36.85,3.46.67,1.74,1.58,3.23,2.71,4.47,1.84.53,3.69.73,5.54.58,1.03-.11,2.02-.31,2.98-.61.96-.3,1.89-.72,2.81-1.25,1.94-1.1,3.56-2.64,4.86-4.63.25.11.43.2.56.27.12.07.29.18.51.32l2.4,1.44s.24.17.61.4c.37.23.76.48,1.17.75.41.27.77.5,1.09.72s.48.34.48.37c-.82,1.21-1.79,2.28-2.93,3.22-1.14.94-2.38,1.68-3.72,2.21-1.87.78-3.81,1.14-5.85,1.06s-3.97-.53-5.81-1.38c-.28-.11-.55-.23-.8-.37-.25-.14-.51-.3-.8-.48-1.06-.6-2.12-1.21-3.17-1.84-1.05-.62-2.08-1.29-3.11-2-.53-.39-1.06-.77-1.57-1.14-.52-.37-1.02-.81-1.52-1.3-1.49-1.49-2.57-3.18-3.25-5.06-.39-1.1-.67-2.25-.85-3.46-.18-1.21-.14-2.4.11-3.57.21-.89.57-1.71,1.06-2.48.5-.76,1.12-1.41,1.86-1.94.78-.53,1.61-.95,2.5-1.25.89-.3,1.79-.52,2.71-.67.67-.07,1.34-.11,2-.13.66-.02,1.32-.03,2-.03h7.93c.21.07.39.14.53.21.21.14.39.25.53.32.04.04.12.09.26.16-.07-.03-.13-.07-.19-.11-.05-.03-.11-.07-.18-.11-.18-.11-.33-.21-.48-.32-.32-.18-.48-.3-.48-.37v-5.64h-20.97c-.21-.07-.37-.14-.48-.21-.07-.07-.16-.12-.27-.16s-.19-.09-.27-.16c-.92-.5-1.74-.99-2.45-1.49-.39-.25-.78-.49-1.17-.72-.39-.23-.78-.49-1.17-.77-.18-.11-.33-.2-.45-.29-.12-.09-.26-.19-.4-.29l-.11-.11h37.74c.07.04.15.07.24.11.09.04.17.07.24.11.07.07.16.12.27.16s.19.09.27.16c.39.25.79.49,1.2.72.41.23.82.49,1.25.77.39.25.78.5,1.17.75.39.25.78.5,1.17.75.18.11.33.21.45.32.12.11.26.2.4.27l.11.11h-10.01v9.85Z" style="fill: red;"/>
          <path d="m1043.98,491.55h-9.21v35.18c-.21-.07-.39-.16-.53-.27-.14-.07-.27-.13-.4-.19-.12-.05-.17-.08-.13-.08-.39-.25-.78-.49-1.19-.72-.4-.23-.8-.49-1.19-.77-.39-.25-.78-.5-1.19-.75-.41-.25-.8-.5-1.19-.75-.18-.11-.33-.21-.48-.32-.32-.18-.48-.3-.48-.37v-30.98h-2.45c-.07-.04-.15-.07-.24-.11-.09-.04-.17-.07-.24-.11-.07-.07-.16-.12-.27-.16s-.19-.09-.27-.16c-.92-.5-1.74-.99-2.45-1.49-.39-.25-.78-.5-1.17-.75-.39-.25-.78-.5-1.17-.75-.18-.11-.33-.21-.45-.32-.12-.11-.26-.2-.4-.27l-.11-.11h18.42c.21.07.37.14.48.21.07.07.16.12.27.16s.19.09.27.16c.39.25.79.49,1.2.72.41.23.81.49,1.2.77.39.25.79.49,1.2.72.41.23.81.49,1.2.77.14.11.28.21.43.29.14.09.28.19.43.29l.11.11Z" style="fill: red;"/>
        </g>
        <rect x="72.38" y="900.83" width="113.05" height="115.66" style="fill: #2e3192;"/>
        <rect x="947.62" y="900.83" width="115.66" height="115.66" style="fill: #2e3192;"/>
        <path d="m347.78,854.82h-169.74c-44.73,0-84.08-36.59-96.53-89.76h0s248.28,0,248.28,0l18,89.76Z" style="fill: #231f20;"/>
        <g>
          <circle cx="171.17" cy="808.31" r="40.09" style="fill: url(#uuid-ddd67acc-97e9-4861-89c1-047c5c8e5180);"/>
          <circle cx="171.17" cy="808.31" r="28.06" style="fill: url(#uuid-b86c148a-79ab-4818-9ad4-05842d62eac2); mix-blend-mode: screen;"/>
          <circle cx="171.17" cy="808.31" r="16.59" style="fill: url(#uuid-d1b86762-3b91-4350-9ac9-23e5c5e71d5c); mix-blend-mode: screen;"/>
        </g>
        <g>
          <circle cx="261.65" cy="808.31" r="32.21" style="fill: url(#uuid-52be7eaa-c9ae-4d91-8f9c-288468d4beea);"/>
          <circle cx="261.65" cy="808.31" r="22.54" style="fill: url(#uuid-f2070267-04c4-4c24-9776-9f06b58b895f); mix-blend-mode: screen;"/>
          <circle cx="261.65" cy="808.31" r="13.33" style="fill: url(#uuid-9f76f0d0-cf6c-4c03-8791-14923381ea36); mix-blend-mode: screen;"/>
        </g>
        <path d="m789.31,854.82h169.74c44.73,0,84.08-36.59,96.53-89.76h0s-248.28,0-248.28,0l-18,89.76Z" style="fill: #231f20;"/>
        <g>
          <circle cx="965.92" cy="808.31" r="40.09" style="fill: url(#uuid-276fde2f-93b1-49ba-a388-202bcbff3f4c);"/>
          <circle cx="965.92" cy="808.31" r="28.06" style="fill: url(#uuid-b2000516-0e8d-42b7-92a8-d05f825ae09a); mix-blend-mode: screen;"/>
          <circle cx="965.92" cy="808.31" r="16.59" style="fill: url(#uuid-6edcdba3-fe8a-4271-bdff-bf1224d99fe5); mix-blend-mode: screen;"/>
        </g>
        <g>
          <circle cx="875.44" cy="808.31" r="32.21" style="fill: url(#uuid-08c50523-ac5e-4a61-97ca-1c5fb4ddfb1e);"/>
          <circle cx="875.44" cy="808.31" r="22.54" style="fill: url(#uuid-47b0589b-4076-4c8a-9714-b7130a59eeb2); mix-blend-mode: screen;"/>
          <circle cx="875.44" cy="808.31" r="13.33" style="fill: url(#uuid-4c25f43e-ca4d-40bc-9fc2-1652336412e7); mix-blend-mode: screen;"/>
        </g>
        <path d="m197.32,618.63c2.94,0,5.6,1.19,7.53,3.12,1.93,1.93,3.12,4.59,3.12,7.53v9.97h13.18c6.83,0,12.37,5.54,12.37,12.37,0,3.42-1.38,6.51-3.62,8.75-2.24,2.24-5.33,3.62-8.75,3.62h-13.18v9.97c0,2.94-1.19,5.6-3.12,7.53-1.93,1.93-4.59,3.12-7.53,3.12v-14.56h-33.56c-2.3,0-4.27-1.46-5.01-3.51-.21-.57-.32-1.18-.32-1.81,0-.25.02-.49.05-.73.16-1.18.71-2.23,1.51-3.03.96-.96,2.29-1.56,3.77-1.56h38.89v3.1l18.85-10.88-18.85-10.88v3.1h-38.89c-2.69,0-4.92-2-5.27-4.59-.03-.24-.05-.49-.05-.73,0-.43.05-.84.14-1.24.23-.97.73-1.84,1.42-2.53.96-.96,2.29-1.56,3.77-1.56h33.56v-14.56m0-6h-6v14.56h-27.56c-3.03,0-5.87,1.18-8.01,3.32-1.48,1.48-2.52,3.34-3.01,5.38-.2.86-.31,1.74-.31,2.62,0,.52.04,1.05.11,1.57.77,5.55,5.59,9.76,11.22,9.76h42.65l3.08,1.78-3.08,1.78h-42.65c-3.03,0-5.87,1.18-8.01,3.32-1.73,1.73-2.87,4.02-3.21,6.45-.07.5-.11,1.03-.11,1.55,0,1.32.23,2.62.68,3.86,1.61,4.46,5.89,7.46,10.65,7.46h27.56v14.56h6c4.45,0,8.63-1.73,11.77-4.88,3.14-3.15,4.88-7.33,4.88-11.77v-3.97h7.18c4.91,0,9.52-1.91,12.99-5.38,3.47-3.47,5.38-8.08,5.38-12.99,0-10.13-8.24-18.37-18.37-18.37h-7.18v-3.97c0-4.45-1.73-8.63-4.88-11.77-3.15-3.14-7.33-4.88-11.77-4.88h0Z" style="fill: #2e3192;"/>
        <g>
          <path d="m181.95,716.75h-5.41v-2.1c0-.84-.39-1.55-1.16-2.13-.77-.58-1.63-.87-2.57-.87h-5.62c-2.14,0-3.2,1.12-3.2,3.36v1.84h4.04v4.73h-4.04v26.52h-5.93v-26.52h-3.52v-4.73h3.52v-2.99c0-1.85.59-3.47,1.79-4.86,1.19-1.38,2.8-2.07,4.83-2.07h10.66c1.58,0,3.07.75,4.49,2.26,1.42,1.5,2.13,3.24,2.13,5.2v2.36Z" style="fill: #ed1c24;"/>
          <path d="m192.92,721.58h-4.52v26.52h-5.93v-15.39h-4.94v2.42c0,.84-.36,1.58-1.08,2.23-.72.65-1.6.97-2.65.97h-1.52c-1.54,0-2.68-.7-3.41-2.1-.49-.95-.74-1.98-.74-3.1v-.95c0-1.79.63-3.15,1.89-4.1.91-.67,2.24-1,3.99-1h8.45v-5.51h-16.91v-4.73h27.36v4.73Z" style="fill: #ed1c24;"/>
          <path d="m205.42,721.58h-2.99v14.91c0,3.12-1.17,4.67-3.52,4.67h-2.57c-.98,0-1.8-.32-2.47-.95-.67-.63-1-1.4-1-2.31v-5.3c0-1.79.61-2.68,1.84-2.68h1.84v-8.35h-6.09v-4.73h14.97v4.73Z" style="fill: #ed1c24;"/>
          <path d="m216.76,721.58h-3.94v26.57l-5.88-.05v-26.52h-3.73v-4.73h13.55v4.73Z" style="fill: #ed1c24;"/>
          <path d="m241.18,721.58h-4.62v26.52h-5.88v-12.13h-4.73v2.62c0,2.52-1.37,3.78-4.1,3.78-3.08,0-4.62-1.33-4.62-3.99v-4.94c0-1.12.56-1.68,1.68-1.68h1.1v-10.19h-5.46v-4.73h26.62v4.73Zm-10.5,10.19v-10.19h-4.73v10.19h4.73Z" style="fill: #ed1c24;"/>
        </g>
        <g>
          <path d="m919.28,721.58h-4.57v26.57l-5.88-.05v-17.96c0-.67-.47-1-1.42-1-.88,0-1.31.37-1.31,1.1v7.72h-5.88v-7.3c0-1.12-.61-1.68-1.84-1.68-1.12,0-1.68.53-1.68,1.58v12.71c0,1.12.66,1.68,2,1.68h2.52v3.15h-3.99c-1.75,0-3.2-.44-4.36-1.31-1.37-.98-2.05-2.33-2.05-4.04v-12.34c0-.91.28-1.77.84-2.57,1.05-1.54,2.91-2.31,5.57-2.31,2.45,0,4.46,1.05,6.04,3.15.56-1.12,1.12-1.82,1.68-2.1.84-.42,1.47-.63,1.89-.63h2v-4.36h-21.06v-4.73h31.51v4.73Z" style="fill: #ed1c24;"/>
          <path d="m936.92,748.1h-5.88v-3.68c-1.4,1.05-2.8,1.58-4.2,1.58-2.42,0-4.29-.68-5.62-2.05-1.02-1.05-1.52-2.24-1.52-3.57v-7.88c0-.95.59-1.89,1.79-2.84.95-.74,2.26-1.1,3.94-1.1h1.89c1.47,0,2.4-.21,2.78-.63.21-.24.31-1.33.31-3.26v-2.89c0-1.19-.72-1.79-2.15-1.79s-2.1.63-2.1,1.89v4.78h-5.88v-4.73c0-1.75.4-2.97,1.21-3.68,1.08-.95,2.4-1.42,3.94-1.42h5.2c1.82,0,3.22.46,4.2,1.37,1.08,1.02,1.63,2.36,1.63,4.04v4.46c0,1.54-.39,2.61-1.16,3.2-1.16.88-2.35,1.31-3.57,1.31h-2.73c-1.33,0-2.29.4-2.89,1.21-.35.49-.52.95-.52,1.37v7.04c0,1.37.94,2.05,2.84,2.05.56,0,1.14-.2,1.73-.6.59-.4.89-.85.89-1.34v-5.67h5.88v12.81Zm4.73-19.38h-5.2v-2.73h5.2v2.73Z" style="fill: #ed1c24;"/>
          <path d="m963.86,721.58h-4.62v26.52h-5.88v-12.13h-4.73v2.62c0,2.52-1.37,3.78-4.1,3.78-3.08,0-4.62-1.33-4.62-3.99v-4.94c0-1.12.56-1.68,1.68-1.68h1.1v-10.19h-5.46v-4.73h26.62v4.73Zm-10.5,10.19v-10.19h-4.73v10.19h4.73Z" style="fill: #ed1c24;"/>
          <path d="m974.89,721.58h-4.04v26.52h-5.88v-26.52h-3.57v-4.73h3.57v-1.84c0-2.24-1.14-3.36-3.41-3.36h-.1c-.73,0-1.35.28-1.84.84-.49.56-.74,1.28-.74,2.15v2.1h-5.93v-2.36c0-1.92.81-3.68,2.42-5.25,1.51-1.47,3.06-2.21,4.67-2.21h4.04c2.03,0,3.69.72,4.99,2.15,1.19,1.33,1.79,2.92,1.79,4.78v2.99h4.04v4.73Z" style="fill: #ed1c24;"/>
        </g>
        <g>
          <rect x="400.4" y="213.99" width="7.83" height="7.71" rx="3.85" ry="3.85" style="fill: #ef3b39; stroke: #ef3b39; stroke-miterlimit: 10; stroke-width: 3px;"/>
          <path d="m463.27,149.59v-3.79h-11.62v-4.27c0-3.16-.63-6.19-1.89-9.07-1.26-2.89-3.14-5.47-5.62-7.77-2.49-2.29-5.23-3.99-8.22-5.1-3.08-1.34-6.27-1.94-9.58-1.78-2.76,0-5.58.41-8.46,1.24-2.88.83-5.34,1.97-7.39,3.42-2.05,1.46-3.63,3.09-4.73,4.9-1.1,1.81-1.66,3.82-1.66,6.02v1.65l.36,1.65.36,1.06.36.95.24.47.12.35c.55,1.1,1.19,2.01,1.9,2.72l1.78,2.01,9.96.12-2.07-2.95c-.65-.79-1.1-1.57-1.34-2.36l-.73-1.77-.37-1.42v-2.48c0-1.49.39-3.03,1.18-4.6.94-1.57,1.97-2.87,3.07-3.89,1.65-1.26,3.27-2.12,4.84-2.6,1.58-.63,3.43-.94,5.55-.94.71,0,1.48.16,2.3.47.83.32,1.55.67,2.18,1.07,1.5,1.03,2.83,2.47,4.02,4.33,1.18,1.86,2.08,4.05,2.71,6.58.39,1.42.65,2.53.77,3.32.12.79.18,2.21.18,4.27v4.39h-169.25l-8.8-5.25-27.74-17.71-1.3-.95-1.3-.47-1.07-.47-1.3-.47-1.9-.71c-.47-.24-1.19-.43-2.13-.59h-13.87v3.2h3.67c2.05,0,3.71.21,4.97.63,1.26.42,2.33.82,3.2,1.19.87.38,1.54.73,2.01,1.07l25.26,16.85c1.5.94,2.67,1.64,3.5,2.11.83.47,1.76.9,2.79,1.29.29.11.54.2.8.29h-103.44v3.91h19.1c1.74.56,3.32,1.17,4.74,1.84,1.42.67,2.29,1.09,2.61,1.25,2.21,1.35,4.13,2.87,5.75,4.58,1.62,1.7,2.83,3.37,3.62,4.99.79,1.62,1.19,3.39,1.19,5.29,0,2.22-.57,4.32-1.72,6.3-1.15,1.98-2.71,3.8-4.69,5.47-1.98,1.66-4.23,2.91-6.76,3.74-2.53.83-5.26,1.25-8.18,1.25l-8.42-.36c-2.45-.4-4.11-.83-4.98-1.31l.12,2.73c1.03.24,2.08.6,3.14,1.07,1.07.47,2.03,1.07,2.91,1.78l2.73,2.38,2.73,2.97c1.66,2.14,3.28,4,4.86,5.59,1.03.87,2,1.62,2.91,2.26.91.63,1.88,1.27,2.91,1.9l3.08,1.55,3.08,1.07,3.09.71h5.46c1.11,0,2.13-.08,3.08-.24.95-.16,1.98-.36,3.08-.59,2.13-.55,4.25-1.4,6.35-2.55,2.1-1.15,4.01-2.45,5.75-3.91,1.74-1.46,3.36-3.18,4.86-5.16,2.14,1.42,4.58,2.49,7.35,3.2,2.77.71,5.93,1.07,9.49,1.07s6.86-.53,10.14-1.6c3.28-1.07,6.22-2.65,8.83-4.74,2.61-2.09,4.55-4.41,5.81-6.94,1.26-2.53,1.9-5.26,1.9-8.18s-.65-5.63-1.95-8.12c-1.3-2.49-3.29-4.8-5.98-6.94-2.68-2.14-5.52-3.68-8.52-4.63-1.66-.63-3.29-1.07-4.91-1.3-1.62-.24-3.37-.36-5.27-.36-3.63,0-7.02.53-10.18,1.6-3.16,1.07-6.06,2.69-8.7,4.86-2.64,2.18-4.6,4.49-5.86,6.94-1.26,2.45-1.89,5.1-1.89,7.95,0,1.5.16,2.87.47,4.09.31,1.23.78,2.55,1.4,3.97,1.32,2.45,3.19,4.9,5.6,7.35-1.11,1.42-2.41,2.77-3.91,4.03-.87.79-1.52,1.35-1.96,1.66-.44.32-1.23.79-2.37,1.42-1.15.63-1.86,1.01-2.13,1.13-.28.12-1.11.38-2.49.77-1.38.4-2.87.59-4.45.59-1.74,0-3.64-.35-5.69-1.07-2.13-.87-4.19-1.97-6.17-3.31-1.98-1.34-3.88-2.96-5.69-4.85-1.82-1.89-3.52-4.06-5.1-6.51,3.8,0,7.35-.43,10.67-1.3,3.56-1.1,6.64-2.52,9.25-4.26,2.61-1.73,4.6-3.73,5.99-5.98,1.38-2.25,2.08-4.63,2.08-7.16,0-1.81-.52-3.59-1.54-5.32-1.03-1.74-2.45-3.35-4.27-4.85-2.13-1.73-4.35-3.15-6.64-4.26-2.69-1.5-5.5-2.68-8.42-3.55l78.99-.12v48.75c0,.79-.24,1.56-.71,2.31-.47.75-1.05,1.41-1.72,1.96-.67.55-1.4.93-2.19,1.13-.79.2-1.3.3-1.54.3-.63,0-1.11-.04-1.42-.12v2.49h25.14v-2.37l-2.97-.36-2.37-1.3c-.79-.55-1.33-1.17-1.6-1.84-.28-.67-.42-1.44-.42-2.31v-48.63h64.47v15.42l-4.51-1.54-4.27-1.07c-.87-.32-1.7-.47-2.49-.47l-1.78-.47h-4.74c-4.27,0-8.26.53-11.98,1.6-3.72,1.07-7.08,2.63-10.08,4.68-3.01,2.21-5.24,4.57-6.7,7.06-1.46,2.49-2.19,5.16-2.19,8.01,0,4.27.95,8.42,2.85,12.45,1.9,4.03,4.74,7.75,8.54,11.15l8.9-3.32c-1.74-1.66-3.24-3.38-4.51-5.16-1.27-1.78-2.33-3.54-3.2-5.28-.79-1.9-1.38-3.77-1.78-5.63-.4-1.86-.59-3.97-.59-6.34,0-2.06.55-4.05,1.66-5.99,1.11-1.94,2.73-3.62,4.86-5.04,1.98-1.5,4.31-2.65,7-3.44,2.69-.79,5.53-1.19,8.54-1.19,1.98,0,3.72.08,5.22.24,1.5.16,3.26.46,5.28.89s4.01,1.21,5.99,2.33v30.19c-.16,1.03-.4,1.85-.71,2.45-.32.6-.87,1.21-1.66,1.85l-2.37,1.08h-2.85v2.37h25.38v-2.37h-3.2l-2.25-1.31c-.87-.56-1.44-1.17-1.72-1.85-.28-.67-.42-1.45-.42-2.32v-48.96h61.32v10.67h-20.04c-2.61,0-5.04.24-7.29.71-2.25.47-4.21,1.11-5.87,1.9-2.06,1.11-3.5,2.13-4.33,3.08-.83.95-1.25,2.02-1.25,3.2,0,1.35.57,2.63,1.72,3.85,1.15,1.23,2.91,2.31,5.28,3.26s4.9,1.66,7.59,2.13c1.42.24,2.89.4,4.39.47,1.5.08,3.04.12,4.63.12h11.98c2.06,0,3.81.24,5.28.72,1.46.48,2.86,1.23,4.21,2.27,1.34,1.03,2.31,2.09,2.91,3.16.59,1.07.89,2.24.89,3.52,0,1.83-.57,3.54-1.72,5.13-1.15,1.59-2.75,3.02-4.8,4.29-2.06,1.27-4.39,2.23-7,2.86-1.5.4-2.73.66-3.68.78-.95.12-2.61.18-4.98.18-4.43,0-8.54-.58-12.33-1.72-3.8-1.15-7.43-2.97-10.91-5.47-3.48-2.5-6.23-5.17-8.24-8.03-2.02-2.85-3.38-6.15-4.09-9.87l-4.39.12c1.11,4.44,2.85,8.4,5.22,11.89,2.37,3.49,5.5,6.6,9.37,9.33,3.87,2.74,8.06,4.81,12.57,6.24,2.21.71,4.53,1.23,6.94,1.55,2.41.32,4.84.47,7.29.47,2.06,0,4.15-.12,6.29-.36,2.14-.24,4.03-.51,5.69-.83,3.8-.95,7.18-2.29,10.14-4.03,2.97-1.74,5.18-3.66,6.64-5.75,1.46-2.09,2.19-4.33,2.19-6.7,0-1.9-.47-3.56-1.42-4.98-.95-1.74-2.29-3.16-4.03-4.27-1.82-1.34-3.82-2.35-5.99-3.02-2.18-.67-4.41-1.01-6.7-1.01h-14.23l-5.57-.35-4.74-1.28c-1.58-.7-2.69-1.34-3.32-1.92-.63-.58-.95-1.26-.95-2.03.16-.93.47-1.7.95-2.32.79-.77,1.9-1.39,3.32-1.86,1.19-.62,2.73-1.05,4.63-1.28,1.5-.39,3.4-.58,5.69-.58h23.6v-14.23h21.94v48.75c-.16,1.03-.4,1.84-.71,2.43-.32.59-.87,1.19-1.66,1.78-.79.59-1.58.99-2.37,1.19-.79.2-1.3.3-1.54.3-.63,0-1.11-.04-1.42-.12v2.49h25.5v-2.37l-2.96-.36-2.49-1.19c-.87-.55-1.44-1.19-1.72-1.9-.28-.71-.42-1.5-.42-2.37v-48.63h11.62Zm-243.45,21.17c.95-1.94,2.43-3.75,4.45-5.46,2.02-1.7,4.05-2.91,6.11-3.62,2.37-.95,4.74-1.38,7.12-1.3,2.61,0,5.08.42,7.41,1.25,2.33.83,4.47,2.1,6.4,3.79,1.94,1.7,3.38,3.54,4.33,5.52.95,1.98,1.42,4.03,1.42,6.17,0,2.29-.52,4.43-1.54,6.41-1.03,1.98-2.49,3.78-4.39,5.4-1.9,1.62-3.97,2.81-6.23,3.56-2.25.75-4.73,1.13-7.41,1.13-1.27,0-2.59-.12-3.97-.36-1.38-.24-2.55-.51-3.5-.83-2.29-.87-4.35-2.12-6.17-3.74-1.82-1.62-3.18-3.4-4.09-5.34-.91-1.94-1.36-4.01-1.36-6.23s.47-4.41,1.42-6.35Z" style="fill: #ef3b39; stroke: #ef3b39; stroke-miterlimit: 10; stroke-width: 3px;"/>
        </g>
        <g>
          <path d="m734.08,179.7c-1.66-1.38-3.52-2.55-5.57-3.5-1.35-.63-2.57-1.09-3.68-1.36-1.11-.28-2.18-.49-3.2-.65v-.59c2.61-.55,4.58-1.11,5.93-1.66,1.9-.87,3.48-1.74,4.74-2.61,1.42-1.19,2.41-2.33,2.97-3.44.71-1.42,1.07-2.77,1.07-4.03,0-2.29-.61-4.43-1.84-6.41-1.23-1.98-2.99-3.74-5.28-5.28-2.29-1.54-4.79-2.69-7.47-3.44-2.69-.75-5.69-1.13-9.01-1.13-2.21,0-4.29.2-6.23.59-1.94.4-3.82.99-5.63,1.78-3.88,1.74-7.35,3.95-10.44,6.64l2.74,2.73c2.38-2.37,5.16-4.07,8.33-5.1,1.82-.63,3.61-1.07,5.35-1.3,1.75-.24,3.73-.36,5.95-.36,1.67,0,3.31.28,4.94.83,1.63.55,3.13,1.4,4.52,2.55,1.39,1.15,2.38,2.29,2.97,3.44.59,1.15.89,2.39.89,3.74,0,.87-.06,1.6-.18,2.19-.12.59-.38,1.36-.78,2.31-.72,1.42-1.72,2.65-2.99,3.68-.96.79-1.68,1.3-2.16,1.54s-1.38.55-2.69.95c-1.32.4-2.85.59-4.61.59h-6.29v3.56h6.29c1.34,0,2.45.08,3.32.24.87.16,1.82.4,2.85.71,2.13.71,3.83,1.63,5.1,2.74,1.74,1.51,2.96,2.92,3.68,4.23.71,1.31,1.07,2.84,1.07,4.59s-.46,3.38-1.36,4.89c-.91,1.51-2.24,2.86-3.97,4.05-1.11.79-2.08,1.37-2.91,1.73s-2.08.75-3.74,1.19c-1.66.44-3.76.65-6.29.65-1.42,0-2.87-.12-4.33-.36-1.46-.24-2.79-.51-3.97-.83-2.85-.95-5.26-2.21-7.23-3.79-2.29-1.82-3.97-3.68-5.04-5.57-1.07-1.9-1.6-4.11-1.6-6.64l-4.03.12c0,3.08.63,6.01,1.9,8.78,1.34,2.61,3.26,4.98,5.75,7.12,2.49,2.14,5.3,3.74,8.42,4.8,3.12,1.07,6.5,1.6,10.14,1.6,1.9,0,3.83-.12,5.81-.36,1.98-.24,3.72-.51,5.22-.83,3.56-.87,6.64-2.09,9.25-3.68,2.92-1.82,5.06-3.64,6.4-5.46,1.42-2.14,2.14-4.23,2.14-6.29,0-1.82-.46-3.58-1.36-5.28-.91-1.7-2.19-3.24-3.85-4.63Z" style="fill: #ef3b39; stroke: #ef3b39; stroke-miterlimit: 10; stroke-width: 3px;"/>
          <path d="m961.93,145.6h-222.62v3.79h8.9v23.01h-11.86v3.56h11.86v22.46c-.16,1.04-.36,1.8-.59,2.28l-1.66,1.92-1.3.84-1.07.48h-1.19l-1.66-.12v2.37h24.79v-2.25l-2.97-.36-2.25-1.19c-.71-.63-1.21-1.28-1.48-1.96-.28-.67-.42-1.44-.42-2.31v-48.75h16.84v48.75c0,.79-.24,1.56-.71,2.31-.47.75-1.05,1.41-1.72,1.96-.67.55-1.4.93-2.19,1.13-.79.2-1.3.3-1.54.3-.63,0-1.11-.04-1.42-.12v2.49h25.14v-2.37l-2.97-.36-2.37-1.3c-.79-.55-1.33-1.17-1.6-1.84-.28-.67-.42-1.44-.42-2.31v-48.63l22.77.12c4.27.79,7.87,1.82,10.79,3.08,3.56,1.66,6.58,3.58,9.07,5.75,2.49,2.18,4.41,4.51,5.75,7,1.34,2.49,2.02,5.08,2.02,7.77l-.47,4.15c-1.03-1.5-2.33-2.88-3.91-4.15-1.35-1.34-2.81-2.37-4.39-3.08-1.5-.87-3.12-1.52-4.86-1.96-1.74-.43-3.44-.65-5.1-.65-3.01,0-5.69.36-8.06,1.07-1.11.4-2.33.89-3.68,1.48-1.35.59-2.37,1.13-3.08,1.6-2.13,1.42-3.68,3.01-4.63,4.74-.95,1.74-1.42,3.52-1.42,5.34s.51,3.76,1.54,5.57c1.19,1.74,2.83,3.28,4.92,4.63,2.09,1.35,4.45,2.37,7.06,3.08,1.5.4,2.73.65,3.68.77.95.12,2.61.18,4.98.18l5.81-.36,5.22-1.18,4.51-1.89,4.39-2.84c2.77-2.29,4.82-4.65,6.17-7.1,1.34-2.44,2.02-5.09,2.02-7.93,0-3.07-.69-5.97-2.08-8.69-1.38-2.72-3.4-5.24-6.05-7.57-2.65-2.33-5.65-4.24-9.01-5.74-3.36-1.5-7.02-2.52-10.97-3.08l41.27-.12v48.75c0,.79-.24,1.56-.71,2.31-.47.75-1.05,1.41-1.72,1.96-.67.55-1.4.93-2.19,1.13-.79.2-1.3.3-1.54.3-.63,0-1.11-.04-1.42-.12v2.49h25.14v-2.37l-2.97-.36-2.37-1.3c-.79-.55-1.33-1.17-1.6-1.84-.28-.67-.42-1.44-.42-2.31v-48.63h17.2v48.75c0,.79-.24,1.56-.71,2.31-.47.75-1.05,1.41-1.72,1.96-.67.55-1.4.93-2.19,1.13-.79.2-1.3.3-1.54.3-.63,0-1.11-.04-1.42-.12v2.49h25.14v-2.37l-2.97-.36-2.37-1.3c-.79-.55-1.33-1.17-1.6-1.84-.28-.67-.42-1.44-.42-2.31v-48.63h20.28c3.8.63,7.08,1.46,9.84,2.49,2.77,1.03,5.2,2.33,7.29,3.91,2.09,1.58,3.7,3.36,4.8,5.34,1.11,1.74,1.66,3.76,1.66,6.05s-.53,4.55-1.6,6.52c-1.07,1.98-2.63,3.76-4.68,5.34-2.06,1.74-4.35,2.97-6.88,3.68-2.37.79-5.1,1.19-8.18,1.19l-7.71-.36c-2.53-.39-4.43-.79-5.69-1.19v2.61l3.44,1.19c1.03.4,2.06.99,3.08,1.78l2.97,2.37,2.49,2.73c1.74,2.29,3.44,4.19,5.1,5.69.95.95,1.92,1.74,2.91,2.37.99.63,2.03,1.23,3.14,1.78,2.13,1.19,4.17,2,6.11,2.43,1.94.44,3.3.69,4.09.77.79.08,1.98.12,3.56.12l2.61-.36h3.56l1.54-.25,1.54-.49,3.56-1.71c1.34-.98,2.29-1.8,2.85-2.45l-1.54-2.57-2.85,1.84-2.49,1.1-2.25.61h-2.49c-2.29,0-5.34-1.3-9.13-3.91-1.98-1.42-4.17-3.16-6.58-5.21-2.41-2.05-4.88-4.3-7.41-6.75l5.81-.24,5.34-1.07,4.74-1.54,4.39-2.25c2.92-1.89,5.08-3.91,6.46-6.04,1.38-2.13,2.08-4.34,2.08-6.63l-.47-3.2c-.24-1.1-.59-2.05-1.07-2.84l-1.78-2.6-2.61-2.84c-1.98-1.74-4.27-3.2-6.88-4.38-2.45-1.34-5.26-2.36-8.42-3.08h30.13v-3.79Zm-135.33,40.44c-.63,1.5-1.45,2.79-2.48,3.85s-2.08,1.84-3.18,2.31c-1.18.4-2.44.67-3.77.83-1.34,0-2.69-.3-4.07-.89s-2.59-1.44-3.65-2.55c-1.06-1.11-1.83-2.35-2.3-3.74-.47-1.38-.71-2.79-.71-4.21v-2.13l.71-2.13,1.07-2.02,1.3-1.78c1.26-1.26,2.35-2.09,3.26-2.49.91-.39,1.6-.65,2.08-.77.47-.12,1.23-.18,2.25-.18,1.34,0,2.65.3,3.91.89,1.26.59,2.39,1.48,3.38,2.67.99,1.19,1.72,2.43,2.19,3.74.47,1.3.71,2.71.71,4.21s-.24,2.97-.71,4.39Z" style="fill: #ef3b39; stroke: #ef3b39; stroke-miterlimit: 10; stroke-width: 3px;"/>
        </g>
      </g>
    </g>
  </g>
</svg>