<?xml version="1.0" encoding="UTF-8"?>
<svg id="uuid-4098f818-3e4e-4a84-a1c4-34139f9e9da8" data-name="Layer 2" xmlns="http://www.w3.org/2000/svg" viewBox="0 0 733.66 644.67">
  <g id="uuid-54c7ed7a-b292-4c6e-85df-d5ff8fce7d4a" data-name="Layer 1">
    <path d="m733.66,322.33c0,33.38-13.53,63.6-35.41,85.48-21.87,21.87-52.09,35.4-85.47,35.4h-128.75v97.4c0,28.74-11.65,54.75-30.48,73.58-18.83,18.83-44.84,30.48-73.58,30.48v-142.25H52.03c-22.52,0-41.7-14.31-48.93-34.33-2.01-5.53-3.1-11.49-3.1-17.7,0-2.44.17-4.83.5-7.18,1.58-11.5,6.92-21.8,14.74-29.61,9.41-9.42,22.42-15.24,36.79-15.24h379.97v30.31l184.18-106.34-184.18-106.33v30.31H52.03c-26.3,0-48.04-19.52-51.53-44.85-.33-2.35-.5-4.74-.5-7.18,0-4.16.49-8.21,1.41-12.09,2.26-9.52,7.14-18.02,13.83-24.7,9.41-9.42,22.42-15.24,36.79-15.24h327.94V0c28.74,0,54.75,11.65,73.58,30.47,18.83,18.83,30.48,44.84,30.48,73.58v97.41h128.75c66.76,0,120.88,54.11,120.88,120.87Z" style="fill: #fff;"/>
  </g>
</svg>